<svg width="21" height="21" viewBox="0 0 21 21" fill="none" xmlns="http://www.w3.org/2000/svg">
<path d="M13.476 15.7938C15.4169 15.564 17.3238 15.1059 19.1573 14.4292C17.6045 12.7092 16.7466 10.4734 16.75 8.15625V7.375C16.75 5.7174 16.0915 4.12769 14.9194 2.95558C13.7473 1.78348 12.1576 1.125 10.5 1.125C8.84238 1.125 7.25267 1.78348 6.08057 2.95558C4.90846 4.12769 4.24998 5.7174 4.24998 7.375V8.15625C4.25313 10.4736 3.39476 12.7093 1.84165 14.4292C3.64686 15.0958 5.54998 15.5594 7.52394 15.7938M13.476 15.7938C11.4989 16.0283 9.50104 16.0283 7.52394 15.7938M13.476 15.7938C13.6261 16.2624 13.6635 16.7598 13.585 17.2455C13.5065 17.7313 13.3144 18.1917 13.0243 18.5891C12.7343 18.9866 12.3545 19.31 11.9158 19.5329C11.4771 19.7559 10.992 19.8721 10.5 19.8721C10.0079 19.8721 9.52282 19.7559 9.08416 19.5329C8.6455 19.31 8.26568 18.9866 7.97563 18.5891C7.68558 18.1917 7.49349 17.7313 7.415 17.2455C7.33651 16.7598 7.37383 16.2624 7.52394 15.7938M1.25415 5.8125C1.54787 4.06768 2.33102 2.44213 3.51248 1.125M17.4875 1.125C18.6689 2.44213 19.4521 4.06768 19.7458 5.8125" stroke="#999999" stroke-width="1.5" stroke-linecap="round" stroke-linejoin="round"/>
</svg>
