<svg width="28" height="28" viewBox="0 0 28 28" fill="none" xmlns="http://www.w3.org/2000/svg">
<path d="M13.9998 28C6.28026 28 -6.10352e-05 21.7197 -6.10352e-05 13.9999C-6.10352e-05 6.28032 6.28026 0 13.9998 0C21.7194 0 27.9997 6.28032 27.9997 13.9999C27.9997 21.7197 21.7194 28 13.9998 28ZM13.9998 1.3808C7.04177 1.3808 1.38073 7.04183 1.38073 13.9999C1.38073 20.9582 7.04177 26.6192 13.9998 26.6192C20.9579 26.6192 26.6189 20.9582 26.6189 13.9999C26.6189 7.04183 20.9581 1.3808 13.9998 1.3808Z" fill="#FF9871"/>
<path d="M15.7461 17.5371L15.738 17.5452L15.7302 17.5371L14 19.2672L12.2701 17.5371L12.2618 17.5452L12.254 17.5371L9.54858 20.2425L10.5253 21.2188L12.2621 19.4817L13.9991 21.2188L14 21.2178L14.0012 21.2188L15.7382 19.4817L17.4753 21.2188L18.4515 20.2423L15.7461 17.5371Z" fill="#FF9871"/>
<path d="M5.01195 16.7099L4.34296 15.5022L7.05507 14.0001L4.34296 12.498L5.01195 11.29L9.90503 14.0001L5.01195 16.7099Z" fill="#FF9871"/>
<path d="M22.9881 16.7099L18.0948 14.0001L22.9881 11.29L23.6569 12.498L20.945 14.0001L23.6569 15.5022L22.9881 16.7099Z" fill="#FF9871"/>
</svg>
