<svg width="14" height="14" viewBox="0 0 14 14" fill="none" xmlns="http://www.w3.org/2000/svg">
<path fill-rule="evenodd" clip-rule="evenodd" d="M6.42251 13.359C6.10701 13.359 5.83785 13.1248 5.78647 12.8055C5.73915 12.5472 5.55783 12.3361 5.31392 12.2555C5.11518 12.1855 4.92085 12.103 4.73208 12.0083C4.50744 11.8905 4.23796 11.9081 4.02973 12.0542C3.77774 12.2401 3.43157 12.2113 3.21205 11.9863L2.35822 11.1106C2.12843 10.8748 2.09857 10.5033 2.28764 10.2322C2.43345 10.0137 2.45445 9.73199 2.34273 9.49329C2.26911 9.3275 2.20417 9.15774 2.1482 8.9848C2.06804 8.71229 1.84677 8.50819 1.5741 8.45513C1.2453 8.40128 1.00256 8.11164 1.00001 7.77009V6.67455C0.99826 6.28092 1.27547 5.94422 1.65415 5.88004C1.94143 5.82399 2.18131 5.62218 2.29108 5.34419C2.32379 5.26591 2.35822 5.18823 2.39437 5.11114C2.54036 4.82285 2.5202 4.47563 2.34186 4.20716C2.11884 3.88925 2.15309 3.45246 2.42277 3.17519L3.05024 2.53163C3.35971 2.21411 3.84778 2.17302 4.2036 2.43453L4.22339 2.44865C4.48908 2.63206 4.82717 2.66528 5.12198 2.53693C5.43737 2.4205 5.66985 2.14254 5.73394 1.8051L5.74259 1.77509C5.81339 1.32837 6.18955 1.00019 6.63085 1H7.38828C7.84142 0.999788 8.22817 1.33596 8.30232 1.79451L8.31609 1.8563C8.37692 2.17955 8.59735 2.44708 8.89794 2.56253C9.18767 2.69007 9.52083 2.65676 9.78107 2.47425L9.82407 2.44247C10.1891 2.17264 10.6911 2.21414 11.0093 2.54046L11.5868 3.13369C11.8763 3.43222 11.9127 3.90166 11.6729 4.24336C11.485 4.52896 11.4611 4.89596 11.61 5.20471L11.6471 5.29299C11.7677 5.59446 12.0287 5.81295 12.3408 5.87386C12.7487 5.9421 13.0487 6.30281 13.05 6.72664V7.70918C13.0499 8.08295 12.7863 8.40181 12.4269 8.46308C12.1312 8.52125 11.8904 8.7408 11.7994 9.03512C11.7592 9.1528 11.7145 9.27056 11.6651 9.38824C11.5503 9.64689 11.5758 9.94828 11.7323 10.1827C11.9388 10.4774 11.9067 10.8822 11.6566 11.1388L10.8552 11.9616C10.6261 12.1966 10.2647 12.2268 10.0014 12.0331C9.7816 11.879 9.49691 11.8621 9.2612 11.9889C9.09321 12.0743 8.9208 12.15 8.74477 12.2158C8.49856 12.3029 8.31706 12.519 8.26966 12.7817C8.21943 13.1121 7.9432 13.3565 7.61719 13.359H6.42251Z" stroke="#4D4D4D" stroke-linecap="round" stroke-linejoin="round"/>
<path fill-rule="evenodd" clip-rule="evenodd" d="M9.03309 7.17967C9.03309 8.31714 8.13406 9.23921 7.02502 9.23921C5.91597 9.23921 5.01697 8.31714 5.01697 7.17967C5.01697 6.0422 5.91597 5.12012 7.02502 5.12012C8.13406 5.12012 9.03309 6.0422 9.03309 7.17967Z" stroke="#4D4D4D" stroke-linecap="round" stroke-linejoin="round"/>
</svg>
