<svg width="124" height="113" viewBox="0 0 124 113" fill="none" xmlns="http://www.w3.org/2000/svg">
<path d="M98.0571 4.45979C82.6315 -8.93532 77.7199 11.2645 70.4771 20.2244C62.2015 30.457 54.4343 29.9581 42.4877 29.8878C27.82 29.7983 10.0536 32.2765 6.07888 49.6399C3.45358 61.1036 10.4693 73.9775 20.8618 78.8092C34.6886 85.2398 43.1337 77.4406 54.0058 69.9868C64.9931 62.4562 69.7065 63.4187 82.3373 61.2859C109.198 56.7484 119.184 22.8049 98.0571 4.45979Z" fill="#11401C"/>
<path opacity="0.8" d="M98.0571 4.45979C82.6315 -8.93532 77.7199 11.2645 70.4771 20.2244C62.2015 30.457 54.4343 29.9581 42.4877 29.8878C27.82 29.7983 10.0536 32.2765 6.07888 49.6399C3.45358 61.1036 10.4693 73.9775 20.8618 78.8092C34.6886 85.2398 43.1337 77.4406 54.0058 69.9868C64.9931 62.4562 69.7065 63.4187 82.3373 61.2859C109.198 56.7484 119.184 22.8049 98.0571 4.45979Z" fill="white"/>
<path d="M61.9999 112.123C96.2416 112.123 124 110.502 124 108.503C124 106.504 96.2416 104.883 61.9999 104.883C27.7583 104.883 0 106.504 0 108.503C0 110.502 27.7583 112.123 61.9999 112.123Z" fill="#F5F5F5"/>
<path d="M32.319 49.5309C32.6873 49.693 33.0772 49.8007 33.4765 49.8507C34.2974 49.9507 35.1273 49.7582 35.8204 49.3071C36.9172 48.5972 37.5824 47.3533 37.4768 46.2085C37.4712 46.1526 37.4447 46.1008 37.4027 46.0635C37.3606 46.0261 37.306 46.006 37.2498 46.0071C36.2571 46 35.2753 46.2138 34.3755 46.633C33.4756 47.0522 32.6803 47.6664 32.0472 48.4309C31.7466 47.1519 31.4812 45.7992 31.2893 44.405C31.8214 44.8125 32.4468 45.0807 33.1088 45.1853C33.3828 45.2185 33.6604 45.2066 33.9306 45.1501C35.36 44.8559 36.4887 43.3242 37.5184 41.7094C37.5374 41.6804 37.55 41.6478 37.5555 41.6137C37.561 41.5795 37.5593 41.5446 37.5504 41.5111C37.5418 41.4788 37.5257 41.449 37.5035 41.424C37.4813 41.399 37.4535 41.3796 37.4225 41.3672C34.8164 40.28 32.0536 42.6303 31.171 43.4777C31.0368 42.3035 30.9653 41.1229 30.9567 39.9411C31.5144 40.1185 32.087 40.2448 32.6675 40.3184C34.0713 40.4815 35.2512 40.2385 36.0954 39.5861C37.0963 38.8187 37.56 37.5428 37.4353 35.9024C37.4326 35.871 37.4235 35.8404 37.4084 35.8128C37.3933 35.7851 37.3726 35.7608 37.3477 35.7416C37.3227 35.7223 37.294 35.7085 37.2634 35.7009C37.2328 35.6934 37.2009 35.6923 37.1699 35.6977C34.2024 36.1294 31.9225 38.0289 30.9727 38.9434C30.9727 38.7323 30.9727 38.5213 30.9951 38.3039C30.9987 38.2515 30.984 38.1995 30.9536 38.1568C30.9274 37.7555 30.8123 37.3651 30.6165 37.0139C30.4207 36.6626 30.1492 36.3594 29.8216 36.1262C29.0765 35.6434 28.0341 35.5794 26.7198 35.9312C26.6811 35.9423 26.6452 35.9614 26.6143 35.9873C26.5835 36.0132 26.5584 36.0453 26.5407 36.0815C26.5233 36.1156 26.5143 36.1534 26.5143 36.1918C26.5143 36.2301 26.5233 36.2679 26.5407 36.3021C26.5951 36.3948 27.7431 38.3326 29.7672 38.5725C29.9864 38.5918 30.2068 38.5918 30.4259 38.5725C30.4004 39.1544 30.3908 39.7396 30.4004 40.3248C29.6957 39.7206 28.8676 39.2777 27.9739 39.0269C27.0802 38.7762 26.1426 38.7237 25.2265 38.873C25.1541 38.8847 25.0889 38.9236 25.0442 38.9818C25.0231 39.0097 25.0082 39.0419 25.0004 39.0761C24.9927 39.1102 24.9924 39.1457 24.9995 39.18C25.4024 41.1594 26.3777 42.4928 27.6088 42.7422C27.6631 42.7422 27.7207 42.7614 27.7814 42.771C28.421 42.8446 29.3355 42.6559 30.4483 41.5975C30.5267 42.95 30.6794 44.2972 30.9056 45.633C29.8312 44.9391 27.3657 43.6696 25.1721 44.9039C25.1166 44.9333 25.0738 44.9822 25.0519 45.0412C25.0301 45.1002 25.0308 45.1651 25.0538 45.2237C25.946 47.0271 26.9181 47.9673 28.0309 48.1016H28.0596C28.987 48.2007 29.9783 47.7402 31.1006 46.7074C31.3533 48.012 31.6538 49.2655 31.9736 50.4295C30.9376 49.5629 29.6137 49.5245 27.8838 50.3016C27.8459 50.319 27.8125 50.3447 27.7859 50.3768C27.7594 50.4089 27.7403 50.4466 27.7303 50.487C27.7202 50.5254 27.7206 50.5658 27.7312 50.604C27.7419 50.6422 27.7626 50.6769 27.791 50.7045C27.8646 50.778 29.1213 51.9836 30.669 52.1594C31.2603 52.2337 31.8603 52.1302 32.3925 51.862C33.0268 53.9911 33.8001 56.0762 34.7076 58.1039C34.7258 58.1421 34.7537 58.1749 34.7885 58.199C34.8233 58.2231 34.8637 58.2378 34.9059 58.2414C34.9629 58.2469 35.0203 58.237 35.0722 58.2127C35.138 58.1807 35.1891 58.1249 35.2153 58.0566C35.2414 57.9883 35.2405 57.9126 35.2129 57.8449C34.0183 55.159 33.0503 52.378 32.319 49.5309Z" fill="#11401C"/>
<g opacity="0.6">
<path d="M32.319 49.5309C32.6873 49.693 33.0772 49.8007 33.4765 49.8507C34.2974 49.9507 35.1273 49.7582 35.8204 49.3071C36.9172 48.5972 37.5824 47.3533 37.4768 46.2085C37.4712 46.1526 37.4447 46.1008 37.4027 46.0635C37.3606 46.0261 37.306 46.006 37.2498 46.0071C36.2571 46 35.2753 46.2138 34.3755 46.633C33.4756 47.0522 32.6803 47.6664 32.0472 48.4309C31.7466 47.1519 31.4812 45.7992 31.2893 44.405C31.8214 44.8125 32.4468 45.0807 33.1088 45.1853C33.3828 45.2185 33.6604 45.2066 33.9306 45.1501C35.36 44.8559 36.4887 43.3242 37.5184 41.7094C37.5374 41.6804 37.55 41.6478 37.5555 41.6137C37.561 41.5795 37.5593 41.5446 37.5504 41.5111C37.5418 41.4788 37.5257 41.449 37.5035 41.424C37.4813 41.399 37.4535 41.3796 37.4225 41.3672C34.8164 40.28 32.0536 42.6303 31.171 43.4777C31.0368 42.3035 30.9653 41.1229 30.9567 39.9411C31.5144 40.1185 32.087 40.2448 32.6675 40.3184C34.0713 40.4815 35.2512 40.2385 36.0954 39.5861C37.0963 38.8187 37.56 37.5428 37.4353 35.9024C37.4326 35.871 37.4235 35.8404 37.4084 35.8128C37.3933 35.7851 37.3726 35.7608 37.3477 35.7416C37.3227 35.7223 37.294 35.7085 37.2634 35.7009C37.2328 35.6934 37.2009 35.6923 37.1699 35.6977C34.2024 36.1294 31.9225 38.0289 30.9727 38.9434C30.9727 38.7323 30.9727 38.5213 30.9951 38.3039C30.9987 38.2515 30.984 38.1995 30.9536 38.1568C30.9274 37.7555 30.8123 37.3651 30.6165 37.0139C30.4207 36.6626 30.1492 36.3594 29.8216 36.1262C29.0765 35.6434 28.0341 35.5794 26.7198 35.9312C26.6811 35.9423 26.6452 35.9614 26.6143 35.9873C26.5835 36.0132 26.5584 36.0453 26.5407 36.0815C26.5233 36.1156 26.5143 36.1534 26.5143 36.1918C26.5143 36.2301 26.5233 36.2679 26.5407 36.3021C26.5951 36.3948 27.7431 38.3326 29.7672 38.5725C29.9864 38.5918 30.2068 38.5918 30.4259 38.5725C30.4004 39.1544 30.3908 39.7396 30.4004 40.3248C29.6957 39.7206 28.8676 39.2777 27.9739 39.0269C27.0802 38.7762 26.1426 38.7237 25.2265 38.873C25.1541 38.8847 25.0889 38.9236 25.0442 38.9818C25.0231 39.0097 25.0082 39.0419 25.0004 39.0761C24.9927 39.1102 24.9924 39.1457 24.9995 39.18C25.4024 41.1594 26.3777 42.4928 27.6088 42.7422C27.6631 42.7422 27.7207 42.7614 27.7814 42.771C28.421 42.8446 29.3355 42.6559 30.4483 41.5975C30.5267 42.95 30.6794 44.2972 30.9056 45.633C29.8312 44.9391 27.3657 43.6696 25.1721 44.9039C25.1166 44.9333 25.0738 44.9822 25.0519 45.0412C25.0301 45.1002 25.0308 45.1651 25.0538 45.2237C25.946 47.0271 26.9181 47.9673 28.0309 48.1016H28.0596C28.987 48.2007 29.9783 47.7402 31.1006 46.7074C31.3533 48.012 31.6538 49.2655 31.9736 50.4295C30.9376 49.5629 29.6137 49.5245 27.8838 50.3016C27.8459 50.319 27.8125 50.3447 27.7859 50.3768C27.7594 50.4089 27.7403 50.4466 27.7303 50.487C27.7202 50.5254 27.7206 50.5658 27.7312 50.604C27.7419 50.6422 27.7626 50.6769 27.791 50.7045C27.8646 50.778 29.1213 51.9836 30.669 52.1594C31.2603 52.2337 31.8603 52.1302 32.3925 51.862C33.0268 53.9911 33.8001 56.0762 34.7076 58.1039C34.7258 58.1421 34.7537 58.1749 34.7885 58.199C34.8233 58.2231 34.8637 58.2378 34.9059 58.2414C34.9629 58.2469 35.0203 58.237 35.0722 58.2127C35.138 58.1807 35.1891 58.1249 35.2153 58.0566C35.2414 57.9883 35.2405 57.9126 35.2129 57.8449C34.0183 55.159 33.0503 52.378 32.319 49.5309Z" fill="black"/>
</g>
<path d="M115.673 42.02H38.3531C37.0833 42.02 36.054 43.0494 36.054 44.3192V91.9391C36.054 93.2089 37.0833 94.2382 38.3531 94.2382H115.673C116.943 94.2382 117.972 93.2089 117.972 91.9391V44.3192C117.972 43.0494 116.943 42.02 115.673 42.02Z" fill="#11401C"/>
<path opacity="0.6" d="M115.673 42.02H38.3531C37.0833 42.02 36.054 43.0494 36.054 44.3192V91.9391C36.054 93.2089 37.0833 94.2382 38.3531 94.2382H115.673C116.943 94.2382 117.972 93.2089 117.972 91.9391V44.3192C117.972 43.0494 116.943 42.02 115.673 42.02Z" fill="black"/>
<path d="M87.4919 108.503H68.3634C70.2372 101.436 69.1148 93.8225 64.9994 86.7588H84.128C88.2434 93.8225 89.3658 101.436 87.4919 108.503Z" fill="#11401C"/>
<path d="M86.4941 108.503H67.3624C69.2362 101.436 68.117 93.8225 63.9984 86.7588H83.1302C87.2616 93.8225 88.368 101.436 86.4941 108.503Z" fill="#11401C"/>
<path d="M87.1465 96.9141H67.8069C67.1427 93.3337 65.8535 89.8982 63.9984 86.7646H83.338C85.1904 89.8995 86.4794 93.3345 87.1465 96.9141Z" fill="#11401C"/>
<g opacity="0.4">
<path d="M87.4919 108.503H68.3634C70.2372 101.436 69.1148 93.8225 64.9994 86.7588H84.128C88.2434 93.8225 89.3658 101.436 87.4919 108.503Z" fill="black"/>
<path d="M86.4941 108.503H67.3624C69.2362 101.436 68.117 93.8225 63.9984 86.7588H83.1302C87.2616 93.8225 88.368 101.436 86.4941 108.503Z" fill="black"/>
<path d="M87.1465 96.9146H67.8069C67.1427 93.3342 65.8535 89.8986 63.9984 86.7651H83.338C85.1904 89.8999 86.4794 93.335 87.1465 96.9146Z" fill="black"/>
</g>
<path d="M86.4941 108.503H67.3624C69.2362 101.436 68.117 93.8225 63.9984 86.7588H83.1302C87.2616 93.8225 88.368 101.436 86.4941 108.503Z" fill="#11401C"/>
<path opacity="0.2" d="M86.4941 108.503H67.3624C69.2362 101.436 68.117 93.8225 63.9984 86.7588H83.1302C87.2616 93.8225 88.368 101.436 86.4941 108.503Z" fill="black"/>
<path opacity="0.2" d="M86.9418 96.9141H67.7877C67.1291 93.3374 65.8522 89.9029 64.0144 86.7646H83.1686C85.0064 89.9029 86.2832 93.3374 86.9418 96.9141Z" fill="black"/>
<path d="M114.586 42.02H37.2658C35.996 42.02 34.9667 43.0494 34.9667 44.3192V91.9391C34.9667 93.2089 35.996 94.2382 37.2658 94.2382H114.586C115.856 94.2382 116.885 93.2089 116.885 91.9391V44.3192C116.885 43.0494 115.856 42.02 114.586 42.02Z" fill="#11401C"/>
<path opacity="0.3" d="M114.586 42.02H37.2658C35.996 42.02 34.9667 43.0494 34.9667 44.3192V91.9391C34.9667 93.2089 35.996 94.2382 37.2658 94.2382H114.586C115.856 94.2382 116.885 93.2089 116.885 91.9391V44.3192C116.885 43.0494 115.856 42.02 114.586 42.02Z" fill="black"/>
<path d="M82.9449 106.99H61.1047C60.7035 106.99 60.3188 107.15 60.0352 107.433C59.7515 107.717 59.5922 108.102 59.5922 108.503H84.4574C84.4574 108.102 84.298 107.717 84.0144 107.433C83.7307 107.15 83.346 106.99 82.9449 106.99Z" fill="#11401C"/>
<path opacity="0.3" d="M82.9449 106.99H61.1047C60.7035 106.99 60.3188 107.15 60.0352 107.433C59.7515 107.717 59.5922 108.102 59.5922 108.503H84.4574C84.4574 108.102 84.298 107.717 84.0144 107.433C83.7307 107.15 83.346 106.99 82.9449 106.99Z" fill="black"/>
<path d="M116.885 44.6641H34.9667V86.7552H116.885V44.6641Z" fill="#11401C"/>
<path opacity="0.84" d="M116.856 44.6641H34.9379V86.7552H116.856V44.6641Z" fill="#FAFAFA"/>
<path opacity="0.23" d="M104.98 47.916H49.7911C49.2895 47.916 48.8829 48.3226 48.8829 48.8242V81.108C48.8829 81.6096 49.2895 82.0161 49.7911 82.0161H104.98C105.482 82.0161 105.888 81.6096 105.888 81.108V48.8242C105.888 48.3226 105.482 47.916 104.98 47.916Z" fill="#11401C"/>
<path opacity="0.67" d="M105.648 50.2632V81.1081C105.648 81.3489 105.553 81.5799 105.382 81.7502C105.212 81.9205 104.981 82.0162 104.74 82.0162H49.5513C49.3107 82.0154 49.0802 81.9194 48.9101 81.7493C48.74 81.5792 48.644 81.3487 48.6432 81.1081V50.2632H105.648Z" fill="#FAFAFA"/>
<path opacity="0.41" d="M105.482 51.4717H48.8094V80.8105H105.482V51.4717Z" fill="white"/>
<path opacity="0.19" d="M93.9097 71.7262C92.4203 71.7262 90.9644 71.2845 89.726 70.457C88.4876 69.6296 87.5223 68.4534 86.9524 67.0774C86.3824 65.7014 86.2333 64.1872 86.5239 62.7265C86.8144 61.2657 87.5316 59.9239 88.5848 58.8707C89.638 57.8175 90.9798 57.1003 92.4406 56.8097C93.9014 56.5192 95.4155 56.6683 96.7915 57.2383C98.1676 57.8082 99.3437 58.7734 100.171 60.0118C100.999 61.2502 101.44 62.7062 101.44 64.1956C101.438 66.192 100.644 68.106 99.2318 69.5177C97.8201 70.9294 95.9062 71.7236 93.9097 71.7262ZM93.9097 56.745C92.4361 56.745 90.9956 57.182 89.7704 58.0006C88.5451 58.8193 87.5902 59.983 87.0262 61.3444C86.4623 62.7058 86.3148 64.2039 86.6023 65.6491C86.8897 67.0944 87.5993 68.422 88.6413 69.464C89.6833 70.506 91.0109 71.2156 92.4562 71.503C93.9014 71.7905 95.3995 71.643 96.7609 71.0791C98.1223 70.5151 99.286 69.5602 100.105 68.3349C100.923 67.1097 101.36 65.6692 101.36 64.1956C101.359 62.2201 100.573 60.326 99.1762 58.9291C97.7793 57.5322 95.8852 56.7467 93.9097 56.745Z" fill="#11401C"/>
<path opacity="0.19" d="M81.25 71.7262C79.7606 71.7262 78.3047 71.2845 77.0663 70.457C75.8279 69.6296 74.8627 68.4534 74.2927 67.0774C73.7227 65.7014 73.5736 64.1872 73.8642 62.7265C74.1548 61.2657 74.872 59.9239 75.9251 58.8707C76.9783 57.8175 78.3201 57.1003 79.7809 56.8097C81.2417 56.5192 82.7558 56.6683 84.1319 57.2383C85.5079 57.8082 86.684 58.7734 87.5115 60.0118C88.3389 61.2502 88.7806 62.7062 88.7806 64.1956C88.7772 66.1918 87.9827 68.1052 86.5712 69.5168C85.1597 70.9283 83.2462 71.7228 81.25 71.7262ZM81.25 56.745C79.7765 56.745 78.3359 57.182 77.1107 58.0006C75.8855 58.8193 74.9305 59.983 74.3666 61.3444C73.8027 62.7058 73.6551 64.2039 73.9426 65.6491C74.2301 67.0944 74.9397 68.422 75.9817 69.464C77.0237 70.506 78.3512 71.2156 79.7965 71.503C81.2418 71.7905 82.7398 71.643 84.1013 71.0791C85.4627 70.5151 86.6263 69.5602 87.445 68.3349C88.2637 67.1097 88.7006 65.6692 88.7006 64.1956C88.6981 62.2203 87.9123 60.3267 86.5156 58.93C85.1189 57.5333 83.2253 56.7475 81.25 56.745Z" fill="#11401C"/>
<path opacity="0.19" d="M101.402 75.9344H56.954C56.9487 75.9344 56.9434 75.9333 56.9386 75.9312C56.9337 75.9291 56.9293 75.926 56.9257 75.9221C56.9221 75.9182 56.9193 75.9135 56.9176 75.9085C56.9159 75.9035 56.9152 75.8981 56.9157 75.8928V74.6553C56.9152 74.65 56.9159 74.6447 56.9176 74.6397C56.9193 74.6346 56.9221 74.63 56.9257 74.6261C56.9293 74.6222 56.9337 74.6191 56.9386 74.617C56.9434 74.6148 56.9487 74.6138 56.954 74.6138H101.402C101.407 74.6138 101.412 74.6148 101.417 74.617C101.422 74.6191 101.427 74.6222 101.43 74.6261C101.434 74.63 101.437 74.6346 101.438 74.6397C101.44 74.6447 101.441 74.65 101.44 74.6553V75.8928C101.441 75.8981 101.44 75.9035 101.438 75.9085C101.437 75.9135 101.434 75.9182 101.43 75.9221C101.427 75.926 101.422 75.9291 101.417 75.9312C101.412 75.9333 101.407 75.9344 101.402 75.9344ZM56.9828 75.8545H101.36V74.6937H56.9828V75.8545Z" fill="#11401C"/>
<path opacity="0.19" d="M103.89 78.0954H50.4116C50.4062 78.0954 50.401 78.0943 50.3961 78.0922C50.3912 78.0901 50.3868 78.087 50.3832 78.0831C50.3796 78.0792 50.3769 78.0745 50.3751 78.0695C50.3734 78.0645 50.3727 78.0591 50.3732 78.0538V54.2247C50.3727 54.2194 50.3734 54.214 50.3751 54.209C50.3769 54.204 50.3796 54.1994 50.3832 54.1955C50.3868 54.1915 50.3912 54.1884 50.3961 54.1863C50.401 54.1842 50.4062 54.1831 50.4116 54.1831H103.89C103.895 54.1831 103.9 54.1842 103.905 54.1863C103.91 54.1884 103.914 54.1915 103.918 54.1955C103.922 54.1994 103.924 54.204 103.926 54.209C103.928 54.214 103.928 54.2194 103.928 54.2247V78.0474C103.93 78.0532 103.93 78.0593 103.928 78.0651C103.927 78.0709 103.925 78.0764 103.921 78.081C103.917 78.0857 103.912 78.0894 103.907 78.0919C103.902 78.0944 103.896 78.0956 103.89 78.0954ZM50.4627 78.0155H103.864V54.263H50.4531L50.4627 78.0155Z" fill="#11401C"/>
<path d="M103.177 49.0964C103.176 49.192 103.204 49.2857 103.256 49.3655C103.309 49.4453 103.384 49.5077 103.472 49.5447C103.561 49.5818 103.658 49.5918 103.752 49.5735C103.845 49.5552 103.932 49.5095 104 49.4421C104.068 49.3747 104.114 49.2887 104.133 49.1949C104.152 49.1012 104.142 49.0039 104.106 48.9155C104.069 48.8271 104.007 48.7515 103.928 48.6983C103.848 48.6451 103.755 48.6167 103.659 48.6167C103.596 48.6163 103.533 48.6284 103.475 48.6523C103.416 48.6762 103.363 48.7115 103.318 48.7561C103.273 48.8006 103.238 48.8537 103.213 48.9121C103.189 48.9705 103.177 49.0331 103.177 49.0964Z" fill="white"/>
<path d="M101.948 49.5795C102.215 49.5795 102.431 49.3633 102.431 49.0966C102.431 48.83 102.215 48.6138 101.948 48.6138C101.682 48.6138 101.466 48.83 101.466 49.0966C101.466 49.3633 101.682 49.5795 101.948 49.5795Z" fill="white"/>
<path d="M100.238 49.5795C100.505 49.5795 100.721 49.3633 100.721 49.0966C100.721 48.83 100.505 48.6138 100.238 48.6138C99.9713 48.6138 99.7551 48.83 99.7551 49.0966C99.7551 49.3633 99.9713 49.5795 100.238 49.5795Z" fill="white"/>
<path d="M105.648 50.2026H48.6432V50.3242H105.648V50.2026Z" fill="#11401C"/>
<path opacity="0.47" d="M56.8612 44.6641L49.337 86.7552H56.7845L64.3086 44.6641H56.8612Z" fill="#FAFAFA"/>
<path opacity="0.47" d="M66.125 44.6641L58.604 86.7552H62.3261L69.8503 44.6641H66.125Z" fill="#FAFAFA"/>
<path opacity="0.4" d="M107.746 44.6641L100.222 86.7552H102.086L109.607 44.6641H107.746Z" fill="white"/>
<path opacity="0.4" d="M104.468 44.6641L96.9441 86.7552H98.8083L106.329 44.6641H104.468Z" fill="white"/>
<path d="M88.1474 106.99H84.2366C83.8355 106.99 83.4508 107.15 83.1671 107.433C82.8835 107.717 82.7241 108.102 82.7241 108.503H89.6567C89.6571 108.304 89.6184 108.108 89.5427 107.924C89.4671 107.741 89.356 107.574 89.2158 107.433C89.0756 107.293 88.9091 107.181 88.7257 107.105C88.5424 107.029 88.3459 106.99 88.1474 106.99Z" fill="#11401C"/>
<path opacity="0.4" d="M88.1474 106.99H84.2366C83.8355 106.99 83.4508 107.15 83.1671 107.433C82.8835 107.717 82.7241 108.102 82.7241 108.503H89.6567C89.6571 108.304 89.6184 108.108 89.5427 107.924C89.4671 107.741 89.356 107.574 89.2158 107.433C89.0756 107.293 88.9091 107.181 88.7257 107.105C88.5424 107.029 88.3459 106.99 88.1474 106.99Z" fill="black"/>
<path d="M77.4926 90.5923C77.4926 90.9022 77.4007 91.2051 77.2286 91.4628C77.0564 91.7204 76.8117 91.9213 76.5254 92.0399C76.2391 92.1585 75.924 92.1895 75.6201 92.129C75.3161 92.0686 75.0369 91.9193 74.8178 91.7002C74.5987 91.4811 74.4495 91.2019 74.389 90.8979C74.3285 90.594 74.3596 90.279 74.4782 89.9926C74.5968 89.7063 74.7976 89.4616 75.0553 89.2895C75.3129 89.1173 75.6159 89.0254 75.9258 89.0254C76.3413 89.0254 76.7399 89.1905 77.0337 89.4843C77.3275 89.7782 77.4926 90.1767 77.4926 90.5923Z" fill="#11401C"/>
<path opacity="0.5" d="M77.4926 90.5923C77.4926 90.9022 77.4007 91.2051 77.2286 91.4628C77.0564 91.7204 76.8117 91.9213 76.5254 92.0399C76.2391 92.1585 75.924 92.1895 75.6201 92.129C75.3161 92.0686 75.0369 91.9193 74.8178 91.7002C74.5987 91.4811 74.4495 91.2019 74.389 90.8979C74.3285 90.594 74.3596 90.279 74.4782 89.9926C74.5968 89.7063 74.7976 89.4616 75.0553 89.2895C75.3129 89.1173 75.6159 89.0254 75.9258 89.0254C76.3413 89.0254 76.7399 89.1905 77.0337 89.4843C77.3275 89.7782 77.4926 90.1767 77.4926 90.5923Z" fill="black"/>
<path d="M62.5371 103.099C62.3164 95.4439 62.3356 48.7609 62.7801 44.9269L63.3845 44.0923C63.3845 44.0923 63.1063 44.8342 63.0391 57.9543C62.972 71.0744 62.8824 101.152 62.956 103.099H62.5371Z" fill="#11401C"/>
<path d="M66.1282 74.7066C68.6864 70.4473 71.4875 67.419 73.5149 65.753C75.5422 64.0871 70.2277 74.9048 68.1492 78.9307C66.0707 82.9566 63.5093 87.4078 62.6843 91.1683C62.5244 83.5194 63.5669 78.9659 66.1282 74.7066Z" fill="#11401C"/>
<path d="M62.7355 45.4637C63.2599 40.6224 62.55 36.1488 65.1849 30.4793C67.8198 24.8098 69.8247 20.3586 72.3669 18.2897C72.9777 17.7909 70.8896 27.6462 68.4625 33.1973C66.7518 37.1145 66.2018 39.9125 64.3855 42.5538C63.9602 43.1677 62.7355 45.4637 62.7355 45.4637Z" fill="#11401C"/>
<path d="M62.7225 71.295C63.2534 65.3185 63.733 59.5627 67.1641 51.06C67.9987 48.9879 75.7339 34.5088 77.7517 32.9419C78.7398 32.1713 75.2831 41.7931 71.9063 49.8897C69.3769 55.9653 68.3281 57.7048 65.5109 64.7525C64.4077 67.5441 62.7225 71.295 62.7225 71.295Z" fill="#11401C"/>
<path d="M58.2203 41.8023C55.3424 37.9043 52.5604 35.2694 50.5171 33.8912C48.4737 32.513 54.0345 42.0964 56.7078 46.279C59.3811 50.4616 61.8017 54.091 62.9081 57.7171C62.3773 50.0843 61.0982 45.7034 58.2203 41.8023Z" fill="#11401C"/>
<path d="M62.7227 81.8857C62.1791 77.7287 61.0599 72.8458 59.4611 69.226C57.8622 65.6062 55.4 60.0551 53.443 58.1716C52.973 57.7175 55.4896 68.5161 57.1076 71.3877C58.7256 74.2592 59.9088 76.9676 60.9256 78.5952C61.2646 79.1229 62.7227 81.8857 62.7227 81.8857Z" fill="#11401C"/>
<path opacity="0.5" d="M62.5371 103.099C62.3164 95.4439 62.3356 48.7609 62.7801 44.9269L63.3845 44.0923C63.3845 44.0923 63.1063 44.8342 63.0391 57.9543C62.972 71.0744 62.8824 101.152 62.956 103.099H62.5371Z" fill="white"/>
<path opacity="0.5" d="M66.1282 74.7066C68.6864 70.4473 71.4875 67.419 73.5149 65.753C75.5422 64.0871 70.2277 74.9048 68.1492 78.9307C66.0707 82.9566 63.5093 87.4078 62.6843 91.1683C62.5244 83.5194 63.5669 78.9659 66.1282 74.7066Z" fill="white"/>
<path opacity="0.5" d="M62.7355 45.4637C63.2599 40.6224 62.55 36.1488 65.1849 30.4793C67.8198 24.8098 69.8247 20.3586 72.3669 18.2897C72.9777 17.7909 70.8896 27.6462 68.4625 33.1973C66.7518 37.1145 66.2018 39.9125 64.3855 42.5538C63.9602 43.1677 62.7355 45.4637 62.7355 45.4637Z" fill="white"/>
<path opacity="0.5" d="M62.7225 71.295C63.2534 65.3185 63.733 59.5627 67.1641 51.06C67.9987 48.9879 75.7339 34.5088 77.7517 32.9419C78.7398 32.1713 75.2831 41.7931 71.9063 49.8897C69.3769 55.9653 68.3281 57.7048 65.5109 64.7525C64.4077 67.5441 62.7225 71.295 62.7225 71.295Z" fill="white"/>
<path opacity="0.5" d="M58.2203 41.8023C55.3424 37.9043 52.5604 35.2694 50.5171 33.8912C48.4737 32.513 54.0345 42.0964 56.7078 46.279C59.3811 50.4616 61.8017 54.091 62.9081 57.7171C62.3773 50.0843 61.0982 45.7034 58.2203 41.8023Z" fill="white"/>
<path opacity="0.5" d="M62.7227 81.8857C62.1791 77.7287 61.0599 72.8458 59.4611 69.226C57.8622 65.6062 55.4 60.0551 53.443 58.1716C52.973 57.7175 55.4896 68.5161 57.1076 71.3877C58.7256 74.2592 59.9088 76.9676 60.9256 78.5952C61.2646 79.1229 62.7227 81.8857 62.7227 81.8857Z" fill="white"/>
<path d="M68.811 108.503H56.6918L55.7772 101.539H69.7255L68.811 108.503Z" fill="#263238"/>
<path d="M70.6273 102.351H54.8723L54.4214 100H71.0781L70.6273 102.351Z" fill="#263238"/>
<path d="M55.5885 49.4512H19.5346C18.3002 49.4512 17.2994 50.4519 17.2994 51.6864V106.268C17.2994 107.502 18.3002 108.503 19.5346 108.503H55.5885C56.823 108.503 57.8237 107.502 57.8237 106.268V51.6864C57.8237 50.4519 56.823 49.4512 55.5885 49.4512Z" fill="#11401C"/>
<path opacity="0.6" d="M55.5885 49.4512H19.5346C18.3002 49.4512 17.2994 50.4519 17.2994 51.6864V106.268C17.2994 107.502 18.3002 108.503 19.5346 108.503H55.5885C56.823 108.503 57.8237 107.502 57.8237 106.268V51.6864C57.8237 50.4519 56.823 49.4512 55.5885 49.4512Z" fill="black"/>
<path d="M54.5174 49.4512H18.4635C17.229 49.4512 16.2283 50.4519 16.2283 51.6864V106.268C16.2283 107.502 17.229 108.503 18.4635 108.503H54.5174C55.7518 108.503 56.7526 107.502 56.7526 106.268V51.6864C56.7526 50.4519 55.7518 49.4512 54.5174 49.4512Z" fill="#11401C"/>
<path opacity="0.3" d="M54.5174 49.4512H18.4635C17.229 49.4512 16.2283 50.4519 16.2283 51.6864V106.268C16.2283 107.502 17.229 108.503 18.4635 108.503H54.5174C55.7518 108.503 56.7526 107.502 56.7526 106.268V51.6864C56.7526 50.4519 55.7518 49.4512 54.5174 49.4512Z" fill="black"/>
<path d="M56.7526 52.0151H16.2283V103.274H56.7526V52.0151Z" fill="#FAFAFA"/>
<path opacity="0.1" d="M56.7526 52.0151H16.2283V103.274H56.7526V52.0151Z" fill="#11401C"/>
<path opacity="0.48" d="M30.5954 52.1431L21.3221 103.402H28.405L37.6783 52.1431H30.5954Z" fill="#FAFAFA"/>
<path opacity="0.48" d="M39.7824 52.0151L30.5092 103.277H34.049L43.3223 52.0151H39.7824Z" fill="#FAFAFA"/>
<path d="M36.4888 107.38C37.3294 107.38 38.0109 106.699 38.0109 105.858C38.0109 105.017 37.3294 104.336 36.4888 104.336C35.6481 104.336 34.9667 105.017 34.9667 105.858C34.9667 106.699 35.6481 107.38 36.4888 107.38Z" fill="#11401C"/>
<path opacity="0.5" d="M36.4888 107.38C37.3294 107.38 38.0109 106.699 38.0109 105.858C38.0109 105.017 37.3294 104.336 36.4888 104.336C35.6481 104.336 34.9667 105.017 34.9667 105.858C34.9667 106.699 35.6481 107.38 36.4888 107.38Z" fill="black"/>
<path d="M36.8405 50.631C36.8405 50.7006 36.8198 50.7686 36.7812 50.8265C36.7425 50.8843 36.6876 50.9294 36.6233 50.956C36.559 50.9826 36.4883 50.9896 36.4201 50.976C36.3519 50.9625 36.2892 50.929 36.24 50.8798C36.1908 50.8306 36.1573 50.7679 36.1437 50.6997C36.1301 50.6314 36.1371 50.5607 36.1637 50.4964C36.1904 50.4322 36.2354 50.3772 36.2933 50.3386C36.3511 50.2999 36.4191 50.2793 36.4887 50.2793C36.582 50.2793 36.6715 50.3164 36.7374 50.3823C36.8034 50.4483 36.8405 50.5378 36.8405 50.631Z" fill="#11401C"/>
<path opacity="0.5" d="M36.8405 50.631C36.8405 50.7006 36.8198 50.7686 36.7812 50.8265C36.7425 50.8843 36.6876 50.9294 36.6233 50.956C36.559 50.9826 36.4883 50.9896 36.4201 50.976C36.3519 50.9625 36.2892 50.929 36.24 50.8798C36.1908 50.8306 36.1573 50.7679 36.1437 50.6997C36.1301 50.6314 36.1371 50.5607 36.1637 50.4964C36.1904 50.4322 36.2354 50.3772 36.2933 50.3386C36.3511 50.2999 36.4191 50.2793 36.4887 50.2793C36.582 50.2793 36.6715 50.3164 36.7374 50.3823C36.8034 50.4483 36.8405 50.5378 36.8405 50.631Z" fill="black"/>
<path d="M87.105 40.6349L89.5448 40.1776C89.5839 40.1711 89.621 40.1561 89.6535 40.1336C89.6861 40.1111 89.7132 40.0817 89.7331 40.0475C89.7529 40.0133 89.765 39.9751 89.7684 39.9357C89.7718 39.8963 89.7664 39.8566 89.7527 39.8195L87.8341 34.1372C87.804 34.0552 87.7465 33.9862 87.6713 33.9419C87.5961 33.8976 87.5078 33.8807 87.4216 33.8942L84.9849 34.3482C84.9455 34.3546 84.908 34.3697 84.8752 34.3924C84.8423 34.4151 84.815 34.4448 84.795 34.4795C84.7751 34.5141 84.7632 34.5527 84.7601 34.5925C84.757 34.6323 84.7628 34.6723 84.7771 34.7096L86.6957 40.3919C86.7246 40.474 86.7814 40.5433 86.8562 40.5877C86.9311 40.6321 87.0191 40.6488 87.105 40.6349Z" fill="#11401C"/>
<path opacity="0.6" d="M87.105 40.6349L89.5448 40.1776C89.5839 40.1711 89.621 40.1561 89.6535 40.1336C89.6861 40.1111 89.7132 40.0817 89.7331 40.0475C89.7529 40.0133 89.765 39.9751 89.7684 39.9357C89.7718 39.8963 89.7664 39.8566 89.7527 39.8195L87.8341 34.1372C87.804 34.0552 87.7465 33.9862 87.6713 33.9419C87.5961 33.8976 87.5078 33.8807 87.4216 33.8942L84.9849 34.3482C84.9455 34.3546 84.908 34.3697 84.8752 34.3924C84.8423 34.4151 84.815 34.4448 84.795 34.4795C84.7751 34.5141 84.7632 34.5527 84.7601 34.5925C84.757 34.6323 84.7628 34.6723 84.7771 34.7096L86.6957 40.3919C86.7246 40.474 86.7814 40.5433 86.8562 40.5877C86.9311 40.6321 87.0191 40.6488 87.105 40.6349Z" fill="black"/>
<path d="M87.4056 40.5905L89.8423 40.1364C89.8817 40.13 89.9192 40.1149 89.952 40.0922C89.9849 40.0695 90.0122 40.0398 90.0321 40.0052C90.0521 39.9706 90.064 39.9319 90.0671 39.8921C90.0702 39.8523 90.0644 39.8123 90.0501 39.775L88.1315 34.0928C88.1015 34.0108 88.0439 33.9418 87.9687 33.8974C87.8935 33.8531 87.8052 33.8363 87.719 33.8497L85.2824 34.307C85.2431 34.3129 85.2056 34.3276 85.1727 34.35C85.1399 34.3724 85.1125 34.4018 85.0925 34.4362C85.0725 34.4706 85.0606 34.509 85.0575 34.5486C85.0543 34.5883 85.0602 34.6281 85.0745 34.6651L86.9931 40.3474C87.0231 40.4294 87.0807 40.4984 87.1559 40.5427C87.2311 40.5871 87.3194 40.6039 87.4056 40.5905Z" fill="#11401C"/>
<path opacity="0.3" d="M87.4056 40.5905L89.8423 40.1364C89.8817 40.13 89.9192 40.1149 89.952 40.0922C89.9849 40.0695 90.0122 40.0398 90.0321 40.0052C90.0521 39.9706 90.064 39.9319 90.0671 39.8921C90.0702 39.8523 90.0644 39.8123 90.0501 39.775L88.1315 34.0928C88.1015 34.0108 88.0439 33.9418 87.9687 33.8974C87.8935 33.8531 87.8052 33.8363 87.719 33.8497L85.2824 34.307C85.2431 34.3129 85.2056 34.3276 85.1727 34.35C85.1399 34.3724 85.1125 34.4018 85.0925 34.4362C85.0725 34.4706 85.0606 34.509 85.0575 34.5486C85.0543 34.5883 85.0602 34.6281 85.0745 34.6651L86.9931 40.3474C87.0231 40.4294 87.0807 40.4984 87.1559 40.5427C87.2311 40.5871 87.3194 40.6039 87.4056 40.5905Z" fill="black"/>
<path d="M86.8622 39.9605L89.9192 39.3881L88.1989 34.291L85.1387 34.8634L86.8622 39.9605Z" fill="#FAFAFA"/>
<path opacity="0.14" d="M86.8622 39.9605L89.9192 39.3881L88.1989 34.291L85.1387 34.8634L86.8622 39.9605Z" fill="#11401C"/>
<path d="M85.1387 37.0666L85.3785 36.5103L87.6808 39.0972L85.6887 39.2507L85.1387 37.0666Z" fill="#FFBE9D"/>
<path d="M45.8039 17.0043C48.5289 17.0043 50.7379 14.7953 50.7379 12.0703C50.7379 9.34527 48.5289 7.13623 45.8039 7.13623C43.0789 7.13623 40.8699 9.34527 40.8699 12.0703C40.8699 14.7953 43.0789 17.0043 45.8039 17.0043Z" fill="#11401C"/>
<path d="M45.8038 17.9313C45.4651 17.9315 45.127 17.9026 44.7933 17.8449L44.8477 17.5252C45.4826 17.6336 46.1313 17.6336 46.7663 17.5252L46.8206 17.8449C46.4847 17.9023 46.1446 17.9312 45.8038 17.9313ZM42.8843 17.151C42.2934 16.8112 41.7664 16.3708 41.327 15.8496L41.5732 15.6417C41.9875 16.1361 42.4854 16.5539 43.0442 16.876L42.8843 17.151ZM48.7297 17.151L48.5698 16.876C49.1286 16.5539 49.6264 16.1361 50.0407 15.6417L50.2837 15.8464C49.8447 16.3623 49.3187 16.7974 48.7297 17.1319V17.151ZM40.307 14.0941C40.0733 13.4526 39.9543 12.775 39.9552 12.0923H40.275C40.2701 12.7361 40.3783 13.3758 40.5947 13.9821L40.307 14.0941ZM51.3006 14.0941L51 13.9853C51.2165 13.379 51.3247 12.7393 51.3198 12.0955H51.5372H51.6396C51.6413 12.7678 51.5266 13.4353 51.3006 14.0685V14.0941ZM40.6011 10.2153L40.3006 10.1065C40.5329 9.46452 40.876 8.86818 41.3142 8.34462L41.5573 8.54927C41.1467 9.03711 40.8233 9.59203 40.6011 10.1897V10.2153ZM50.9936 10.1833C50.7731 9.57933 50.4484 9.01871 50.0343 8.52689L50.2805 8.31904C50.7204 8.83956 51.0667 9.43246 51.3038 10.0714L50.9936 10.1833ZM43.025 7.30537L42.8651 7.03037C43.4575 6.68393 44.1074 6.44673 44.7837 6.33008L44.8381 6.64985C44.2012 6.75451 43.5876 6.96987 43.025 7.28619V7.30537ZM48.5506 7.30537C47.992 6.98723 47.3813 6.7707 46.7471 6.66583L46.8015 6.34607C47.4763 6.46111 48.1257 6.69382 48.7201 7.03357L48.5506 7.30537Z" fill="#11401C"/>
<path d="M84.1888 37.0186H83.2295V37.3383H84.1888V37.0186Z" fill="#11401C"/>
<path d="M81.3078 37.3381H79.3892V37.0184H81.3078V37.3381ZM77.445 37.1175C76.8098 36.9421 76.2057 36.6692 75.6543 36.3085L75.8301 36.0431C76.3535 36.3836 76.9262 36.6413 77.5281 36.8073L77.445 37.1175ZM74.1929 35.0006C73.7728 34.4944 73.4341 33.9259 73.1888 33.3155L73.4862 33.1971C73.7225 33.776 74.046 34.3152 74.4455 34.796L74.1929 35.0006ZM72.7412 31.4032C72.7412 31.2402 72.7412 31.0835 72.7412 30.9108C72.7404 30.4179 72.7962 29.9265 72.9074 29.4462L73.2272 29.5198C73.1221 29.976 73.0696 30.4427 73.0705 30.9108C73.0705 31.0675 73.0705 31.2306 73.0705 31.3809L72.7412 31.4032ZM73.8987 27.7899L73.6237 27.6268C73.9599 27.061 74.3804 26.5499 74.8708 26.1111L75.0851 26.3509C74.6191 26.7641 74.219 27.2461 73.8987 27.7803V27.7899ZM76.6487 25.3308L76.5176 25.0398C77.1167 24.7691 77.7543 24.5933 78.4075 24.5186L78.4458 24.8384C77.8257 24.9069 77.2197 25.0697 76.6487 25.3212V25.3308ZM84.3999 24.7936H84.1889V24.4739H84.3999C84.9564 24.4735 85.5103 24.3982 86.0467 24.25L86.1331 24.5698C85.5677 24.7194 84.9847 24.7914 84.3999 24.784V24.7936ZM82.2671 24.7936H80.3485V24.4739H82.2671V24.7936ZM87.9206 23.7448L87.7447 23.4794C88.2681 23.1368 88.7361 22.7162 89.1325 22.2323L89.3819 22.4337C88.9645 22.9399 88.4716 23.3789 87.9206 23.7352V23.7448ZM90.3796 20.7453L90.0822 20.627C90.3125 20.045 90.4537 19.4317 90.5011 18.8075L90.8209 18.8331C90.77 19.4859 90.6213 20.1273 90.3796 20.7358V20.7453ZM90.354 16.9497C90.2106 16.3406 89.9744 15.7571 89.6537 15.2197L89.9287 15.0567C90.266 15.6217 90.5141 16.2354 90.6642 16.8761L90.354 16.9497ZM88.4642 13.784C87.9971 13.3691 87.4699 13.0274 86.9005 12.7703L87.0284 12.4793C87.6288 12.7475 88.1843 13.1067 88.6752 13.5442L88.4642 13.784ZM85.1002 12.2779C84.8687 12.2523 84.636 12.2394 84.4031 12.2395H83.1976V11.9197H84.3999C84.6457 11.9172 84.8914 11.9311 85.1354 11.9613L85.1002 12.2779ZM81.263 12.2395H79.3444V11.9197H81.263V12.2395ZM77.4258 12.2395H75.5072V11.9197H77.4258V12.2395ZM73.5885 12.2395H71.6699V11.9197H73.5885V12.2395ZM69.7513 12.2395H67.8327V11.9197H69.7513V12.2395ZM65.9141 12.2395H63.9955V11.9197H65.9141V12.2395ZM62.0769 12.2395H60.1583V11.9197H62.0769V12.2395ZM58.2397 12.2395H56.321V11.9197H58.2397V12.2395Z" fill="#11401C"/>
<path d="M54.3448 11.9102H53.3855V12.2299H54.3448V11.9102Z" fill="#11401C"/>
<path d="M45.9382 18.9609H45.6696V19.7636H45.9382V18.9609Z" fill="#11401C"/>
<path d="M12.4361 72.0621H12.1707V70.4632H12.4361V72.0621ZM12.4361 68.8644H12.1707V67.2655H12.4361V68.8644ZM41.6214 68.0426C41.3084 68.0423 40.9964 68.008 40.6908 67.9403L40.7484 67.6812C41.2574 67.7899 41.7823 67.803 42.2961 67.7196L42.3376 67.9818C42.0984 68.0164 41.8567 68.0313 41.615 68.0266L41.6214 68.0426ZM25.1405 68.0426L25.1245 67.774C25.6435 67.7419 26.1515 67.6106 26.621 67.3871L26.7361 67.6269C26.2321 67.8586 25.6882 67.991 25.1341 68.017L25.1405 68.0426ZM23.5001 67.8156C22.9739 67.6407 22.4864 67.366 22.0643 67.0065L22.237 66.8019C22.6326 67.1397 23.0897 67.3981 23.5832 67.5629L23.5001 67.8156ZM43.8757 67.3967L43.735 67.1696C44.1776 66.8967 44.564 66.5418 44.8734 66.124L45.0908 66.2839C44.7597 66.7256 44.3473 67.1 43.8757 67.3871V67.3967ZM39.1719 67.2783C38.7149 66.9657 38.3219 66.5684 38.0144 66.108L38.2382 65.9577C38.5265 66.3909 38.8956 66.7644 39.3254 67.0577L39.1719 67.2783ZM28.0504 66.6388L27.8553 66.4597C28.2059 66.0751 28.4795 65.6268 28.6611 65.1391L28.9137 65.2318C28.7169 65.7451 28.4238 66.2162 28.0504 66.6196V66.6388ZM21.0346 65.7307C20.7757 65.2399 20.615 64.7033 20.5614 64.151L20.8268 64.1254C20.8776 64.6431 21.0286 65.1459 21.2713 65.6059L21.0346 65.7307ZM12.4361 65.6347H12.1707V64.0359H12.4361V65.6347ZM45.8071 64.7873L45.5481 64.7202C45.6321 64.3877 45.6751 64.0462 45.676 63.7033V63.1565H45.9446V63.7033C45.9417 64.0692 45.8934 64.4334 45.8007 64.7873H45.8071ZM37.378 64.5763C37.3193 64.289 37.2893 63.9966 37.2885 63.7033V62.9487H37.5571V63.7033C37.5575 63.9783 37.5854 64.2525 37.6402 64.5219L37.378 64.5763ZM29.1791 63.5914H28.9137V61.9926H29.1791V63.5914ZM20.8044 62.5138H20.5358V60.9149H20.8044V62.5138ZM12.4361 62.4211H12.1707V60.8222H12.4361V62.4211ZM45.9446 61.5513H45.676V59.9524H45.9446V61.5513ZM37.5667 61.3402H37.2981V60.2083C37.2992 60.0554 37.2907 59.9027 37.2725 59.751L37.5379 59.719C37.5571 59.8814 37.5667 60.0447 37.5667 60.2083V61.3402ZM29.1887 60.3809H28.9233V60.2115C28.9224 59.7158 29.0068 59.2236 29.1728 58.7565L29.4254 58.846C29.2684 59.2841 29.1883 59.7461 29.1887 60.2115V60.3809ZM20.4527 59.3385C20.3409 58.8297 20.1313 58.3475 19.8355 57.9187L20.0562 57.7684C20.3656 58.2262 20.5828 58.74 20.6957 59.2809L20.4527 59.3385ZM12.5512 59.2489L12.2922 59.185C12.4234 58.6462 12.658 58.1379 12.9829 57.6885L13.1971 57.8452C12.8928 58.2664 12.6714 58.7417 12.5448 59.2458L12.5512 59.2489ZM45.9446 58.3376H45.676V56.7388H45.9446V58.3376ZM36.8088 58.28C36.5611 57.8223 36.2278 57.4163 35.8271 57.0841L35.9966 56.8795C36.4252 57.2345 36.7813 57.6687 37.0455 58.1585L36.8088 58.28ZM30.2152 57.519L30.0137 57.3399C30.3823 56.925 30.8274 56.5852 31.3248 56.3391L31.4431 56.5789C30.9745 56.8077 30.5552 57.126 30.2088 57.5158L30.2152 57.519ZM18.7355 56.8347C18.3032 56.5457 17.8188 56.3437 17.3093 56.2399L17.3637 55.9777C17.9068 56.0901 18.4227 56.3073 18.8826 56.6173L18.7355 56.8347ZM14.3227 56.7867L14.182 56.5597C14.6491 56.2604 15.1707 56.0561 15.7169 55.9585L15.7649 56.2239C15.2501 56.3142 14.758 56.5043 14.3163 56.7835L14.3227 56.7867ZM34.4681 56.3455C34.0731 56.2201 33.6611 56.1565 33.2466 56.1568C33.1283 56.1568 33.0356 56.1568 32.9268 56.1568L32.9077 55.8882C33.0164 55.8882 33.1283 55.8882 33.2274 55.8882C33.6698 55.8882 34.1097 55.955 34.5321 56.0864L34.4681 56.3455ZM45.9446 55.1239H45.676V53.5251H45.9446V55.1239ZM45.9446 51.9103H45.676V50.3114H45.9446V51.9103ZM45.9446 48.6966H45.676V47.0977H45.9446V48.6966ZM45.9446 45.4989H45.676V43.9001H45.9446V45.4989ZM45.9446 42.2852H45.676V40.6864H45.9446V42.2852ZM45.9446 39.0683H45.676V37.4695H45.9446V39.0683ZM45.9446 35.8707H45.676V34.2718H45.9446V35.8707ZM45.9446 32.657H45.676V31.0581H45.9446V32.657ZM45.9446 29.4433H45.676V27.8445H45.9446V29.4433ZM45.9446 26.2456H45.676V24.6468H45.9446V26.2456ZM45.9446 23.0319H45.676V21.4331H45.9446V23.0319Z" fill="#11401C"/>
<path d="M12.4328 73.7026H12.1642V74.5053H12.4328V73.7026Z" fill="#11401C"/>
<path d="M45.1994 14.4749C45.0725 14.4738 44.9509 14.4233 44.8605 14.3342L43.1849 12.6587C43.0958 12.5683 43.0459 12.4466 43.0459 12.3197C43.0459 12.1928 43.0958 12.0711 43.1849 11.9807C43.2292 11.9359 43.282 11.9003 43.3401 11.876C43.3983 11.8516 43.4608 11.8391 43.5238 11.8391C43.5869 11.8391 43.6493 11.8516 43.7075 11.876C43.7657 11.9003 43.8185 11.9359 43.8628 11.9807L45.1994 13.3174L47.7416 10.7752C47.8325 10.6905 47.9528 10.6444 48.077 10.6466C48.2013 10.6488 48.3198 10.6991 48.4077 10.787C48.4956 10.8749 48.5459 10.9934 48.5481 11.1177C48.5503 11.2419 48.5042 11.3622 48.4195 11.4531L45.5416 14.331C45.4971 14.3767 45.4438 14.413 45.3851 14.4377C45.3263 14.4624 45.2632 14.4751 45.1994 14.4749Z" fill="white"/>
<path d="M105.329 24.0425C105.009 25.6413 104.312 28.839 105.425 29.9102C105.425 29.9102 104.99 31.5091 102.038 31.5091C98.7894 31.5091 100.484 29.9102 100.484 29.9102C102.259 29.4881 102.211 28.1739 101.904 26.9396L105.329 24.0425Z" fill="#FFBE9D"/>
<path d="M98.8632 30.457C98.8632 30.2171 99.2277 29.9709 99.7585 29.779C100.043 29.6735 100.321 29.2738 100.753 29.2003C101.073 29.1459 101.485 29.4209 101.895 29.3921C102.237 29.3665 102.595 29.034 102.991 29.0308C103.388 29.0276 103.708 29.3506 104.098 29.3729C104.341 29.3729 104.584 29.0787 104.788 29.0979C104.993 29.1171 105.214 29.4657 105.409 29.5008C105.668 29.5456 105.959 29.2866 106.135 29.3442C106.416 29.4337 106.454 29.8142 106.579 29.9165C106.937 30.2075 107.219 30.4825 106.899 30.5337C106.109 30.6584 106.077 30.2139 105.278 30.2139C104.478 30.2139 104.478 30.5337 103.679 30.5177C102.879 30.5017 102.883 30.1979 102.08 30.1979C101.277 30.1979 101.293 30.4186 100.481 30.5017C99.944 30.5917 99.3945 30.5765 98.8632 30.457Z" fill="#11401C"/>
<g opacity="0.6">
<path d="M98.8632 30.457C98.8632 30.2171 99.2277 29.9709 99.7585 29.779C100.043 29.6735 100.321 29.2738 100.753 29.2003C101.073 29.1459 101.485 29.4209 101.895 29.3921C102.237 29.3665 102.595 29.034 102.991 29.0308C103.388 29.0276 103.708 29.3506 104.098 29.3729C104.341 29.3729 104.584 29.0787 104.788 29.0979C104.993 29.1171 105.214 29.4657 105.409 29.5008C105.668 29.5456 105.959 29.2866 106.135 29.3442C106.416 29.4337 106.454 29.8142 106.579 29.9165C106.937 30.2075 107.219 30.4825 106.899 30.5337C106.109 30.6584 106.077 30.2139 105.278 30.2139C104.478 30.2139 104.478 30.5337 103.679 30.5177C102.879 30.5017 102.883 30.1979 102.08 30.1979C101.277 30.1979 101.293 30.4186 100.481 30.5017C99.944 30.5917 99.3945 30.5765 98.8632 30.457Z" fill="black"/>
</g>
<path d="M111.136 33.354C111.551 34.2334 111.878 35.0744 112.207 35.9505C112.536 36.8267 112.802 37.7093 113.057 38.6014C113.317 39.5025 113.53 40.416 113.697 41.3386C113.774 41.8023 113.854 42.266 113.905 42.7424C113.937 42.9758 113.966 43.2125 113.982 43.4523L114.036 44.1878C114.05 44.7959 113.941 45.4006 113.716 45.9657C113.532 46.4398 113.313 46.8994 113.061 47.3407C112.584 48.162 112.05 48.9485 111.462 49.6942C110.323 51.1391 109.075 52.4937 107.727 53.7457L106.729 52.8247C107.257 52.1276 107.797 51.4113 108.303 50.6887C108.808 49.966 109.313 49.2433 109.77 48.5046C110.229 47.7843 110.643 47.0368 111.011 46.2663C111.18 45.9138 111.323 45.5493 111.439 45.1759C111.533 44.8991 111.577 44.6078 111.567 44.3157L111.487 43.7113C111.465 43.5035 111.43 43.2956 111.388 43.0718C111.321 42.6561 111.228 42.2372 111.136 41.8215C111.043 41.4058 110.937 40.9901 110.816 40.5744C110.694 40.1587 110.586 39.743 110.458 39.3305C110.205 38.5055 109.914 37.6837 109.614 36.8715C109.313 36.0592 108.974 35.2342 108.654 34.4764L111.136 33.354Z" fill="#FFBE9D"/>
<path d="M110.045 30.5208C111.158 30.7638 112.344 34.7673 112.344 34.7673L107.964 37.5621C107.964 37.5621 106.589 34.3644 107.119 32.9702C107.676 31.5313 108.731 30.233 110.045 30.5208Z" fill="#11401C"/>
<path opacity="0.6" d="M110.045 30.5208C111.158 30.7638 112.344 34.7673 112.344 34.7673L107.964 37.5621C107.964 37.5621 106.589 34.3644 107.119 32.9702C107.676 31.5313 108.731 30.233 110.045 30.5208Z" fill="white"/>
<path opacity="0.28" d="M109.451 31.8833L107.954 37.5368V37.5624L109.707 36.4432L109.451 31.8833Z" fill="#11401C"/>
<path d="M95.9562 30.5972C95.9562 30.5972 94.6772 31.048 97.2353 46.7615H108.107C107.925 42.3359 107.919 39.6051 110.026 30.5204C108.503 30.206 106.958 30.0018 105.405 29.9097C103.761 29.7944 102.11 29.7944 100.465 29.9097C98.3641 30.1047 95.9562 30.5972 95.9562 30.5972Z" fill="#11401C"/>
<path opacity="0.6" d="M95.9562 30.5972C95.9562 30.5972 94.6772 31.048 97.2353 46.7615H108.107C107.925 42.3359 107.919 39.6051 110.026 30.5204C108.503 30.206 106.958 30.0018 105.405 29.9097C103.761 29.7944 102.11 29.7944 100.465 29.9097C98.3641 30.1047 95.9562 30.5972 95.9562 30.5972Z" fill="white"/>
<path d="M107.247 52.4663L104.657 51.686L105.738 54.1866C105.738 54.1866 107.449 54.3529 108.066 53.4256L107.247 52.4663Z" fill="#FFBE9D"/>
<path d="M102.56 52.5115L103.576 54.5548L105.738 54.1935L104.657 51.6929L102.56 52.5115Z" fill="#FFBE9D"/>
<path d="M114.1 107.061H111.424L110.56 100.857H113.24L114.1 107.061Z" fill="#FFBE9D"/>
<path d="M101.93 107.061H99.253L99.074 100.857H101.75L101.93 107.061Z" fill="#FFBE9D"/>
<path d="M99.074 100.86L99.1667 104.055H101.846L101.754 100.86H99.074Z" fill="#CF6F64"/>
<path d="M113.24 100.86H110.56L111.005 104.055H113.684L113.24 100.86Z" fill="#CF6F64"/>
<path d="M100.11 46.7618C100.11 46.7618 101.664 65.1485 103.279 75.509C104.581 83.8774 110.359 103.438 110.359 103.438H114.011C114.011 103.438 111.002 84.5457 110.34 76.2573C108.667 55.3124 111.6 51.6063 108.117 46.749L100.11 46.7618Z" fill="#11401C"/>
<path opacity="0.6" d="M100.11 46.7618C100.11 46.7618 101.664 65.1485 103.279 75.509C104.581 83.8774 110.359 103.438 110.359 103.438H114.011C114.011 103.438 111.002 84.5457 110.34 76.2573C108.667 55.3124 111.6 51.6063 108.117 46.749L100.11 46.7618Z" fill="black"/>
<path opacity="0.4" d="M103.429 53.9951C103.429 53.9951 101.933 58.6573 101.955 65.3821C102.214 67.6556 102.489 69.9132 102.77 72.0045C103.627 70.0539 105.204 64.3684 103.429 53.9951Z" fill="black"/>
<path d="M97.2387 46.7617C97.2387 46.7617 95.1251 67.3964 95.3009 75.5633C95.4832 84.0595 98.5977 103.438 98.5977 103.438H102.218C102.218 103.438 101.645 84.5712 101.965 76.2124C102.313 67.115 105.204 46.7617 105.204 46.7617H97.2387Z" fill="#11401C"/>
<path opacity="0.6" d="M97.2387 46.7617C97.2387 46.7617 95.1251 67.3964 95.3009 75.5633C95.4832 84.0595 98.5977 103.438 98.5977 103.438H102.218C102.218 103.438 101.645 84.5712 101.965 76.2124C102.313 67.115 105.204 46.7617 105.204 46.7617H97.2387Z" fill="black"/>
<path d="M110.34 107.217C110.158 107.232 109.977 107.184 109.828 107.08C109.783 107.036 109.75 106.983 109.732 106.924C109.714 106.864 109.71 106.801 109.722 106.741C109.726 106.702 109.74 106.665 109.762 106.634C109.785 106.603 109.815 106.578 109.85 106.562C110.17 106.424 110.976 106.945 111.065 107.006C111.076 107.013 111.084 107.022 111.089 107.034C111.094 107.045 111.096 107.058 111.094 107.07C111.092 107.082 111.087 107.094 111.078 107.103C111.07 107.112 111.059 107.119 111.046 107.121C110.815 107.179 110.578 107.211 110.34 107.217ZM109.981 106.664C109.954 106.662 109.926 106.668 109.901 106.68C109.882 106.68 109.857 106.705 109.85 106.76C109.84 106.799 109.841 106.841 109.852 106.88C109.863 106.92 109.885 106.955 109.914 106.984C110.049 107.108 110.4 107.124 110.874 107.032C110.605 106.848 110.301 106.723 109.981 106.664Z" fill="#11401C"/>
<path d="M111.03 107.125C111.021 107.127 111.011 107.127 111.002 107.125C110.746 106.981 110.26 106.402 110.317 106.101C110.327 106.052 110.354 106.007 110.393 105.974C110.432 105.942 110.481 105.923 110.532 105.922C110.58 105.915 110.629 105.919 110.676 105.934C110.722 105.949 110.765 105.975 110.8 106.009C111.091 106.264 111.094 107.038 111.094 107.07C111.095 107.081 111.092 107.092 111.086 107.102C111.08 107.112 111.072 107.119 111.062 107.125C111.052 107.128 111.041 107.128 111.03 107.125ZM110.576 106.037H110.548C110.468 106.037 110.448 106.082 110.442 106.111C110.407 106.296 110.711 106.731 110.963 106.933C110.971 106.634 110.885 106.34 110.717 106.092C110.679 106.056 110.628 106.037 110.576 106.037Z" fill="#11401C"/>
<path d="M98.153 107.217C97.9276 107.235 97.7027 107.178 97.5135 107.054C97.4694 107.014 97.436 106.964 97.4165 106.908C97.3969 106.852 97.3918 106.793 97.4015 106.734C97.4029 106.699 97.4133 106.665 97.4318 106.635C97.4503 106.606 97.4763 106.581 97.5071 106.565C97.8268 106.386 98.9045 106.932 99.0228 106.993C99.035 106.999 99.0451 107.009 99.0514 107.021C99.0577 107.033 99.06 107.047 99.058 107.06C99.056 107.073 99.05 107.085 99.0408 107.094C99.0316 107.104 99.0197 107.11 99.0068 107.111C98.7261 107.173 98.4403 107.209 98.153 107.217ZM97.6766 106.664C97.6359 106.662 97.5953 106.669 97.5582 106.686C97.5458 106.693 97.5355 106.704 97.5282 106.716C97.5209 106.728 97.517 106.742 97.5167 106.757C97.5117 106.794 97.5157 106.831 97.5286 106.866C97.5414 106.901 97.5625 106.933 97.5902 106.958C97.7533 107.105 98.1946 107.131 98.7862 107.032C98.4399 106.847 98.0647 106.722 97.6766 106.664Z" fill="#11401C"/>
<path d="M98.9846 107.125H98.959C98.6392 106.981 97.9997 106.402 98.0572 106.098C98.0572 106.028 98.1212 105.938 98.2971 105.919C98.3602 105.913 98.424 105.92 98.4845 105.939C98.5449 105.958 98.6008 105.99 98.6488 106.031C98.9845 106.309 99.0453 107.032 99.0485 107.061C99.0493 107.072 99.0473 107.083 99.0429 107.093C99.0384 107.103 99.0316 107.112 99.0229 107.118C99.0112 107.125 98.9977 107.127 98.9846 107.125ZM98.345 106.038H98.3066C98.1915 106.038 98.1819 106.095 98.1787 106.111C98.15 106.293 98.5784 106.751 98.9046 106.943C98.8778 106.639 98.7584 106.351 98.5625 106.118C98.5026 106.067 98.4268 106.038 98.3482 106.038H98.345Z" fill="#11401C"/>
<path d="M98.8918 21.2249C98.8712 21.2271 98.8504 21.2244 98.831 21.2172C98.8115 21.21 98.7941 21.1984 98.7799 21.1833C98.6772 21.0608 98.5467 20.9646 98.3993 20.9029C98.2519 20.8411 98.0918 20.8156 97.9325 20.8284C97.899 20.8329 97.8651 20.8241 97.8381 20.8037C97.8112 20.7833 97.7934 20.7531 97.7886 20.7197C97.7848 20.6868 97.7935 20.6537 97.8131 20.627C97.8327 20.6003 97.8616 20.582 97.8941 20.5758C98.0951 20.5589 98.2971 20.5898 98.4839 20.666C98.6706 20.7421 98.8367 20.8613 98.9685 21.0138C98.9912 21.0381 99.0039 21.0701 99.0039 21.1034C99.0039 21.1366 98.9912 21.1686 98.9685 21.1929C98.9467 21.2109 98.92 21.222 98.8918 21.2249Z" fill="#263238"/>
<path d="M98.3353 22.8145C98.2152 23.3295 98.0248 23.8255 97.7693 24.2886C97.8894 24.3511 98.0218 24.3867 98.1571 24.3927C98.2924 24.3988 98.4274 24.3753 98.5527 24.3238L98.3353 22.8145Z" fill="#DF5753"/>
<path d="M98.4759 22.4084C98.5047 22.6227 98.4184 22.8113 98.2777 22.8305C98.137 22.8497 97.9995 22.693 97.9579 22.482C97.9164 22.2709 98.0155 22.0758 98.1562 22.0567C98.2969 22.0375 98.4536 22.207 98.4759 22.4084Z" fill="#263238"/>
<path d="M98.2298 22.0882L97.6958 22.0146C97.6958 22.0146 98.0156 22.36 98.2298 22.0882Z" fill="#263238"/>
<path d="M111.244 106.751H114.253C114.305 106.749 114.355 106.767 114.394 106.801C114.433 106.835 114.458 106.882 114.464 106.933L114.81 109.315C114.816 109.375 114.81 109.436 114.791 109.494C114.772 109.552 114.741 109.605 114.7 109.65C114.66 109.695 114.61 109.731 114.554 109.755C114.499 109.779 114.439 109.792 114.378 109.792C113.329 109.772 112.824 109.712 111.5 109.712C110.688 109.712 109.498 109.795 108.373 109.795C107.247 109.795 107.19 108.682 107.657 108.583C109.757 108.132 110.087 107.508 110.797 106.914C110.922 106.808 111.081 106.75 111.244 106.751Z" fill="#263238"/>
<path d="M99.1603 106.751H102.169C102.221 106.75 102.271 106.768 102.311 106.802C102.35 106.835 102.376 106.882 102.384 106.933L102.726 109.315C102.732 109.375 102.726 109.436 102.707 109.493C102.688 109.551 102.658 109.604 102.617 109.648C102.577 109.693 102.528 109.729 102.472 109.754C102.417 109.779 102.358 109.791 102.297 109.791C101.248 109.772 100.743 109.712 99.4193 109.712C98.6039 109.712 96.9219 109.795 95.7963 109.795C94.6707 109.795 94.6131 108.682 95.08 108.583C97.1777 108.132 98.0059 107.508 98.7126 106.914C98.8384 106.809 98.9966 106.751 99.1603 106.751Z" fill="#263238"/>
<path opacity="0.28" d="M95.6431 33.1362V33.2002C95.675 34.9877 95.9213 37.9967 96.6631 43.0555L98.1788 37.1173L95.6431 33.1362Z" fill="#11401C"/>
<path d="M97.7949 34.054C97.4943 35.5729 97.1553 37.0598 96.7524 38.5531C96.3495 40.0464 95.9402 41.5302 95.4094 43.0299L95.2015 43.5895L94.9745 44.1523C94.9234 44.2856 94.8625 44.4149 94.7922 44.5392C94.7042 44.7048 94.5969 44.8593 94.4725 44.9996C94.1825 45.3187 93.8021 45.5418 93.3821 45.6392C93.0306 45.7193 92.6655 45.7193 92.314 45.6392C92.0461 45.5839 91.7854 45.4981 91.537 45.3834C91.1248 45.1902 90.7346 44.9533 90.373 44.6767C89.7269 44.1791 89.1256 43.6259 88.5759 43.0235C88.3009 42.7357 88.0451 42.4351 87.7957 42.1313C87.5463 41.8275 87.3065 41.5238 87.0698 41.188L88.0835 40.2894C89.1587 41.2605 90.32 42.1317 91.553 42.8924C91.8191 43.0471 92.0997 43.1757 92.3908 43.2761C92.637 43.3688 92.8576 43.3432 92.7713 43.3273C92.7193 43.3343 92.6699 43.3541 92.6274 43.3848L92.6722 43.2473L92.8417 42.7421L93.0015 42.2209C93.4172 40.8171 93.7722 39.3429 94.1239 37.8976L95.1248 33.4976L97.7949 34.054Z" fill="#FFBE9D"/>
<path d="M87.1531 41.3228L85.6886 39.2507L87.6808 39.0972C87.6808 39.0972 88.8063 40.3954 88.4098 41.4379L87.1531 41.3228Z" fill="#FFBE9D"/>
<path d="M87.0315 38.7163L87.4536 38.4573L87.6486 37.4756L87.9716 37.8785L88.2114 40.184L87.0315 38.7163Z" fill="#FFBE9D"/>
<path d="M105.559 20.6561C105.777 23.3038 105.924 24.4198 104.792 25.9611C103.087 28.273 99.7841 27.9596 98.7832 25.4271C97.8783 23.1471 97.6768 19.198 100.101 17.7846C100.633 17.47 101.237 17.2967 101.855 17.2814C102.473 17.266 103.084 17.4091 103.631 17.6969C104.178 17.9847 104.643 18.4077 104.98 18.9257C105.318 19.4437 105.517 20.0394 105.559 20.6561Z" fill="#FFBE9D"/>
<path d="M99.6402 17.487C99.0986 17.7147 98.6549 18.1264 98.3875 18.6496C98.1201 19.1727 98.0462 19.7734 98.1788 20.3458C98.1788 20.3458 100.261 19.4472 100.344 22.7824C100.404 25.1902 98.7448 28.4391 98.7448 28.4391C98.7448 28.4391 102.604 29.2385 108.159 27.5373C110.522 26.8147 109.457 12.6297 99.6402 17.487Z" fill="#263238"/>
<path d="M99.4417 18.9609C99.0644 19.8691 99.1635 21.6662 100.65 21.4743C102.137 21.2825 101.702 19.7827 101.702 19.7827L99.4417 18.9609Z" fill="#263238"/>
<path d="M101.098 22.5492C101.114 23.0633 100.927 23.5628 100.577 23.9402C100.11 24.4326 99.525 24.1001 99.3651 23.4733C99.218 22.9137 99.2852 21.9768 99.896 21.7146C100.031 21.6597 100.177 21.6392 100.321 21.6552C100.466 21.6711 100.604 21.7228 100.723 21.8057C100.843 21.8886 100.94 22.0001 101.005 22.1299C101.071 22.2597 101.103 22.4039 101.098 22.5492Z" fill="#FFBE9D"/>
<path d="M114.282 103.556H110.109L109.665 102.101L114.426 102.213L114.282 103.556Z" fill="#11401C"/>
<path d="M106.8 47.3504H107.087C107.148 47.3504 107.193 47.3216 107.187 47.2832L107.049 46.0042C107.049 45.969 106.995 45.937 106.934 45.937H106.64C106.582 45.937 106.537 45.969 106.541 46.0042L106.678 47.2832C106.691 47.328 106.742 47.3504 106.8 47.3504Z" fill="#11401C"/>
<path d="M99.6496 47.3504H99.9438C100.001 47.3504 100.046 47.3216 100.043 47.2832L99.9054 46.0042C99.9054 45.969 99.8478 45.937 99.7903 45.937H99.4961C99.4353 45.937 99.3906 45.969 99.397 46.0042L99.5345 47.2832C99.5377 47.328 99.5888 47.3504 99.6496 47.3504Z" fill="#11401C"/>
<path d="M102.496 103.556H98.3194L98.0188 102.312L102.652 102.101L102.496 103.556Z" fill="#11401C"/>
<path d="M108.28 46.1257L108.769 47.085C108.808 47.1617 108.718 47.2385 108.593 47.2385H97.1745C97.0754 47.2385 96.9954 47.1905 96.989 47.1297L96.8899 46.1704C96.8899 46.1033 96.9698 46.0457 97.0754 46.0457H108.091C108.127 46.0409 108.163 46.0458 108.197 46.0599C108.23 46.074 108.259 46.0967 108.28 46.1257Z" fill="#11401C"/>
<path opacity="0.1" d="M108.28 46.1257L108.769 47.085C108.808 47.1617 108.718 47.2385 108.593 47.2385H97.1745C97.0754 47.2385 96.9954 47.1905 96.989 47.1297L96.8899 46.1704C96.8899 46.1033 96.9698 46.0457 97.0754 46.0457H108.091C108.127 46.0409 108.163 46.0458 108.197 46.0599C108.23 46.074 108.259 46.0967 108.28 46.1257Z" fill="black"/>
<path opacity="0.6" d="M106.8 47.3504H107.087C107.148 47.3504 107.193 47.3216 107.187 47.2832L107.049 46.0042C107.049 45.969 106.995 45.937 106.934 45.937H106.64C106.582 45.937 106.537 45.969 106.541 46.0042L106.678 47.2832C106.691 47.328 106.742 47.3504 106.8 47.3504Z" fill="black"/>
<path opacity="0.6" d="M99.6496 47.3504H99.9438C100.001 47.3504 100.046 47.3216 100.043 47.2832L99.9054 46.0042C99.9054 45.969 99.8478 45.937 99.7903 45.937H99.4961C99.4353 45.937 99.3906 45.969 99.397 46.0042L99.5345 47.2832C99.5377 47.328 99.5888 47.3504 99.6496 47.3504Z" fill="black"/>
<path d="M95.9564 30.5975C94.8532 30.8789 94.0825 35.4228 94.0825 35.4228L98.3418 38.3167C98.3418 38.3167 100.053 32.9062 99.1924 31.6815C98.3067 30.428 97.568 30.1882 95.9564 30.5975Z" fill="#11401C"/>
<path opacity="0.6" d="M95.9564 30.5975C94.8532 30.8789 94.0825 35.4228 94.0825 35.4228L98.3418 38.3167C98.3418 38.3167 100.053 32.9062 99.1924 31.6815C98.3067 30.428 97.568 30.1882 95.9564 30.5975Z" fill="white"/>
<path d="M35.5423 89.1851C35.5439 89.1745 35.5439 89.1638 35.5423 89.1532C35.6318 88.6383 35.7086 88.1203 35.7725 87.5959C36.6775 88.6031 37.4641 88.859 38.0269 88.859C38.0865 88.8623 38.1463 88.8623 38.206 88.859C39.3092 88.7502 40.2397 87.6694 40.7002 85.981C40.7093 85.9476 40.7111 85.9127 40.7056 85.8785C40.7001 85.8443 40.6873 85.8117 40.6682 85.7828C40.6286 85.7222 40.5684 85.6779 40.4987 85.6581C39.7172 85.4443 38.8979 85.4065 38.1 85.5475C37.3021 85.6885 36.5454 86.0048 35.8845 86.4735C35.9228 85.9811 35.9452 85.4886 35.9516 84.993C36.1301 85.0242 36.3108 85.0403 36.492 85.0409C38.3147 85.0409 39.4435 83.4197 39.4978 83.3398C39.5182 83.3089 39.5306 83.2735 39.534 83.2366C39.5373 83.1998 39.5315 83.1627 39.517 83.1287C39.5022 83.0914 39.4798 83.0577 39.4511 83.0296C39.4225 83.0015 39.3883 82.9797 39.3507 82.9656C38.2124 82.5371 37.2882 82.4988 36.6071 82.8569C36.1737 83.0926 35.8407 83.4779 35.6702 83.9409C35.1885 82.8915 34.4589 81.975 33.5442 81.2703C32.6295 80.5656 31.5572 80.0939 30.4196 79.8959C30.3871 79.8881 30.3532 79.8882 30.3207 79.8962C30.2883 79.9041 30.2581 79.9196 30.2328 79.9415C30.2075 79.9634 30.1878 79.9909 30.1752 80.0219C30.1627 80.0529 30.1577 80.0864 30.1606 80.1197C30.2757 81.7729 30.5827 83.7906 31.9449 84.7563C32.4899 85.1297 33.1391 85.3211 33.7996 85.3031C34.3644 85.2909 34.9249 85.2016 35.4656 85.0377C35.4372 86.216 35.3304 87.3911 35.1458 88.5552C34.3879 87.695 32.4597 85.7828 29.828 85.1241C29.7988 85.115 29.7679 85.1123 29.7375 85.1164C29.7071 85.1204 29.678 85.131 29.6521 85.1474C29.6263 85.1639 29.6043 85.1857 29.5877 85.2115C29.5712 85.2373 29.5604 85.2664 29.5562 85.2967C29.3612 86.7197 29.7001 87.8741 30.5315 88.6351C31.2222 89.2747 32.2135 89.5944 33.4094 89.5944C33.9401 89.5895 34.4691 89.5339 34.9891 89.4282C34.81 90.4034 34.5894 91.3468 34.3496 92.2677C33.5214 91.609 31.1263 89.943 28.8432 90.6369C28.813 90.6468 28.7855 90.6634 28.7627 90.6856C28.74 90.7078 28.7227 90.7349 28.712 90.7648C28.7011 90.7968 28.6972 90.8308 28.7005 90.8644C28.7038 90.898 28.7143 90.9306 28.7312 90.9598C29.5754 92.5331 30.4196 93.4061 31.3821 93.7099C31.6327 93.7878 31.8935 93.8276 32.156 93.8282C32.8349 93.7999 33.4954 93.5985 34.0746 93.243C33.7132 94.4517 33.3167 95.5773 32.9266 96.5814C32.2743 95.9722 31.4799 95.5361 30.6159 95.3127C29.7518 95.0893 28.8456 95.0857 27.9798 95.3023C27.9524 95.3083 27.9265 95.3197 27.9037 95.336C27.8808 95.3522 27.8615 95.3729 27.8469 95.3968C27.8323 95.4207 27.8226 95.4473 27.8185 95.475C27.8144 95.5028 27.816 95.531 27.8231 95.5581C27.957 96.0765 28.21 96.5566 28.5619 96.9601C28.9139 97.3637 29.355 97.6796 29.8504 97.8828C30.2124 98.0326 30.6003 98.1098 30.992 98.1099C31.5102 98.1059 32.0188 97.9694 32.4693 97.7134C31.9594 98.959 31.3841 100.177 30.7458 101.362C30.7186 101.421 30.7143 101.488 30.7338 101.55C30.7533 101.612 30.7952 101.665 30.8513 101.698C30.8931 101.725 30.942 101.739 30.992 101.739C31.0292 101.74 31.0661 101.731 31.0987 101.713C31.1314 101.695 31.1586 101.669 31.1775 101.637C31.9514 100.186 32.6401 98.6912 33.24 97.1602C33.2523 97.1357 33.262 97.11 33.2687 97.0834C33.3881 96.7828 33.5064 96.4727 33.6237 96.1529C34.3943 97.0418 35.3313 97.5343 36.2714 97.5343C36.3737 97.5343 36.4728 97.5343 36.5752 97.5343C37.0963 97.4823 37.5885 97.2698 37.9837 96.9261C38.3789 96.5824 38.6577 96.1246 38.7816 95.6157C38.7906 95.5583 38.7812 95.4996 38.7548 95.4479C38.7283 95.3962 38.6862 95.3542 38.6345 95.3279C37.9295 94.9327 37.1409 94.7101 36.3332 94.6784C35.5256 94.6468 34.722 94.8069 33.9882 95.1456C34.2408 94.4133 34.4871 93.6363 34.7141 92.8305C34.7343 92.7978 34.7454 92.7602 34.7461 92.7218C34.8068 92.4947 34.8708 92.2677 34.9283 92.0343C35.8525 93.0383 36.7063 93.5308 37.5281 93.5308C38.5257 93.5308 39.4467 92.7921 40.3324 91.2924C40.3564 91.2366 40.3602 91.1742 40.3433 91.1159C40.3264 91.0576 40.2898 91.007 40.2397 90.9726C38.3818 89.6936 36.1595 90.5665 35.1682 91.0782C35.3089 90.4791 35.4325 89.8694 35.5391 89.2491L35.5423 89.1851Z" fill="#11401C"/>
<path opacity="0.3" d="M35.5423 89.1851C35.5439 89.1745 35.5439 89.1638 35.5423 89.1532C35.6318 88.6383 35.7086 88.1203 35.7725 87.5959C36.6775 88.6031 37.4641 88.859 38.0269 88.859C38.0865 88.8623 38.1463 88.8623 38.206 88.859C39.3092 88.7502 40.2397 87.6694 40.7002 85.981C40.7093 85.9476 40.7111 85.9127 40.7056 85.8785C40.7001 85.8443 40.6873 85.8117 40.6682 85.7828C40.6286 85.7222 40.5684 85.6779 40.4987 85.6581C39.7172 85.4443 38.8979 85.4065 38.1 85.5475C37.3021 85.6885 36.5454 86.0048 35.8845 86.4735C35.9228 85.9811 35.9452 85.4886 35.9516 84.993C36.1301 85.0242 36.3108 85.0403 36.492 85.0409C38.3147 85.0409 39.4435 83.4197 39.4978 83.3398C39.5182 83.3089 39.5306 83.2735 39.534 83.2366C39.5373 83.1998 39.5315 83.1627 39.517 83.1287C39.5022 83.0914 39.4798 83.0577 39.4511 83.0296C39.4225 83.0015 39.3883 82.9797 39.3507 82.9656C38.2124 82.5371 37.2882 82.4988 36.6071 82.8569C36.1737 83.0926 35.8407 83.4779 35.6702 83.9409C35.1885 82.8915 34.4589 81.975 33.5442 81.2703C32.6295 80.5656 31.5572 80.0939 30.4196 79.8959C30.3871 79.8881 30.3532 79.8882 30.3207 79.8962C30.2883 79.9041 30.2581 79.9196 30.2328 79.9415C30.2075 79.9634 30.1878 79.9909 30.1752 80.0219C30.1627 80.0529 30.1577 80.0864 30.1606 80.1197C30.2757 81.7729 30.5827 83.7906 31.9449 84.7563C32.4899 85.1297 33.1391 85.3211 33.7996 85.3031C34.3644 85.2909 34.9249 85.2016 35.4656 85.0377C35.4372 86.216 35.3304 87.3911 35.1458 88.5552C34.3879 87.695 32.4597 85.7828 29.828 85.1241C29.7988 85.115 29.7679 85.1123 29.7375 85.1164C29.7071 85.1204 29.678 85.131 29.6521 85.1474C29.6263 85.1639 29.6043 85.1857 29.5877 85.2115C29.5712 85.2373 29.5604 85.2664 29.5562 85.2967C29.3612 86.7197 29.7001 87.8741 30.5315 88.6351C31.2222 89.2747 32.2135 89.5944 33.4094 89.5944C33.9401 89.5895 34.4691 89.5339 34.9891 89.4282C34.81 90.4034 34.5894 91.3468 34.3496 92.2677C33.5214 91.609 31.1263 89.943 28.8432 90.6369C28.813 90.6468 28.7855 90.6634 28.7627 90.6856C28.74 90.7078 28.7227 90.7349 28.712 90.7648C28.7011 90.7968 28.6972 90.8308 28.7005 90.8644C28.7038 90.898 28.7143 90.9306 28.7312 90.9598C29.5754 92.5331 30.4196 93.4061 31.3821 93.7099C31.6327 93.7878 31.8935 93.8276 32.156 93.8282C32.8349 93.7999 33.4954 93.5985 34.0746 93.243C33.7132 94.4517 33.3167 95.5773 32.9266 96.5814C32.2743 95.9722 31.4799 95.5361 30.6159 95.3127C29.7518 95.0893 28.8456 95.0857 27.9798 95.3023C27.9524 95.3083 27.9265 95.3197 27.9037 95.336C27.8808 95.3522 27.8615 95.3729 27.8469 95.3968C27.8323 95.4207 27.8226 95.4473 27.8185 95.475C27.8144 95.5028 27.816 95.531 27.8231 95.5581C27.957 96.0765 28.21 96.5566 28.5619 96.9601C28.9139 97.3637 29.355 97.6796 29.8504 97.8828C30.2124 98.0326 30.6003 98.1098 30.992 98.1099C31.5102 98.1059 32.0188 97.9694 32.4693 97.7134C31.9594 98.959 31.3841 100.177 30.7458 101.362C30.7186 101.421 30.7143 101.488 30.7338 101.55C30.7533 101.612 30.7952 101.665 30.8513 101.698C30.8931 101.725 30.942 101.739 30.992 101.739C31.0292 101.74 31.0661 101.731 31.0987 101.713C31.1314 101.695 31.1586 101.669 31.1775 101.637C31.9514 100.186 32.6401 98.6912 33.24 97.1602C33.2523 97.1357 33.262 97.11 33.2687 97.0834C33.3881 96.7828 33.5064 96.4727 33.6237 96.1529C34.3943 97.0418 35.3313 97.5343 36.2714 97.5343C36.3737 97.5343 36.4728 97.5343 36.5752 97.5343C37.0963 97.4823 37.5885 97.2698 37.9837 96.9261C38.3789 96.5824 38.6577 96.1246 38.7816 95.6157C38.7906 95.5583 38.7812 95.4996 38.7548 95.4479C38.7283 95.3962 38.6862 95.3542 38.6345 95.3279C37.9295 94.9327 37.1409 94.7101 36.3332 94.6784C35.5256 94.6468 34.722 94.8069 33.9882 95.1456C34.2408 94.4133 34.4871 93.6363 34.7141 92.8305C34.7343 92.7978 34.7454 92.7602 34.7461 92.7218C34.8068 92.4947 34.8708 92.2677 34.9283 92.0343C35.8525 93.0383 36.7063 93.5308 37.5281 93.5308C38.5257 93.5308 39.4467 92.7921 40.3324 91.2924C40.3564 91.2366 40.3602 91.1742 40.3433 91.1159C40.3264 91.0576 40.2898 91.007 40.2397 90.9726C38.3818 89.6936 36.1595 90.5665 35.1682 91.0782C35.3089 90.4791 35.4325 89.8694 35.5391 89.2491L35.5423 89.1851Z" fill="black"/>
<path d="M23.9473 95.6669C24.2921 95.7751 24.6508 95.8322 25.0121 95.8364C25.4709 95.8342 25.9238 95.7341 26.3408 95.5429C26.7578 95.3516 27.1291 95.0735 27.43 94.7272C27.7308 94.381 27.9543 93.9744 28.0855 93.5349C28.2167 93.0953 28.2525 92.6328 28.1906 92.1782C28.1799 92.1285 28.151 92.0846 28.1096 92.0551C28.0682 92.0255 28.0173 92.0124 27.9668 92.0183C27.0829 92.1161 26.2318 92.4093 25.4752 92.8767C24.7186 93.344 24.0755 93.9738 23.5924 94.7204C23.1894 93.614 22.8121 92.4372 22.4955 91.2189C23.0123 91.5245 23.5968 91.697 24.1967 91.721C24.4433 91.7218 24.6884 91.6829 24.9226 91.6058C26.1665 91.1933 27.0203 89.7096 27.7589 88.1651C27.7723 88.1372 27.7792 88.1066 27.7792 88.0756C27.7792 88.0446 27.7723 88.014 27.7589 87.9861C27.7481 87.9582 27.7308 87.9333 27.7086 87.9134C27.6864 87.8934 27.6598 87.8789 27.631 87.8709C25.1976 87.1771 22.9848 89.5561 22.2877 90.4067C22.0435 89.3752 21.8557 88.3313 21.7249 87.2794C22.2404 87.378 22.7638 87.4293 23.2886 87.4329C24.5677 87.4329 25.5781 87.0939 26.2624 86.4256C27.0746 85.6358 27.3528 84.4526 27.0714 83.0073C27.066 82.9794 27.0547 82.9529 27.0384 82.9297C27.022 82.9064 27.0009 82.8869 26.9764 82.8724C26.9519 82.8579 26.9247 82.8487 26.8964 82.8455C26.8681 82.8423 26.8395 82.8451 26.8124 82.8538C24.2159 83.5445 22.3836 85.4759 21.6354 86.3904C21.6354 86.2018 21.6034 86.0131 21.5906 85.8244C21.5867 85.7771 21.5677 85.7322 21.5362 85.6965C21.4714 85.3422 21.3281 85.007 21.1167 84.7153C20.9053 84.4237 20.6313 84.1832 20.3147 84.0113C19.6048 83.6596 18.6679 83.7108 17.5359 84.1616C17.5024 84.1747 17.4722 84.1949 17.4473 84.2208C17.4225 84.2468 17.4036 84.2779 17.392 84.3119C17.3806 84.3449 17.3772 84.3801 17.3822 84.4146C17.3872 84.4491 17.4005 84.4819 17.4208 84.5102C17.4784 84.5869 18.6999 86.1922 20.529 86.1922C20.7265 86.1916 20.9235 86.1723 21.1173 86.1346C21.1557 86.6548 21.2101 87.176 21.2804 87.6983C20.5913 87.2298 19.8081 86.9175 18.9857 86.7833C18.1632 86.6491 17.3214 86.6962 16.5191 86.9212C16.4874 86.929 16.4578 86.9433 16.4319 86.9631C16.4061 86.9829 16.3846 87.0078 16.3688 87.0363C16.3527 87.0636 16.3425 87.0938 16.3386 87.1252C16.3348 87.1565 16.3374 87.1883 16.3464 87.2186C16.9124 88.939 17.9197 90.023 19.0452 90.1157C19.0964 90.119 19.1476 90.119 19.1987 90.1157C19.7743 90.1157 20.5705 89.8535 21.4371 88.7919C21.649 89.9883 21.9265 91.1722 22.2685 92.3381C21.2389 91.8329 18.9109 90.9631 17.0883 92.287C17.0625 92.3032 17.0402 92.3244 17.0228 92.3493C17.0053 92.3743 16.9929 92.4024 16.9863 92.4322C16.9798 92.4619 16.9792 92.4926 16.9846 92.5226C16.9901 92.5526 17.0014 92.5812 17.0179 92.6067C17.9996 94.1192 18.9653 94.8451 19.9694 94.8451H19.995C20.8296 94.8451 21.6705 94.3239 22.5531 93.2846C22.9144 94.423 23.311 95.5038 23.7171 96.5079C22.7066 95.846 21.5235 95.9515 20.0653 96.8277C20.0337 96.8478 20.0068 96.8745 19.9864 96.906C19.966 96.9374 19.9525 96.9729 19.947 97.0099C19.9431 97.0448 19.9481 97.0801 19.9615 97.1125C19.9749 97.145 19.9963 97.1735 20.0237 97.1954C20.0973 97.253 21.3412 98.1899 22.7322 98.1899C23.2663 98.195 23.7897 98.0402 24.2351 97.7454C25.0221 99.5748 25.929 101.35 26.9499 103.06C26.9703 103.092 26.9988 103.118 27.0324 103.136C27.066 103.154 27.1037 103.163 27.1418 103.162C27.1933 103.163 27.2436 103.147 27.2857 103.118C27.3419 103.083 27.3824 103.028 27.3985 102.964C27.4146 102.9 27.4051 102.832 27.372 102.775C26.0336 100.506 24.888 98.1281 23.9473 95.6669Z" fill="#11401C"/>
<path opacity="0.5" d="M23.9473 95.6669C24.2921 95.7751 24.6508 95.8322 25.0121 95.8364C25.4709 95.8342 25.9238 95.7341 26.3408 95.5429C26.7578 95.3516 27.1291 95.0735 27.43 94.7272C27.7308 94.381 27.9543 93.9744 28.0855 93.5349C28.2167 93.0953 28.2525 92.6328 28.1906 92.1782C28.1799 92.1285 28.151 92.0846 28.1096 92.0551C28.0682 92.0255 28.0173 92.0124 27.9668 92.0183C27.0829 92.1161 26.2318 92.4093 25.4752 92.8767C24.7186 93.344 24.0755 93.9738 23.5924 94.7204C23.1894 93.614 22.8121 92.4372 22.4955 91.2189C23.0123 91.5245 23.5968 91.697 24.1967 91.721C24.4433 91.7218 24.6884 91.6829 24.9226 91.6058C26.1665 91.1933 27.0203 89.7096 27.7589 88.1651C27.7723 88.1372 27.7792 88.1066 27.7792 88.0756C27.7792 88.0446 27.7723 88.014 27.7589 87.9861C27.7481 87.9582 27.7308 87.9333 27.7086 87.9134C27.6864 87.8934 27.6598 87.8789 27.631 87.8709C25.1976 87.1771 22.9848 89.5561 22.2877 90.4067C22.0435 89.3752 21.8557 88.3313 21.7249 87.2794C22.2404 87.378 22.7638 87.4293 23.2886 87.4329C24.5677 87.4329 25.5781 87.0939 26.2624 86.4256C27.0746 85.6358 27.3528 84.4526 27.0714 83.0073C27.066 82.9794 27.0547 82.9529 27.0384 82.9297C27.022 82.9064 27.0009 82.8869 26.9764 82.8724C26.9519 82.8579 26.9247 82.8487 26.8964 82.8455C26.8681 82.8423 26.8395 82.8451 26.8124 82.8538C24.2159 83.5445 22.3836 85.4759 21.6354 86.3904C21.6354 86.2018 21.6034 86.0131 21.5906 85.8244C21.5867 85.7771 21.5677 85.7322 21.5362 85.6965C21.4714 85.3422 21.3281 85.007 21.1167 84.7153C20.9053 84.4237 20.6313 84.1832 20.3147 84.0113C19.6048 83.6596 18.6679 83.7108 17.5359 84.1616C17.5024 84.1747 17.4722 84.1949 17.4473 84.2208C17.4225 84.2468 17.4036 84.2779 17.392 84.3119C17.3806 84.3449 17.3772 84.3801 17.3822 84.4146C17.3872 84.4491 17.4005 84.4819 17.4208 84.5102C17.4784 84.5869 18.6999 86.1922 20.529 86.1922C20.7265 86.1916 20.9235 86.1723 21.1173 86.1346C21.1557 86.6548 21.2101 87.176 21.2804 87.6983C20.5913 87.2298 19.8081 86.9175 18.9857 86.7833C18.1632 86.6491 17.3214 86.6962 16.5191 86.9212C16.4874 86.929 16.4578 86.9433 16.4319 86.9631C16.4061 86.9829 16.3846 87.0078 16.3688 87.0363C16.3527 87.0636 16.3425 87.0938 16.3386 87.1252C16.3348 87.1565 16.3374 87.1883 16.3464 87.2186C16.9124 88.939 17.9197 90.023 19.0452 90.1157C19.0964 90.119 19.1476 90.119 19.1987 90.1157C19.7743 90.1157 20.5705 89.8535 21.4371 88.7919C21.649 89.9883 21.9265 91.1722 22.2685 92.3381C21.2389 91.8329 18.9109 90.9631 17.0883 92.287C17.0625 92.3032 17.0402 92.3244 17.0228 92.3493C17.0053 92.3743 16.9929 92.4024 16.9863 92.4322C16.9798 92.4619 16.9792 92.4926 16.9846 92.5226C16.9901 92.5526 17.0014 92.5812 17.0179 92.6067C17.9996 94.1192 18.9653 94.8451 19.9694 94.8451H19.995C20.8296 94.8451 21.6705 94.3239 22.5531 93.2846C22.9144 94.423 23.311 95.5038 23.7171 96.5079C22.7066 95.846 21.5235 95.9515 20.0653 96.8277C20.0337 96.8478 20.0068 96.8745 19.9864 96.906C19.966 96.9374 19.9525 96.9729 19.947 97.0099C19.9431 97.0448 19.9481 97.0801 19.9615 97.1125C19.9749 97.145 19.9963 97.1735 20.0237 97.1954C20.0973 97.253 21.3412 98.1899 22.7322 98.1899C23.2663 98.195 23.7897 98.0402 24.2351 97.7454C25.0221 99.5748 25.929 101.35 26.9499 103.06C26.9703 103.092 26.9988 103.118 27.0324 103.136C27.066 103.154 27.1037 103.163 27.1418 103.162C27.1933 103.163 27.2436 103.147 27.2857 103.118C27.3419 103.083 27.3824 103.028 27.3985 102.964C27.4146 102.9 27.4051 102.832 27.372 102.775C26.0336 100.506 24.888 98.1281 23.9473 95.6669Z" fill="white"/>
<path d="M32.7411 108.503H25.1242L24.5486 100.627H33.3166L32.7411 108.503Z" fill="#263238"/>
<path d="M33.8827 100.096H23.9795V101.43H33.8827V100.096Z" fill="#263238"/>
<path d="M29.3837 61.9224H11.7996C10.5652 61.9224 9.56445 62.9231 9.56445 64.1575V106.268C9.56445 107.502 10.5652 108.503 11.7996 108.503H29.3837C30.6182 108.503 31.6189 107.502 31.6189 106.268V64.1575C31.6189 62.9231 30.6182 61.9224 29.3837 61.9224Z" fill="#11401C"/>
<path opacity="0.6" d="M29.3837 61.9224H11.7996C10.5652 61.9224 9.56445 62.9231 9.56445 64.1575V106.268C9.56445 107.502 10.5652 108.503 11.7996 108.503H29.3837C30.6182 108.503 31.6189 107.502 31.6189 106.268V64.1575C31.6189 62.9231 30.6182 61.9224 29.3837 61.9224Z" fill="black"/>
<path d="M28.3123 61.9224H10.7282C9.49377 61.9224 8.49304 62.9231 8.49304 64.1575V106.268C8.49304 107.502 9.49377 108.503 10.7282 108.503H28.3123C29.5468 108.503 30.5475 107.502 30.5475 106.268V64.1575C30.5475 62.9231 29.5468 61.9224 28.3123 61.9224Z" fill="#11401C"/>
<path opacity="0.3" d="M28.3123 61.9224H10.7282C9.49377 61.9224 8.49304 62.9231 8.49304 64.1575V106.268C8.49304 107.502 9.49377 108.503 10.7282 108.503H28.3123C29.5468 108.503 30.5475 107.502 30.5475 106.268V64.1575C30.5475 62.9231 29.5468 61.9224 28.3123 61.9224Z" fill="black"/>
<path d="M30.5477 64.4868H8.49329V104.515H30.5477V64.4868Z" fill="#FAFAFA"/>
<path opacity="0.18" d="M30.5604 64.4033H8.50598V104.432H30.5604V64.4033Z" fill="#11401C"/>
<path opacity="0.4" d="M16.497 64.4897L9.34375 104.518H16.4266L23.583 64.4897H16.497Z" fill="white"/>
<path opacity="0.4" d="M25.3097 64.4897L18.1565 104.518H21.6995L28.8528 64.4897H25.3097Z" fill="white"/>
<path d="M20.5165 106.37C20.5165 106.567 20.4582 106.759 20.349 106.922C20.2397 107.086 20.0844 107.213 19.9026 107.289C19.7209 107.364 19.521 107.384 19.3281 107.345C19.1351 107.307 18.9579 107.212 18.8189 107.073C18.6798 106.934 18.5851 106.757 18.5467 106.564C18.5083 106.371 18.528 106.171 18.6033 105.989C18.6786 105.808 18.806 105.652 18.9696 105.543C19.1331 105.434 19.3254 105.375 19.5221 105.375C19.7858 105.375 20.0388 105.48 20.2253 105.667C20.4118 105.853 20.5165 106.106 20.5165 106.37Z" fill="#11401C"/>
<path opacity="0.5" d="M20.5165 106.37C20.5165 106.567 20.4582 106.759 20.349 106.922C20.2397 107.086 20.0844 107.213 19.9026 107.289C19.7209 107.364 19.521 107.384 19.3281 107.345C19.1351 107.307 18.9579 107.212 18.8189 107.073C18.6798 106.934 18.5851 106.757 18.5467 106.564C18.5083 106.371 18.528 106.171 18.6033 105.989C18.6786 105.808 18.806 105.652 18.9696 105.543C19.1331 105.434 19.3254 105.375 19.5221 105.375C19.7858 105.375 20.0388 105.48 20.2253 105.667C20.4118 105.853 20.5165 106.106 20.5165 106.37Z" fill="black"/>
<path d="M22.128 63.4535C22.3223 63.4535 22.4797 63.296 22.4797 63.1017C22.4797 62.9075 22.3223 62.75 22.128 62.75C21.9337 62.75 21.7762 62.9075 21.7762 63.1017C21.7762 63.296 21.9337 63.4535 22.128 63.4535Z" fill="#11401C"/>
<path d="M20.6923 63.4535H16.9127C16.8194 63.4535 16.7299 63.4164 16.6639 63.3505C16.598 63.2845 16.5609 63.195 16.5609 63.1017C16.5617 63.0087 16.5991 62.9197 16.6649 62.8539C16.7306 62.7882 16.8196 62.7508 16.9127 62.75H20.6891C20.7822 62.7508 20.8711 62.7882 20.9369 62.8539C21.0027 62.9197 21.04 63.0087 21.0409 63.1017C21.0409 63.1945 21.0043 63.2835 20.939 63.3493C20.8737 63.4152 20.7851 63.4526 20.6923 63.4535Z" fill="#11401C"/>
<path opacity="0.5" d="M22.128 63.4535C22.3223 63.4535 22.4797 63.296 22.4797 63.1017C22.4797 62.9075 22.3223 62.75 22.128 62.75C21.9337 62.75 21.7762 62.9075 21.7762 63.1017C21.7762 63.296 21.9337 63.4535 22.128 63.4535Z" fill="black"/>
<path opacity="0.5" d="M20.6923 63.4535H16.9127C16.8194 63.4535 16.7299 63.4164 16.6639 63.3505C16.598 63.2845 16.5609 63.195 16.5609 63.1017C16.5617 63.0087 16.5991 62.9197 16.6649 62.8539C16.7306 62.7882 16.8196 62.7508 16.9127 62.75H20.6891C20.7822 62.7508 20.8711 62.7882 20.9369 62.8539C21.0027 62.9197 21.04 63.0087 21.0409 63.1017C21.0409 63.1945 21.0043 63.2835 20.939 63.3493C20.8737 63.4152 20.7851 63.4526 20.6923 63.4535Z" fill="black"/>
</svg>
