<svg width="442" height="349" viewBox="0 0 442 349" fill="none" xmlns="http://www.w3.org/2000/svg">
<path d="M441.618 309.62H0V309.836H441.618V309.62Z" fill="#EBEBEB"/>
<path d="M397.368 323.543H368.115V323.759H397.368V323.543Z" fill="#EBEBEB"/>
<path d="M292.545 325.897H284.87V326.114H292.545V325.897Z" fill="#EBEBEB"/>
<path d="M367.232 315.513H350.282V315.729H367.232V315.513Z" fill="#EBEBEB"/>
<path d="M84.4815 316.967H46.3346V317.183H84.4815V316.967Z" fill="#EBEBEB"/>
<path d="M97.942 316.967H92.3511V317.183H97.942V316.967Z" fill="#EBEBEB"/>
<path d="M198.861 320.618H116.119V320.834H198.861V320.618Z" fill="#EBEBEB"/>
<path d="M209.327 271.026H38.7829C37.4468 271.024 36.1663 270.502 35.2224 269.576C34.2785 268.649 33.7484 267.394 33.7484 266.085V31.205C33.76 29.9035 34.2953 28.6591 35.2379 27.7421C36.1806 26.825 37.4544 26.3094 38.7829 26.3071H209.327C210.664 26.3071 211.947 26.8277 212.893 27.7543C213.839 28.681 214.37 29.9378 214.37 31.2482V266.085C214.37 267.395 213.839 268.652 212.893 269.579C211.947 270.505 210.664 271.026 209.327 271.026ZM38.7829 26.4802C37.5054 26.4825 36.281 26.9813 35.3786 27.8671C34.4761 28.7529 33.9692 29.9534 33.9692 31.205V266.085C33.9692 267.336 34.4761 268.537 35.3786 269.423C36.281 270.309 37.5054 270.807 38.7829 270.81H209.327C210.605 270.807 211.83 270.309 212.734 269.423C213.638 268.538 214.147 267.337 214.149 266.085V31.205C214.147 29.9526 213.638 28.7521 212.734 27.8666C211.83 26.981 210.605 26.4825 209.327 26.4802H38.7829Z" fill="#EBEBEB"/>
<path d="M400.38 271.026H229.827C228.49 271.024 227.209 270.502 226.263 269.576C225.318 268.65 224.786 267.395 224.784 266.085V31.205C224.798 29.9027 225.335 28.6583 226.279 27.7415C227.223 26.8247 228.498 26.3093 229.827 26.3071H400.38C401.707 26.3116 402.978 26.8283 403.919 27.7451C404.86 28.6619 405.394 29.905 405.405 31.205V266.085C405.405 267.392 404.876 268.646 403.934 269.573C402.992 270.499 401.714 271.021 400.38 271.026ZM229.827 26.4802C228.549 26.4825 227.323 26.981 226.419 27.8666C225.516 28.7521 225.007 29.9526 225.004 31.205V266.085C225.007 267.337 225.516 268.538 226.419 269.423C227.323 270.309 228.549 270.807 229.827 270.81H400.38C401.658 270.807 402.883 270.309 403.787 269.423C404.691 268.538 405.2 267.337 405.202 266.085V31.205C405.2 29.9526 404.691 28.7521 403.787 27.8666C402.883 26.981 401.658 26.4825 400.38 26.4802H229.827Z" fill="#EBEBEB"/>
<path d="M351.802 62.4609H239.578V309.62H351.802V62.4609Z" fill="#F0F0F0"/>
<path d="M351.802 62.4609H241.945V309.62H351.802V62.4609Z" fill="#F5F5F5"/>
<path d="M345.098 304.013V68.0684H248.631V304.013H345.098Z" fill="#F0F0F0"/>
<path d="M258.117 111.976C258.113 108.591 258.791 105.239 260.11 102.11C261.429 98.9819 263.364 96.1388 265.805 93.7433C268.246 91.3478 271.145 89.447 274.336 88.1493C277.527 86.8516 280.947 86.1825 284.402 86.1802H309.309C312.767 86.1768 316.192 86.8417 319.388 88.137C322.583 89.4322 325.487 91.3324 327.931 93.7285C330.376 96.1247 332.315 98.9698 333.636 102.101C334.957 105.232 335.634 108.588 335.63 111.976H258.117Z" fill="#FAFAFA"/>
<path d="M335.63 289.345V232.977H258.126V289.345H335.63Z" fill="#F5F5F5"/>
<path d="M258.117 225.708H292.307V127.846H258.117V225.708Z" fill="#F5F5F5"/>
<path d="M301.431 225.708H335.621V127.846H301.431V225.708Z" fill="#F5F5F5"/>
<path d="M323.264 176.332H337.264C337.84 176.332 338.392 176.107 338.8 175.708C339.207 175.309 339.436 174.768 339.436 174.203C339.434 173.639 339.204 173.099 338.797 172.7C338.39 172.302 337.839 172.076 337.264 172.074H323.264C322.688 172.074 322.135 172.298 321.728 172.698C321.32 173.097 321.092 173.638 321.092 174.203C321.092 174.768 321.32 175.309 321.728 175.708C322.135 176.107 322.688 176.332 323.264 176.332Z" fill="#E0E0E0"/>
<path d="M345.098 304.013V68.0684H343.358V304.013H345.098Z" fill="#F0F0F0"/>
<path d="M62.171 213.593H168.945V65.5242C168.945 53.7296 62.171 53.7296 62.171 65.5242V213.593Z" fill="#E0E0E0"/>
<path d="M64.6264 213.593H171.392V65.5242C171.392 53.7296 64.6176 53.7296 64.6264 65.5242V213.593Z" fill="#EBEBEB"/>
<path d="M166.092 206.168V68.4492C166.095 67.9874 165.95 67.5364 165.68 67.1582C165.409 66.7801 165.026 66.4934 164.582 66.3377C158.656 64.2523 142.501 61.8726 118.009 61.8726C93.517 61.8726 77.3803 64.2523 71.4361 66.3377C70.9924 66.4934 70.6089 66.7801 70.3384 67.1582C70.0679 67.5364 69.9238 67.9874 69.9258 68.4492V206.168C69.9258 206.761 70.1659 207.328 70.5932 207.747C71.0206 208.166 71.6002 208.401 72.2046 208.401H163.814C164.418 208.401 164.998 208.166 165.425 207.747C165.852 207.328 166.092 206.761 166.092 206.168Z" fill="#FAFAFA"/>
<path d="M143.526 62.8677L160.175 208.401H135.859L119.078 61.8726C128.546 61.8985 136.725 62.2879 143.526 62.8677Z" fill="white"/>
<path d="M112.083 61.9243L128.864 208.401H115.412L98.7016 62.4176C102.773 62.1753 107.242 62.0022 112.083 61.9243Z" fill="white"/>
<path d="M102.111 210.331L102.111 59.6401H97.4474L97.4474 210.331H102.111Z" fill="#EBEBEB"/>
<path d="M139.666 210.331V59.6401H135.003V210.331H139.666Z" fill="#EBEBEB"/>
<path d="M135.003 210.322V59.6313H134.164V210.322H135.003Z" fill="#E0E0E0"/>
<path d="M97.4474 210.322L97.4474 59.6313H96.6091L96.6091 210.322H97.4474Z" fill="#E0E0E0"/>
<path d="M68.2123 97.3945L168.901 97.3945V92.8255L68.2123 92.8255V97.3945Z" fill="#EBEBEB"/>
<path d="M67.3291 217.254H176.259V212.209H67.3291V217.254Z" fill="#F5F5F5"/>
<path d="M67.3291 212.2H62.171V217.245H67.3291V212.2Z" fill="#E0E0E0"/>
<path d="M368.327 43.856H394.956V36.4832H368.327V43.856Z" fill="#F0F0F0"/>
<path d="M355.017 51.229H381.646V43.8563H355.017V51.229Z" fill="#E6E6E6"/>
<path d="M181.054 152.326H207.684V144.953H181.054V152.326Z" fill="#F5F5F5"/>
<path d="M141.547 245.135H168.177V237.762H141.547V245.135Z" fill="#F5F5F5"/>
<path d="M394.956 246.009H368.327V253.381H394.956V246.009Z" fill="#E6E6E6"/>
<path d="M167.735 20.7773L194.365 20.7773V13.4046L167.735 13.4046V20.7773Z" fill="#F0F0F0"/>
<path d="M69.917 289.916H96.5465V282.543H69.917V289.916Z" fill="#F5F5F5"/>
<path d="M48.8606 236.386H75.4902V229.013H48.8606V236.386Z" fill="#F5F5F5"/>
<path d="M83.2449 297.289H109.874V289.916H83.2449V297.289Z" fill="#F0F0F0"/>
<path d="M91.256 37.5479H64.6264V44.9206H91.256V37.5479Z" fill="#F0F0F0"/>
<path d="M220.809 348.699C315.388 348.699 392.059 344.313 392.059 338.903C392.059 333.493 315.388 329.107 220.809 329.107C126.23 329.107 49.5583 333.493 49.5583 338.903C49.5583 344.313 126.23 348.699 220.809 348.699Z" fill="#F5F5F5"/>
<path d="M116.711 88.8975C111.482 90.0311 105.405 97.2135 111.411 104.543C117.417 111.872 107.357 108.671 105.794 121.495C104.231 134.319 116.163 132.165 112.418 140.576C108.673 148.987 134.667 162.313 150.883 152.215C167.099 142.116 168.618 120.37 163.549 112.686C158.479 105.002 151.077 104.517 154.434 96.2876C157.79 88.0582 153.833 79.4999 143.367 79.422C135.471 79.3615 140.205 73.9531 129.341 73.9964C120.279 74.0396 112.268 80.2701 116.711 88.8975Z" fill="#263238"/>
<path d="M145.778 99.6192C145.268 99.6192 144.769 99.7674 144.345 100.045C143.921 100.323 143.591 100.717 143.395 101.179C143.2 101.641 143.149 102.149 143.249 102.639C143.348 103.129 143.594 103.579 143.954 103.933C144.315 104.286 144.775 104.527 145.275 104.624C145.775 104.722 146.294 104.672 146.765 104.48C147.236 104.289 147.639 103.965 147.922 103.55C148.206 103.134 148.357 102.646 148.357 102.146C148.358 101.814 148.292 101.485 148.163 101.178C148.034 100.871 147.844 100.592 147.604 100.357C147.365 100.122 147.08 99.9357 146.766 99.8092C146.453 99.6826 146.117 99.618 145.778 99.6192ZM145.778 104.076C145.386 104.076 145.004 103.962 144.678 103.748C144.352 103.535 144.099 103.232 143.949 102.877C143.8 102.522 143.761 102.132 143.838 101.756C143.915 101.38 144.105 101.034 144.382 100.764C144.66 100.493 145.013 100.309 145.398 100.235C145.782 100.161 146.18 100.201 146.541 100.349C146.903 100.497 147.211 100.747 147.427 101.067C147.644 101.387 147.758 101.762 147.757 102.146C147.757 102.4 147.705 102.652 147.606 102.886C147.506 103.121 147.36 103.334 147.177 103.514C146.993 103.693 146.775 103.835 146.535 103.931C146.295 104.028 146.037 104.077 145.778 104.076Z" fill="white"/>
<path d="M167.523 124.238C167.494 124.234 167.467 124.224 167.442 124.209C167.417 124.194 167.396 124.174 167.379 124.15C167.362 124.127 167.351 124.1 167.345 124.072C167.34 124.044 167.34 124.015 167.347 123.987C168.141 119.954 164.935 116.052 161.544 111.872C157.578 107.052 153.091 101.583 154.672 95.0672C156.023 89.5117 155.423 84.8735 152.976 82.0006C150.98 79.6555 147.862 78.5392 143.72 78.7815C139.922 78.9719 138.8 77.9161 137.608 76.895C136.416 75.8739 134.835 74.4288 129.385 74.4634C129.328 74.4635 129.273 74.4419 129.232 74.4032C129.191 74.3644 129.167 74.3116 129.164 74.2558C129.164 74.1976 129.187 74.1416 129.228 74.0996C129.27 74.0577 129.326 74.033 129.385 74.0308H129.571C135.064 74.0308 136.575 75.3807 137.908 76.5749C139.074 77.6219 140.09 78.5305 143.702 78.3488C147.986 78.1325 151.228 79.2661 153.321 81.7237C155.856 84.7091 156.483 89.5117 155.087 95.1711C153.559 101.479 157.781 106.628 161.871 111.613C165.324 115.827 168.592 119.807 167.762 124.03C167.761 124.059 167.753 124.088 167.741 124.115C167.728 124.141 167.71 124.165 167.688 124.184C167.665 124.203 167.639 124.218 167.611 124.227C167.583 124.237 167.553 124.24 167.523 124.238Z" fill="#263238"/>
<path d="M188.288 107.702L187.105 109.969C186.882 110.389 186.766 110.855 186.766 111.327C186.766 111.8 186.882 112.266 187.105 112.686L189.198 116.667C189.611 117.452 190.209 118.128 190.944 118.64C191.678 119.152 192.527 119.484 193.42 119.609L194.533 119.764C196.776 116.139 196.467 110.601 196.467 110.601L196.555 109.017C196.584 108.691 196.547 108.364 196.446 108.052C196.344 107.741 196.181 107.453 195.965 107.204C195.748 106.955 195.484 106.751 195.187 106.603C194.889 106.455 194.565 106.367 194.232 106.343L191.026 106.127C190.464 106.103 189.906 106.239 189.42 106.518C188.934 106.798 188.541 107.209 188.288 107.702Z" fill="#FFC3BD"/>
<path d="M161.994 122.854C161.994 122.854 162.047 122.949 162.091 123.01L162.277 123.278L162.701 123.832C163.001 124.213 163.328 124.585 163.664 124.957C164.335 125.701 165.05 126.428 165.792 127.129C167.295 128.52 168.924 129.774 170.659 130.876C174.057 133.09 177.9 134.565 181.929 135.203L182.68 135.307L183.059 135.358C183.027 135.355 182.995 135.355 182.962 135.358C182.771 135.374 182.588 135.44 182.432 135.549C182.265 135.705 182.671 135.48 183.059 134.908C184.051 133.33 184.787 131.611 185.241 129.812C185.816 127.716 186.246 125.586 186.531 123.434C186.698 122.344 186.796 121.227 186.893 120.12C186.99 119.012 187.06 117.853 187.06 116.857L197.235 117.333C197.103 118.692 196.97 119.86 196.829 121.115C196.688 122.37 196.485 123.581 196.308 124.81C195.919 127.285 195.469 129.76 194.806 132.304C194.483 133.614 194.085 134.905 193.614 136.172C193.098 137.601 192.441 138.978 191.653 140.282C190.594 142.079 189.071 143.571 187.237 144.609C186.006 145.258 184.642 145.628 183.245 145.691C182.918 145.691 182.512 145.691 182.247 145.691H181.726L180.684 145.621C177.904 145.366 175.156 144.847 172.478 144.072C169.827 143.28 167.251 142.267 164.776 141.044C162.327 139.817 159.98 138.405 157.755 136.821C156.633 136.033 155.547 135.194 154.478 134.311C153.948 133.87 153.427 133.403 152.897 132.927L152.102 132.191L151.687 131.785C151.537 131.629 151.44 131.534 151.201 131.274L161.994 122.854Z" fill="#859B5B"/>
<path opacity="0.5" d="M161.994 122.854C161.994 122.854 162.047 122.949 162.091 123.01L162.277 123.278L162.701 123.832C163.001 124.213 163.328 124.585 163.664 124.957C164.335 125.701 165.05 126.428 165.792 127.129C167.295 128.52 168.924 129.774 170.659 130.876C174.057 133.09 177.9 134.565 181.929 135.203L182.68 135.307L183.059 135.358C183.027 135.355 182.995 135.355 182.962 135.358C182.771 135.374 182.588 135.44 182.432 135.549C182.265 135.705 182.671 135.48 183.059 134.908C184.051 133.33 184.787 131.611 185.241 129.812C185.816 127.716 186.246 125.586 186.531 123.434C186.698 122.344 186.796 121.227 186.893 120.12C186.99 119.012 187.06 117.853 187.06 116.857L197.235 117.333C197.103 118.692 196.97 119.86 196.829 121.115C196.688 122.37 196.485 123.581 196.308 124.81C195.919 127.285 195.469 129.76 194.806 132.304C194.483 133.614 194.085 134.905 193.614 136.172C193.098 137.601 192.441 138.978 191.653 140.282C190.594 142.079 189.071 143.571 187.237 144.609C186.006 145.258 184.642 145.628 183.245 145.691C182.918 145.691 182.512 145.691 182.247 145.691H181.726L180.684 145.621C177.904 145.366 175.156 144.847 172.478 144.072C169.827 143.28 167.251 142.267 164.776 141.044C162.327 139.817 159.98 138.405 157.755 136.821C156.633 136.033 155.547 135.194 154.478 134.311C153.948 133.87 153.427 133.403 152.897 132.927L152.102 132.191L151.687 131.785C151.537 131.629 151.44 131.534 151.201 131.274L161.994 122.854Z" fill="white"/>
<path d="M140.797 331.998C139.507 329.177 140.399 317.287 140.576 315.357C138.341 314.206 130.657 315.617 130.657 315.617C130.657 315.617 132.803 328.104 131.54 331.998C134.481 333.607 140.797 331.998 140.797 331.998Z" fill="#FFC3BD"/>
<path d="M235.612 320.61C233.192 318.628 228.104 307.785 227.389 305.96C224.863 305.899 219.166 310.286 219.166 310.286C219.166 310.286 226.691 320.575 227.283 324.634C230.666 324.772 235.612 320.61 235.612 320.61Z" fill="#FFC3BD"/>
<path d="M148.657 338.895C142.201 338.895 141.097 338.799 137.467 338.678C134.358 338.566 133.616 338.947 131.116 338.895C129.032 338.851 129.111 336.896 129.747 334.637C129.977 333.841 130.295 332.906 130.63 331.782C130.755 331.355 131.018 330.98 131.38 330.713C131.742 330.446 132.183 330.302 132.635 330.302H139.701C140.022 330.307 140.337 330.381 140.624 330.52C140.912 330.66 141.164 330.86 141.362 331.107C143.075 333.192 146.776 334.715 150.009 335.139C153.506 335.598 151.236 338.895 148.657 338.895Z" fill="#859B5B"/>
<path d="M248.366 325.448C241.415 328.528 237.767 326.962 234.278 327.741C231.284 328.399 231.381 328.952 228.405 329.792C226.426 330.337 225.411 328.269 225.587 326.452C225.732 325.13 225.8 323.801 225.79 322.471C225.783 322.215 225.852 321.963 225.991 321.746C226.129 321.529 226.33 321.357 226.568 321.251L233.475 318.179C233.698 318.081 233.944 318.044 234.187 318.073C234.43 318.102 234.66 318.196 234.852 318.343C237.608 320.507 243.685 323.215 247.898 321.805C251.183 320.74 250.68 324.418 248.366 325.448Z" fill="#859B5B"/>
<path d="M171.701 171.113C171.701 171.113 188.014 207.812 196.962 234.854C207.922 259.326 229.88 310.667 229.88 310.667C230.312 311.974 223.37 314.371 221.869 314.128C221.869 314.128 192.881 280.069 181.081 241.379C150.388 203.65 141.335 173.363 141.335 173.363L171.701 171.113Z" fill="#263238"/>
<path opacity="0.2" d="M158.612 191.207C163.116 196.044 166.287 212.841 167.903 223.804C162.368 215.843 157.305 207.577 152.738 199.047C153.188 194.945 155.026 191.925 158.612 191.207Z" fill="black"/>
<path d="M162.612 171.797C162.612 171.797 163.769 222.774 159.247 247.886C154.495 274.253 139.816 306.063 140.832 323.37C139.313 324.236 133.996 324.288 131.019 323.37C131.019 323.37 125.932 271.978 141.22 246.891C137.908 221.796 129.094 189.251 136.919 173.709L162.612 171.797Z" fill="#263238"/>
<path d="M141.574 319.771C141.598 320.96 141.71 322.145 141.909 323.319C141.93 323.416 141.929 323.517 141.908 323.614C141.887 323.711 141.846 323.803 141.787 323.884C141.729 323.966 141.653 324.034 141.567 324.086C141.48 324.137 141.383 324.171 141.282 324.184C137.688 324.746 132.45 323.933 130.842 323.647C130.689 323.619 130.548 323.545 130.438 323.435C130.329 323.325 130.258 323.184 130.233 323.033L129.694 319.71C129.676 319.603 129.682 319.493 129.712 319.388C129.742 319.283 129.795 319.186 129.868 319.104C129.94 319.021 130.03 318.955 130.132 318.91C130.233 318.866 130.343 318.843 130.454 318.845L140.832 319.035C141.029 319.04 141.216 319.119 141.355 319.256C141.493 319.393 141.572 319.578 141.574 319.771Z" fill="#263238"/>
<path opacity="0.1" d="M141.574 319.771C141.598 320.96 141.71 322.145 141.909 323.319C141.93 323.416 141.929 323.517 141.908 323.614C141.887 323.711 141.846 323.803 141.787 323.884C141.729 323.966 141.653 324.034 141.567 324.086C141.48 324.137 141.383 324.171 141.282 324.184C137.688 324.746 132.45 323.933 130.842 323.647C130.689 323.619 130.548 323.545 130.438 323.435C130.329 323.325 130.258 323.184 130.233 323.033L129.694 319.71C129.676 319.603 129.682 319.493 129.712 319.388C129.742 319.283 129.795 319.186 129.868 319.104C129.94 319.021 130.03 318.955 130.132 318.91C130.233 318.866 130.343 318.843 130.454 318.845L140.832 319.035C141.029 319.04 141.216 319.119 141.355 319.256C141.493 319.393 141.572 319.578 141.574 319.771Z" fill="white"/>
<path d="M229.129 306.92C229.57 307.786 230.374 309.196 231.01 310.261C231.108 310.429 231.135 310.628 231.085 310.815C231.036 311.003 230.914 311.164 230.745 311.264C227.903 312.767 224.926 314.01 221.851 314.977C221.696 315.037 221.525 315.045 221.366 314.999C221.206 314.954 221.066 314.858 220.968 314.726L218.866 312C218.798 311.913 218.751 311.812 218.727 311.705C218.704 311.598 218.705 311.487 218.73 311.381C218.756 311.274 218.805 311.174 218.874 311.089C218.943 311.003 219.031 310.933 219.131 310.884L228.087 306.609C228.175 306.558 228.273 306.526 228.375 306.515C228.476 306.503 228.579 306.512 228.677 306.541C228.775 306.571 228.866 306.619 228.944 306.685C229.021 306.75 229.084 306.83 229.129 306.92Z" fill="#263238"/>
<path opacity="0.1" d="M229.129 306.92C229.57 307.786 230.374 309.196 231.01 310.261C231.108 310.429 231.135 310.628 231.085 310.815C231.036 311.003 230.914 311.164 230.745 311.264C227.903 312.767 224.926 314.01 221.851 314.977C221.696 315.037 221.525 315.045 221.366 314.999C221.206 314.954 221.066 314.858 220.968 314.726L218.866 312C218.798 311.913 218.751 311.812 218.727 311.705C218.704 311.598 218.705 311.487 218.73 311.381C218.756 311.274 218.805 311.174 218.874 311.089C218.943 311.003 219.031 310.933 219.131 310.884L228.087 306.609C228.175 306.558 228.273 306.526 228.375 306.515C228.476 306.503 228.579 306.512 228.677 306.541C228.775 306.571 228.866 306.619 228.944 306.685C229.021 306.75 229.084 306.83 229.129 306.92Z" fill="white"/>
<path d="M164.759 127.916C165.642 131.17 167.02 134.743 168.698 142.627C170.244 149.247 171.348 160.885 171.701 171.131C167.161 175.094 152.067 174.419 136.919 173.727C136.875 164.079 132.83 155.174 121.834 135.418C121.216 134.396 120.84 133.251 120.733 132.068C120.626 130.884 120.79 129.693 121.213 128.579C121.636 127.466 122.308 126.46 123.18 125.634C124.051 124.808 125.1 124.183 126.25 123.806C127.566 123.373 128.97 122.94 130.427 122.542C135.485 121.036 140.644 119.879 145.866 119.081C147.58 118.856 149.399 118.683 151.077 118.536C154.114 118.302 157.14 119.11 159.636 120.821C162.131 122.532 163.943 125.04 164.759 127.916Z" fill="#859B5B"/>
<path opacity="0.5" d="M164.759 127.916C165.642 131.17 167.02 134.743 168.698 142.627C170.244 149.247 171.348 160.885 171.701 171.131C167.161 175.094 152.067 174.419 136.919 173.727C136.875 164.079 132.83 155.174 121.834 135.418C121.216 134.396 120.84 133.251 120.733 132.068C120.626 130.884 120.79 129.693 121.213 128.579C121.636 127.466 122.308 126.46 123.18 125.634C124.051 124.808 125.1 124.183 126.25 123.806C127.566 123.373 128.97 122.94 130.427 122.542C135.485 121.036 140.644 119.879 145.866 119.081C147.58 118.856 149.399 118.683 151.077 118.536C154.114 118.302 157.14 119.11 159.636 120.821C162.131 122.532 163.943 125.04 164.759 127.916Z" fill="white"/>
<path d="M146.882 119.072L131.293 122.361C131.293 122.361 143.906 127.553 154.019 135.462C156.774 121.859 146.882 119.072 146.882 119.072Z" fill="white"/>
<path d="M127.575 105.252C130.048 109.821 133.757 118.371 131.293 122.342C131.293 122.342 145.363 126.323 152.87 132.649C153.877 122.42 146.882 119.071 146.882 119.071C140.947 119.071 139.693 114.866 139.498 110.937L127.575 105.252Z" fill="#FFC3BD"/>
<path d="M140.797 123.65C137.583 123.585 134.382 123.217 131.24 122.551C131.212 122.545 131.185 122.534 131.161 122.517C131.137 122.501 131.117 122.48 131.101 122.456C131.085 122.432 131.075 122.405 131.07 122.376C131.065 122.348 131.066 122.319 131.072 122.292C131.087 122.236 131.122 122.189 131.172 122.158C131.221 122.128 131.28 122.117 131.337 122.127C131.426 122.127 139.754 123.953 144.586 122.871C146.131 122.525 147.041 122.006 147.235 121.219C147.287 120.842 147.251 120.459 147.131 120.097C147.01 119.736 146.807 119.407 146.538 119.133C146.516 119.113 146.499 119.089 146.488 119.062C146.476 119.035 146.47 119.006 146.47 118.977C146.47 118.948 146.476 118.92 146.488 118.893C146.499 118.866 146.516 118.842 146.538 118.822C146.579 118.782 146.634 118.76 146.692 118.76C146.75 118.76 146.806 118.782 146.847 118.822C147.172 119.149 147.414 119.547 147.554 119.983C147.693 120.418 147.727 120.88 147.651 121.331C147.368 122.196 146.352 122.897 144.639 123.278C143.375 123.536 142.087 123.661 140.797 123.65Z" fill="white"/>
<path d="M147.076 123.771C146.893 123.896 146.668 123.949 146.447 123.919C146.226 123.888 146.025 123.777 145.884 123.607L145.398 122.984C145.27 122.804 145.216 122.584 145.248 122.367C145.279 122.15 145.392 121.953 145.566 121.815C145.749 121.69 145.974 121.637 146.195 121.668C146.417 121.698 146.618 121.81 146.758 121.98L147.244 122.611C147.37 122.79 147.422 123.009 147.391 123.223C147.36 123.438 147.248 123.634 147.076 123.771Z" fill="#859B5B"/>
<path opacity="0.2" d="M132.432 107.572L139.498 110.938C139.53 111.861 139.649 112.78 139.851 113.682C137.643 113.855 134.031 112.271 133.139 110.22C132.741 109.387 132.502 108.49 132.432 107.572Z" fill="black"/>
<path d="M120.456 98.3213C124.095 105.711 125.464 108.904 131.054 111.44C139.419 115.256 147.968 109.813 146.679 101.644C145.522 94.2888 139.781 83.472 130.887 83.0307C128.977 82.8721 127.059 83.218 125.332 84.0324C123.604 84.8467 122.132 86.0997 121.067 87.6609C120.002 89.2221 119.383 91.0345 119.276 92.9093C119.168 94.7842 119.576 96.653 120.456 98.3213Z" fill="#FFC3BD"/>
<path d="M123.653 87.5907C127.601 93.0856 127.398 102.102 122.77 103.323C115.704 102.25 114.167 100.458 114.167 100.458C114.167 100.458 116.428 83.5063 123.653 87.5907Z" fill="#263238"/>
<path d="M118.089 89.8492C128.528 91.1559 136.84 86.8811 138.403 84.4841C128.952 78.2277 119.122 83.5495 118.089 89.8492Z" fill="#263238"/>
<path d="M139.887 94.0547C141.098 95.3034 142.466 96.3967 143.958 97.3084C143.446 98.3728 141.839 98.5199 141.839 98.5199L139.887 94.0547Z" fill="#ED847E"/>
<path d="M139.383 101.929C139.764 101.866 140.139 101.774 140.505 101.652C140.53 101.644 140.553 101.63 140.572 101.613C140.591 101.595 140.606 101.574 140.616 101.55C140.626 101.526 140.63 101.501 140.63 101.475C140.629 101.449 140.623 101.424 140.611 101.401C140.59 101.351 140.549 101.31 140.499 101.288C140.448 101.266 140.39 101.263 140.337 101.28C139.512 101.565 138.632 101.665 137.762 101.572C136.892 101.48 136.055 101.196 135.312 100.744C135.274 100.708 135.223 100.688 135.17 100.688C135.118 100.688 135.067 100.708 135.029 100.744C135.001 100.788 134.991 100.841 135 100.892C135.01 100.943 135.039 100.989 135.082 101.02C136.352 101.834 137.884 102.158 139.383 101.929Z" fill="#263238"/>
<path d="M120.924 105.919C121.611 106.32 122.376 106.576 123.17 106.67C123.964 106.764 124.77 106.694 125.534 106.464C127.407 105.823 126.859 103.591 125.093 102.137C123.512 100.856 120.623 99.6535 119.352 101.064C118.08 102.475 119.034 104.889 120.924 105.919Z" fill="#FFC3BD"/>
<path d="M124.254 106.369C123.744 106.369 123.245 106.517 122.821 106.795C122.397 107.073 122.066 107.467 121.871 107.929C121.676 108.391 121.625 108.899 121.724 109.389C121.824 109.879 122.069 110.329 122.43 110.683C122.791 111.036 123.25 111.277 123.75 111.374C124.251 111.472 124.769 111.422 125.241 111.23C125.712 111.039 126.115 110.715 126.398 110.3C126.681 109.884 126.833 109.396 126.833 108.896C126.834 108.564 126.768 108.235 126.639 107.928C126.51 107.621 126.32 107.342 126.08 107.107C125.84 106.872 125.555 106.686 125.242 106.559C124.929 106.433 124.593 106.368 124.254 106.369ZM124.254 110.826C123.862 110.826 123.479 110.712 123.154 110.498C122.828 110.285 122.574 109.982 122.425 109.627C122.275 109.272 122.237 108.882 122.314 108.506C122.391 108.13 122.58 107.784 122.858 107.514C123.135 107.243 123.489 107.059 123.873 106.985C124.257 106.911 124.656 106.951 125.017 107.099C125.378 107.247 125.687 107.497 125.903 107.817C126.119 108.137 126.234 108.512 126.232 108.896C126.232 109.15 126.181 109.402 126.081 109.636C125.982 109.871 125.836 110.084 125.652 110.264C125.468 110.443 125.25 110.585 125.01 110.681C124.77 110.778 124.513 110.827 124.254 110.826Z" fill="white"/>
<path d="M130.003 93.4754C130.049 93.4491 130.088 93.4127 130.117 93.3692C130.146 93.3257 130.165 93.2761 130.171 93.2245C130.231 92.7392 130.414 92.2763 130.702 91.8774C130.99 91.4785 131.376 91.1564 131.823 90.94C131.871 90.9204 131.915 90.8913 131.951 90.8545C131.987 90.8177 132.015 90.774 132.034 90.7261C132.052 90.6782 132.06 90.6272 132.057 90.5761C132.054 90.525 132.041 90.4751 132.017 90.4294C131.968 90.3331 131.883 90.259 131.779 90.222C131.676 90.185 131.562 90.188 131.461 90.2304C130.889 90.4913 130.395 90.8902 130.024 91.3898C129.653 91.8893 129.418 92.473 129.341 93.086C129.335 93.1642 129.352 93.2425 129.389 93.3121C129.425 93.3817 129.481 93.4399 129.55 93.4803C129.619 93.5206 129.697 93.5416 129.777 93.5407C129.857 93.5398 129.936 93.5172 130.003 93.4754Z" fill="#263238"/>
<path d="M142.545 88.889C142.597 88.8871 142.648 88.8736 142.694 88.8496C142.74 88.8256 142.78 88.7918 142.81 88.7506C142.872 88.6645 142.897 88.5578 142.878 88.454C142.86 88.3502 142.801 88.2577 142.713 88.1968C142.204 87.7804 141.603 87.4855 140.958 87.3353C140.313 87.1851 139.641 87.1838 138.995 87.3314C138.945 87.3466 138.899 87.3719 138.86 87.4058C138.82 87.4396 138.789 87.4811 138.767 87.5277C138.746 87.5743 138.734 87.6248 138.734 87.676C138.733 87.7271 138.744 87.7778 138.765 87.8247C138.805 87.9246 138.881 88.0065 138.979 88.0545C139.077 88.1024 139.19 88.1131 139.295 88.0843C139.806 87.9697 140.337 87.9717 140.847 88.0902C141.357 88.2088 141.832 88.4406 142.236 88.7679C142.275 88.8103 142.322 88.8433 142.376 88.8644C142.43 88.8854 142.488 88.8938 142.545 88.889Z" fill="#263238"/>
<path d="M142.422 91.8131C142.643 92.4534 142.484 93.0851 142.051 93.2322C141.618 93.3793 141.088 92.964 140.858 92.3236C140.629 91.6833 140.797 91.0429 141.229 90.9045C141.662 90.766 142.201 91.2073 142.422 91.8131Z" fill="#263238"/>
<path d="M134.764 94.9029C134.994 95.5432 134.826 96.1749 134.393 96.322C133.96 96.4691 133.43 96.0538 133.201 95.4567C132.971 94.8596 133.139 94.176 133.572 94.0375C134.004 93.8991 134.534 94.2539 134.764 94.9029Z" fill="#263238"/>
<path d="M133.201 94.3667L133.924 92.8438C133.924 92.8438 134.339 94.2975 133.201 94.3667Z" fill="#263238"/>
<path d="M140.805 91.3726L141.529 89.8496C141.529 89.8496 141.944 91.2947 140.805 91.3726Z" fill="#263238"/>
<path opacity="0.5" d="M131.602 136.336L123.936 139.157C127.089 144.886 129.588 149.628 131.505 153.747C131.038 147.951 131.07 142.127 131.602 136.336Z" fill="#859B5B"/>
<path d="M179.588 338.895H189.666L189.666 196.624H179.588L179.588 338.895Z" fill="#859B5B"/>
<path opacity="0.2" d="M179.597 196.633H189.675V220.56L179.597 218.015V196.633Z" fill="black"/>
<path d="M238.518 214.347H148.622V197.853C148.622 191.859 151.053 186.11 155.379 181.871C159.705 177.632 165.573 175.251 171.692 175.251H215.448C221.566 175.251 227.434 177.632 231.761 181.871C236.087 186.11 238.518 191.859 238.518 197.853V214.347Z" fill="#859B5B"/>
<path d="M155.255 187.313L153.763 185.227C153.485 184.841 153.117 184.525 152.691 184.305C152.264 184.086 151.789 183.969 151.307 183.964H146.732C145.832 183.956 144.943 184.16 144.139 184.557C143.336 184.955 142.641 185.534 142.113 186.249L141.45 187.114C143.685 190.748 148.825 193.05 148.825 193.05L150.221 193.872C150.501 194.048 150.815 194.168 151.143 194.224C151.471 194.28 151.807 194.272 152.132 194.199C152.457 194.127 152.763 193.992 153.034 193.802C153.305 193.612 153.535 193.371 153.71 193.093L155.396 190.42C155.682 189.944 155.82 189.397 155.795 188.846C155.77 188.294 155.583 187.762 155.255 187.313Z" fill="#FFC3BD"/>
<path d="M134.428 134.198C134.199 134.674 133.898 135.367 133.642 135.929L132.856 137.85C132.344 139.139 131.858 140.446 131.417 141.753C130.537 144.346 129.808 146.987 129.235 149.662C128.97 150.977 128.749 152.258 128.581 153.573C128.441 154.824 128.364 156.08 128.352 157.338C128.283 159.462 128.665 161.578 129.473 163.551L129.809 164.243C129.834 164.299 129.854 164.357 129.871 164.416C130.435 166.138 131.306 167.749 132.441 169.176C133.759 170.908 135.205 172.542 136.769 174.065C138.394 175.622 140.134 177.137 141.936 178.59C142.819 179.317 143.773 180.018 144.709 180.702C145.646 181.385 146.635 182.078 147.509 182.64L142.501 190.428C141.3 189.693 140.284 189.018 139.198 188.3C138.112 187.581 137.087 186.846 136.045 186.093C133.96 184.605 131.92 183.021 129.933 181.308C127.869 179.571 125.938 177.688 124.156 175.674C123.192 174.582 122.306 173.426 121.507 172.213C120.615 170.888 119.866 169.475 119.272 167.999L119.67 168.864C117.783 165.486 116.69 161.737 116.472 157.891C116.249 154.521 116.344 151.138 116.755 147.784C117.141 144.583 117.707 141.405 118.451 138.265C118.804 136.714 119.198 135.168 119.634 133.627C119.846 132.857 120.067 132.096 120.305 131.325C120.544 130.555 120.774 129.828 121.1 128.911L134.428 134.198Z" fill="#859B5B"/>
<path opacity="0.5" d="M134.428 134.198C134.199 134.674 133.898 135.367 133.642 135.929L132.856 137.85C132.344 139.139 131.858 140.446 131.417 141.753C130.537 144.346 129.808 146.987 129.235 149.662C128.97 150.977 128.749 152.258 128.581 153.573C128.441 154.824 128.364 156.08 128.352 157.338C128.283 159.462 128.665 161.578 129.473 163.551L129.809 164.243C129.834 164.299 129.854 164.357 129.871 164.416C130.435 166.138 131.306 167.749 132.441 169.176C133.759 170.908 135.205 172.542 136.769 174.065C138.394 175.622 140.134 177.137 141.936 178.59C142.819 179.317 143.773 180.018 144.709 180.702C145.646 181.385 146.635 182.078 147.509 182.64L142.501 190.428C141.3 189.693 140.284 189.018 139.198 188.3C138.112 187.581 137.087 186.846 136.045 186.093C133.96 184.605 131.92 183.021 129.933 181.308C127.869 179.571 125.938 177.688 124.156 175.674C123.192 174.582 122.306 173.426 121.507 172.213C120.615 170.888 119.866 169.475 119.272 167.999L119.67 168.864C117.783 165.486 116.69 161.737 116.472 157.891C116.249 154.521 116.344 151.138 116.755 147.784C117.141 144.583 117.707 141.405 118.451 138.265C118.804 136.714 119.198 135.168 119.634 133.627C119.846 132.857 120.067 132.096 120.305 131.325C120.544 130.555 120.774 129.828 121.1 128.911L134.428 134.198Z" fill="white"/>
<path opacity="0.1" d="M148.622 209.457H192.378V198.562H148.622V209.457Z" fill="white"/>
<path opacity="0.2" d="M192.378 214.346V197.853C192.378 191.858 194.808 186.109 199.135 181.87C203.461 177.631 209.329 175.25 215.448 175.25C221.566 175.25 227.434 177.631 231.761 181.87C236.087 186.109 238.518 191.858 238.518 197.853V214.346" fill="black"/>
<path d="M192.378 217.245H255.511V214.346H192.378V217.245Z" fill="#859B5B"/>
<path opacity="0.2" d="M209.371 217.245H255.511V214.346H209.371V217.245Z" fill="black"/>
<path d="M184.64 202.509H186.274V164.321H184.64V202.509Z" fill="#E0E0E0"/>
<path d="M175.331 171.737H186.76V166.25C186.76 166.058 186.682 165.873 186.543 165.736C186.404 165.6 186.215 165.523 186.018 165.523H175.331L177.204 168.63L175.331 171.737Z" fill="#859B5B"/>
<path d="M290.213 55.1492C290.114 55.1477 290.019 55.1136 289.942 55.0524C289.865 54.9912 289.811 54.9064 289.789 54.8117C289.775 54.7566 289.772 54.6991 289.781 54.6429C289.79 54.5866 289.81 54.5326 289.84 54.4842C289.871 54.4357 289.911 54.3938 289.958 54.3608C290.006 54.3279 290.06 54.3047 290.116 54.2925C291.096 54.0732 292.059 53.784 292.996 53.4272C293.05 53.4061 293.107 53.3957 293.165 53.3965C293.223 53.3973 293.281 53.4093 293.334 53.4318C293.387 53.4543 293.435 53.4869 293.476 53.5277C293.516 53.5684 293.548 53.6166 293.57 53.6695C293.591 53.7223 293.602 53.7788 293.601 53.8356C293.6 53.8925 293.588 53.9486 293.565 54.0009C293.542 54.0531 293.509 54.1004 293.467 54.14C293.426 54.1797 293.376 54.2109 293.322 54.2319C292.347 54.6143 291.343 54.9238 290.319 55.1578L290.213 55.1492Z" fill="#859B5B"/>
<path d="M257.022 204.637C256.908 204.635 256.8 204.591 256.718 204.514C256.636 204.437 256.587 204.333 256.58 204.222C256.578 204.165 256.587 204.108 256.607 204.055C256.627 204.001 256.657 203.952 256.697 203.911C256.736 203.869 256.783 203.835 256.836 203.811C256.889 203.787 256.946 203.774 257.004 203.772C259.044 203.668 261.129 203.486 263.187 203.218C263.302 203.205 263.418 203.237 263.51 203.307C263.602 203.376 263.664 203.477 263.681 203.59C263.69 203.646 263.687 203.704 263.672 203.759C263.658 203.814 263.632 203.866 263.596 203.911C263.561 203.957 263.517 203.994 263.466 204.022C263.415 204.051 263.359 204.068 263.301 204.075C261.217 204.352 259.106 204.533 257.039 204.628L257.022 204.637ZM269.387 203.036C269.27 203.049 269.152 203.015 269.06 202.943C268.968 202.871 268.91 202.766 268.897 202.651C268.884 202.536 268.918 202.421 268.992 202.331C269.065 202.241 269.173 202.183 269.29 202.171C271.365 201.73 273.388 201.21 275.296 200.622C275.352 200.599 275.413 200.588 275.474 200.589C275.535 200.59 275.596 200.604 275.651 200.629C275.707 200.655 275.756 200.691 275.797 200.736C275.837 200.781 275.867 200.834 275.886 200.891C275.904 200.949 275.91 201.009 275.904 201.069C275.897 201.128 275.878 201.186 275.847 201.238C275.817 201.29 275.775 201.335 275.726 201.37C275.677 201.406 275.62 201.431 275.561 201.444C273.626 202.041 271.586 202.569 269.475 203.019L269.387 203.036ZM281.266 199.298C281.182 199.298 281.1 199.275 281.03 199.23C280.959 199.186 280.903 199.122 280.869 199.047C280.844 198.995 280.829 198.939 280.826 198.882C280.823 198.825 280.831 198.768 280.851 198.714C280.871 198.66 280.901 198.61 280.941 198.568C280.98 198.526 281.028 198.491 281.081 198.467C282.578 197.812 284.022 197.045 285.4 196.174L286.451 195.482C286.548 195.419 286.667 195.397 286.781 195.419C286.895 195.442 286.996 195.508 287.06 195.603C287.094 195.649 287.117 195.702 287.129 195.757C287.142 195.812 287.142 195.87 287.132 195.925C287.121 195.981 287.099 196.034 287.067 196.081C287.035 196.128 286.994 196.169 286.946 196.2L285.886 196.892C284.477 197.789 283.001 198.579 281.47 199.255C281.414 199.28 281.354 199.295 281.293 199.298H281.266ZM291.662 192.557C291.599 192.556 291.536 192.543 291.479 192.518C291.421 192.492 291.369 192.456 291.326 192.41C291.251 192.322 291.213 192.209 291.221 192.094C291.229 191.979 291.283 191.872 291.371 191.795C292.935 190.473 294.386 189.026 295.707 187.469C295.784 187.382 295.893 187.327 296.01 187.318C296.127 187.308 296.244 187.344 296.334 187.417C296.379 187.453 296.416 187.497 296.443 187.547C296.47 187.597 296.487 187.652 296.491 187.709C296.496 187.765 296.49 187.822 296.472 187.876C296.454 187.93 296.425 187.98 296.387 188.023C295.038 189.604 293.561 191.077 291.971 192.427C291.897 192.503 291.796 192.55 291.689 192.557H291.662ZM299.514 183.125C299.443 183.125 299.373 183.107 299.311 183.073C299.207 183.021 299.128 182.931 299.092 182.822C299.055 182.714 299.064 182.595 299.117 182.493C299.405 181.951 299.67 181.397 299.911 180.832C300.457 179.54 300.9 178.209 301.236 176.851C301.25 176.794 301.275 176.741 301.311 176.693C301.346 176.646 301.39 176.606 301.441 176.575C301.491 176.545 301.548 176.524 301.607 176.515C301.666 176.506 301.726 176.508 301.784 176.522C301.842 176.536 301.897 176.56 301.945 176.595C301.993 176.629 302.034 176.672 302.065 176.722C302.096 176.772 302.117 176.827 302.127 176.885C302.136 176.943 302.133 177.002 302.12 177.059C301.775 178.462 301.318 179.837 300.751 181.169C300.503 181.749 300.229 182.32 299.929 182.9C299.892 182.969 299.836 183.026 299.767 183.066C299.699 183.105 299.62 183.126 299.541 183.125H299.514ZM302.579 171.339C302.52 171.335 302.462 171.321 302.41 171.295C302.357 171.27 302.309 171.234 302.271 171.191C302.232 171.147 302.203 171.097 302.184 171.042C302.166 170.987 302.159 170.929 302.164 170.871C302.243 169.695 302.287 168.448 302.287 167.073C302.287 166.311 302.287 165.558 302.287 164.797C302.285 164.739 302.294 164.682 302.315 164.628C302.336 164.574 302.367 164.525 302.407 164.483C302.448 164.441 302.496 164.407 302.55 164.384C302.603 164.36 302.661 164.348 302.72 164.347C302.778 164.344 302.837 164.354 302.891 164.374C302.946 164.394 302.996 164.425 303.038 164.465C303.08 164.504 303.113 164.552 303.136 164.604C303.159 164.657 303.171 164.714 303.171 164.771C303.171 165.541 303.171 166.302 303.171 167.073C303.171 168.474 303.126 169.738 303.047 170.932C303.04 171.042 302.991 171.146 302.909 171.221C302.827 171.297 302.718 171.339 302.605 171.339H302.579ZM302.411 159.094C302.298 159.094 302.19 159.052 302.108 158.977C302.026 158.901 301.976 158.798 301.969 158.687C301.89 156.957 301.81 155.036 301.81 153.149V152.535C301.806 152.477 301.815 152.42 301.836 152.366C301.857 152.312 301.889 152.263 301.931 152.223C301.973 152.183 302.024 152.152 302.079 152.132C302.135 152.113 302.194 152.106 302.252 152.111C302.369 152.111 302.482 152.156 302.564 152.238C302.647 152.319 302.694 152.429 302.694 152.543V153.149C302.694 155.018 302.773 156.896 302.853 158.644C302.855 158.701 302.846 158.758 302.826 158.811C302.806 158.864 302.775 158.913 302.736 158.955C302.697 158.997 302.649 159.031 302.596 159.055C302.544 159.078 302.487 159.092 302.429 159.094H302.411ZM340.169 153.764C339.366 153.764 338.58 153.764 337.829 153.712C337.771 153.709 337.714 153.696 337.661 153.672C337.608 153.648 337.561 153.615 337.522 153.573C337.482 153.531 337.452 153.482 337.432 153.429C337.412 153.375 337.402 153.319 337.405 153.262C337.407 153.205 337.421 153.149 337.445 153.097C337.469 153.046 337.504 152.999 337.547 152.961C337.589 152.922 337.639 152.892 337.694 152.873C337.748 152.853 337.806 152.844 337.864 152.846C338.606 152.846 339.383 152.898 340.169 152.898C341.464 152.905 342.759 152.841 344.047 152.708C344.164 152.695 344.281 152.729 344.373 152.801C344.465 152.873 344.524 152.978 344.537 153.093C344.55 153.208 344.516 153.323 344.442 153.413C344.368 153.503 344.261 153.561 344.144 153.573C342.832 153.705 341.514 153.769 340.196 153.764H340.169ZM331.611 153.322C329.544 153.167 327.442 152.985 325.375 152.777C325.317 152.772 325.261 152.755 325.209 152.728C325.158 152.701 325.112 152.665 325.075 152.62C325.038 152.576 325.011 152.525 324.994 152.47C324.977 152.416 324.972 152.358 324.978 152.301C324.983 152.244 325 152.189 325.028 152.138C325.055 152.088 325.093 152.043 325.138 152.007C325.183 151.971 325.235 151.944 325.291 151.928C325.347 151.911 325.405 151.906 325.463 151.912C327.521 152.119 329.615 152.31 331.646 152.466C331.763 152.466 331.876 152.511 331.958 152.592C332.041 152.673 332.088 152.784 332.088 152.898C332.088 153.013 332.041 153.123 331.958 153.204C331.876 153.285 331.763 153.331 331.646 153.331L331.611 153.322ZM350.159 152.085C350.074 152.084 349.991 152.06 349.919 152.016C349.848 151.971 349.79 151.908 349.752 151.834C349.705 151.729 349.701 151.611 349.742 151.504C349.784 151.397 349.867 151.31 349.973 151.263C351.825 150.494 353.394 149.19 354.469 147.524C354.496 147.471 354.535 147.424 354.582 147.385C354.629 147.347 354.684 147.319 354.742 147.302C354.801 147.286 354.863 147.282 354.923 147.29C354.984 147.298 355.042 147.318 355.094 147.349C355.146 147.381 355.191 147.422 355.226 147.471C355.261 147.52 355.285 147.576 355.297 147.635C355.309 147.694 355.308 147.754 355.295 147.813C355.281 147.871 355.256 147.926 355.22 147.974C354.057 149.789 352.356 151.211 350.344 152.05C350.286 152.074 350.222 152.086 350.159 152.085ZM319.201 152.085H319.148C317.09 151.825 314.997 151.531 312.966 151.22C312.908 151.211 312.853 151.192 312.803 151.162C312.754 151.133 312.71 151.094 312.676 151.048C312.641 151.002 312.616 150.95 312.603 150.895C312.589 150.84 312.586 150.783 312.595 150.726C312.614 150.614 312.678 150.513 312.772 150.445C312.866 150.377 312.983 150.348 313.098 150.363C315.147 150.674 317.223 150.969 319.281 151.228C319.398 151.235 319.508 151.287 319.585 151.373C319.663 151.459 319.703 151.572 319.696 151.687C319.689 151.802 319.636 151.909 319.548 151.985C319.46 152.061 319.345 152.1 319.228 152.093L319.201 152.085ZM306.836 150.207H306.757C304.716 149.844 302.65 149.446 300.618 149.03C300.501 149.007 300.398 148.94 300.332 148.842C300.265 148.745 300.241 148.626 300.265 148.511C300.288 148.396 300.357 148.295 300.457 148.23C300.556 148.165 300.678 148.142 300.795 148.165C302.826 148.58 304.884 148.978 306.916 149.342C306.973 149.351 307.028 149.372 307.078 149.402C307.127 149.432 307.17 149.472 307.203 149.519C307.237 149.565 307.261 149.618 307.274 149.674C307.286 149.73 307.288 149.787 307.278 149.844C307.256 149.941 307.201 150.028 307.123 150.09C307.044 150.153 306.946 150.188 306.845 150.19L306.836 150.207ZM294.603 147.698H294.497C292.483 147.23 290.434 146.728 288.429 146.209C288.371 146.195 288.317 146.17 288.269 146.135C288.221 146.1 288.18 146.056 288.15 146.006C288.119 145.956 288.098 145.9 288.09 145.842C288.081 145.784 288.084 145.725 288.098 145.668C288.113 145.612 288.138 145.558 288.174 145.511C288.21 145.464 288.254 145.424 288.306 145.394C288.357 145.364 288.414 145.344 288.473 145.335C288.532 145.327 288.592 145.33 288.65 145.344C290.655 145.863 292.687 146.365 294.7 146.824C294.815 146.852 294.914 146.923 294.976 147.022C295.039 147.12 295.06 147.238 295.036 147.351C295.013 147.445 294.958 147.527 294.881 147.587C294.805 147.646 294.71 147.679 294.612 147.68L294.603 147.698ZM302.711 146.884H302.641C302.526 146.865 302.423 146.803 302.354 146.711C302.284 146.619 302.254 146.504 302.27 146.391C302.579 144.333 303.103 142.312 303.833 140.359C303.873 140.252 303.955 140.164 304.061 140.115C304.167 140.066 304.288 140.061 304.398 140.1C304.508 140.139 304.598 140.219 304.648 140.323C304.698 140.427 304.703 140.546 304.663 140.654C303.96 142.548 303.456 144.508 303.162 146.503C303.145 146.606 303.091 146.699 303.01 146.765C302.929 146.832 302.826 146.868 302.72 146.867L302.711 146.884ZM282.512 144.574C282.471 144.582 282.429 144.582 282.388 144.574C280.401 144.011 278.378 143.405 276.4 142.782C276.344 142.766 276.292 142.738 276.248 142.702C276.203 142.665 276.166 142.62 276.14 142.569C276.114 142.518 276.098 142.462 276.094 142.405C276.09 142.348 276.098 142.291 276.117 142.237C276.153 142.128 276.233 142.038 276.337 141.986C276.441 141.934 276.562 141.925 276.674 141.96C278.643 142.575 280.648 143.18 282.635 143.743C282.748 143.775 282.843 143.85 282.899 143.95C282.955 144.051 282.968 144.169 282.936 144.279C282.904 144.362 282.848 144.433 282.773 144.483C282.699 144.533 282.611 144.558 282.521 144.556L282.512 144.574ZM356.094 142.35C355.992 142.348 355.893 142.311 355.814 142.247C355.735 142.182 355.681 142.094 355.661 141.995C355.184 140.087 354.087 138.383 352.535 137.14C352.494 137.101 352.461 137.054 352.439 137.002C352.416 136.95 352.405 136.894 352.405 136.838C352.405 136.781 352.416 136.725 352.439 136.673C352.461 136.621 352.494 136.574 352.535 136.535C352.576 136.494 352.625 136.462 352.678 136.44C352.732 136.418 352.79 136.407 352.848 136.407C352.907 136.407 352.964 136.418 353.018 136.44C353.072 136.462 353.121 136.494 353.162 136.535C354.86 137.899 356.054 139.772 356.562 141.865C356.574 141.921 356.574 141.978 356.563 142.034C356.552 142.09 356.53 142.143 356.498 142.19C356.466 142.238 356.425 142.279 356.377 142.31C356.329 142.342 356.275 142.364 356.218 142.376L356.094 142.35ZM270.615 140.835C270.565 140.844 270.514 140.844 270.464 140.835C268.451 140.134 266.481 139.408 264.591 138.681C264.483 138.637 264.398 138.553 264.351 138.448C264.305 138.343 264.303 138.225 264.344 138.118C264.365 138.065 264.397 138.017 264.437 137.976C264.478 137.936 264.526 137.903 264.579 137.88C264.633 137.858 264.69 137.846 264.748 137.845C264.806 137.844 264.864 137.855 264.918 137.876C266.79 138.603 268.76 139.321 270.756 140.022C270.865 140.059 270.956 140.138 271.007 140.24C271.058 140.342 271.066 140.459 271.03 140.567C270.994 140.643 270.937 140.707 270.864 140.751C270.792 140.796 270.709 140.819 270.623 140.818L270.615 140.835ZM258.991 136.31C258.933 136.322 258.873 136.322 258.815 136.31C256.871 135.444 254.964 134.579 253.153 133.67C253.097 133.647 253.046 133.614 253.004 133.571C252.962 133.528 252.93 133.477 252.909 133.421C252.887 133.365 252.878 133.306 252.882 133.246C252.885 133.187 252.901 133.129 252.929 133.076C252.956 133.023 252.994 132.976 253.041 132.938C253.088 132.9 253.142 132.872 253.201 132.855C253.259 132.839 253.32 132.834 253.38 132.842C253.44 132.85 253.498 132.87 253.55 132.9C255.317 133.766 257.242 134.631 259.177 135.496C259.294 135.52 259.396 135.589 259.462 135.687C259.527 135.785 259.55 135.905 259.526 136.02C259.501 136.135 259.431 136.235 259.331 136.299C259.23 136.363 259.108 136.386 258.991 136.362V136.31ZM307.145 135.557C307.051 135.557 306.959 135.529 306.88 135.479C306.787 135.41 306.725 135.308 306.708 135.194C306.691 135.08 306.722 134.965 306.792 134.873C307.947 133.32 309.366 131.974 310.987 130.893L311.447 130.607C311.496 130.577 311.551 130.557 311.608 130.547C311.665 130.538 311.724 130.54 311.781 130.553C311.837 130.565 311.891 130.589 311.938 130.622C311.985 130.655 312.025 130.697 312.056 130.745C312.087 130.794 312.107 130.848 312.117 130.904C312.127 130.96 312.125 131.017 312.112 131.073C312.098 131.128 312.074 131.181 312.041 131.227C312.007 131.273 311.964 131.312 311.915 131.343L311.482 131.611C309.944 132.636 308.596 133.912 307.498 135.384C307.456 135.433 307.403 135.472 307.344 135.499C307.284 135.526 307.22 135.54 307.154 135.539L307.145 135.557ZM347.659 133.826C347.585 133.825 347.513 133.808 347.447 133.774C346.705 133.385 345.981 133.021 345.292 132.684C344.17 132.147 343.013 131.645 341.848 131.195C341.789 131.178 341.736 131.149 341.689 131.111C341.643 131.072 341.606 131.024 341.579 130.971C341.552 130.917 341.537 130.859 341.535 130.8C341.532 130.74 341.542 130.681 341.564 130.625C341.586 130.57 341.619 130.519 341.662 130.477C341.705 130.435 341.756 130.402 341.813 130.38C341.869 130.358 341.929 130.347 341.99 130.349C342.051 130.351 342.111 130.365 342.165 130.391C343.358 130.841 344.541 131.36 345.698 131.914C346.387 132.251 347.129 132.615 347.88 133.013C347.982 133.069 348.057 133.162 348.09 133.272C348.123 133.382 348.111 133.5 348.057 133.601C348.017 133.667 347.96 133.721 347.891 133.757C347.823 133.794 347.746 133.812 347.668 133.809L347.659 133.826ZM247.854 130.754C247.775 130.756 247.699 130.735 247.633 130.694C245.787 129.647 243.994 128.556 242.333 127.44C242.248 127.372 242.191 127.276 242.174 127.169C242.157 127.063 242.181 126.954 242.242 126.864C242.303 126.774 242.396 126.71 242.503 126.683C242.609 126.657 242.722 126.671 242.819 126.722C244.497 127.821 246.273 128.911 248.119 129.949C248.201 129.998 248.266 130.071 248.302 130.158C248.339 130.246 248.345 130.343 248.32 130.434C248.295 130.525 248.24 130.606 248.164 130.664C248.088 130.721 247.994 130.753 247.898 130.754H247.854ZM336.045 129.396H335.939C333.93 128.929 331.891 128.599 329.836 128.409C329.72 128.398 329.613 128.343 329.539 128.255C329.464 128.168 329.428 128.055 329.438 127.942C329.451 127.828 329.51 127.723 329.6 127.651C329.691 127.578 329.807 127.543 329.924 127.552C332.006 127.746 334.072 128.081 336.106 128.556C336.224 128.569 336.331 128.626 336.405 128.717C336.478 128.807 336.512 128.922 336.5 129.036C336.487 129.151 336.428 129.256 336.336 129.328C336.244 129.401 336.126 129.434 336.009 129.422L336.045 129.396ZM317.453 129.119C317.352 129.118 317.255 129.084 317.177 129.023C317.099 128.962 317.043 128.877 317.02 128.781C316.993 128.67 317.013 128.553 317.074 128.456C317.135 128.358 317.233 128.289 317.347 128.262C318.898 127.903 320.474 127.657 322.063 127.526C322.575 127.526 323.096 127.449 323.609 127.423C323.667 127.417 323.726 127.423 323.782 127.44C323.838 127.458 323.89 127.487 323.934 127.525C323.978 127.563 324.014 127.61 324.038 127.662C324.063 127.715 324.076 127.772 324.077 127.829C324.082 127.943 324.041 128.053 323.963 128.137C323.886 128.222 323.777 128.273 323.662 128.279C323.149 128.279 322.646 128.349 322.143 128.392C320.599 128.517 319.067 128.754 317.559 129.101L317.453 129.119ZM237.493 123.927C237.395 123.929 237.298 123.898 237.219 123.84C235.541 122.551 233.934 121.201 232.441 119.842C232.4 119.802 232.367 119.754 232.344 119.701C232.322 119.649 232.31 119.592 232.31 119.535C232.31 119.478 232.322 119.421 232.344 119.369C232.367 119.316 232.4 119.268 232.441 119.228C232.525 119.148 232.638 119.103 232.755 119.103C232.872 119.103 232.984 119.148 233.068 119.228C234.543 120.578 236.133 121.91 237.794 123.182C237.885 123.254 237.943 123.358 237.956 123.471C237.969 123.584 237.936 123.698 237.864 123.788C237.817 123.833 237.76 123.867 237.697 123.886C237.634 123.906 237.567 123.911 237.502 123.901L237.493 123.927ZM228.378 115.576C228.315 115.576 228.252 115.562 228.195 115.537C228.137 115.512 228.085 115.475 228.043 115.429C226.655 113.883 225.36 112.259 224.165 110.566C224.099 110.471 224.073 110.355 224.093 110.242C224.113 110.129 224.177 110.028 224.271 109.96C224.37 109.898 224.488 109.875 224.603 109.896C224.718 109.917 224.82 109.98 224.889 110.072C226.082 111.733 227.374 113.322 228.758 114.832C228.839 114.913 228.884 115.021 228.884 115.135C228.884 115.248 228.839 115.357 228.758 115.438C228.709 115.483 228.65 115.516 228.586 115.536C228.522 115.555 228.454 115.56 228.387 115.55L228.378 115.576ZM221.312 105.512C221.231 105.512 221.151 105.489 221.082 105.446C221.014 105.403 220.959 105.342 220.924 105.27C219.955 103.44 219.12 101.546 218.424 99.6018C218.387 99.4928 218.395 99.3739 218.446 99.2705C218.497 99.167 218.588 99.0872 218.698 99.048C218.808 99.0121 218.928 99.0201 219.032 99.0704C219.136 99.1206 219.216 99.2089 219.254 99.3163C219.937 101.226 220.758 103.085 221.71 104.88C221.762 104.983 221.771 105.101 221.735 105.21C221.698 105.318 221.62 105.408 221.515 105.46C221.451 105.486 221.381 105.495 221.312 105.486V105.512ZM217.276 93.9511C217.171 93.9522 217.069 93.9159 216.99 93.8491C216.91 93.7822 216.858 93.6894 216.843 93.5877C216.755 93.1291 216.684 92.6704 216.614 92.2031C216.398 90.6777 216.289 89.1396 216.287 87.5995V87.4178C216.287 87.3031 216.333 87.193 216.416 87.1119C216.499 87.0307 216.611 86.9851 216.728 86.9851C216.845 86.9851 216.958 87.0307 217.041 87.1119C217.123 87.193 217.17 87.3031 217.17 87.4178V87.5909C217.169 89.0905 217.275 90.5883 217.488 92.0734C217.559 92.532 217.629 92.982 217.709 93.4319C217.729 93.5444 217.704 93.6602 217.638 93.7542C217.571 93.8482 217.47 93.9128 217.355 93.9338L217.276 93.9511ZM217.32 81.7671H217.241C217.126 81.7461 217.025 81.6815 216.958 81.5875C216.892 81.4935 216.867 81.3776 216.887 81.2652C217.271 79.2325 217.83 77.2351 218.557 75.2944C218.6 75.1873 218.684 75.1007 218.791 75.0524C218.898 75.0041 219.019 74.9978 219.131 75.0348C219.239 75.0755 219.327 75.1565 219.375 75.2602C219.423 75.3638 219.427 75.4818 219.387 75.5886C218.673 77.4833 218.126 79.4346 217.753 81.421C217.733 81.5274 217.673 81.6224 217.585 81.6868C217.496 81.7511 217.386 81.7799 217.276 81.7671H217.32ZM221.63 70.336C221.553 70.3321 221.478 70.3114 221.409 70.2754C221.309 70.2159 221.236 70.1202 221.206 70.0086C221.176 69.897 221.192 69.7784 221.251 69.6783C222.313 67.8905 223.539 66.2018 224.916 64.6333C224.996 64.5626 225.1 64.523 225.207 64.522C225.315 64.5209 225.42 64.5585 225.501 64.6277C225.582 64.6968 225.635 64.7927 225.649 64.8974C225.664 65.002 225.638 65.1082 225.578 65.1958C224.255 66.7319 223.073 68.3796 222.045 70.1196C222.002 70.1947 221.937 70.2554 221.858 70.2939C221.78 70.3324 221.691 70.3471 221.604 70.336H221.63ZM229.765 61.1201C229.674 61.1195 229.585 61.0914 229.511 61.0394C229.436 60.9874 229.38 60.9141 229.35 60.8297C229.32 60.7453 229.318 60.6538 229.343 60.5679C229.368 60.482 229.42 60.4058 229.491 60.3499C231.16 59.0804 232.949 57.9706 234.835 57.0356C234.94 56.984 235.062 56.9755 235.174 57.012C235.286 57.0485 235.378 57.1271 235.431 57.2303C235.484 57.3336 235.492 57.4532 235.455 57.5627C235.418 57.6723 235.338 57.7628 235.232 57.8145C233.399 58.7248 231.657 59.8026 230.03 61.0335C229.947 61.096 229.843 61.1268 229.738 61.1201H229.765ZM284.013 55.729C281.91 55.6837 279.812 55.5016 277.733 55.1838C277.616 55.1677 277.51 55.1068 277.439 55.0143C277.368 54.9217 277.337 54.8053 277.354 54.6906C277.37 54.5758 277.432 54.4721 277.527 54.4024C277.621 54.3326 277.74 54.3024 277.857 54.3185C279.903 54.6337 281.969 54.8129 284.04 54.855C284.157 54.855 284.269 54.9006 284.352 54.9817C284.435 55.0628 284.481 55.1729 284.481 55.2876C284.481 55.4024 284.435 55.5125 284.352 55.5936C284.269 55.6747 284.157 55.7203 284.04 55.7203L284.013 55.729ZM240.788 55.504C240.73 55.5131 240.67 55.5109 240.613 55.4975C240.556 55.4842 240.502 55.46 240.455 55.4262C240.407 55.3925 240.367 55.3499 240.336 55.3008C240.305 55.2518 240.285 55.1974 240.275 55.1405C240.266 55.0837 240.268 55.0257 240.282 54.9697C240.296 54.9137 240.32 54.8609 240.355 54.8143C240.389 54.7677 240.433 54.7282 240.483 54.6981C240.533 54.6679 240.588 54.6477 240.646 54.6386C242.645 54.003 244.68 53.4829 246.741 53.081C246.798 53.0698 246.857 53.0698 246.915 53.0811C246.972 53.0925 247.027 53.1149 247.075 53.1471C247.124 53.1794 247.165 53.2207 247.197 53.2688C247.229 53.3169 247.251 53.3707 247.262 53.4272C247.275 53.4824 247.276 53.5396 247.265 53.5953C247.255 53.651 247.232 53.704 247.2 53.751C247.168 53.798 247.126 53.8381 247.078 53.8687C247.029 53.8993 246.974 53.9198 246.917 53.9291C244.89 54.3264 242.888 54.8379 240.92 55.4607L240.788 55.504ZM271.63 54.1454H271.551C269.652 53.7993 267.506 53.4099 265.368 53.1156C265.254 53.0985 265.151 53.0382 265.082 52.9476C265.012 52.857 264.982 52.7433 264.997 52.631C265.004 52.5744 265.022 52.5195 265.05 52.4699C265.079 52.4202 265.118 52.3767 265.164 52.3419C265.21 52.3072 265.263 52.2819 265.319 52.2677C265.375 52.2534 265.434 52.2504 265.492 52.259C267.612 52.5532 269.767 52.9512 271.674 53.2974C271.789 53.3184 271.89 53.383 271.957 53.477C272.023 53.571 272.048 53.6869 272.028 53.7993C272.013 53.8956 271.966 53.9843 271.894 54.0516C271.822 54.1189 271.729 54.161 271.63 54.1714V54.1454ZM253.012 53.0291C252.895 53.036 252.779 52.997 252.692 52.9207C252.604 52.8445 252.551 52.7372 252.544 52.6224C252.537 52.5076 252.576 52.3949 252.654 52.3088C252.732 52.2228 252.842 52.1706 252.959 52.1638C254.08 52.0426 255.282 51.9301 256.492 51.8349C257.269 51.7744 258.09 51.7397 258.929 51.7397H259.221C259.279 51.7409 259.336 51.7532 259.389 51.776C259.442 51.7988 259.49 51.8316 259.531 51.8726C259.571 51.9135 259.602 51.9619 259.623 52.0148C259.645 52.0678 259.655 52.1243 259.654 52.1811C259.647 52.2929 259.598 52.3984 259.517 52.4768C259.435 52.5552 259.326 52.601 259.212 52.6051H258.929C258.117 52.6051 257.322 52.6051 256.553 52.6916C255.335 52.7868 254.151 52.8993 253.021 53.0291H253.012Z" fill="#859B5B"/>
<path d="M250.68 204.655C249.629 204.611 248.587 204.533 247.58 204.438C247.522 204.434 247.466 204.418 247.414 204.392C247.363 204.366 247.317 204.33 247.28 204.287C247.243 204.243 247.215 204.193 247.199 204.139C247.182 204.084 247.176 204.027 247.182 203.971C247.185 203.914 247.201 203.858 247.227 203.807C247.253 203.756 247.29 203.711 247.334 203.674C247.379 203.638 247.431 203.611 247.487 203.595C247.543 203.579 247.601 203.574 247.659 203.581C248.657 203.677 249.682 203.746 250.724 203.789C250.841 203.789 250.954 203.835 251.036 203.916C251.119 203.997 251.166 204.107 251.166 204.222C251.166 204.337 251.119 204.447 251.036 204.528C250.954 204.609 250.841 204.655 250.724 204.655H250.68Z" fill="#859B5B"/>
<g opacity="0.6">
<path d="M290.213 55.1492C290.114 55.1477 290.019 55.1136 289.942 55.0524C289.865 54.9912 289.811 54.9064 289.789 54.8117C289.775 54.7566 289.772 54.6991 289.781 54.6429C289.79 54.5866 289.81 54.5326 289.84 54.4842C289.871 54.4357 289.911 54.3938 289.958 54.3608C290.006 54.3279 290.06 54.3047 290.116 54.2925C291.096 54.0732 292.059 53.784 292.996 53.4272C293.05 53.4061 293.107 53.3957 293.165 53.3965C293.223 53.3973 293.281 53.4093 293.334 53.4318C293.387 53.4543 293.435 53.4869 293.476 53.5277C293.516 53.5684 293.548 53.6166 293.57 53.6695C293.591 53.7223 293.602 53.7788 293.601 53.8356C293.6 53.8925 293.588 53.9486 293.565 54.0009C293.542 54.0531 293.509 54.1004 293.467 54.14C293.426 54.1797 293.376 54.2109 293.322 54.2319C292.347 54.6143 291.343 54.9238 290.319 55.1578L290.213 55.1492Z" fill="white"/>
<path d="M257.022 204.637C256.908 204.635 256.8 204.591 256.718 204.514C256.636 204.437 256.587 204.333 256.58 204.222C256.578 204.165 256.587 204.108 256.607 204.055C256.627 204.001 256.657 203.952 256.697 203.911C256.736 203.869 256.783 203.835 256.836 203.811C256.889 203.787 256.946 203.774 257.004 203.772C259.044 203.668 261.129 203.486 263.187 203.218C263.302 203.205 263.418 203.237 263.51 203.307C263.602 203.376 263.664 203.477 263.681 203.59C263.69 203.646 263.687 203.704 263.672 203.759C263.658 203.814 263.632 203.866 263.596 203.911C263.561 203.957 263.517 203.994 263.466 204.022C263.415 204.051 263.359 204.068 263.301 204.075C261.217 204.352 259.106 204.533 257.039 204.628L257.022 204.637ZM269.387 203.036C269.27 203.049 269.152 203.015 269.06 202.943C268.968 202.871 268.91 202.766 268.897 202.651C268.884 202.536 268.918 202.421 268.992 202.331C269.065 202.241 269.173 202.183 269.29 202.171C271.365 201.73 273.388 201.21 275.296 200.622C275.352 200.599 275.413 200.588 275.474 200.589C275.535 200.59 275.596 200.604 275.651 200.629C275.707 200.655 275.756 200.691 275.797 200.736C275.837 200.781 275.867 200.834 275.886 200.891C275.904 200.949 275.91 201.009 275.904 201.069C275.897 201.128 275.878 201.186 275.847 201.238C275.817 201.29 275.775 201.335 275.726 201.37C275.677 201.406 275.62 201.431 275.561 201.444C273.626 202.041 271.586 202.569 269.475 203.019L269.387 203.036ZM281.266 199.298C281.182 199.298 281.1 199.275 281.03 199.23C280.959 199.186 280.903 199.122 280.869 199.047C280.844 198.995 280.829 198.939 280.826 198.882C280.823 198.825 280.831 198.768 280.851 198.714C280.871 198.66 280.901 198.61 280.941 198.568C280.98 198.526 281.028 198.491 281.081 198.467C282.578 197.812 284.022 197.045 285.4 196.174L286.451 195.482C286.548 195.419 286.667 195.397 286.781 195.419C286.895 195.442 286.996 195.508 287.06 195.603C287.094 195.649 287.117 195.702 287.129 195.757C287.142 195.812 287.142 195.87 287.132 195.925C287.121 195.981 287.099 196.034 287.067 196.081C287.035 196.128 286.994 196.169 286.946 196.2L285.886 196.892C284.477 197.789 283.001 198.579 281.47 199.255C281.414 199.28 281.354 199.295 281.293 199.298H281.266ZM291.662 192.557C291.599 192.556 291.536 192.543 291.479 192.518C291.421 192.492 291.369 192.456 291.326 192.41C291.251 192.322 291.213 192.209 291.221 192.094C291.229 191.979 291.283 191.872 291.371 191.795C292.935 190.473 294.386 189.026 295.707 187.469C295.784 187.382 295.893 187.327 296.01 187.318C296.127 187.308 296.244 187.344 296.334 187.417C296.379 187.453 296.416 187.497 296.443 187.547C296.47 187.597 296.487 187.652 296.491 187.709C296.496 187.765 296.49 187.822 296.472 187.876C296.454 187.93 296.425 187.98 296.387 188.023C295.038 189.604 293.561 191.077 291.971 192.427C291.897 192.503 291.796 192.55 291.689 192.557H291.662ZM299.514 183.125C299.443 183.125 299.373 183.107 299.311 183.073C299.207 183.021 299.128 182.931 299.092 182.822C299.055 182.714 299.064 182.595 299.117 182.493C299.405 181.951 299.67 181.397 299.911 180.832C300.457 179.54 300.9 178.209 301.236 176.851C301.25 176.794 301.275 176.741 301.311 176.693C301.346 176.646 301.39 176.606 301.441 176.575C301.491 176.545 301.548 176.524 301.607 176.515C301.666 176.506 301.726 176.508 301.784 176.522C301.842 176.536 301.897 176.56 301.945 176.595C301.993 176.629 302.034 176.672 302.065 176.722C302.096 176.772 302.117 176.827 302.127 176.885C302.136 176.943 302.133 177.002 302.12 177.059C301.775 178.462 301.318 179.837 300.751 181.169C300.503 181.749 300.229 182.32 299.929 182.9C299.892 182.969 299.836 183.026 299.767 183.066C299.699 183.105 299.62 183.126 299.541 183.125H299.514ZM302.579 171.339C302.52 171.335 302.462 171.321 302.41 171.295C302.357 171.27 302.309 171.234 302.271 171.191C302.232 171.147 302.203 171.097 302.184 171.042C302.166 170.987 302.159 170.929 302.164 170.871C302.243 169.695 302.287 168.448 302.287 167.073C302.287 166.311 302.287 165.558 302.287 164.797C302.285 164.739 302.294 164.682 302.315 164.628C302.336 164.574 302.367 164.525 302.407 164.483C302.448 164.441 302.496 164.407 302.55 164.384C302.603 164.36 302.661 164.348 302.72 164.347C302.778 164.344 302.837 164.354 302.891 164.374C302.946 164.394 302.996 164.425 303.038 164.465C303.08 164.504 303.113 164.552 303.136 164.604C303.159 164.657 303.171 164.714 303.171 164.771C303.171 165.541 303.171 166.302 303.171 167.073C303.171 168.474 303.126 169.738 303.047 170.932C303.04 171.042 302.991 171.146 302.909 171.221C302.827 171.297 302.718 171.339 302.605 171.339H302.579ZM302.411 159.094C302.298 159.094 302.19 159.052 302.108 158.977C302.026 158.901 301.976 158.798 301.969 158.687C301.89 156.957 301.81 155.036 301.81 153.149V152.535C301.806 152.477 301.815 152.42 301.836 152.366C301.857 152.312 301.889 152.263 301.931 152.223C301.973 152.183 302.024 152.152 302.079 152.132C302.135 152.113 302.194 152.106 302.252 152.111C302.369 152.111 302.482 152.156 302.564 152.238C302.647 152.319 302.694 152.429 302.694 152.543V153.149C302.694 155.018 302.773 156.896 302.853 158.644C302.855 158.701 302.846 158.758 302.826 158.811C302.806 158.864 302.775 158.913 302.736 158.955C302.697 158.997 302.649 159.031 302.596 159.055C302.544 159.078 302.487 159.092 302.429 159.094H302.411ZM340.169 153.764C339.366 153.764 338.58 153.764 337.829 153.712C337.771 153.709 337.714 153.696 337.661 153.672C337.608 153.648 337.561 153.615 337.522 153.573C337.482 153.531 337.452 153.482 337.432 153.429C337.412 153.375 337.402 153.319 337.405 153.262C337.407 153.205 337.421 153.149 337.445 153.097C337.469 153.046 337.504 152.999 337.547 152.961C337.589 152.922 337.639 152.892 337.694 152.873C337.748 152.853 337.806 152.844 337.864 152.846C338.606 152.846 339.383 152.898 340.169 152.898C341.464 152.905 342.759 152.841 344.047 152.708C344.164 152.695 344.281 152.729 344.373 152.801C344.465 152.873 344.524 152.978 344.537 153.093C344.55 153.208 344.516 153.323 344.442 153.413C344.368 153.503 344.261 153.561 344.144 153.573C342.832 153.705 341.514 153.769 340.196 153.764H340.169ZM331.611 153.322C329.544 153.167 327.442 152.985 325.375 152.777C325.317 152.772 325.261 152.755 325.209 152.728C325.158 152.701 325.112 152.665 325.075 152.62C325.038 152.576 325.011 152.525 324.994 152.47C324.977 152.416 324.972 152.358 324.978 152.301C324.983 152.244 325 152.189 325.028 152.138C325.055 152.088 325.093 152.043 325.138 152.007C325.183 151.971 325.235 151.944 325.291 151.928C325.347 151.911 325.405 151.906 325.463 151.912C327.521 152.119 329.615 152.31 331.646 152.466C331.763 152.466 331.876 152.511 331.958 152.592C332.041 152.673 332.088 152.784 332.088 152.898C332.088 153.013 332.041 153.123 331.958 153.204C331.876 153.285 331.763 153.331 331.646 153.331L331.611 153.322ZM350.159 152.085C350.074 152.084 349.991 152.06 349.919 152.016C349.848 151.971 349.79 151.908 349.752 151.834C349.705 151.729 349.701 151.611 349.742 151.504C349.784 151.397 349.867 151.31 349.973 151.263C351.825 150.494 353.394 149.19 354.469 147.524C354.496 147.471 354.535 147.424 354.582 147.385C354.629 147.347 354.684 147.319 354.742 147.302C354.801 147.286 354.863 147.282 354.923 147.29C354.984 147.298 355.042 147.318 355.094 147.349C355.146 147.381 355.191 147.422 355.226 147.471C355.261 147.52 355.285 147.576 355.297 147.635C355.309 147.694 355.308 147.754 355.295 147.813C355.281 147.871 355.256 147.926 355.22 147.974C354.057 149.789 352.356 151.211 350.344 152.05C350.286 152.074 350.222 152.086 350.159 152.085ZM319.201 152.085H319.148C317.09 151.825 314.997 151.531 312.966 151.22C312.908 151.211 312.853 151.192 312.803 151.162C312.754 151.133 312.71 151.094 312.676 151.048C312.641 151.002 312.616 150.95 312.603 150.895C312.589 150.84 312.586 150.783 312.595 150.726C312.614 150.614 312.678 150.513 312.772 150.445C312.866 150.377 312.983 150.348 313.098 150.363C315.147 150.674 317.223 150.969 319.281 151.228C319.398 151.235 319.508 151.287 319.585 151.373C319.663 151.459 319.703 151.572 319.696 151.687C319.689 151.802 319.636 151.909 319.548 151.985C319.46 152.061 319.345 152.1 319.228 152.093L319.201 152.085ZM306.836 150.207H306.757C304.716 149.844 302.65 149.446 300.618 149.03C300.501 149.007 300.398 148.94 300.332 148.842C300.265 148.745 300.241 148.626 300.265 148.511C300.288 148.396 300.357 148.295 300.457 148.23C300.556 148.165 300.678 148.142 300.795 148.165C302.826 148.58 304.884 148.978 306.916 149.342C306.973 149.351 307.028 149.372 307.078 149.402C307.127 149.432 307.17 149.472 307.203 149.519C307.237 149.565 307.261 149.618 307.274 149.674C307.286 149.73 307.288 149.787 307.278 149.844C307.256 149.941 307.201 150.028 307.123 150.09C307.044 150.153 306.946 150.188 306.845 150.19L306.836 150.207ZM294.603 147.698H294.497C292.483 147.23 290.434 146.728 288.429 146.209C288.371 146.195 288.317 146.17 288.269 146.135C288.221 146.1 288.18 146.056 288.15 146.006C288.119 145.956 288.098 145.9 288.09 145.842C288.081 145.784 288.084 145.725 288.098 145.668C288.113 145.612 288.138 145.558 288.174 145.511C288.21 145.464 288.254 145.424 288.306 145.394C288.357 145.364 288.414 145.344 288.473 145.335C288.532 145.327 288.592 145.33 288.65 145.344C290.655 145.863 292.687 146.365 294.7 146.824C294.815 146.852 294.914 146.923 294.976 147.022C295.039 147.12 295.06 147.238 295.036 147.351C295.013 147.445 294.958 147.527 294.881 147.587C294.805 147.646 294.71 147.679 294.612 147.68L294.603 147.698ZM302.711 146.884H302.641C302.526 146.865 302.423 146.803 302.354 146.711C302.284 146.619 302.254 146.504 302.27 146.391C302.579 144.333 303.103 142.312 303.833 140.359C303.873 140.252 303.955 140.164 304.061 140.115C304.167 140.066 304.288 140.061 304.398 140.1C304.508 140.139 304.598 140.219 304.648 140.323C304.698 140.427 304.703 140.546 304.663 140.654C303.96 142.548 303.456 144.508 303.162 146.503C303.145 146.606 303.091 146.699 303.01 146.765C302.929 146.832 302.826 146.868 302.72 146.867L302.711 146.884ZM282.512 144.574C282.471 144.582 282.429 144.582 282.388 144.574C280.401 144.011 278.378 143.405 276.4 142.782C276.344 142.766 276.292 142.738 276.248 142.702C276.203 142.665 276.166 142.62 276.14 142.569C276.114 142.518 276.098 142.462 276.094 142.405C276.09 142.348 276.098 142.291 276.117 142.237C276.153 142.128 276.233 142.038 276.337 141.986C276.441 141.934 276.562 141.925 276.674 141.96C278.643 142.575 280.648 143.18 282.635 143.743C282.748 143.775 282.843 143.85 282.899 143.95C282.955 144.051 282.968 144.169 282.936 144.279C282.904 144.362 282.848 144.433 282.773 144.483C282.699 144.533 282.611 144.558 282.521 144.556L282.512 144.574ZM356.094 142.35C355.992 142.348 355.893 142.311 355.814 142.247C355.735 142.182 355.681 142.094 355.661 141.995C355.184 140.087 354.087 138.383 352.535 137.14C352.494 137.101 352.461 137.054 352.439 137.002C352.416 136.95 352.405 136.894 352.405 136.838C352.405 136.781 352.416 136.725 352.439 136.673C352.461 136.621 352.494 136.574 352.535 136.535C352.576 136.494 352.625 136.462 352.678 136.44C352.732 136.418 352.79 136.407 352.848 136.407C352.907 136.407 352.964 136.418 353.018 136.44C353.072 136.462 353.121 136.494 353.162 136.535C354.86 137.899 356.054 139.772 356.562 141.865C356.574 141.921 356.574 141.978 356.563 142.034C356.552 142.09 356.53 142.143 356.498 142.19C356.466 142.238 356.425 142.279 356.377 142.31C356.329 142.342 356.275 142.364 356.218 142.376L356.094 142.35ZM270.615 140.835C270.565 140.844 270.514 140.844 270.464 140.835C268.451 140.134 266.481 139.408 264.591 138.681C264.483 138.637 264.398 138.553 264.351 138.448C264.305 138.343 264.303 138.225 264.344 138.118C264.365 138.065 264.397 138.017 264.437 137.976C264.478 137.936 264.526 137.903 264.579 137.88C264.633 137.858 264.69 137.846 264.748 137.845C264.806 137.844 264.864 137.855 264.918 137.876C266.79 138.603 268.76 139.321 270.756 140.022C270.865 140.059 270.956 140.138 271.007 140.24C271.058 140.342 271.066 140.459 271.03 140.567C270.994 140.643 270.937 140.707 270.864 140.751C270.792 140.796 270.709 140.819 270.623 140.818L270.615 140.835ZM258.991 136.31C258.933 136.322 258.873 136.322 258.815 136.31C256.871 135.444 254.964 134.579 253.153 133.67C253.097 133.647 253.046 133.614 253.004 133.571C252.962 133.528 252.93 133.477 252.909 133.421C252.887 133.365 252.878 133.306 252.882 133.246C252.885 133.187 252.901 133.129 252.929 133.076C252.956 133.023 252.994 132.976 253.041 132.938C253.088 132.9 253.142 132.872 253.201 132.855C253.259 132.839 253.32 132.834 253.38 132.842C253.44 132.85 253.498 132.87 253.55 132.9C255.317 133.766 257.242 134.631 259.177 135.496C259.294 135.52 259.396 135.589 259.462 135.687C259.527 135.785 259.55 135.905 259.526 136.02C259.501 136.135 259.431 136.235 259.331 136.299C259.23 136.363 259.108 136.386 258.991 136.362V136.31ZM307.145 135.557C307.051 135.557 306.959 135.529 306.88 135.479C306.787 135.41 306.725 135.308 306.708 135.194C306.691 135.08 306.722 134.965 306.792 134.873C307.947 133.32 309.366 131.974 310.987 130.893L311.447 130.607C311.496 130.577 311.551 130.557 311.608 130.547C311.665 130.538 311.724 130.54 311.781 130.553C311.837 130.565 311.891 130.589 311.938 130.622C311.985 130.655 312.025 130.697 312.056 130.745C312.087 130.794 312.107 130.848 312.117 130.904C312.127 130.96 312.125 131.017 312.112 131.073C312.098 131.128 312.074 131.181 312.041 131.227C312.007 131.273 311.964 131.312 311.915 131.343L311.482 131.611C309.944 132.636 308.596 133.912 307.498 135.384C307.456 135.433 307.403 135.472 307.344 135.499C307.284 135.526 307.22 135.54 307.154 135.539L307.145 135.557ZM347.659 133.826C347.585 133.825 347.513 133.808 347.447 133.774C346.705 133.385 345.981 133.021 345.292 132.684C344.17 132.147 343.013 131.645 341.848 131.195C341.789 131.178 341.736 131.149 341.689 131.111C341.643 131.072 341.606 131.024 341.579 130.971C341.552 130.917 341.537 130.859 341.535 130.8C341.532 130.74 341.542 130.681 341.564 130.625C341.586 130.57 341.619 130.519 341.662 130.477C341.705 130.435 341.756 130.402 341.813 130.38C341.869 130.358 341.929 130.347 341.99 130.349C342.051 130.351 342.111 130.365 342.165 130.391C343.358 130.841 344.541 131.36 345.698 131.914C346.387 132.251 347.129 132.615 347.88 133.013C347.982 133.069 348.057 133.162 348.09 133.272C348.123 133.382 348.111 133.5 348.057 133.601C348.017 133.667 347.96 133.721 347.891 133.757C347.823 133.794 347.746 133.812 347.668 133.809L347.659 133.826ZM247.854 130.754C247.775 130.756 247.699 130.735 247.633 130.694C245.787 129.647 243.994 128.556 242.333 127.44C242.248 127.372 242.191 127.276 242.174 127.169C242.157 127.063 242.181 126.954 242.242 126.864C242.303 126.774 242.396 126.71 242.503 126.683C242.609 126.657 242.722 126.671 242.819 126.722C244.497 127.821 246.273 128.911 248.119 129.949C248.201 129.998 248.266 130.071 248.302 130.158C248.339 130.246 248.345 130.343 248.32 130.434C248.295 130.525 248.24 130.606 248.164 130.664C248.088 130.721 247.994 130.753 247.898 130.754H247.854ZM336.045 129.396H335.939C333.93 128.929 331.891 128.599 329.836 128.409C329.72 128.398 329.613 128.343 329.539 128.255C329.464 128.168 329.428 128.055 329.438 127.942C329.451 127.828 329.51 127.723 329.6 127.651C329.691 127.578 329.807 127.543 329.924 127.552C332.006 127.746 334.072 128.081 336.106 128.556C336.224 128.569 336.331 128.626 336.405 128.717C336.478 128.807 336.512 128.922 336.5 129.036C336.487 129.151 336.428 129.256 336.336 129.328C336.244 129.401 336.126 129.434 336.009 129.422L336.045 129.396ZM317.453 129.119C317.352 129.118 317.255 129.084 317.177 129.023C317.099 128.962 317.043 128.877 317.02 128.781C316.993 128.67 317.013 128.553 317.074 128.456C317.135 128.358 317.233 128.289 317.347 128.262C318.898 127.903 320.474 127.657 322.063 127.526C322.575 127.526 323.096 127.449 323.609 127.423C323.667 127.417 323.726 127.423 323.782 127.44C323.838 127.458 323.89 127.487 323.934 127.525C323.978 127.563 324.014 127.61 324.038 127.662C324.063 127.715 324.076 127.772 324.077 127.829C324.082 127.943 324.041 128.053 323.963 128.137C323.886 128.222 323.777 128.273 323.662 128.279C323.149 128.279 322.646 128.349 322.143 128.392C320.599 128.517 319.067 128.754 317.559 129.101L317.453 129.119ZM237.493 123.927C237.395 123.929 237.298 123.898 237.219 123.84C235.541 122.551 233.934 121.201 232.441 119.842C232.4 119.802 232.367 119.754 232.344 119.701C232.322 119.649 232.31 119.592 232.31 119.535C232.31 119.478 232.322 119.421 232.344 119.369C232.367 119.316 232.4 119.268 232.441 119.228C232.525 119.148 232.638 119.103 232.755 119.103C232.872 119.103 232.984 119.148 233.068 119.228C234.543 120.578 236.133 121.91 237.794 123.182C237.885 123.254 237.943 123.358 237.956 123.471C237.969 123.584 237.936 123.698 237.864 123.788C237.817 123.833 237.76 123.867 237.697 123.886C237.634 123.906 237.567 123.911 237.502 123.901L237.493 123.927ZM228.378 115.576C228.315 115.576 228.252 115.562 228.195 115.537C228.137 115.512 228.085 115.475 228.043 115.429C226.655 113.883 225.36 112.259 224.165 110.566C224.099 110.471 224.073 110.355 224.093 110.242C224.113 110.129 224.177 110.028 224.271 109.96C224.37 109.898 224.488 109.875 224.603 109.896C224.718 109.917 224.82 109.98 224.889 110.072C226.082 111.733 227.374 113.322 228.758 114.832C228.839 114.913 228.884 115.021 228.884 115.135C228.884 115.248 228.839 115.357 228.758 115.438C228.709 115.483 228.65 115.516 228.586 115.536C228.522 115.555 228.454 115.56 228.387 115.55L228.378 115.576ZM221.312 105.512C221.231 105.512 221.151 105.489 221.082 105.446C221.014 105.403 220.959 105.342 220.924 105.27C219.955 103.44 219.12 101.546 218.424 99.6018C218.387 99.4928 218.395 99.3739 218.446 99.2705C218.497 99.167 218.588 99.0872 218.698 99.048C218.808 99.0121 218.928 99.0201 219.032 99.0704C219.136 99.1206 219.216 99.2089 219.254 99.3163C219.937 101.226 220.758 103.085 221.71 104.88C221.762 104.983 221.771 105.101 221.735 105.21C221.698 105.318 221.62 105.408 221.515 105.46C221.451 105.486 221.381 105.495 221.312 105.486V105.512ZM217.276 93.9511C217.171 93.9522 217.069 93.9159 216.99 93.8491C216.91 93.7822 216.858 93.6894 216.843 93.5877C216.755 93.1291 216.684 92.6704 216.614 92.2031C216.398 90.6777 216.289 89.1396 216.287 87.5995V87.4178C216.287 87.3031 216.333 87.193 216.416 87.1119C216.499 87.0307 216.611 86.9851 216.728 86.9851C216.845 86.9851 216.958 87.0307 217.041 87.1119C217.123 87.193 217.17 87.3031 217.17 87.4178V87.5909C217.169 89.0905 217.275 90.5883 217.488 92.0734C217.559 92.532 217.629 92.982 217.709 93.4319C217.729 93.5444 217.704 93.6602 217.638 93.7542C217.571 93.8482 217.47 93.9128 217.355 93.9338L217.276 93.9511ZM217.32 81.7671H217.241C217.126 81.7461 217.025 81.6815 216.958 81.5875C216.892 81.4935 216.867 81.3776 216.887 81.2652C217.271 79.2325 217.83 77.2351 218.557 75.2944C218.6 75.1873 218.684 75.1007 218.791 75.0524C218.898 75.0041 219.019 74.9978 219.131 75.0348C219.239 75.0755 219.327 75.1565 219.375 75.2602C219.423 75.3638 219.427 75.4818 219.387 75.5886C218.673 77.4833 218.126 79.4346 217.753 81.421C217.733 81.5274 217.673 81.6224 217.585 81.6868C217.496 81.7511 217.386 81.7799 217.276 81.7671H217.32ZM221.63 70.336C221.553 70.3321 221.478 70.3114 221.409 70.2754C221.309 70.2159 221.236 70.1202 221.206 70.0086C221.176 69.897 221.192 69.7784 221.251 69.6783C222.313 67.8905 223.539 66.2018 224.916 64.6333C224.996 64.5626 225.1 64.523 225.207 64.522C225.315 64.5209 225.42 64.5585 225.501 64.6277C225.582 64.6968 225.635 64.7927 225.649 64.8974C225.664 65.002 225.638 65.1082 225.578 65.1958C224.255 66.7319 223.073 68.3796 222.045 70.1196C222.002 70.1947 221.937 70.2554 221.858 70.2939C221.78 70.3324 221.691 70.3471 221.604 70.336H221.63ZM229.765 61.1201C229.674 61.1195 229.585 61.0914 229.511 61.0394C229.436 60.9874 229.38 60.9141 229.35 60.8297C229.32 60.7453 229.318 60.6538 229.343 60.5679C229.368 60.482 229.42 60.4058 229.491 60.3499C231.16 59.0804 232.949 57.9706 234.835 57.0356C234.94 56.984 235.062 56.9755 235.174 57.012C235.286 57.0485 235.378 57.1271 235.431 57.2303C235.484 57.3336 235.492 57.4532 235.455 57.5627C235.418 57.6723 235.338 57.7628 235.232 57.8145C233.399 58.7248 231.657 59.8026 230.03 61.0335C229.947 61.096 229.843 61.1268 229.738 61.1201H229.765ZM284.013 55.729C281.91 55.6837 279.812 55.5016 277.733 55.1838C277.616 55.1677 277.51 55.1068 277.439 55.0143C277.368 54.9217 277.337 54.8053 277.354 54.6906C277.37 54.5758 277.432 54.4721 277.527 54.4024C277.621 54.3326 277.74 54.3024 277.857 54.3185C279.903 54.6337 281.969 54.8129 284.04 54.855C284.157 54.855 284.269 54.9006 284.352 54.9817C284.435 55.0628 284.481 55.1729 284.481 55.2876C284.481 55.4024 284.435 55.5125 284.352 55.5936C284.269 55.6747 284.157 55.7203 284.04 55.7203L284.013 55.729ZM240.788 55.504C240.73 55.5131 240.67 55.5109 240.613 55.4975C240.556 55.4842 240.502 55.46 240.455 55.4262C240.407 55.3925 240.367 55.3499 240.336 55.3008C240.305 55.2518 240.285 55.1974 240.275 55.1405C240.266 55.0837 240.268 55.0257 240.282 54.9697C240.296 54.9137 240.32 54.8609 240.355 54.8143C240.389 54.7677 240.433 54.7282 240.483 54.6981C240.533 54.6679 240.588 54.6477 240.646 54.6386C242.645 54.003 244.68 53.4829 246.741 53.081C246.798 53.0698 246.857 53.0698 246.915 53.0811C246.972 53.0925 247.027 53.1149 247.075 53.1471C247.124 53.1794 247.165 53.2207 247.197 53.2688C247.229 53.3169 247.251 53.3707 247.262 53.4272C247.275 53.4824 247.276 53.5396 247.265 53.5953C247.255 53.651 247.232 53.704 247.2 53.751C247.168 53.798 247.126 53.8381 247.078 53.8687C247.029 53.8993 246.974 53.9198 246.917 53.9291C244.89 54.3264 242.888 54.8379 240.92 55.4607L240.788 55.504ZM271.63 54.1454H271.551C269.652 53.7993 267.506 53.4099 265.368 53.1156C265.254 53.0985 265.151 53.0382 265.082 52.9476C265.012 52.857 264.982 52.7433 264.997 52.631C265.004 52.5744 265.022 52.5195 265.05 52.4699C265.079 52.4202 265.118 52.3767 265.164 52.3419C265.21 52.3072 265.263 52.2819 265.319 52.2677C265.375 52.2534 265.434 52.2504 265.492 52.259C267.612 52.5532 269.767 52.9512 271.674 53.2974C271.789 53.3184 271.89 53.383 271.957 53.477C272.023 53.571 272.048 53.6869 272.028 53.7993C272.013 53.8956 271.966 53.9843 271.894 54.0516C271.822 54.1189 271.729 54.161 271.63 54.1714V54.1454ZM253.012 53.0291C252.895 53.036 252.779 52.997 252.692 52.9207C252.604 52.8445 252.551 52.7372 252.544 52.6224C252.537 52.5076 252.576 52.3949 252.654 52.3088C252.732 52.2228 252.842 52.1706 252.959 52.1638C254.08 52.0426 255.282 51.9301 256.492 51.8349C257.269 51.7744 258.09 51.7397 258.929 51.7397H259.221C259.279 51.7409 259.336 51.7532 259.389 51.776C259.442 51.7988 259.49 51.8316 259.531 51.8726C259.571 51.9135 259.602 51.9619 259.623 52.0148C259.645 52.0678 259.655 52.1243 259.654 52.1811C259.647 52.2929 259.598 52.3984 259.517 52.4768C259.435 52.5552 259.326 52.601 259.212 52.6051H258.929C258.117 52.6051 257.322 52.6051 256.553 52.6916C255.335 52.7868 254.151 52.8993 253.021 53.0291H253.012Z" fill="white"/>
<path d="M250.68 204.655C249.629 204.611 248.587 204.533 247.58 204.438C247.522 204.434 247.466 204.418 247.414 204.392C247.363 204.366 247.317 204.33 247.28 204.287C247.243 204.243 247.215 204.193 247.199 204.139C247.182 204.084 247.176 204.027 247.182 203.971C247.185 203.914 247.201 203.858 247.227 203.807C247.253 203.756 247.29 203.711 247.334 203.674C247.379 203.638 247.431 203.611 247.487 203.595C247.543 203.579 247.601 203.574 247.659 203.581C248.657 203.677 249.682 203.746 250.724 203.789C250.841 203.789 250.954 203.835 251.036 203.916C251.119 203.997 251.166 204.107 251.166 204.222C251.166 204.337 251.119 204.447 251.036 204.528C250.954 204.609 250.841 204.655 250.724 204.655H250.68Z" fill="white"/>
</g>
<path d="M332.841 23.0454L301.653 21.7915C300.084 21.7284 298.759 22.9237 298.695 24.4613L298.116 38.2951C298.051 39.8327 299.271 41.1303 300.841 41.1934L332.028 42.4474C333.597 42.5105 334.922 41.3152 334.986 39.7776L335.566 25.9438C335.63 24.4062 334.41 23.1085 332.841 23.0454Z" fill="#859B5B"/>
<path opacity="0.8" d="M332.841 23.0454L301.653 21.7915C300.084 21.7284 298.759 22.9237 298.695 24.4613L298.116 38.2951C298.051 39.8327 299.271 41.1303 300.841 41.1934L332.028 42.4474C333.597 42.5105 334.922 41.3152 334.986 39.7776L335.566 25.9438C335.63 24.4062 334.41 23.1085 332.841 23.0454Z" fill="white"/>
<path opacity="0.4" d="M316.702 35.8259C316.61 35.8254 316.521 35.7983 316.446 35.748L300.3 24.862C300.252 24.8299 300.21 24.7886 300.178 24.7407C300.146 24.6927 300.124 24.639 300.113 24.5826C300.103 24.5263 300.103 24.4684 300.116 24.4124C300.128 24.3563 300.152 24.3033 300.185 24.2562C300.253 24.1646 300.354 24.1018 300.467 24.0809C300.58 24.0599 300.698 24.0824 300.795 24.1437L316.693 34.8913L333.474 25.4591C333.576 25.403 333.697 25.3888 333.809 25.4197C333.922 25.4505 334.017 25.5238 334.075 25.6235C334.133 25.7223 334.149 25.8395 334.119 25.9497C334.089 26.0599 334.016 26.1541 333.916 26.2119L316.94 35.7307C316.873 35.7864 316.79 35.8197 316.702 35.8259Z" fill="#859B5B"/>
<path opacity="0.4" d="M333.095 40.0571C333.006 40.0577 332.919 40.0304 332.847 39.9792L323.609 33.6881C323.56 33.656 323.519 33.6148 323.487 33.5668C323.455 33.5189 323.433 33.4652 323.422 33.4088C323.411 33.3524 323.412 33.2946 323.424 33.2385C323.437 33.1825 323.46 33.1294 323.494 33.0824C323.563 32.9898 323.666 32.9271 323.782 32.9077C323.897 32.8883 324.015 32.9137 324.112 32.9786L333.351 39.2869C333.398 39.3189 333.439 39.3599 333.47 39.4074C333.501 39.4549 333.522 39.508 333.532 39.5636C333.542 39.6192 333.54 39.6762 333.527 39.7312C333.514 39.7862 333.49 39.8382 333.457 39.884C333.415 39.9389 333.36 39.9833 333.297 40.0133C333.234 40.0434 333.165 40.0584 333.095 40.0571Z" fill="#859B5B"/>
<path opacity="0.4" d="M300.009 38.7248C299.909 38.7294 299.81 38.7005 299.729 38.643C299.648 38.5854 299.589 38.5025 299.562 38.4079C299.535 38.3133 299.542 38.2126 299.582 38.1224C299.621 38.0322 299.691 37.9577 299.779 37.9113L309.495 32.3904C309.594 32.3463 309.707 32.34 309.811 32.3727C309.915 32.4053 310.003 32.4747 310.058 32.5673C310.113 32.6599 310.131 32.7691 310.109 32.8739C310.086 32.9788 310.025 33.0716 309.936 33.1346L300.221 38.6642C300.157 38.7027 300.084 38.7237 300.009 38.7248Z" fill="#859B5B"/>
<path d="M364.087 30.4609L301.934 44.3497L293.967 49.1696L364.087 30.4609Z" fill="#859B5B"/>
<path opacity="0.2" d="M301.934 44.3497L293.967 49.1696L364.087 30.4609" fill="black"/>
<path d="M364.088 30.4609L301.934 44.3497L307.781 48.5639L364.088 30.4609Z" fill="#859B5B"/>
<path d="M364.088 30.4609L310.802 41.1393L307.781 48.5639L364.088 30.4609Z" fill="#859B5B"/>
<path opacity="0.2" d="M364.088 30.4609L310.802 41.1393L307.781 48.5639L364.088 30.4609Z" fill="black"/>
<path d="M364.088 30.4609L310.802 41.1393L327.583 47.1015L364.088 30.4609Z" fill="#859B5B"/>
</svg>
