<svg width="670" height="889" viewBox="0 0 670 889" fill="none" xmlns="http://www.w3.org/2000/svg">
<path d="M0.820465 386.779C0.820465 386.779 -16.2694 551.699 105.545 688.438C227.359 825.178 443.526 828.332 595.5 869.5C747.474 910.668 849.376 890.032 885.081 762.219C920.786 634.406 808.805 572.355 765.679 410.074C722.552 247.792 734.88 199.801 612.88 80.8106C490.881 -38.1793 272.733 -23.9343 140.796 111.465C8.86032 246.865 0.820465 386.779 0.820465 386.779Z" fill="url(#paint0_linear_465_13437)"/>
<path opacity="0.7" d="M0.820464 386.779C0.820464 386.779 -16.2694 551.699 105.545 688.438C227.359 825.178 416.026 821.832 568 863C719.974 904.168 849.376 890.032 885.081 762.219C920.786 634.406 808.805 572.355 765.679 410.074C722.552 247.792 734.88 199.8 612.88 80.8106C490.881 -38.1792 272.733 -23.9343 140.796 111.465C8.86032 246.865 0.820464 386.779 0.820464 386.779Z" fill="url(#paint1_linear_465_13437)"/>
<defs>
<linearGradient id="paint0_linear_465_13437" x1="-2.39991e-06" y1="710.911" x2="915.665" y2="678.997" gradientUnits="userSpaceOnUse">
<stop stop-color="#11401C"/>
<stop offset="0.5" stop-color="#1F7332"/>
<stop offset="1" stop-color="#859B5B"/>
</linearGradient>
<linearGradient id="paint1_linear_465_13437" x1="-2.39991e-06" y1="706.896" x2="915.653" y2="674.801" gradientUnits="userSpaceOnUse">
<stop stop-color="#11401C"/>
<stop offset="0.5" stop-color="#1F7332"/>
<stop offset="1" stop-color="#859B5B"/>
</linearGradient>
</defs>
</svg>
