<svg width="58" height="266" viewBox="0 0 58 266" fill="none" xmlns="http://www.w3.org/2000/svg">
<path d="M17.9566 106.188C18.6677 104.794 19.5108 103.482 20.4727 102.271C21.5398 100.799 22.5874 99.3052 23.6741 97.8534C25.0839 95.9838 26.3762 94.0202 27.5902 92.0253C28.9035 89.9706 30.0812 87.8208 31.1147 85.5915C33.0386 81.2705 34.2318 76.6209 34.6391 71.8569C34.9932 63.5501 34.335 55.2294 32.6811 47.1034C32.2975 44.6631 31.5921 42.2931 30.586 40.0637L32.1524 39.9698C27.7958 47.5629 22.3622 54.4877 18.965 62.6971C17.1849 66.976 16.2325 71.5941 16.165 76.275C16.2198 80.8592 16.7085 85.4257 17.6237 89.9051C18.1035 92.6102 18.6615 95.3049 19.0237 98.0414C19.2162 99.3856 19.3014 100.745 19.2783 102.104C19.1914 103.656 18.8844 105.184 18.3678 106.637C18.1916 107.18 17.6042 107.076 17.6629 106.481C17.9078 104.048 17.8749 101.593 17.565 99.1694C17.2419 96.6419 16.6643 94.1561 16.165 91.6598C15.1231 87.0843 14.5066 82.4104 14.3244 77.7059C14.2618 72.871 15.1004 68.071 16.7916 63.5849C18.4267 59.4772 20.4438 55.5548 22.8126 51.8765C25.4168 47.6987 28.2265 43.5836 30.7035 39.27C30.7879 39.1364 30.9 39.0255 31.0313 38.9459C31.1625 38.8663 31.3092 38.8201 31.4599 38.811C31.6107 38.8019 31.7613 38.8301 31.9001 38.8934C32.0389 38.9567 32.1621 39.0534 32.2601 39.176C33.1779 41.1597 33.8367 43.2682 34.2181 45.4427C34.8198 48.0636 35.2904 50.7168 35.6279 53.391C35.9608 56.1588 36.1762 58.937 36.372 61.7466C36.5824 64.3935 36.6216 67.0527 36.4895 69.7054C36.228 74.5864 35.1849 79.3836 33.4056 83.8891C31.315 88.7801 28.6146 93.3474 25.3776 97.467C23.0573 100.6 20.2475 103.368 18.2112 106.721C17.9958 107.065 17.8 106.481 17.8979 106.261L17.9566 106.188Z" fill="#D4D4D4"/>
<path d="M32.0737 39.9171C32.1064 46.0819 31.6479 52.2385 30.7031 58.3204C29.9003 64.3469 29.0192 70.3734 27.8737 76.3477C26.7838 82.1698 25.315 87.9038 23.4779 93.5081C22.5478 96.2968 21.5199 99.0646 20.5408 101.864C19.5618 104.663 18.5828 107.232 17.3982 109.833C15.0583 114.951 12.1604 119.755 9.40936 124.633C6.53104 129.74 3.89747 134.983 1.42055 140.3C-3.62141 151.204 -7.88994 162.453 -11.9333 173.806C-15.8494 184.814 -19.7655 195.854 -24.1711 206.643C-24.8172 208.21 -25.5613 209.714 -26.276 211.239C-26.5599 211.866 -27.6955 211.845 -27.3725 210.999C-25.199 205.286 -22.8983 199.625 -20.7739 193.891C-18.8158 188.459 -16.8578 182.997 -14.8997 177.545C-10.9151 166.327 -6.77386 155.131 -1.94728 144.279C0.448051 138.883 3.02941 133.587 5.79677 128.393C8.44013 123.442 11.3968 118.7 14.0108 113.771C16.5442 108.699 18.7394 103.442 20.58 98.041C22.6849 92.3124 24.4282 86.4399 25.7982 80.4629C27.1035 74.6557 28.2261 68.8102 29.166 62.9265C30.145 56.9522 31.1241 50.9466 31.5352 44.8887C31.6527 43.2281 31.7702 41.5569 31.8289 39.8962C31.8289 39.6142 32.0737 39.7605 32.0835 39.9694L32.0737 39.9171Z" fill="#D4D4D4"/>
<path d="M-2.30939 0.49947C-0.674426 8.1971 -2.08421 16.1663 -0.899598 23.9161C-0.464239 26.6753 0.416919 29.3329 1.7046 31.7704C3.2763 35.0162 5.39347 37.9262 7.95075 40.3559C9.0962 41.4003 10.3494 42.2985 11.5046 43.3221C12.3857 44.1054 13.2179 44.8888 13.0808 46.2048C13.0808 46.5182 12.5619 46.9882 12.3563 46.5599C12.1237 46.1463 11.8294 45.7759 11.485 45.4632C11.1165 45.0906 10.7275 44.7418 10.32 44.4188C9.25284 43.5414 8.15635 42.6954 7.11859 41.7763C4.611 39.4406 2.50973 36.6509 0.911582 33.5356C-0.484144 31.0612 -1.47719 28.3526 -2.02548 25.5246C-2.52287 22.47 -2.73277 19.3699 -2.65206 16.2707C-2.65206 13.8789 -2.51499 11.4767 -2.49541 9.08489C-2.49541 6.30664 -2.60309 3.53883 -2.77932 0.729251C-2.77932 0.415915 -2.39751 0.0399101 -2.29961 0.49947H-2.30939Z" fill="#D4D4D4"/>
<path d="M-2.12298 0.186755C-1.07543 1.66988 -0.1062 3.21568 1.00988 4.63614C2.12597 6.0566 3.17352 7.0906 4.27003 8.30217C6.55436 10.7566 8.59201 13.459 10.3498 16.3654C13.3651 21.5876 13.9819 27.8544 13.8351 33.8182C13.8351 35.7191 13.6588 37.62 13.5316 39.5209L13.326 42.5707C13.3679 43.6605 13.2013 44.7479 12.8365 45.7668C12.67 46.1219 12.1903 46.3099 12.0043 45.8921C11.7647 45.1573 11.714 44.3675 11.8574 43.6047C11.9162 42.6752 11.9749 41.7456 12.0435 40.816C12.1511 39.0927 12.2784 37.3589 12.3469 35.5938C12.4693 32.8939 12.4005 30.1881 12.1413 27.4993C11.867 24.2316 10.9709 21.0579 9.50779 18.1723C7.89056 15.2723 5.96552 12.5807 3.77073 10.1509C2.59591 8.78263 1.32317 7.52928 0.197294 6.10883C-1.05792 4.53968 -2.13573 2.81842 -3.0139 0.980551C-3.22928 0.520991 -2.48522 -0.35636 -2.12298 0.155423V0.186755Z" fill="#D4D4D4"/>
<path d="M-1.97664 0.89583C-0.769611 5.6091 0.928136 10.1634 3.0849 14.4737C4.06392 16.6462 5.18 18.7978 6.12965 21.0225C7.0793 23.2472 7.97022 25.6285 8.75344 27.989C11.9264 37.583 14.1382 47.5084 15.352 57.5993C16.0471 63.4273 16.5954 69.4852 15.9003 75.355C15.8416 75.825 14.9996 76.3994 14.9213 75.6579C14.608 70.4983 14.6178 65.3491 14.0793 60.2C13.5279 55.0395 12.701 49.9168 11.6024 44.8569C10.5255 39.8958 9.28211 34.9659 7.794 30.1301C6.30525 25.4605 4.55286 20.8914 2.54645 16.4478C1.48911 14.0455 0.451343 11.6328 -0.390615 9.13657C-1.34523 6.52473 -2.00261 3.80012 -2.34866 1.02116C-2.34866 0.707823 -2.07454 0.478049 -1.98643 0.864497L-1.97664 0.89583Z" fill="#D4D4D4"/>
<path d="M57.3328 101.352C54.9603 103.652 52.1993 105.449 49.1971 106.647C46.2646 107.92 43.2022 108.821 40.0727 109.332C36.4111 109.937 32.7006 110.157 29.0195 110.595C27.1224 110.803 25.2369 111.117 23.3706 111.535C21.896 111.796 20.4563 112.245 19.0825 112.872C17.8539 113.548 16.6955 114.361 15.6265 115.296C14.4654 116.198 13.4558 117.303 12.6405 118.565C12.2489 119.212 11.4461 118.805 11.7496 118.074C12.2576 117.004 12.9755 116.064 13.8545 115.316C14.8574 114.359 15.9313 113.489 17.0657 112.716C18.1087 111.984 19.2422 111.411 20.4335 111.013C22.2194 110.441 24.0419 110.008 25.8866 109.718C32.8475 108.569 39.9845 108.778 46.779 106.501C50.5399 105.371 54.0697 103.501 57.186 100.986C57.323 100.872 57.4307 101.258 57.3328 101.352Z" fill="#D4D4D4"/>
<path d="M57.3326 101.477C55.8151 102.908 53.6613 102.521 51.8012 102.417C49.3536 102.27 46.9746 101.56 44.527 101.372C41.2586 101.134 37.9892 101.821 35.0495 103.363C32.1098 104.906 29.6041 107.249 27.7858 110.156C27.5312 110.574 27.0123 110.386 27.1396 109.874C27.5074 108.79 28.1232 107.82 28.9312 107.054C29.6895 106.228 30.4868 105.443 31.32 104.704C32.9503 103.253 34.8148 102.131 36.8221 101.393C38.8343 100.638 40.9455 100.225 43.0781 100.171C45.4601 100.253 47.8298 100.571 50.1564 101.122C51.3851 101.334 52.6238 101.473 53.8669 101.539C55.0039 101.721 56.1648 101.481 57.1564 100.86C57.4403 100.631 57.5088 101.278 57.3326 101.445V101.477Z" fill="#D4D4D4"/>
<path d="M57.0877 101.643C56.2457 104.004 54.1506 105.915 52.4471 107.534C51.5876 108.355 50.682 109.119 49.7352 109.822C48.7562 110.532 47.6989 111.106 46.6611 111.712C44.6337 112.931 42.4404 113.805 40.1604 114.302C38.0183 114.837 35.7857 114.801 33.6597 114.198C31.4672 113.546 29.4833 112.268 27.9226 110.5C27.5996 110.093 28.1772 109.132 28.5884 109.571C30.0124 111.024 31.7115 112.135 33.5716 112.83C35.5465 113.516 37.6535 113.649 39.6905 113.216C41.9321 112.806 44.0953 112.005 46.0933 110.845C48.1103 109.759 50.011 108.442 51.7618 106.918C52.7375 106.079 53.6689 105.183 54.552 104.234C55.394 103.294 56.0499 102.218 56.8429 101.247C57.0191 101.027 57.1268 101.518 57.0877 101.643Z" fill="#D4D4D4"/>
<path d="M45.095 73.967C44.7819 75.4982 44.3091 76.9871 43.6852 78.406C43.0586 80.0144 42.4125 81.6333 41.7272 83.1895C40.3859 86.0514 38.2712 88.4118 36.3328 90.8036C32.316 95.6104 27.811 99.9262 22.9006 103.671C22.0195 104.371 21.0992 104.998 20.2083 105.687C19.1076 106.408 18.2029 107.423 17.5845 108.632C17.4768 108.925 17.2712 108.695 17.2516 108.497C17.2605 108.012 17.3694 107.534 17.5708 107.099C17.7722 106.664 18.061 106.282 18.4167 105.98C19.2388 105.123 20.1373 104.353 21.0992 103.682C23.3118 102.042 25.4265 100.266 27.4922 98.4595C29.8557 96.3747 32.0954 94.1353 34.1985 91.7541C36.3447 89.4591 38.3095 86.9788 40.0726 84.3385C40.9887 82.7755 41.7938 81.1416 42.481 79.4504C42.8726 78.5626 43.2545 77.6748 43.6363 76.787C44.0181 75.8993 44.4195 74.6981 44.9286 73.779C45.0461 73.5597 45.1733 73.873 45.1538 73.9984L45.095 73.967Z" fill="#D4D4D4"/>
<path d="M52.5942 76.6604C50.9789 79.6476 48.267 81.6947 45.653 83.606C44.4488 84.4938 43.2348 85.3503 41.9523 86.1128C40.7704 86.9122 39.5096 87.5707 38.1928 88.0763C37.7621 88.2121 37.9579 87.3661 38.1928 87.2303C39.3481 86.4052 40.6796 85.8307 41.8838 85.1414C43.088 84.4521 44.3117 83.5852 45.4963 82.7392C47.9928 80.9531 50.646 79.0627 52.4963 76.4724C52.5845 76.3367 52.6824 76.6082 52.6334 76.6918L52.5942 76.6604Z" fill="#D4D4D4"/>
<path d="M45.927 91.4824C43.313 92.0881 40.6697 92.7044 38.0948 93.5713C36.566 94.1158 35.0715 94.7647 33.6207 95.514C32.2011 96.2137 30.8207 96.9971 29.4207 97.7282C29.1662 97.8535 29.1466 97.2895 29.2445 97.1642C29.7377 96.6422 30.3235 96.2303 30.9676 95.9526L33.1997 94.8246C34.7279 94.0552 36.297 93.3821 37.899 92.8088C40.4476 91.7872 43.1371 91.2226 45.8585 91.1377C45.9857 91.1377 46.0543 91.4406 45.8585 91.4719L45.927 91.4824Z" fill="#D4D4D4"/>
<path d="M44.743 73.6525C44.9975 73.5898 45.2619 73.5794 45.5164 73.5167C45.7904 73.4472 46.0564 73.3456 46.3094 73.2138C46.7294 73.0315 47.107 72.7534 47.4157 72.3992C47.7102 72.0062 47.881 71.5241 47.9039 71.0216C47.9267 70.519 47.8004 70.0216 47.543 69.6C47.2285 69.2379 46.8315 68.9687 46.3906 68.8186C45.9497 68.6685 45.4799 68.6427 45.0269 68.7436C44.4317 68.9217 43.8999 69.2854 43.4996 69.788C43.3304 69.9878 43.2062 70.2263 43.1366 70.4852C43.067 70.744 43.0539 71.0165 43.0983 71.2816C43.1247 71.8284 43.321 72.3502 43.6563 72.7647C43.8342 72.9537 44.0433 73.106 44.2731 73.2138C44.5255 73.2902 44.7571 73.4299 44.9486 73.6212C44.9836 73.6759 45.0082 73.7375 45.0207 73.8025C45.0333 73.8674 45.0337 73.9343 45.0219 73.9994C45.01 74.0645 44.9862 74.1264 44.9518 74.1816C44.9174 74.2368 44.873 74.2842 44.8213 74.321C44.4859 74.4133 44.1325 74.3981 43.8051 74.2774C43.4778 74.1566 43.1911 73.9357 42.9808 73.6421C42.5964 73.1472 42.364 72.5383 42.315 71.8978C42.2014 71.0837 42.3571 70.2527 42.7556 69.5478C43.1925 68.8607 43.8185 68.3352 44.5472 68.0438C45.089 67.8239 45.6767 67.765 46.2474 67.8736C46.8181 67.9821 47.3505 68.2539 47.7878 68.66C48.2078 69.1705 48.4684 69.8078 48.5333 70.4835C48.5983 71.1592 48.4643 71.8398 48.15 72.4305C47.8468 73.0589 47.3535 73.5595 46.75 73.851C46.2507 74.1225 45.2227 74.6239 44.7332 74.1121C44.6353 73.9972 44.5864 73.6943 44.7332 73.6525H44.743Z" fill="#D4D4D4"/>
<path d="M52.3788 76.9013C52.1193 76.726 51.8978 76.4937 51.729 76.22C51.5602 75.9463 51.4479 75.6373 51.3997 75.3137C51.3042 74.6355 51.4472 73.9436 51.8011 73.371C52.1201 72.8819 52.5423 72.4796 53.0338 72.1966C53.5253 71.9136 54.0722 71.7578 54.6305 71.7417C55.1686 71.7516 55.6868 71.9598 56.0973 72.3311C56.5078 72.7023 56.7851 73.2137 56.8823 73.7784C56.9446 74.3371 56.8742 74.9035 56.6774 75.4256C56.4806 75.9476 56.1639 76.4084 55.7564 76.7655C55.4362 77.0821 55.0539 77.3186 54.6373 77.4577C54.2207 77.5968 53.7802 77.6351 53.348 77.5697C53.1441 77.5373 52.9498 77.4555 52.7801 77.3306C52.6104 77.2056 52.4698 77.0409 52.369 76.8491C52.3302 76.7664 52.31 76.6752 52.31 76.5828C52.31 76.4903 52.3302 76.3991 52.369 76.3164C52.4039 76.2436 52.4634 76.1877 52.5354 76.1598C52.6235 76.1598 52.6333 76.2224 52.7116 76.2224H52.8095L52.9564 76.2746C53.067 76.324 53.1818 76.3625 53.299 76.3895C53.6697 76.4781 54.0542 76.4781 54.4249 76.3895C54.5916 76.3539 54.753 76.2941 54.9046 76.212L55.12 76.0971C55.0221 76.1493 55.12 76.0971 55.169 76.0971L55.3256 75.9717L55.4431 75.8673C55.5606 75.7628 55.3746 75.9613 55.4431 75.8673C55.5116 75.7733 55.5704 75.7106 55.6389 75.6271C55.7074 75.5435 55.5802 75.742 55.6389 75.6271C55.6613 75.5762 55.6875 75.5273 55.7172 75.4808C55.7172 75.4286 55.7662 75.3868 55.7857 75.3346C55.727 75.4704 55.7857 75.2511 55.7857 75.2197C55.7857 75.1884 55.7857 75.1153 55.7857 75.0526C55.7857 74.99 55.7857 75.1571 55.7857 74.9795V74.7915V74.6766C55.7889 74.4285 55.7316 74.1837 55.6193 73.9664C55.5052 73.7324 55.3429 73.529 55.1445 73.3717C54.946 73.2143 54.7168 73.1069 54.4739 73.0577C53.9524 72.99 53.4248 73.1114 52.976 73.4024C52.7422 73.5169 52.5339 73.6833 52.3651 73.8904C52.1963 74.0975 52.0708 74.3406 51.9969 74.6035C51.8501 75.2719 52.3102 75.8255 52.5746 76.4104C52.6725 76.6193 52.5158 77.2146 52.2123 77.0266L52.3788 76.9013Z" fill="#D4D4D4"/>
<path d="M45.7704 91.5655C45.6374 91.3429 45.5525 91.0915 45.522 90.8295C45.4916 90.5675 45.5162 90.3015 45.5942 90.051C45.7008 89.6378 45.8766 89.2485 46.1131 88.9021C46.4855 88.3737 46.9819 87.9594 47.5523 87.701C48.176 87.3933 48.874 87.3004 49.5494 87.4352C50.2248 87.5699 50.8442 87.9257 51.3215 88.453C51.668 88.9606 51.8635 89.5676 51.8827 90.1952C51.9019 90.8229 51.7439 91.4422 51.4292 91.9728C51.1244 92.5933 50.6633 93.1105 50.0977 93.4664C49.549 93.7645 48.9378 93.9075 48.3225 93.8819C47.7072 93.8563 47.1083 93.6629 46.583 93.3202C46.3042 93.1474 46.0637 92.9122 45.8781 92.6308C45.7774 92.4751 45.6952 92.3067 45.6334 92.1295C45.5453 91.8625 45.5453 91.5714 45.6334 91.3044C45.6921 91.085 45.9663 90.7926 46.1816 90.9806C46.3318 91.1634 46.4631 91.363 46.5733 91.5759C46.7107 91.7628 46.8722 91.928 47.053 92.0668C47.3968 92.352 47.7996 92.5454 48.2278 92.6308C48.6398 92.7486 49.075 92.7373 49.4812 92.5984C49.8874 92.4595 50.2476 92.1988 50.5187 91.8475C50.5187 91.8475 50.6166 91.6908 50.646 91.6281L50.7047 91.5132C50.7047 91.5132 50.7928 91.3148 50.7537 91.4192C50.8366 91.2263 50.8959 91.0227 50.9299 90.8135C50.9996 90.4123 50.9337 89.9978 50.7439 89.6437C50.4619 89.212 50.0642 88.8814 49.603 88.695C49.1418 88.5086 48.6386 88.4752 48.1593 88.5992C47.6647 88.6995 47.2105 88.9582 46.8572 89.3408C46.4024 89.8903 46.1425 90.5925 46.1229 91.3252C46.1229 91.4924 45.9467 91.7639 45.7998 91.5342L45.7704 91.5655Z" fill="#D4D4D4"/>
<path d="M55.0906 129.98C54.1404 131.108 53.1093 132.156 52.0067 133.114C50.9102 134.158 49.8724 135.203 48.8249 136.247C46.716 138.507 44.4226 140.562 41.9717 142.388C37.0766 145.908 31.8878 148.948 26.7284 151.966C21.5689 154.985 16.3508 157.993 11.3871 161.366C-1.74809 170.317 -12.5299 182.689 -19.9416 197.316C-24.812 206.999 -28.9153 217.099 -32.2087 227.511C-34.0199 233.047 -35.6353 238.666 -36.9569 244.358C-38.3128 249.897 -39.2137 255.552 -39.6493 261.258C-39.7374 262.501 -39.7863 263.744 -39.7961 264.997C-39.7961 265.718 -41.0101 266.24 -41.0003 265.31C-40.8831 259.721 -40.227 254.16 -39.0423 248.714C-37.8405 242.826 -36.3471 237.011 -34.5681 231.292C-31.3757 220.701 -27.4117 210.392 -22.7122 200.46C-18.2055 190.931 -12.3693 182.187 -5.4031 174.526C-1.52231 170.295 2.71148 166.45 7.24585 163.037C12.1322 159.482 17.2017 156.221 22.4305 153.272C27.6291 150.243 32.9256 147.37 38.0361 144.174C40.6002 142.639 43.0486 140.893 45.3592 138.952C47.6794 136.947 49.7158 134.576 51.9969 132.529C53.0774 131.619 54.0829 130.613 55.0025 129.521C55.1494 129.343 55.2864 129.761 55.1787 129.907L55.0906 129.98Z" fill="#D4D4D4"/>
<path d="M26.8169 151.527C27.5128 150.422 28.261 149.355 29.0588 148.331C29.6854 147.381 30.2728 146.389 30.9581 145.48C32.4148 143.562 34.0554 141.812 35.8532 140.258C36.756 139.521 37.743 138.911 38.7903 138.44C39.9358 137.887 41.0518 137.302 42.1581 136.686C44.3218 135.474 46.6225 134.597 48.8351 133.5C49.9704 132.935 51.0722 132.297 52.1344 131.589C52.6239 131.265 53.1134 130.91 53.5637 130.544C54.2001 130.022 54.7581 129.364 55.4141 128.894C55.6686 128.716 55.7176 129.186 55.6295 129.343C55.0097 130.356 54.2198 131.238 53.2994 131.944C52.4065 132.681 51.453 133.332 50.4504 133.886C48.3553 135.067 46.1232 135.975 43.9595 136.968C42.8337 137.5 41.7665 138.148 40.6505 138.701C39.5344 139.255 38.4085 139.694 37.3414 140.299C36.422 140.873 35.5791 141.575 34.8351 142.388C33.9735 143.234 33.1218 144.091 32.319 144.999C31.3795 146.138 30.5034 147.334 29.6952 148.582C29.3036 149.156 28.8924 149.71 28.4616 150.253C28.0643 150.872 27.5467 151.392 26.9442 151.778C26.8071 151.841 26.7679 151.6 26.8169 151.517V151.527Z" fill="#D4D4D4"/>
<path d="M29.5971 121.647C28.933 123.318 28.0532 124.883 26.9831 126.295C25.6512 128.189 24.2092 129.993 22.6656 131.694C19.5719 135.235 16.5957 138.891 13.4041 142.327C7.72575 148.447 1.7733 154.296 -3.4253 160.897C-4.91341 162.788 -6.36237 164.731 -7.66446 166.746C-8.34978 167.791 -9.0253 168.835 -9.62251 169.88C-10.2754 171.072 -10.998 172.22 -11.7861 173.316C-12.0603 173.671 -12.4421 173.316 -12.354 172.929C-12.0302 171.84 -11.5549 170.808 -10.9442 169.869C-10.3959 168.887 -9.8281 167.927 -9.2211 166.987C-8.04628 165.159 -6.79313 163.394 -5.49104 161.681C-2.926 158.307 -0.165157 155.111 2.68379 152.009C5.53275 148.907 8.25442 146.108 11.0446 143.173C14.1285 139.925 17.0656 136.53 20.1104 133.251C22.0195 131.162 23.9579 129.177 25.7299 126.984C27.1299 125.25 28.2558 123.339 29.5188 121.501C29.5971 121.396 29.6754 121.595 29.646 121.657L29.5971 121.647Z" fill="#D4D4D4"/>
<path d="M29.4895 122.104C29.3645 122.874 29.1812 123.632 28.9413 124.371C28.7455 125.092 28.5595 125.823 28.3637 126.543C27.9818 127.912 27.6196 129.269 27.2084 130.627C26.5283 133.143 25.5408 135.552 24.2713 137.792C22.9024 140.074 21.0894 142.016 18.9553 143.484C17.0547 144.746 15.0204 145.763 12.8951 146.513C10.9646 147.043 9.0785 147.741 7.25596 148.602C6.9231 148.79 6.59023 148.748 6.65876 148.247C6.72729 147.746 7.36365 147.453 7.75526 147.255C8.77 146.774 9.81726 146.376 10.8881 146.064C15.235 144.644 19.6406 142.722 22.5679 138.837C24.2245 136.481 25.4955 133.843 26.3273 131.034C26.807 129.572 27.2378 128.1 27.6685 126.627C27.9133 125.791 28.1776 124.966 28.442 124.152C28.6465 123.368 28.939 122.614 29.3133 121.906C29.4112 121.749 29.5091 122.052 29.4993 122.125L29.4895 122.104Z" fill="#D4D4D4"/>
<path d="M29.4894 121.771C28.5789 123.777 26.5523 125.114 24.8293 126.179C22.7929 127.411 20.6488 128.456 18.6908 129.835C16.7235 131.233 14.984 132.965 13.5412 134.963C12.1238 137.113 10.9413 139.43 10.0167 141.867C9.46842 143.141 9.03766 144.488 8.55794 145.783C8.13672 147.121 7.40205 148.322 6.42366 149.272C6.11038 149.533 6.0908 148.833 6.16912 148.677C6.742 147.574 7.23935 146.429 7.65724 145.251C8.03906 144.102 8.41109 142.942 8.88102 141.825C9.82056 139.327 11.0122 136.945 12.4349 134.723C13.8317 132.731 15.4979 130.971 17.3789 129.5C19.3768 128.055 21.4822 126.787 23.674 125.709C25.7598 124.681 27.6359 123.226 29.1957 121.427C29.4209 121.155 29.5873 121.604 29.4894 121.803V121.771Z" fill="#D4D4D4"/>
<path d="M1.94927 65.7786C1.66718 67.8933 1.50697 70.0245 1.46955 72.1602C1.46955 75.1787 1.70451 78.1763 1.92969 81.1843C2.29192 85.9783 2.52689 90.7724 2.99682 95.5664C3.9171 105.081 4.8178 114.565 3.97584 124.132C3.70987 127.204 3.2718 130.256 2.66395 133.271C2.31803 134.949 1.91336 136.617 1.44996 138.274C1.022 140.066 0.397656 141.798 -0.410173 143.434C-0.596187 143.768 -1.11507 143.758 -1.06611 143.298C-0.827047 141.745 -0.450063 140.221 0.0597529 138.744C0.461152 137.261 0.813606 135.757 1.13668 134.263C1.72083 131.506 2.1653 128.716 2.46815 125.908C2.98044 120.802 3.10158 115.66 2.83038 110.533C2.615 105.969 2.17444 101.415 1.74367 96.8615C1.3129 92.3077 1.06814 87.6077 1.01919 82.9494C1.01919 79.4818 0.794014 76.0247 0.911497 72.5571C0.911497 71.3977 1.04857 70.2488 1.18564 69.0999C1.27639 67.9472 1.48653 66.8088 1.81221 65.7055C1.81221 65.5697 1.95906 65.7055 1.94927 65.8204V65.7786Z" fill="#D4D4D4"/>
<path d="M1.82234 66.2473C1.55989 67.519 1.18285 68.7607 0.696471 69.9551C0.304862 71.1353 -0.0965443 72.3156 -0.458782 73.5062C-1.1946 75.8868 -1.72547 78.334 -2.04479 80.8174C-2.34541 83.2811 -2.28264 85.7797 -1.85878 88.2226C-1.65277 89.3964 -1.32439 90.542 -0.879754 91.638C-0.491571 92.5113 -0.0602024 93.3619 0.412546 94.1864C0.921637 95.1056 1.39156 96.0351 1.99856 96.9334C2.6716 97.8512 3.13426 98.9242 3.34961 100.067C3.34961 100.485 2.81114 101.038 2.62513 100.464C2.20825 99.4103 1.67939 98.4115 1.04892 97.4869C0.588779 96.7349 0.158004 95.9516 -0.272766 95.1787C-0.703535 94.4058 -1.25179 93.4449 -1.6336 92.5362C-2.06583 91.5329 -2.39411 90.4822 -2.61263 89.4028C-3.66018 84.4312 -2.96508 79.3865 -1.5455 74.582C-1.13431 73.2034 -0.674162 71.8351 -0.194442 70.4773C0.089474 69.694 0.383174 68.9106 0.686671 68.1378C0.932745 67.3821 1.26135 66.6599 1.66569 65.9862C1.77338 65.8295 1.8615 66.122 1.85171 66.1951L1.82234 66.2473Z" fill="#D4D4D4"/>
<path d="M2.204 65.9034C2.28232 70.8332 5.14107 75.0423 6.27673 79.7215C6.82993 82.111 7.04769 84.5749 6.92289 87.0326C6.72238 89.522 6.24248 91.9766 5.49351 94.3438C5.14106 95.6181 4.77882 96.9028 4.38721 98.1665C3.9956 99.4303 3.80959 100.913 3.45714 102.282C3.40819 102.491 3.1047 102.658 3.01659 102.386C2.74854 101.283 2.77567 100.121 3.09491 99.0335C3.33967 97.8741 3.71169 96.7461 4.07393 95.6076C4.85285 93.207 5.40707 90.73 5.72848 88.2129C5.96089 85.6794 5.80881 83.1225 5.27812 80.6406C4.66379 78.2444 3.90511 75.8929 3.0068 73.601C2.16484 71.2196 1.23477 68.3787 1.88092 65.8302C1.95924 65.4856 2.24316 65.6109 2.25295 65.9242L2.204 65.9034Z" fill="#D4D4D4"/>
<path d="M53.446 132.644C53.0284 133.728 52.5308 134.776 51.9579 135.777C51.3509 136.947 50.7243 138.106 50.0684 139.245C48.8082 141.494 47.3668 143.622 45.7607 145.605C42.7958 149.156 38.8254 151.576 34.453 152.499C33.1007 152.739 31.7315 152.854 30.3607 152.843H28.1089C27.327 152.911 26.5412 152.911 25.7593 152.843C25.2698 152.77 25.4656 151.914 25.8572 151.799C27.1512 151.575 28.4647 151.504 29.7733 151.59C30.9677 151.59 32.1621 151.59 33.3565 151.433C35.4469 151.185 37.4791 150.541 39.3579 149.532C41.265 148.534 43.0049 147.207 44.5075 145.605C46.0573 143.874 47.4444 141.985 48.6488 139.965C49.3831 138.806 50.0782 137.615 50.7439 136.414C51.4569 134.944 52.2513 133.522 53.1229 132.153C53.3677 131.798 53.5537 132.393 53.4852 132.612L53.446 132.644Z" fill="#D4D4D4"/>
</svg>
