<svg width="392" height="355" viewBox="0 0 392 355" fill="none" xmlns="http://www.w3.org/2000/svg">
<path d="M195.863 354.798C304.035 354.798 391.726 304.171 391.726 241.72C391.726 179.269 304.035 128.643 195.863 128.643C87.6909 128.643 0 179.269 0 241.72C0 304.171 87.6909 354.798 195.863 354.798Z" fill="#F5F5F5"/>
<path d="M282.106 288.904C305.665 288.904 324.764 277.877 324.764 264.275C324.764 250.672 305.665 239.646 282.106 239.646C258.546 239.646 239.447 250.672 239.447 264.275C239.447 277.877 258.546 288.904 282.106 288.904Z" fill="#EBEBEB"/>
<path d="M276.878 184.684C276.975 187.895 277.351 191.092 278.003 194.237C279.559 213.832 281.594 218.435 283.938 232.002C284.191 233.521 284.8 236.53 284.875 237.533C284.988 238.799 285.569 248.371 286.085 251.221C286.825 255.403 293.772 255.506 294.307 250.65C294.663 247.415 293.801 238.883 293.735 237.327C293.735 237.327 293.735 234.571 293.735 233.23C293.735 227.136 294.738 215.417 295.319 204.832C295.76 196.853 294.11 192.887 293.126 188.893C293.126 188.893 295.132 175.965 297.57 161.704C300.007 147.444 305.942 131.112 294.072 118.193L277.694 123.818C277.694 123.818 276.015 149.994 276.653 171.277C276.784 177.352 276.887 181.712 276.878 184.684Z" fill="#FFBDA7"/>
<path d="M269.275 207.766C271.797 211.113 273.409 215.173 275.069 219.017C274.342 221.03 273.372 222.948 272.181 224.726L265.487 215.998C266.79 213.251 268.028 210.504 269.275 207.766Z" fill="#222222"/>
<path d="M272.181 224.735C269.209 224.735 266.228 224.735 263.246 224.735C261.755 222.813 260.246 220.91 258.765 218.988C261.877 219.082 264.99 219.27 268.14 219.354L272.181 224.735Z" fill="black"/>
<path d="M261.389 204.007C263.264 202.628 263.433 204.269 265.046 205.019C266.171 205.544 268.046 206.247 269.143 207.747C270.68 209.848 269.471 213.588 268.721 216.279C268.004 218.898 268.034 221.664 268.805 224.267C269.696 228.148 269.612 231.317 266.64 234.711C264.268 237.43 256.739 240.73 254.151 239.052C249.736 236.239 256.214 229.939 256.12 226.189C256.009 221.413 255.38 216.663 254.245 212.023C254.076 211.282 253.992 210.494 254.442 210.148C256.458 208.338 259.514 205.385 261.389 204.007Z" fill="#37474F"/>
<path d="M264.699 118.174C261.09 122.44 243.67 144.059 239.132 151.457C236.151 156.313 238.195 162.707 239.845 168.051C241.992 175.186 245.048 183.343 246.839 188.602C250.186 198.409 252.661 203.603 255.352 212.097C256.908 213.719 259.693 212.322 261.23 211.235C262.552 210.297 263.968 206.978 263.799 205.309C263.312 200.472 263.377 199.684 262.758 194.059C261.821 185.077 261.99 171.051 255.886 162.942C265.027 152.807 275.05 145.691 281.716 133.831C274.515 129.949 269.959 111.958 264.699 118.174Z" fill="#FFBDA7"/>
<path d="M284.697 236.286C283.563 236.427 283.506 237.336 283.469 241.761C283.531 246.489 283.243 251.215 282.606 255.9C281.781 260.878 280.909 266.213 284.969 270.619C287.35 273.216 291.26 273.826 294.016 269.625C296.585 265.716 298.207 262.012 296.96 257.568C295.809 253.768 295.148 249.836 294.991 245.868C294.794 239.689 295.141 236.389 293.735 236.399V237.336C293.276 238.152 291.86 239.211 289.366 239.314C286.553 239.427 285.288 238.377 284.875 237.542C284.828 237.121 284.763 236.708 284.697 236.286Z" fill="#37474F"/>
<path d="M265.187 114.105C263.387 117.508 257.227 124.662 250.027 134.497C245.048 141.303 236.32 151.635 235.86 156.707C235.401 161.779 247.645 192.175 247.645 192.175C247.645 192.175 257.855 193.375 262.468 188.227C262.627 179.724 261.53 169.392 257.011 163.382C259.018 161.348 273.54 146.225 276.184 143.066C276.184 143.066 275.753 157.954 275.725 166.392C275.697 174.83 276.662 191.706 277.394 197.106C278.125 202.506 279.109 210.522 279.531 213.044C279.531 213.044 285.841 218.876 295.47 212.847C295.47 212.847 296.407 204.335 296.107 200.575C295.807 196.815 294.523 192.278 293.754 189.034C293.754 189.034 297.504 166.12 299.332 155.966C301.16 145.813 304.629 130.287 295.451 115.389C295.488 115.38 278.134 121.08 265.187 114.105Z" fill="#484C52"/>
<path d="M276.184 143.047C276.184 143.047 270.362 139.353 267.952 135.078C267.952 135.078 269.218 140.159 272.64 143.047L262.327 157.841L276.184 143.047Z" fill="#37474F"/>
<path d="M241.804 51.8049C249.023 68.2308 258.792 73.9592 263.368 84.4972C269.143 84.0378 277.074 74.4186 272.696 68.5026C267.755 66.4869 251.648 49.3767 250.636 42.0919C249.745 35.6229 246.135 25.5817 246.229 20.1908C246.267 19.2922 246.626 18.4371 247.242 17.7813C248.995 15.85 248.976 14.3218 250.054 12.156C250.917 10.506 251.883 9.8778 251.601 9.51216C251.233 9.12466 250.731 8.89094 250.197 8.8579C249.663 8.82486 249.137 8.99494 248.723 9.33402C247.905 9.93189 247.179 10.6457 246.567 11.4529C246.842 9.43738 247.4 7.47092 248.226 5.61196C250.101 1.14923 249.632 -1.11025 243.66 0.539832C239.91 1.58051 237.594 4.73067 237.144 13.7686C236.929 17.5165 236.951 21.2741 237.21 25.0192C237.951 31.957 238.738 38.6043 239.666 44.342C240.056 46.9109 240.775 49.4191 241.804 51.8049Z" fill="#FFBDA7"/>
<path d="M264.502 109.502C263.986 107.083 263.377 102.517 263.011 99.1886C256.927 93.4883 258.633 87.2724 260.845 82.6971C265.271 73.5467 269.555 68.3527 273.559 68.5027L284.528 69.3183C290.509 70.0215 294.607 70.7059 296.05 71.0153C299.744 71.8216 299.632 74.503 299.801 78.4125C300.256 82.439 300.121 86.5104 299.397 90.4975L294.353 101.401L293.903 108.114C293.903 108.114 300.016 120.387 301.123 128.356C298.065 127.472 295.336 125.708 293.275 123.284C293.275 123.284 288.522 130.456 276.728 131.046C264.933 131.637 259.102 121.155 259.102 121.155L264.502 109.502Z" fill="#11401C"/>
<path opacity="0.1" d="M288.082 95.8416C287.216 97.5163 285.885 98.9049 284.248 99.8398C282.611 100.775 280.738 101.216 278.856 101.111C277.04 101.07 275.266 100.55 273.715 99.6029C272.164 98.6562 270.891 97.3167 270.024 95.7197C270.024 95.7197 270.371 102.92 278.875 102.836C287.378 102.751 288.082 95.8416 288.082 95.8416Z" fill="black"/>
<path d="M290.801 28.1505C294.813 30.2225 296.866 32.7163 300.176 33.6351C303.486 34.5539 306.158 33.5695 308.614 31.5256C311.427 29.2099 312.758 26.2847 315.674 24.4847C318.589 22.6846 322.236 21.5689 325.471 22.6752C329.521 24.0534 331.771 28.3942 332.821 32.5382C334.115 37.6853 333.628 43.4794 330.712 47.989C325.411 55.9966 317.494 61.9152 308.314 64.7336C297.038 68.1689 284.867 67.076 274.384 61.6865C270.071 59.4739 268.684 57.552 265.562 53.9612C262.44 50.3703 261.277 45.9826 262.252 40.1698C263.19 34.6102 266.152 31.0287 271.825 28.0567C274.739 26.4723 278.007 25.6502 281.325 25.6666C284.642 25.683 287.902 26.5374 290.801 28.1505Z" fill="#484C52"/>
<path opacity="0.5" d="M290.801 28.1505C294.813 30.2225 296.866 32.7163 300.176 33.6351C303.486 34.5539 306.158 33.5695 308.614 31.5256C311.427 29.2099 312.758 26.2847 315.674 24.4847C318.589 22.6846 322.236 21.5689 325.471 22.6752C329.521 24.0534 331.771 28.3942 332.821 32.5382C334.115 37.6853 333.628 43.4794 330.712 47.989C325.411 55.9966 317.494 61.9152 308.314 64.7336C297.038 68.1689 284.867 67.076 274.384 61.6865C270.071 59.4739 268.684 57.552 265.562 53.9612C262.44 50.3703 261.277 45.9826 262.252 40.1698C263.19 34.6102 266.152 31.0287 271.825 28.0567C274.739 26.4723 278.007 25.6502 281.325 25.6666C284.642 25.683 287.902 26.5374 290.801 28.1505Z" fill="black"/>
<path d="M270.325 35.1633C268.243 36.3259 265.637 41.4168 265.581 52.2361C265.581 61.3959 268.487 63.7304 269.959 64.4242C271.431 65.118 274.319 64.7804 277.122 64.4242L276.991 69.9276C276.991 69.9276 269.068 78.1874 275.472 79.1531C278.669 79.6406 282.766 77.7092 285.541 75.6185C287.327 74.1493 288.617 72.1655 289.235 69.937L289.46 57.9739C289.46 57.9739 291.063 59.6146 293.913 57.2426C296.266 55.2831 297.12 51.9079 295.366 50.0422C294.911 49.5984 294.357 49.2691 293.749 49.0815C293.142 48.8939 292.498 48.8533 291.872 48.9632C291.246 49.0731 290.655 49.3302 290.147 49.7134C289.64 50.0966 289.231 50.5949 288.954 51.1673C288.954 51.1673 287.313 51.261 285.747 48.1765C282.994 48.4119 280.24 47.726 277.919 46.2264C275.973 44.9884 274.298 43.3705 272.993 41.4695C271.688 39.5685 270.781 37.4236 270.325 35.1633Z" fill="#FFBDA7"/>
<path d="M277.478 49.6392C277.452 49.9483 277.548 50.2552 277.746 50.4938C277.945 50.7324 278.229 50.8834 278.537 50.9143C278.85 50.9297 279.156 50.8212 279.39 50.6124C279.623 50.4036 279.765 50.1112 279.784 49.7986C279.795 49.6472 279.775 49.4952 279.727 49.3512C279.679 49.2073 279.602 49.0743 279.503 48.9599C279.403 48.8454 279.282 48.7516 279.146 48.684C279.01 48.6164 278.862 48.5762 278.711 48.5657C278.559 48.5553 278.407 48.5747 278.263 48.623C278.119 48.6713 277.986 48.7475 277.872 48.8471C277.757 48.9468 277.664 49.0681 277.596 49.204C277.529 49.3399 277.488 49.4878 277.478 49.6392Z" fill="#222222"/>
<g style="mix-blend-mode:multiply" opacity="0.5">
<path d="M275.865 57.2705L272.246 58.3299C272.308 58.5702 272.417 58.7957 272.567 58.9935C272.717 59.1913 272.905 59.3573 273.119 59.482C273.334 59.6067 273.571 59.6876 273.817 59.72C274.063 59.7524 274.313 59.7356 274.552 59.6706C275.04 59.5187 275.449 59.1835 275.694 58.7358C275.939 58.288 276 57.7627 275.865 57.2705Z" fill="#F0997A"/>
</g>
<path d="M267.156 45.8044L269.528 44.248C269.434 44.0872 269.309 43.9471 269.16 43.8364C269.011 43.7258 268.84 43.647 268.659 43.6048C268.478 43.5626 268.291 43.558 268.108 43.5912C267.925 43.6245 267.751 43.6948 267.596 43.798C267.279 44.0121 267.057 44.3398 266.975 44.7132C266.893 45.0866 266.958 45.4772 267.156 45.8044Z" fill="#222222"/>
<path d="M279.203 45.664L281.828 46.7515C281.912 46.5825 281.961 46.3975 281.97 46.2087C281.979 46.0198 281.949 45.8311 281.881 45.6546C281.813 45.4781 281.709 45.3178 281.575 45.1838C281.442 45.0498 281.282 44.9451 281.106 44.8765C280.748 44.7376 280.351 44.742 279.996 44.8887C279.642 45.0353 279.358 45.313 279.203 45.664Z" fill="#222222"/>
<path d="M267.709 49.1515C267.702 49.3774 267.762 49.6002 267.88 49.7923C267.999 49.9845 268.172 50.1375 268.377 50.2324C268.582 50.3273 268.81 50.3599 269.034 50.3261C269.257 50.2923 269.466 50.1937 269.633 50.0424C269.801 49.8911 269.921 49.6939 269.978 49.4752C270.034 49.2565 270.025 49.026 269.952 48.8122C269.879 48.5985 269.745 48.411 269.566 48.273C269.387 48.1349 269.171 48.0525 268.946 48.0358C268.791 48.027 268.636 48.0489 268.49 48.1004C268.344 48.1518 268.21 48.2317 268.094 48.3354C267.979 48.4392 267.886 48.5647 267.82 48.7048C267.754 48.8449 267.716 48.9967 267.709 49.1515Z" fill="#222222"/>
<g style="mix-blend-mode:multiply" opacity="0.5">
<path d="M273.249 48.6267L272.903 55.5552L269.284 54.3364L273.249 48.6267Z" fill="#F0997A"/>
</g>
<g style="mix-blend-mode:multiply" opacity="0.5">
<path d="M277.121 64.415C280.084 64.1056 286.178 62.5399 287.181 60.1304C286.777 61.3353 286.011 62.3863 284.988 63.1399C283.112 64.6494 277.084 66.2526 277.084 66.2526L277.121 64.415Z" fill="#F0997A"/>
</g>
<path d="M288.953 51.1204L288.841 55.93C288.41 55.9203 287.986 55.8257 287.592 55.6516C287.198 55.4775 286.842 55.2274 286.545 54.9156C286.248 54.6037 286.016 54.2363 285.861 53.8345C285.706 53.4326 285.632 53.0041 285.644 52.5736L285.747 48.1296L288.953 51.1204Z" fill="#484C52"/>
<path opacity="0.5" d="M288.953 51.1204L288.841 55.93C288.41 55.9203 287.986 55.8257 287.592 55.6516C287.198 55.4775 286.842 55.2274 286.545 54.9156C286.248 54.6037 286.016 54.2363 285.861 53.8345C285.706 53.4326 285.632 53.0041 285.644 52.5736L285.747 48.1296L288.953 51.1204Z" fill="black"/>
<path d="M319.952 109.289C313.136 92.6947 304.698 82.5317 299.195 71.9187C289.819 71.3655 288.966 85.8506 293.194 91.8697C293.194 91.8697 309.489 111.558 310.933 118.787C312.208 125.19 315.039 135.4 314.805 140.791C314.754 141.689 314.373 142.537 313.736 143.172C311.945 145.047 311.927 146.594 310.755 148.694C309.817 150.326 308.88 150.926 309.142 151.301C309.502 151.698 309.999 151.944 310.533 151.989C311.067 152.034 311.599 151.876 312.02 151.545C312.85 150.967 313.592 150.272 314.224 149.482C313.897 151.488 313.291 153.438 312.424 155.276C310.408 159.692 310.858 161.97 316.867 160.461C320.618 159.523 323.027 156.41 323.702 147.391C324.008 143.649 324.074 139.891 323.899 136.141C323.337 129.184 322.699 122.527 321.921 116.762C321.584 114.197 320.923 111.686 319.952 109.289Z" fill="#FFBDA7"/>
<path d="M121.302 300.598C144.862 300.598 163.96 289.571 163.96 275.969C163.96 262.366 144.862 251.339 121.302 251.339C97.7424 251.339 78.6436 262.366 78.6436 275.969C78.6436 289.571 97.7424 300.598 121.302 300.598Z" fill="#EBEBEB"/>
<path d="M136.696 250.627L137.071 249.324C137.137 251.002 137.606 258.268 140.25 262.619C142.359 266.069 145.397 270.241 145.537 273.447C145.678 276.654 138.909 275.913 136.359 274.657C133.406 273.194 129.89 270.25 128.483 266.912C127.49 264.569 127.171 262.037 126.496 260.228C125.821 258.418 123.777 256.009 123.683 254.106C123.636 253.065 124.621 251.105 125.558 249.483C126.496 247.861 127.668 246.286 128.174 246.596C128.118 246.793 127.64 247.665 127.64 247.665C128.08 248.602 129.702 249.849 131.737 250.524C133.096 250.965 136.406 251.621 136.696 250.627Z" fill="#222222"/>
<path d="M76.131 225.698L77.0686 225.407C76.131 226.795 72.4933 233.461 72.0527 238.533C71.6964 242.564 71.6683 247.721 69.8776 250.384C68.0869 253.046 63.071 248.433 61.7772 245.911C60.2583 242.986 59.1801 238.524 60.0239 235.008C60.624 232.533 61.899 230.32 62.3959 228.445C62.8928 226.57 62.7147 223.438 63.7648 221.882C64.346 221.01 66.3055 220.007 68.0493 219.294C69.6525 218.629 71.6495 217.973 71.8745 218.526C71.7152 218.648 70.8057 219.06 70.8057 219.06C70.6182 220.073 71.1714 222.051 72.4089 223.804C73.3771 224.868 74.7008 225.542 76.131 225.698Z" fill="#222222"/>
<path d="M159.442 193.596C160.379 190.718 162.732 184.605 162.254 181.614C160.201 167.635 155.644 151.688 154.116 146.653C152.063 139.903 149.663 129.946 147.075 118.527C147.141 115.348 147.169 112.517 147.169 112.517L117.168 115.105C113.708 123.543 108.214 138.047 110.295 156.357C111.258 164.902 111.74 173.494 111.739 182.092C108.926 183.836 105.804 185.843 103.301 187.577C96.6071 192.265 73.1497 217.026 73.1497 217.026L70.7308 218.957L70.5433 219.097V219.154C69.2495 220.71 67.7306 227.348 66.5025 231.342C65.6868 234.051 65.2836 238.327 67.1681 241.655C68.9495 244.777 70.9183 245.546 71.6871 242.067C71.7902 240.82 71.8652 239.592 71.9684 238.448C72.2777 234.905 74.2935 230.845 75.8029 228.248C77.0311 226.138 77.8468 224.367 80.1531 222.876C80.1531 222.876 108.195 204.575 121.677 195.968C123.899 194.584 125.817 192.763 127.312 190.614C128.808 188.466 129.851 186.035 130.378 183.471C131.315 178.614 134.643 166.66 135.778 160.641L142.341 185.646C140.85 188.065 138.075 196.662 136.434 207.209C134.24 221.273 129.056 242.771 129.056 242.771L127.734 247.683L127.668 247.908C127.556 249.924 130.265 256.177 131.681 260.143C132.618 262.806 134.831 266.491 138.3 268.028C141.591 269.481 143.653 268.909 142.191 265.665C141.565 264.594 141.011 263.482 140.531 262.337C139.028 259.083 138.005 255.628 137.494 252.08C137.207 249.707 137.529 247.3 138.431 245.086C138.431 245.086 154.463 208.991 159.442 193.596Z" fill="#FFA8A7"/>
<path d="M115.489 119.567C115.489 119.567 109.629 128.39 108.448 135.834C106.423 148.51 109.189 168.751 109.189 168.751C109.189 168.751 113.089 166.482 113.642 162.188C113.642 162.188 115.254 166.06 118.208 168.011C121.911 170.476 127.583 171.873 134.755 169.708L135.759 160.632L137.174 168.273C141.824 168.711 146.512 168.096 150.891 166.473C157.894 163.792 159.45 156.047 159.45 156.047L147.319 119.558C147.319 119.558 148.003 125.624 133.546 126.187C119.089 126.749 115.489 119.567 115.489 119.567Z" fill="#484C52"/>
<path d="M162.694 109.477C155.681 92.9763 145.977 87.126 141.562 76.5317C135.777 76.9255 127.742 86.451 132.045 92.4137C136.958 94.4857 152.868 111.793 153.787 119.087C154.603 125.565 158.091 135.653 157.931 141.044C157.881 141.94 157.512 142.788 156.89 143.435C155.119 145.31 155.109 146.885 153.975 148.995C153.084 150.635 152.1 151.254 152.39 151.62C152.754 152.013 153.253 152.254 153.787 152.294C154.321 152.334 154.85 152.17 155.269 151.836C156.09 151.24 156.826 150.533 157.453 149.735C157.149 151.748 156.566 153.707 155.719 155.558C153.75 160.002 154.228 162.261 160.228 160.686C163.978 159.692 166.341 156.561 166.903 147.56C167.161 143.815 167.183 140.058 166.969 136.31C166.313 129.363 165.6 122.715 164.747 116.959C164.387 114.387 163.697 111.872 162.694 109.477Z" fill="#FFA8A7"/>
<path d="M116.53 116.474L115.996 109.761L110.82 98.9228C110.058 94.9417 109.875 90.8713 110.277 86.8378C110.445 82.9283 110.277 80.275 114.027 79.4031C115.471 79.0749 119.558 78.3437 125.54 77.528L136.49 76.5904C140.494 76.3842 144.835 81.5313 149.372 90.6537C151.641 95.2101 153.422 101.407 147.403 107.173C147.403 108.364 147.553 112.386 147.403 114.796C142.658 117.211 137.461 118.608 132.144 118.897C126.827 119.186 121.509 118.361 116.53 116.474Z" fill="#11401C"/>
<path d="M145.247 47.6668V47.3292C144.262 36.8193 138.234 34.8692 127.218 35.9943C119.08 36.8287 111.701 40.682 109.245 47.8543C108.337 50.5505 108.063 53.4196 108.443 56.239C108.824 59.0584 109.849 61.7522 111.439 64.1113C114.804 69.0991 120.495 71.8836 128.54 71.1336C139.021 72.3618 146.231 58.1673 145.247 47.6668Z" fill="#222222"/>
<path d="M75.9998 59.4237C74.1153 57.979 72.599 56.1093 71.5746 53.9671C69.9245 50.5263 69.1651 45.2573 73.009 42.9041C73.4453 42.6239 73.9385 42.4446 74.4528 42.3791C76.1592 42.2103 77.528 43.6448 78.8593 44.7136C80.151 45.7216 81.6298 46.4636 83.2101 46.8965C84.7904 47.3294 86.4409 47.4446 88.066 47.2356C91.5912 46.7855 94.7414 44.8261 97.5071 42.6041C98.3567 41.8563 99.3027 41.2256 100.32 40.729C101.16 40.3822 102.055 40.1855 102.964 40.1477C105.98 39.9988 108.958 40.8853 111.402 42.6603C111.863 42.9253 112.267 43.28 112.589 43.7035C112.911 44.127 113.145 44.6107 113.277 45.1261C113.331 45.4897 113.278 45.8613 113.123 46.1947C112.968 46.5281 112.718 46.8085 112.405 47.0012C111.692 47.4043 110.764 47.0012 110.014 46.9168C108.132 46.651 106.217 47.0559 104.604 48.0606C103.067 49.1107 102.101 50.7982 101.07 52.3452C97.8071 57.2298 92.9881 61.4675 87.1847 62.3113C85.2221 62.5931 83.223 62.483 81.3031 61.9873C79.3833 61.4917 77.5808 60.6203 75.9998 59.4237Z" fill="#222222"/>
<path d="M138.018 42.6792C140.175 43.6918 143.175 48.5857 143.934 59.3769C144.572 68.518 141.834 71.0494 140.409 71.8369C138.984 72.6245 136.078 72.4932 133.256 72.2963L133.762 77.7716C133.762 77.7716 142.2 85.4595 135.918 86.8658C132.768 87.5784 128.549 85.9283 125.605 84.0532C123.721 82.7094 122.297 80.817 121.527 78.6342L120.477 66.7179C120.477 66.7179 118.986 68.4618 115.986 66.296C113.502 64.5053 112.414 61.1958 114.036 59.2082C114.459 58.735 114.989 58.369 115.581 58.1403C116.173 57.9116 116.812 57.8267 117.443 57.8926C118.074 57.9585 118.681 58.1733 119.214 58.5194C119.746 58.8654 120.189 59.3328 120.505 59.8832C120.505 59.8832 122.155 59.8832 123.505 56.6768C126.267 56.7235 128.965 55.8493 131.174 54.1923C133.032 52.8337 134.596 51.1134 135.773 49.1349C136.949 47.1564 137.713 44.9605 138.018 42.6792Z" fill="#FFA8A7"/>
<path d="M131.878 57.6047C131.93 57.9078 131.861 58.2191 131.685 58.4717C131.51 58.7242 131.242 58.8978 130.94 58.9548C130.631 58.9895 130.321 58.902 130.076 58.7111C129.83 58.5201 129.67 58.2408 129.627 57.9329C129.595 57.7787 129.595 57.6194 129.627 57.4651C129.658 57.3107 129.721 57.1644 129.811 57.0353C129.902 56.9062 130.018 56.797 130.152 56.7145C130.286 56.6319 130.436 56.5777 130.592 56.5552C130.748 56.5328 130.907 56.5425 131.059 56.5838C131.211 56.6252 131.353 56.6973 131.476 56.7956C131.599 56.894 131.701 57.0165 131.775 57.1557C131.849 57.2948 131.893 57.4477 131.906 57.6047H131.878Z" fill="#222222"/>
<g style="mix-blend-mode:multiply" opacity="0.5">
<path d="M134.015 65.1055L137.7 65.9211C137.655 66.1649 137.562 66.3973 137.426 66.6049C137.291 66.8126 137.116 66.9913 136.911 67.1308C136.706 67.2703 136.476 67.3678 136.233 67.4176C135.99 67.4675 135.74 67.4687 135.496 67.4212C134.998 67.3025 134.564 66.9947 134.288 66.5627C134.011 66.1307 133.914 65.6082 134.015 65.1055Z" fill="#F28F8F"/>
</g>
<path d="M141.918 53.0672L139.443 51.6796C139.526 51.5165 139.641 51.3716 139.781 51.2536C139.921 51.1357 140.083 51.047 140.258 50.9928C140.433 50.9386 140.617 50.92 140.799 50.9381C140.981 50.9563 141.158 51.0107 141.318 51.0983C141.654 51.2847 141.904 51.5942 142.016 51.9615C142.128 52.3288 142.093 52.7252 141.918 53.0672Z" fill="#222222"/>
<path d="M129.908 53.7232L127.358 54.9889C127.271 54.8276 127.217 54.6505 127.2 54.4679C127.182 54.2854 127.202 54.1012 127.257 53.9263C127.312 53.7514 127.401 53.5894 127.52 53.4498C127.639 53.3102 127.785 53.196 127.949 53.1138C128.292 52.9475 128.685 52.9179 129.049 53.0311C129.413 53.1442 129.72 53.3917 129.908 53.7232Z" fill="#222222"/>
<path d="M141.628 56.4425C141.652 56.6674 141.608 56.8942 141.504 57.0947C141.4 57.2952 141.238 57.4605 141.041 57.5702C140.843 57.6799 140.617 57.729 140.392 57.7115C140.167 57.694 139.951 57.6106 139.773 57.4717C139.594 57.3328 139.461 57.1445 139.389 56.9303C139.316 56.7161 139.309 56.4853 139.367 56.2667C139.424 56.0482 139.545 55.8514 139.714 55.701C139.883 55.5505 140.092 55.453 140.316 55.4206C140.625 55.3834 140.937 55.4699 141.182 55.6613C141.428 55.8527 141.588 56.1335 141.628 56.4425Z" fill="#222222"/>
<g style="mix-blend-mode:multiply" opacity="0.5">
<path d="M136.031 56.3018L136.856 63.1927L140.39 61.7302L136.031 56.3018Z" fill="#F28F8F"/>
</g>
<g style="mix-blend-mode:multiply" opacity="0.5">
<path d="M133.255 72.2963C130.283 72.1838 124.086 71.0118 122.942 68.7148C123.437 69.8754 124.274 70.8569 125.343 71.5275C127.293 72.8963 133.443 74.0776 133.443 74.0776L133.255 72.2963Z" fill="#F28F8F"/>
</g>
<path d="M111.504 43.0633L112.854 38.1318C113.183 38.2041 113.494 38.3421 113.768 38.5376C114.042 38.733 114.273 38.9819 114.448 39.2692C114.623 39.5565 114.739 39.8763 114.787 40.2094C114.835 40.5424 114.816 40.8817 114.73 41.207C114.535 41.8723 114.09 42.4367 113.49 42.7826C112.889 43.1284 112.178 43.229 111.504 43.0633Z" fill="#222222"/>
<path d="M111.073 43.4855L108.261 39.229C108.531 39.0306 108.838 38.8888 109.165 38.8123C109.491 38.7359 109.83 38.7262 110.16 38.784C110.49 38.8419 110.805 38.9659 111.086 39.1487C111.367 39.3315 111.609 39.5693 111.795 39.8478C112.165 40.431 112.295 41.1338 112.161 41.8109C112.027 42.4879 111.637 43.0875 111.073 43.4855Z" fill="#222222"/>
<path d="M120.533 59.8734L120.983 64.6737C121.412 64.6337 121.829 64.5095 122.21 64.3084C122.591 64.1072 122.929 63.8329 123.204 63.5012C123.479 63.1695 123.686 62.7869 123.813 62.3752C123.941 61.9634 123.985 61.5307 123.945 61.1016L123.533 56.667L120.533 59.8734Z" fill="#222222"/>
<path d="M90.6508 117.162C97.6636 100.652 106.223 90.5918 111.849 80.0444C121.224 79.6037 121.918 94.1076 117.615 100.07C117.615 100.07 101.086 119.571 99.5575 126.762C98.198 133.156 95.2542 143.338 95.4135 148.729C95.4557 149.627 95.826 150.477 96.4542 151.12C98.2262 152.995 98.2262 154.561 99.37 156.67C100.251 158.32 101.245 158.93 100.954 159.305C100.586 159.693 100.085 159.93 99.5506 159.968C99.0163 160.006 98.4871 159.843 98.0668 159.511C97.2479 158.919 96.5158 158.215 95.8917 157.42C96.1901 159.432 96.7708 161.392 97.6168 163.242C99.5856 167.677 99.1075 169.946 93.1165 168.361C89.3664 167.424 87.0037 164.246 86.4412 155.236C86.1851 151.468 86.1726 147.688 86.4037 143.919C87.0506 136.972 87.7631 130.316 88.6163 124.568C88.9785 122.024 89.6622 119.535 90.6508 117.162Z" fill="#FFA8A7"/>
<path d="M137.174 168.02L135.759 161.026L137.212 147.694C140.285 146.399 143.178 144.713 145.819 142.678C144.19 144.999 142.203 147.047 139.931 148.744L136.696 160.21L137.174 168.02Z" fill="#37474F"/>
<path opacity="0.1" d="M122.249 104.135C123.136 105.798 124.485 107.17 126.133 108.084C127.782 108.999 129.659 109.418 131.54 109.292C133.356 109.229 135.124 108.686 136.663 107.72C138.202 106.753 139.459 105.397 140.306 103.789C140.306 103.789 140.043 110.989 131.54 111.008C123.036 111.026 122.249 104.135 122.249 104.135Z" fill="black"/>
</svg>
