<svg width="638" height="566" viewBox="0 0 638 566" fill="none" xmlns="http://www.w3.org/2000/svg">
<path d="M465.876 183.948C459.783 183.348 451.524 193.525 457.5 198.417C460.814 201.131 468.029 199.957 467.937 194.881C467.922 194.741 467.862 194.609 467.766 194.505C467.669 194.401 467.542 194.332 467.402 194.307C462.614 193.211 457.865 195.273 458.674 200.831C459.108 203.227 460.342 205.405 462.174 207.009C464.005 208.613 466.327 209.549 468.759 209.664C469.046 209.664 468.942 209.168 468.759 209.116C464.584 208.242 460.644 205.645 459.822 201.183C459.636 200.393 459.621 199.573 459.776 198.777C459.931 197.981 460.254 197.227 460.722 196.565C461.28 195.894 462.018 195.396 462.849 195.129C463.567 194.908 466.137 194.503 466.763 195.129C467.885 196.291 464.832 198.261 463.919 198.574C463.017 198.897 462.055 199.018 461.101 198.928C460.147 198.838 459.225 198.539 458.4 198.052C455.869 196.277 456.495 192.937 457.721 190.576C459.378 187.379 462.275 184.783 466.006 184.653C466.346 184.653 466.163 184.013 465.902 183.987L465.876 183.948Z" fill="#11401C"/>
<path d="M399.058 257.315C400.976 252.996 400.767 248.521 406.351 247.099C408.804 246.473 414.61 245.899 416.449 248.077C416.785 248.604 416.92 249.232 416.832 249.85C416.743 250.468 416.436 251.033 415.967 251.444C414.518 252.748 413.435 251.183 413.057 249.8C412.766 248.523 412.878 247.187 413.378 245.976C413.878 244.766 414.742 243.74 415.849 243.041C418.192 241.498 421.028 240.889 423.798 241.333C426.568 241.777 429.071 243.243 430.814 245.442C431.023 245.703 431.245 245.442 431.153 245.155C426.874 235.304 406.364 242.154 412.887 251.6C414.884 254.457 418.406 251.939 417.741 248.912C417.01 245.559 411.296 245.729 408.765 245.899C406.2 245.9 403.726 246.853 401.824 248.573C399.593 250.765 399.292 254.236 398.823 257.184C398.823 257.315 398.94 257.51 399.032 257.315H399.058Z" fill="#11401C"/>
<path d="M545.354 45.4964C549.359 44.3221 554.865 44.6483 558.218 47.3491C560.828 49.4366 562.289 53.9639 558.466 55.5165C556.966 56.1167 552.021 56.1167 551.434 54.0813C551.016 52.6592 552.543 51.8111 553.769 51.6285C557.357 51.0675 560.723 54.8511 560.632 58.2303C560.515 63.3056 554.604 64.9886 550.429 65.0278C550.155 65.0278 550.22 65.5497 550.429 65.5627C557.54 66.2542 565.472 59.6654 559.145 53.0637C557.448 51.2893 554.787 50.0237 552.334 51.0022C550.951 51.5632 549.855 52.8158 550.547 54.3162C551.656 56.7299 556.118 57.1474 558.284 56.5342C558.858 56.3814 559.394 56.1125 559.861 55.7441C560.327 55.3756 560.712 54.9155 560.994 54.3921C561.275 53.8688 561.446 53.2933 561.496 52.7012C561.546 52.1092 561.474 51.5132 561.284 50.95C559.536 44.5309 550.547 43.1218 545.223 45.118C545.067 45.118 545.132 45.5486 545.315 45.4964H545.354Z" fill="#11401C"/>
<path d="M597.842 314.826C601.847 313.652 607.353 313.978 610.706 316.679C613.316 318.766 614.777 323.294 610.954 324.846C609.454 325.446 604.509 325.446 603.922 323.398C603.504 321.989 605.031 321.141 606.244 320.945C609.845 320.397 613.198 324.181 613.12 327.56C613.003 332.635 607.092 334.318 602.917 334.358C602.643 334.358 602.708 334.879 602.917 334.892C610.028 335.584 617.96 328.995 611.633 322.393C609.937 320.619 607.275 319.353 604.822 320.332C603.439 320.88 602.343 322.146 603.035 323.646C604.144 326.06 608.606 326.477 610.772 325.851C611.346 325.701 611.884 325.435 612.351 325.068C612.818 324.701 613.205 324.242 613.486 323.719C613.768 323.197 613.939 322.621 613.988 322.029C614.037 321.438 613.964 320.842 613.772 320.28C612.024 313.848 603.035 312.452 597.711 314.448C597.555 314.448 597.607 314.878 597.803 314.826H597.842Z" fill="#11401C"/>
<path d="M568.486 119.747C563.711 121.169 559.275 129.571 563.711 133.394C567.481 136.643 575.101 135.912 573.835 129.715C573.823 129.644 573.793 129.578 573.747 129.523C573.701 129.468 573.642 129.426 573.574 129.402C568.564 128.201 566.907 134.046 567.964 137.908C569.595 143.91 575.649 143.832 580.02 140.7C580.163 140.596 580.098 140.179 579.889 140.283C576.314 142.07 571.304 143.662 569.125 139.096C567.964 136.656 567.925 132.572 570.169 130.732C570.753 130.188 571.524 129.889 572.322 129.897C573.992 130.093 573.705 131.894 572.765 133.042C571.265 134.868 568.251 134.673 566.242 133.968C559.366 131.528 564.089 122.617 568.577 120.112C568.708 120.034 568.682 119.695 568.486 119.747Z" fill="#11401C"/>
<path d="M455.45 0.0713701C449.814 -0.646216 437.693 4.1029 440.85 11.8137C442.534 15.9235 450.049 18.559 452.515 13.849C452.567 13.7207 452.569 13.5769 452.517 13.4479C452.466 13.3188 452.367 13.2147 452.241 13.1575C440.498 6.50356 428.13 25.7218 440.59 32.7281C440.981 32.9499 440.968 32.2845 440.746 32.1149C439.671 31.3788 438.754 30.4358 438.047 29.3409C437.341 28.246 436.86 27.0213 436.633 25.7384C436.406 24.4554 436.437 23.1401 436.724 21.8692C437.012 20.5984 437.549 19.3977 438.306 18.3372C439.576 16.3105 441.382 14.6756 443.525 13.6142C445.13 12.8575 449.161 11.7876 450.662 13.3532C451.34 14.0839 451.327 13.1706 450.975 14.0186C450.64 14.5223 450.128 14.8811 449.54 15.0233C448.259 15.4301 446.877 15.384 445.626 14.8928C443.016 13.9795 440.968 11.5788 441.712 8.69545C443.082 2.91562 450.44 0.86724 455.594 0.775911C455.946 0.775911 455.724 0.110511 455.45 0.0713701Z" fill="#11401C"/>
<path d="M487.947 46.7358C487.947 46.7358 487.608 53.0506 492.291 56.5602L497.197 55.0598C497.197 55.0598 493.922 53.4942 492.291 46.7358H487.947Z" fill="#484C52"/>
<path d="M459.729 65.1243C459.729 65.1243 459.377 71.439 464.061 74.9487L468.98 73.4483C468.98 73.4483 465.692 71.8826 464.061 65.1243H459.729Z" fill="#484C52"/>
<path d="M445.414 270.766C445.414 270.766 445.061 277.068 449.758 280.578L454.664 279.09C454.664 279.09 451.389 277.512 449.758 270.766H445.414Z" fill="#37474F"/>
<path d="M599.186 78.3748C599.186 78.3748 596.316 84.0111 590.51 84.7026L587 80.9451C587 80.9451 590.627 81.2321 595.428 76.209L599.186 78.3748Z" fill="#484C52"/>
<path d="M565.537 279.9C565.537 279.9 562.68 285.536 556.861 286.214L553.352 282.47C553.352 282.47 556.992 282.744 561.78 277.721L565.537 279.9Z" fill="#484C52"/>
<path d="M486.186 415.179C486.186 415.179 483.329 420.815 477.51 421.494L474 417.749C474 417.749 477.64 418.023 482.428 413L486.186 415.179Z" fill="#484C52"/>
<path d="M485.233 161.524C485.233 161.524 482.376 167.16 476.557 167.838L473.047 164.094C473.047 164.094 476.688 164.368 481.476 159.345L485.233 161.524Z" fill="#11401C"/>
<path d="M412.497 22.9197C412.497 22.9197 409.64 28.556 403.834 29.2475L400.324 25.49C400.324 25.49 403.951 25.777 408.753 20.7539L412.497 22.9197Z" fill="#484C52"/>
<path d="M638 47.3085C638 47.3085 631.724 48.0913 627.901 43.6423L629.063 38.6453C629.063 38.6453 630.85 41.8157 637.7 42.9769L638 47.3085Z" fill="#11401C"/>
<path d="M557.834 204.023C557.834 204.023 551.571 204.806 547.749 200.37L548.897 195.373C548.897 195.373 550.697 198.53 557.547 199.705L557.834 204.023Z" fill="#11401C"/>
<path d="M509.885 247.678C509.885 247.678 503.623 248.461 499.8 244.025L500.948 239.028C500.948 239.028 502.748 242.185 509.585 243.359L509.885 247.678Z" fill="#11401C"/>
<path d="M569.285 249.122C569.285 249.122 563.022 249.892 559.199 245.456L560.347 240.459C560.347 240.459 562.148 243.629 568.998 244.791L569.285 249.122Z" fill="#11401C"/>
<path d="M607.745 186.848C607.745 186.848 601.469 187.618 597.659 183.182L598.807 178.185C598.807 178.185 600.608 181.355 607.444 182.516L607.745 186.848Z" fill="#11401C"/>
<path d="M605.86 257.986C605.86 257.986 603.002 263.622 597.183 264.313L593.674 260.556C593.674 260.556 597.966 261.221 602.807 256.198L605.86 257.986Z" fill="#484C52"/>
<path d="M315.186 351.787C315.186 351.787 312.329 357.424 306.51 358.115L303 354.358C303 354.358 307.292 355.023 312.133 350L315.186 351.787Z" fill="#484C52"/>
<path d="M69.2022 8.00454C69.2022 8.00454 68.0801 14.228 62.6787 16.5503L58.2427 13.9409C61.3813 12.5248 63.9897 10.1494 65.6925 7.15649L69.2022 8.00454Z" fill="#37474F"/>
<path d="M268.84 16.4854C274.946 15.8853 283.192 26.0489 277.216 30.9415C273.915 33.6684 266.687 32.4811 266.779 27.4058C266.796 27.2674 266.857 27.1382 266.954 27.0372C267.05 26.9362 267.176 26.8688 267.314 26.8448C272.115 25.7488 276.851 27.7972 276.042 33.3683C275.61 35.7618 274.378 37.9378 272.549 39.5401C270.719 41.1424 268.399 42.076 265.97 42.1881C265.67 42.1881 265.774 41.6923 265.97 41.6531C270.145 40.7659 274.085 38.1696 274.894 33.7075C275.083 32.9201 275.1 32.1014 274.945 31.3068C274.789 30.5122 274.465 29.7602 273.994 29.1019C273.43 28.4081 272.671 27.8991 271.815 27.6406C271.11 27.4188 268.527 27.0144 267.966 27.6406C266.831 28.8149 269.897 30.7719 270.81 31.085C271.709 31.413 272.67 31.5363 273.622 31.4461C274.574 31.3558 275.495 31.0542 276.316 30.5632C278.847 28.8018 278.221 25.4618 276.994 23.0872C275.35 19.9037 272.441 17.2943 268.71 17.1769C268.383 17.1769 268.553 16.5376 268.814 16.5115L268.84 16.4854Z" fill="#11401C"/>
<path d="M274.484 265.848C272.567 261.529 272.762 257.054 267.191 255.619C264.738 254.992 258.932 254.418 257.08 256.61C256.748 257.135 256.615 257.761 256.703 258.376C256.791 258.99 257.096 259.553 257.562 259.963C259.024 261.268 260.172 259.702 260.485 258.332C260.777 257.054 260.666 255.716 260.166 254.503C259.666 253.29 258.802 252.262 257.693 251.561C255.343 250 252.491 249.382 249.706 249.829C246.921 250.276 244.406 251.757 242.663 253.975C242.467 254.223 242.245 253.975 242.337 253.688C246.616 243.837 267.126 250.687 260.602 260.133C258.606 262.99 255.071 260.459 255.736 257.445C256.48 254.092 262.259 254.262 264.712 254.418C267.28 254.424 269.756 255.376 271.666 257.093C273.897 259.298 274.197 262.768 274.667 265.704C274.667 265.848 274.55 266.03 274.458 265.848H274.484Z" fill="#11401C"/>
<path d="M23.9867 433.826C19.3485 434.729 15.0306 433.537 12.3854 438.646C11.2263 440.896 9.36792 446.427 11.0898 448.723C11.5272 449.164 12.1075 449.434 12.7263 449.485C13.3451 449.536 13.9619 449.365 14.4659 449.003C16.0644 447.87 14.7953 446.401 13.5301 445.789C12.3491 445.218 11.02 445.028 9.72615 445.244C8.43226 445.46 7.23723 446.072 6.30575 446.996C4.25878 448.937 3.01815 451.578 2.83098 454.393C2.64381 457.208 3.52382 459.99 5.29576 462.185C5.49358 462.431 5.20235 462.592 4.94302 462.439C-3.70043 456.064 7.56407 437.606 15.3113 446.078C17.6496 448.662 14.3916 451.542 11.603 450.219C8.50126 448.744 9.95961 443.149 10.6609 440.793C11.241 438.292 12.7231 436.092 14.8235 434.614C17.4717 432.933 20.9214 433.417 23.8877 433.616C24.0276 433.648 24.1793 433.803 23.9808 433.851L23.9867 433.826Z" fill="#11401C"/>
<path d="M114.149 45.4966C110.144 44.3224 104.638 44.6486 101.272 47.3493C98.6626 49.4368 97.2144 53.9641 101.037 55.5167C102.538 56.1169 107.482 56.1169 108.07 54.0816C108.487 52.6594 106.961 51.8114 105.734 51.6287C102.146 51.0677 98.78 54.8513 98.8583 58.2305C98.9888 63.3058 104.899 64.9889 109.074 65.028C109.348 65.028 109.283 65.5499 109.074 65.5629C101.964 66.2544 94.0309 59.6657 100.346 53.0639C102.055 51.2895 104.716 50.0239 107.169 51.0025C108.552 51.5635 109.648 52.816 108.957 54.3164C107.848 56.7301 103.386 57.1476 101.22 56.5344C100.646 56.3817 100.109 56.1127 99.6428 55.7443C99.1766 55.3759 98.791 54.9158 98.5098 54.3924C98.2285 53.869 98.0576 53.2935 98.0076 52.7015C97.9576 52.1094 98.0296 51.5134 98.219 50.9503C99.9673 44.5311 108.944 43.1221 114.28 45.1183C114.436 45.1183 114.371 45.5488 114.189 45.4966H114.149Z" fill="#11401C"/>
<path d="M460.741 330.121C458.362 333.55 456.932 338.877 458.43 342.924C459.586 346.06 463.424 348.864 466.105 345.728C467.149 344.494 468.711 339.802 466.966 338.602C465.748 337.757 464.461 338.937 463.9 340.043C462.235 343.27 464.761 347.659 467.992 348.652C472.848 350.132 476.312 345.056 477.669 341.108C477.755 340.848 478.23 341.075 478.176 341.277C476.586 348.242 467.828 353.686 463.56 345.609C462.416 343.426 462.056 340.501 463.76 338.483C464.729 337.349 466.264 336.704 467.469 337.835C469.408 339.649 468.395 344.015 467.128 345.876C466.802 346.372 466.377 346.797 465.881 347.123C465.384 347.448 464.825 347.669 464.24 347.77C463.654 347.872 463.054 347.852 462.477 347.713C461.899 347.573 461.357 347.316 460.882 346.959C455.344 343.272 456.844 334.31 460.424 329.878C460.473 329.729 460.861 329.927 460.754 330.084L460.741 330.121Z" fill="#11401C"/>
<path d="M300.238 398.136C299.657 402.269 300.779 407.669 303.94 410.608C306.384 412.887 311.074 413.663 312.055 409.655C312.431 408.083 311.713 403.191 309.614 402.905C308.147 402.699 307.529 404.332 307.526 405.572C307.492 409.203 311.724 411.985 315.056 411.417C320.059 410.551 320.866 404.459 320.299 400.323C320.259 400.052 320.785 400.04 320.828 400.245C322.545 407.18 317.177 415.985 309.728 410.695C307.725 409.262 306.086 406.812 306.699 404.243C307.053 402.793 308.133 401.527 309.718 401.993C312.267 402.74 313.328 407.095 313.035 409.326C312.968 409.917 312.779 410.487 312.482 411.002C312.186 411.516 311.786 411.964 311.309 412.319C310.832 412.673 310.288 412.926 309.709 413.061C309.131 413.196 308.531 413.212 307.946 413.106C301.341 412.308 298.644 403.631 299.845 398.062C299.822 397.907 300.257 397.909 300.232 398.097L300.238 398.136Z" fill="#11401C"/>
<path d="M67.5585 309.999C63.553 308.824 58.0472 309.151 54.6811 311.851C52.0716 313.939 50.6104 318.466 54.4462 320.019C55.9466 320.619 60.8784 320.619 61.4786 318.584C61.883 317.161 60.3565 316.313 59.1431 316.131C55.5422 315.57 52.1891 319.353 52.2674 322.733C52.3848 327.808 58.2951 329.491 62.4701 329.53C62.7572 329.53 62.6789 330.052 62.4701 330.078C55.3595 330.756 47.4269 324.168 53.7417 317.566C55.4508 315.791 58.0994 314.526 60.5522 315.504C61.9482 316.065 63.0442 317.318 62.3527 318.818C61.2437 321.232 56.7686 321.65 54.6028 321.036C54.0287 320.884 53.4922 320.615 53.0265 320.246C52.5608 319.878 52.1758 319.417 51.8956 318.893C51.6154 318.37 51.4459 317.794 51.3976 317.202C51.3494 316.61 51.4233 316.014 51.615 315.452C53.3503 309.033 62.3397 307.689 67.6759 309.62C67.8325 309.62 67.7672 310.051 67.5846 309.999H67.5585Z" fill="#11401C"/>
<path d="M76.7055 539.462C74.6824 543.112 73.7944 548.556 75.6922 552.432C77.1573 555.435 81.2546 557.853 83.6098 554.45C84.524 553.118 85.6044 548.306 83.75 547.274C82.451 546.568 81.2892 547.872 80.8451 549.016C79.5089 552.406 82.4661 556.507 85.7803 557.171C90.758 558.168 93.695 552.77 94.6478 548.705C94.7107 548.425 95.2027 548.616 95.1825 548.825C94.2867 555.912 86.1202 562.208 81.0622 554.6C79.7053 552.544 79.0507 549.683 80.5428 547.504C81.396 546.265 82.8582 545.47 84.1707 546.473C86.2828 548.084 85.7098 552.542 84.637 554.521C84.3625 555.047 83.9825 555.512 83.5208 555.886C83.0591 556.259 82.5255 556.534 81.9531 556.693C81.3807 556.851 80.7819 556.89 80.1937 556.808C79.6055 556.725 79.0405 556.523 78.534 556.212C72.6509 553.113 73.309 544.048 76.3621 539.264C76.3964 539.111 76.8022 539.269 76.7112 539.436L76.7055 539.462Z" fill="#11401C"/>
<path d="M55.5401 131.685C60.3154 133.107 64.7513 141.51 60.3154 145.333C56.5448 148.594 48.9253 147.851 50.1909 141.653C50.2051 141.584 50.2364 141.519 50.2819 141.464C50.3275 141.409 50.3858 141.367 50.4518 141.34C55.4619 140.153 57.1188 145.998 56.062 149.86C54.4312 155.848 48.3773 155.783 44.0066 152.639C43.8631 152.535 43.9283 152.13 44.137 152.234C47.7119 154.022 52.722 155.601 54.9008 151.034C56.062 148.594 56.1012 144.511 53.8571 142.684C53.2748 142.136 52.5041 141.832 51.7043 141.836C50.0343 142.032 50.3213 143.845 51.2607 144.98C52.7611 146.807 55.775 146.611 57.7842 145.907C64.66 143.48 59.937 134.556 55.4488 132.051C55.3184 131.972 55.3444 131.633 55.5401 131.685Z" fill="#11401C"/>
<path d="M93.0007 229.016C84.8724 229.668 86.3337 245.103 92.8964 247.19C93.2997 247.335 93.7277 247.397 94.1554 247.375C94.5832 247.353 95.0023 247.246 95.3883 247.06C95.8698 246.706 96.2563 246.238 96.5135 245.699C96.7708 245.159 96.8907 244.565 96.8627 243.968C96.0798 241.358 91.6438 244.672 91.135 245.703C90.2903 247.061 89.8961 248.652 90.0086 250.247C90.121 251.843 90.7344 253.362 91.7613 254.588C95.1013 258.202 101.494 258.32 105.669 256.232C105.878 256.115 105.917 256.519 105.774 256.623C101.273 259.507 93.7314 259.089 90.3913 254.523C87.7819 250.87 89.5694 241.176 95.3883 242.037C100.816 242.833 97.0584 249.017 92.9485 248.195C88.8387 247.373 87.3514 241.919 86.96 238.54C86.4642 234.287 87.7297 228.546 93.0007 228.638C93.1703 228.638 93.1573 229.003 93.0007 229.016Z" fill="#11401C"/>
<path d="M158.043 337.859C163.68 337.141 175.8 341.89 172.643 349.601C170.96 353.711 163.445 356.347 160.979 351.637C160.926 351.508 160.925 351.365 160.976 351.235C161.027 351.106 161.127 351.002 161.253 350.945C172.995 344.291 185.364 363.509 172.904 370.516C172.513 370.737 172.526 370.072 172.747 369.902C173.824 369.166 174.743 368.223 175.451 367.127C176.158 366.031 176.64 364.805 176.867 363.52C177.094 362.236 177.063 360.919 176.774 359.647C176.486 358.374 175.946 357.173 175.187 356.112C173.918 354.085 172.111 352.45 169.968 351.389C168.364 350.632 164.332 349.562 162.832 351.128C162.153 351.858 162.166 350.945 162.519 351.793C162.853 352.297 163.366 352.656 163.954 352.798C165.235 353.205 166.617 353.159 167.868 352.667C170.477 351.754 172.526 349.353 171.782 346.47C170.412 340.69 163.054 338.642 157.9 338.55C157.548 338.55 157.769 337.885 158.043 337.846V337.859Z" fill="#11401C"/>
<path d="M513.645 450.807C514.681 445.22 522.901 435.126 529.281 440.484C532.682 443.341 532.899 451.301 527.662 452.213C527.523 452.225 527.386 452.182 527.279 452.094C527.172 452.006 527.103 451.879 527.087 451.741C524.331 438.529 546.406 432.612 549.278 446.615C549.37 447.055 548.741 446.84 548.647 446.577C548.274 445.327 547.656 444.164 546.828 443.156C546 442.148 544.979 441.315 543.825 440.707C542.671 440.099 541.407 439.727 540.108 439.614C538.808 439.5 537.499 439.648 536.257 440.047C533.94 440.638 531.832 441.86 530.167 443.577C528.957 444.874 526.709 448.387 527.742 450.294C528.231 451.163 527.365 450.872 528.28 450.795C528.862 450.63 529.36 450.251 529.675 449.735C530.453 448.639 530.831 447.308 530.744 445.967C530.671 443.203 529.009 440.52 526.036 440.349C520.114 439.891 515.919 446.274 514.26 451.154C514.153 451.49 513.586 451.076 513.633 450.803L513.645 450.807Z" fill="#11401C"/>
<path d="M309.762 209.757C315.398 209.04 327.519 213.789 324.361 221.5C322.678 225.61 315.163 228.245 312.697 223.535C312.644 223.407 312.643 223.263 312.694 223.134C312.746 223.005 312.845 222.901 312.971 222.844C324.714 216.19 337.082 235.408 324.622 242.414C324.231 242.636 324.244 241.971 324.466 241.801C325.543 241.065 326.462 240.121 327.169 239.025C327.877 237.929 328.358 236.703 328.585 235.419C328.812 234.134 328.781 232.817 328.493 231.545C328.204 230.273 327.665 229.071 326.906 228.01C325.636 225.984 323.83 224.349 321.687 223.287C320.082 222.53 316.05 221.461 314.55 223.026C313.872 223.757 313.885 222.844 314.237 223.692C314.572 224.195 315.084 224.554 315.672 224.696C316.953 225.103 318.335 225.057 319.586 224.566C322.196 223.652 324.244 221.252 323.5 218.368C322.13 212.589 314.772 210.54 309.618 210.449C309.266 210.449 309.488 209.784 309.762 209.744V209.757Z" fill="#11401C"/>
<path d="M172.209 58.2172C172.209 58.2172 172.561 64.5319 167.864 68.0416L162.958 66.5281C162.958 66.5281 166.233 64.9625 167.864 58.2041L172.209 58.2172Z" fill="#484C52"/>
<path d="M612.82 126.683C612.82 126.683 613.172 132.998 608.475 136.508L603.569 134.994C603.569 134.994 606.844 133.429 608.475 126.67L612.82 126.683Z" fill="#484C52"/>
<path d="M315.109 272.664C315.109 272.664 315.461 278.978 310.764 282.488L305.858 281.001C305.858 281.001 309.133 279.422 310.764 272.664H315.109Z" fill="#484C52"/>
<path d="M395.25 271C395.25 271 395.603 277.315 390.906 280.824L386 279.337C386 279.337 389.275 277.758 390.906 271H395.25Z" fill="#484C52"/>
<path d="M594.25 381C594.25 381 594.603 387.315 589.906 390.824L585 389.337C585 389.337 588.275 387.758 589.906 381H594.25Z" fill="#484C52"/>
<path d="M532.25 338C532.25 338 532.603 344.315 527.906 347.824L523 346.337C523 346.337 526.275 344.758 527.906 338H532.25Z" fill="#484C52"/>
<path d="M617.25 473C617.25 473 617.603 479.315 612.906 482.824L608 481.337C608 481.337 611.275 479.758 612.906 473H617.25Z" fill="#484C52"/>
<path d="M94.2504 468C94.2504 468 94.6026 474.315 89.9057 477.824L85 476.337C85 476.337 88.2748 474.758 89.9057 468H94.2504Z" fill="#484C52"/>
<path d="M38.963 565.08C38.963 565.08 32.6506 564.687 29.7174 559.61L31.771 554.914C31.771 554.914 32.9539 558.351 39.4737 560.765L38.963 565.08Z" fill="#484C52"/>
<path d="M157.757 445.341C157.757 445.341 151.445 444.949 148.511 439.872L150.565 435.175C150.565 435.175 151.748 438.613 158.268 441.026L157.757 445.341Z" fill="#484C52"/>
<path d="M504.25 516C504.25 516 504.603 522.315 499.906 525.824L495 524.337C495 524.337 498.275 522.758 499.906 516H504.25Z" fill="#484C52"/>
<path d="M254.209 289.972C254.209 289.972 254.549 296.286 249.865 299.796L244.959 298.296C244.959 298.296 248.234 296.73 249.865 289.972H254.209Z" fill="#37474F"/>
<path d="M338.006 446C338.006 446 337.666 452.315 342.35 455.824L347.256 454.324C347.256 454.324 343.981 452.758 342.35 446H338.006Z" fill="#37474F"/>
<path d="M182.713 213.264C182.713 213.264 183.052 219.579 178.368 223.089L173.462 221.588C173.462 221.588 176.737 220.023 178.368 213.264H182.713Z" fill="#37474F"/>
<path d="M58.1909 78.3748C58.1909 78.3748 61.0613 84.0111 66.8672 84.7026L70.4421 80.9451C70.4421 80.9451 66.815 81.2321 62.0137 76.209L58.1909 78.3748Z" fill="#484C52"/>
<path d="M116.21 174.638C116.21 174.638 119.081 180.274 124.887 180.966L128.462 177.208C128.462 177.208 124.835 177.495 120.033 172.472L116.21 174.638Z" fill="#484C52"/>
<path d="M118.886 273.023C118.886 273.023 121.743 278.66 127.562 279.351L131.072 275.593C131.072 275.593 127.432 275.881 122.643 270.857L118.886 273.023Z" fill="#484C52"/>
<path d="M6 372.158C6 372.158 8.85729 377.794 14.6763 378.486L18.1729 374.728C18.1729 374.728 14.5458 375.015 9.75753 369.992L6 372.158Z" fill="#11401C"/>
<path d="M72.619 412.538C72.619 412.538 78.7302 414.146 83.1122 410.255L82.6259 405.146C82.6259 405.146 80.4313 408.048 73.4958 408.291L72.619 412.538Z" fill="#11401C"/>
<path d="M181.335 266.241C181.335 266.241 184.192 271.878 190.011 272.569L193.508 268.812C193.508 268.812 189.881 269.099 185.093 264.076L181.335 266.241Z" fill="#484C52"/>
<path d="M115.924 100.451C115.924 100.451 122.199 101.233 126.022 96.7844L124.861 91.7874C124.861 91.7874 123.074 94.9578 116.224 96.119L115.924 100.451Z" fill="#11401C"/>
<path d="M254.251 176.919C254.251 176.919 260.527 177.702 264.349 173.253L263.188 168.256C263.188 168.256 261.401 171.426 254.551 172.587L254.251 176.919Z" fill="#11401C"/>
<path d="M223.092 51.5894C223.092 51.5894 229.368 52.3722 233.191 47.9362L232.043 42.9392C232.043 42.9392 230.242 46.0966 223.392 47.2708L223.092 51.5894Z" fill="#11401C"/>
<path d="M181.335 209.761C181.335 209.761 187.598 210.531 191.42 206.095L190.272 201.098C190.272 201.098 188.472 204.269 181.622 205.43L181.335 209.761Z" fill="#11401C"/>
<path d="M33.9102 258.92C33.9102 258.92 40.1858 259.702 44.0086 255.266L42.8604 250.256C42.8604 250.256 41.0599 253.427 34.2102 254.588L33.9102 258.92Z" fill="#11401C"/>
<path d="M96.1724 137.046C96.1724 137.046 99.0297 142.682 104.849 143.374L108.358 139.616C108.358 139.616 104.066 140.281 99.2254 135.258L96.1724 137.046Z" fill="#484C52"/>
<path d="M7.43115 87.442C7.43115 87.442 8.5532 93.6655 13.9547 95.9878L18.3907 93.3784C15.252 91.9623 12.6436 89.5869 10.9408 86.594L7.43115 87.442Z" fill="#37474F"/>
<path d="M363.554 54.8394C363.554 54.8394 360.697 60.4758 354.878 61.1672L351.368 57.4228C351.368 57.4228 355.661 58.0751 360.501 53.052L363.554 54.8394Z" fill="#484C52"/>
<path d="M106.416 336.489C106.416 336.489 105.294 342.712 99.8925 345.048L95.4565 342.438C98.5981 341.02 101.207 338.64 102.906 335.641L106.416 336.489Z" fill="#37474F"/>
</svg>
