<svg width="36" height="26" viewBox="0 0 36 26" fill="none" xmlns="http://www.w3.org/2000/svg">
<path d="M16.7651 1.90576L14.3955 0C5.47498 4.90052 1.29347 10.4817 0.178403 16.7435C-0.657899 21.9162 1.43286 26 6.72943 26C10.4928 26 14.1168 23.5497 14.9531 19.466C15.65 14.7016 12.8623 11.8429 9.37772 11.1623C10.7716 6.53404 16.6257 1.90576 16.7651 1.90576ZM28.752 10.8901C30.2853 6.39791 35.8606 1.90576 36 1.90576L33.6305 0C24.7099 4.90052 20.5284 10.4817 19.4133 16.7435C18.577 21.9162 20.6678 26 25.9644 26C29.7277 26 33.3517 23.5497 34.0486 19.466C34.8849 14.7016 32.2366 11.5707 28.752 10.8901Z" fill="url(#paint0_radial_1177_720)"/>
<defs>
<radialGradient id="paint0_radial_1177_720" cx="0" cy="0" r="1" gradientUnits="userSpaceOnUse" gradientTransform="translate(10.2857 4.45714) rotate(60.1897) scale(24.8282 30.3131)">
<stop stop-color="#859B5B"/>
<stop offset="1" stop-color="#11401C"/>
</radialGradient>
</defs>
</svg>
