<svg width="53" height="51" viewBox="0 0 53 51" fill="none" xmlns="http://www.w3.org/2000/svg">
<path d="M43.4 50.6805C41.5333 50.6805 39.0667 48.2805 36 43.4805C32.9333 38.6805 31.4 34.4138 31.4 30.6805C31.4 26.8138 33.8667 20.8805 38.8 12.8805C43.8667 4.88046 47.3333 0.880461 49.2 0.880461C49.4667 0.880461 50 1.21379 50.8 1.88046C51.6 2.54713 52 3.14713 52 3.68046C52 4.08046 50.7333 6.2138 48.2 10.0805C45.6667 13.8138 44.4 17.2138 44.4 20.2805C44.4 23.3471 45.8 26.9471 48.6 31.0805C51.5333 35.2138 53 37.6805 53 38.4805C53 39.2805 52.4667 40.6138 51.4 42.4805C48.0667 47.9471 45.4 50.6805 43.4 50.6805ZM12.2 50.6805C10.3333 50.6805 7.86667 48.2805 4.8 43.4805C1.73333 38.6805 0.2 34.4138 0.2 30.6805C0.2 26.8138 2.66667 20.8805 7.6 12.8805C12.6667 4.88046 16.1333 0.880461 18 0.880461C18.2667 0.880461 18.8 1.21379 19.6 1.88046C20.4 2.54713 20.8 3.14713 20.8 3.68046C20.8 4.08046 19.5333 6.2138 17 10.0805C14.4667 13.8138 13.2 17.2138 13.2 20.2805C13.2 23.3471 14.6 26.9471 17.4 31.0805C20.3333 35.2138 21.8 37.6805 21.8 38.4805C21.8 39.2805 21.2667 40.6138 20.2 42.4805C16.8667 47.9471 14.2 50.6805 12.2 50.6805Z" fill="white"/>
</svg>
