<svg width="53" height="51" viewBox="0 0 53 51" fill="none" xmlns="http://www.w3.org/2000/svg">
<path d="M9.6 50.7449C11.4667 50.7449 13.9333 48.3449 17 43.5449C20.0667 38.7449 21.6 34.4782 21.6 30.7449C21.6 26.8782 19.1333 20.9449 14.2 12.9449C9.13333 4.94491 5.66666 0.944914 3.8 0.944914C3.53333 0.944914 3 1.27825 2.2 1.94491C1.4 2.61158 0.999996 3.21158 0.999996 3.74491C0.999996 4.14492 2.26666 6.27825 4.8 10.1449C7.33333 13.8782 8.6 17.2782 8.6 20.3449C8.6 23.4116 7.2 27.0116 4.39999 31.1449C1.46666 35.2782 -2.6226e-06 37.7449 -2.6226e-06 38.5449C-2.6226e-06 39.3449 0.53333 40.6782 1.59999 42.5449C4.93333 48.0116 7.6 50.7449 9.6 50.7449ZM40.8 50.7449C42.6667 50.7449 45.1333 48.3449 48.2 43.5449C51.2667 38.7449 52.8 34.4782 52.8 30.7449C52.8 26.8782 50.3333 20.9449 45.4 12.9449C40.3333 4.94491 36.8667 0.944914 35 0.944914C34.7333 0.944914 34.2 1.27825 33.4 1.94491C32.6 2.61158 32.2 3.21158 32.2 3.74491C32.2 4.14492 33.4667 6.27825 36 10.1449C38.5333 13.8782 39.8 17.2782 39.8 20.3449C39.8 23.4116 38.4 27.0116 35.6 31.1449C32.6667 35.2782 31.2 37.7449 31.2 38.5449C31.2 39.3449 31.7333 40.6782 32.8 42.5449C36.1333 48.0116 38.8 50.7449 40.8 50.7449Z" fill="white"/>
</svg>
