<svg width="140" height="28" viewBox="0 0 140 28" fill="none" xmlns="http://www.w3.org/2000/svg">
<path d="M13.0554 2.71739C13.3667 1.82183 14.6333 1.82183 14.9446 2.71739L17.0631 8.81222C17.2005 9.20729 17.5691 9.47516 17.9873 9.48368L24.4385 9.61515C25.3864 9.63447 25.7778 10.839 25.0223 11.4118L19.8804 15.3101C19.5471 15.5628 19.4063 15.9962 19.5274 16.3965L21.3959 22.5726C21.6705 23.4801 20.6458 24.2246 19.8676 23.683L14.5712 19.9975C14.2279 19.7586 13.7721 19.7586 13.4288 19.9975L8.13241 23.683C7.35417 24.2246 6.32953 23.4801 6.60408 22.5726L8.47258 16.3965C8.5937 15.9962 8.45287 15.5628 8.11957 15.3101L2.97771 11.4118C2.22218 10.839 2.61356 9.63447 3.56148 9.61515L10.0127 9.48368C10.4309 9.47516 10.7995 9.20729 10.9369 8.81222L13.0554 2.71739Z" fill="#11401C"/>
<path d="M41.0554 2.71739C41.3667 1.82183 42.6333 1.82183 42.9446 2.71739L45.0631 8.81222C45.2005 9.20729 45.5691 9.47516 45.9873 9.48368L52.4385 9.61515C53.3864 9.63447 53.7778 10.839 53.0223 11.4118L47.8804 15.3101C47.5471 15.5628 47.4063 15.9962 47.5274 16.3965L49.3959 22.5726C49.6705 23.4801 48.6458 24.2246 47.8676 23.683L42.5712 19.9975C42.2279 19.7586 41.7721 19.7586 41.4288 19.9975L36.1324 23.683C35.3542 24.2246 34.3295 23.4801 34.6041 22.5726L36.4726 16.3965C36.5937 15.9962 36.4529 15.5628 36.1196 15.3101L30.9777 11.4118C30.2222 10.839 30.6136 9.63447 31.5615 9.61515L38.0127 9.48368C38.4309 9.47516 38.7995 9.20729 38.9369 8.81222L41.0554 2.71739Z" fill="#11401C"/>
<path d="M69.0554 2.71739C69.3667 1.82183 70.6333 1.82183 70.9446 2.71739L73.0631 8.81222C73.2005 9.20729 73.5691 9.47516 73.9873 9.48368L80.4385 9.61515C81.3864 9.63447 81.7778 10.839 81.0223 11.4118L75.8804 15.3101C75.5471 15.5628 75.4063 15.9962 75.5274 16.3965L77.3959 22.5726C77.6705 23.4801 76.6458 24.2246 75.8676 23.683L70.5712 19.9975C70.2279 19.7586 69.7721 19.7586 69.4288 19.9975L64.1324 23.683C63.3542 24.2246 62.3295 23.4801 62.6041 22.5726L64.4726 16.3965C64.5937 15.9962 64.4529 15.5628 64.1196 15.3101L58.9777 11.4118C58.2222 10.839 58.6136 9.63447 59.5615 9.61515L66.0127 9.48368C66.4309 9.47516 66.7995 9.20729 66.9369 8.81222L69.0554 2.71739Z" fill="#11401C"/>
<path d="M97.0554 2.71739C97.3667 1.82183 98.6333 1.82183 98.9446 2.71739L101.063 8.81222C101.2 9.20729 101.569 9.47516 101.987 9.48368L108.439 9.61515C109.386 9.63447 109.778 10.839 109.022 11.4118L103.88 15.3101C103.547 15.5628 103.406 15.9962 103.527 16.3965L105.396 22.5726C105.67 23.4801 104.646 24.2246 103.868 23.683L98.5712 19.9975C98.2279 19.7586 97.7721 19.7586 97.4288 19.9975L92.1324 23.683C91.3542 24.2246 90.3295 23.4801 90.6041 22.5726L92.4726 16.3965C92.5937 15.9962 92.4529 15.5628 92.1196 15.3101L86.9777 11.4118C86.2222 10.839 86.6136 9.63447 87.5615 9.61515L94.0127 9.48368C94.4309 9.47516 94.7995 9.20729 94.9369 8.81222L97.0554 2.71739Z" fill="#11401C"/>
<path d="M125.055 2.71739C125.367 1.82183 126.633 1.82183 126.945 2.71739L129.063 8.81222C129.2 9.20729 129.569 9.47516 129.987 9.48368L136.439 9.61515C137.386 9.63447 137.778 10.839 137.022 11.4118L131.88 15.3101C131.547 15.5628 131.406 15.9962 131.527 16.3965L133.396 22.5726C133.67 23.4801 132.646 24.2246 131.868 23.683L126.571 19.9975C126.228 19.7586 125.772 19.7586 125.429 19.9975L120.132 23.683C119.354 24.2246 118.33 23.4801 118.604 22.5726L120.473 16.3965C120.594 15.9962 120.453 15.5628 120.12 15.3101L114.978 11.4118C114.222 10.839 114.614 9.63447 115.561 9.61515L122.013 9.48368C122.431 9.47516 122.8 9.20729 122.937 8.81222L125.055 2.71739Z" fill="#11401C"/>
</svg>
