<svg width="495" height="407" viewBox="0 0 495 407" fill="none" xmlns="http://www.w3.org/2000/svg">
<path d="M289.371 164.938C214.304 99.4653 100.679 -109.021 13.2582 72.5687C-49.5605 202.905 127.173 337.709 202.095 379.924C297.927 433.938 469.311 413.88 492.967 248.607C502.442 182.44 478.235 155.933 432.067 168.019C377.896 182.203 344.699 213.162 289.371 164.938Z" fill="#859B5B"/>
<path opacity="0.9" d="M289.371 164.938C214.304 99.4653 100.679 -109.021 13.2582 72.5687C-49.5605 202.905 127.173 337.709 202.095 379.924C297.927 433.938 469.311 413.88 492.967 248.607C502.442 182.44 478.235 155.933 432.067 168.019C377.896 182.203 344.699 213.162 289.371 164.938Z" fill="white"/>
<path d="M481.793 346.804H18V347.065H481.793V346.804Z" fill="#EBEBEB"/>
<path d="M435.321 363.572H404.599V363.833H435.321V363.572Z" fill="#EBEBEB"/>
<path d="M325.235 366.406H317.174V366.667H325.235V366.406Z" fill="#EBEBEB"/>
<path d="M403.671 353.901H385.871V354.162H403.671V353.901Z" fill="#EBEBEB"/>
<path d="M106.724 355.652H66.6611V355.912H106.724V355.652Z" fill="#EBEBEB"/>
<path d="M120.86 355.652H114.988V355.912H120.86V355.652Z" fill="#EBEBEB"/>
<path d="M226.846 360.05H139.95V360.31H226.846V360.05Z" fill="#EBEBEB"/>
<path d="M237.838 300.326H58.7304C57.3272 300.323 55.9824 299.695 54.9911 298.579C53.9999 297.464 53.4431 295.952 53.4431 294.376V11.5155C53.4553 9.94822 54.0175 8.44962 55.0074 7.34523C55.9974 6.24085 57.3352 5.61987 58.7304 5.61719H237.838C239.243 5.61719 240.59 6.24411 241.583 7.36003C242.576 8.47596 243.134 9.98948 243.134 11.5676V294.376C243.134 295.954 242.576 297.467 241.583 298.583C240.59 299.699 239.243 300.326 237.838 300.326ZM58.7304 5.82561C57.3887 5.82837 56.1029 6.42906 55.1551 7.49583C54.2073 8.5626 53.675 10.0083 53.675 11.5155V294.376C53.675 295.883 54.2073 297.328 55.1551 298.395C56.1029 299.462 57.3887 300.063 58.7304 300.065H237.838C239.18 300.063 240.467 299.462 241.416 298.396C242.366 297.329 242.9 295.884 242.902 294.376V11.5155C242.9 10.0073 242.366 8.56166 241.416 7.49519C240.467 6.42872 239.18 5.82837 237.838 5.82561H58.7304Z" fill="#EBEBEB"/>
<path d="M438.484 300.326H259.367C257.963 300.323 256.618 299.695 255.625 298.58C254.632 297.465 254.073 295.953 254.071 294.376V11.5155C254.085 9.94727 254.65 8.44868 255.641 7.34458C256.633 6.24048 257.971 5.61984 259.367 5.61719H438.484C439.878 5.62261 441.213 6.2448 442.201 7.34889C443.189 8.45299 443.75 9.95002 443.762 11.5155V294.376C443.762 295.95 443.207 297.46 442.217 298.576C441.228 299.691 439.886 300.32 438.484 300.326ZM259.367 5.82561C258.025 5.82837 256.738 6.42872 255.789 7.49519C254.84 8.56166 254.305 10.0073 254.303 11.5155V294.376C254.305 295.884 254.84 297.329 255.789 298.396C256.738 299.462 258.025 300.063 259.367 300.065H438.484C439.827 300.063 441.113 299.462 442.063 298.396C443.012 297.329 443.546 295.884 443.549 294.376V11.5155C443.546 10.0073 443.012 8.56166 442.063 7.49519C441.113 6.42872 439.827 5.82837 438.484 5.82561H259.367Z" fill="#EBEBEB"/>
<path d="M364.138 83.7861H350.994V129.754H364.138V83.7861Z" fill="#E6E6E6"/>
<path d="M399.766 129.754H356.151L349.565 75.9495H393.18L399.766 129.754Z" fill="#F0F0F0"/>
<path d="M404.488 129.754H359.444L352.858 75.9495H397.902L404.488 129.754Z" fill="#F5F5F5"/>
<path d="M362.7 125.512L357.153 80.1907H394.646L400.203 125.512H362.7Z" fill="white"/>
<path d="M370.111 111.787L368.024 94.7802C367.962 94.3314 367.988 93.8727 368.1 93.4362C368.211 92.9997 368.407 92.5958 368.671 92.2526C368.936 91.9094 369.265 91.6352 369.633 91.449C370.002 91.2628 370.403 91.1692 370.807 91.1745H384.433C385.115 91.1687 385.776 91.4446 386.289 91.9499C386.802 92.4552 387.132 93.1546 387.216 93.9153L389.294 110.933C389.354 111.381 389.327 111.839 389.215 112.274C389.102 112.709 388.907 113.112 388.642 113.454C388.378 113.796 388.05 114.069 387.682 114.254C387.314 114.44 386.914 114.533 386.511 114.528H372.903C372.219 114.537 371.557 114.262 371.042 113.756C370.527 113.251 370.196 112.55 370.111 111.787Z" fill="#F5F5F5"/>
<path d="M282.315 33.4209H85.8618V169.573H282.315V33.4209Z" fill="#E6E6E6"/>
<path d="M287.362 33.4209H88.2183V169.573H287.362V33.4209Z" fill="#F0F0F0"/>
<path d="M282.315 169.583H85.8618V180.118H282.315V169.583Z" fill="#E6E6E6"/>
<path d="M295.765 169.583H96.6221V180.118H295.765V169.583Z" fill="#F0F0F0"/>
<path d="M280.293 161.642V41.3618L95.2865 41.3618V161.642H280.293Z" fill="#FAFAFA"/>
<path d="M108.866 161.642L150.339 41.3618H169.911L128.438 161.642H108.866Z" fill="white"/>
<path d="M132.65 161.642L174.122 41.3618H181.747L140.275 161.642H132.65Z" fill="white"/>
<path d="M205.206 161.642L246.678 41.3618H254.303L212.84 161.642H205.206Z" fill="white"/>
<path d="M280.284 161.642V41.3618H279.384V161.642H280.284Z" fill="#E6E6E6"/>
<path d="M431.239 129.753H389.646V346.804H431.239V129.753Z" fill="#E6E6E6"/>
<path d="M427.056 346.805H431.24V333.434H422.669L427.056 346.805Z" fill="#F0F0F0"/>
<path d="M358.359 129.753H316.766V346.804H358.359V129.753Z" fill="#E6E6E6"/>
<path d="M431.239 129.753H354.704V338.603H431.239V129.753Z" fill="#F0F0F0"/>
<path d="M358.888 346.805H354.704V333.434H363.275L358.888 346.805Z" fill="#F0F0F0"/>
<path d="M427.993 133.578H357.951V232.099H427.993V133.578Z" fill="#E6E6E6"/>
<path d="M400.555 141.248H385.389C382.128 141.248 378.902 140.501 375.907 139.053C372.912 137.605 370.211 135.487 367.969 132.828H417.975C415.734 135.489 413.033 137.608 410.038 139.056C407.042 140.503 403.816 141.249 400.555 141.248Z" fill="#F0F0F0"/>
<path d="M427.993 236.09H357.951V334.611H427.993V236.09Z" fill="#E6E6E6"/>
<path d="M400.555 243.76H385.389C382.128 243.76 378.902 243.013 375.907 241.565C372.912 240.118 370.211 238 367.969 235.34H417.975C415.734 238.001 413.033 240.12 410.038 241.568C407.042 243.016 403.816 243.762 400.555 243.76Z" fill="#F0F0F0"/>
<path d="M138.123 198.293H207.339L217.375 244.219H148.15L138.123 198.293Z" fill="#E6E6E6"/>
<path d="M148.149 244.219L148.437 246.751H217.653L217.375 244.219H148.149Z" fill="#E6E6E6"/>
<path d="M140.256 198.293H209.472L219.509 244.219H150.283L140.256 198.293Z" fill="#F0F0F0"/>
<path d="M151.749 242.114L142.63 200.388H208.007L217.125 242.114H151.749Z" fill="white"/>
<path d="M168.325 244.219L168.603 246.751H244.823L244.544 244.219H168.325Z" fill="#F0F0F0"/>
<path d="M262.215 246.751H253.922V346.794H262.215V246.751Z" fill="#E6E6E6"/>
<path d="M264.84 246.751H259.08V346.794H264.84V246.751Z" fill="#F0F0F0"/>
<path d="M159.763 258.204H266.63V246.751H159.763V258.204Z" fill="#F0F0F0"/>
<path d="M156.043 258.204H147.75V346.794H156.043V258.204Z" fill="#E6E6E6"/>
<path d="M158.659 258.204H152.899V346.794H158.659V258.204Z" fill="#F0F0F0"/>
<path d="M103.551 258.204H95.2588V346.794H103.551V258.204Z" fill="#E6E6E6"/>
<path d="M106.176 258.204H100.416V346.794H106.176V258.204Z" fill="#F0F0F0"/>
<path d="M209.732 258.204H201.439V346.794H209.732V258.204Z" fill="#E6E6E6"/>
<path d="M212.348 258.204H206.587V346.794H212.348V258.204Z" fill="#F0F0F0"/>
<path d="M159.754 246.751H95.2588V258.204H159.754V246.751Z" fill="#E6E6E6"/>
<path d="M289.17 346.804H287.158L281.434 314.874L280.423 309.278L274.079 274.482H249.961L236.91 346.804H234.87L248.19 273.148C248.232 272.904 248.347 272.683 248.515 272.522C248.684 272.361 248.896 272.269 249.117 272.262H274.941C275.165 272.259 275.382 272.347 275.553 272.51C275.723 272.673 275.835 272.899 275.869 273.148L281.434 303.703L282.362 309.288L289.17 346.804Z" fill="#F0F0F0"/>
<path d="M327.897 346.804H325.874L312.795 274.482H288.678L282.361 309.288L281.434 314.874L275.655 346.804H273.642L280.423 309.288L281.425 303.713L286.99 273.158C287.034 272.915 287.149 272.695 287.317 272.535C287.485 272.374 287.697 272.282 287.918 272.272H313.658C313.879 272.28 314.092 272.371 314.26 272.532C314.429 272.693 314.544 272.914 314.586 273.158L327.897 346.804Z" fill="#F0F0F0"/>
<path d="M268.448 273.367H312.768C321.227 273.367 325.921 266.906 328.314 256.255L329.483 250.169C329.878 248.329 329.895 246.411 329.534 244.562C329.173 242.712 328.443 240.979 327.398 239.493C326.354 238.007 325.023 236.806 323.506 235.982C321.989 235.158 320.325 234.732 318.639 234.736H290.812C285.061 234.736 283.54 236.278 279.56 246.011C275.581 255.745 268.448 273.367 268.448 273.367Z" fill="#F0F0F0"/>
<path d="M292.612 273.367H245.379C244.791 273.367 244.227 273.104 243.812 272.637C243.396 272.17 243.162 271.537 243.162 270.876V270.647C243.162 269.752 243.319 268.866 243.624 268.039C243.929 267.212 244.376 266.461 244.939 265.828C245.502 265.195 246.171 264.693 246.907 264.35C247.643 264.008 248.432 263.831 249.229 263.831H292.612V273.377V273.367Z" fill="#F0F0F0"/>
<path d="M249.896 393.866C349.224 393.866 429.746 388.584 429.746 382.069C429.746 375.554 349.224 370.272 249.896 370.272C150.568 370.272 70.0464 375.554 70.0464 382.069C70.0464 388.584 150.568 393.866 249.896 393.866Z" fill="#F5F5F5"/>
<path d="M206.327 348.732L200.391 353.025L189.631 338.967L195.567 334.674L206.327 348.732Z" fill="#FFC3BD"/>
<path opacity="0.2" d="M195.577 334.674L189.631 338.967L195.187 346.22L201.124 341.916L195.577 334.674Z" fill="black"/>
<path d="M160.959 371.659L154.132 372.409L147.036 354.172L153.863 353.422L160.959 371.659Z" fill="#FFC3BD"/>
<path opacity="0.2" d="M147.046 354.182L150.701 363.582H157.815L153.864 353.432L147.046 354.182Z" fill="black"/>
<path d="M109.117 125.46C105.685 125.804 105.592 119.259 99.5626 122.334C91.9008 126.252 94.4887 132.327 88.5058 132.077C82.5229 131.827 78.5157 137.069 79.8514 140.977C81.1872 144.885 83.2557 148.584 79.0259 150.158C74.7961 151.732 71.9206 153.118 72.5328 157.057C73.145 160.996 76.1411 162.58 71.095 165.091C66.049 167.603 66.5591 178.462 71.5032 178.472C76.4472 178.483 71.7072 183.891 76.1411 189.393C80.575 194.896 87.3185 195.646 90.1291 192.937C92.9397 190.227 96.0749 187.987 101.362 192.155C106.649 196.323 115.601 197.366 115.192 190.759C114.784 184.152 109.627 179.816 114.487 176.377C119.348 172.938 125.619 171.24 123.652 164.55C122.4 160.381 118.615 156.755 121.667 153.639C126.63 148.574 126.657 137.111 120.572 134.203C117.038 132.525 120.443 124.314 109.117 125.46Z" fill="#263238"/>
<path d="M102.512 176.961C102.345 180.088 101.993 182.87 101.585 185.798C101.176 188.727 100.583 191.582 99.9056 194.448C99.2455 197.345 98.4055 200.186 97.3918 202.951C96.8909 204.348 96.3158 205.734 95.7036 207.12C95.3975 207.808 95.0636 208.485 94.7204 209.152C94.5627 209.496 94.3679 209.829 94.1917 210.194L93.9227 210.684C93.74 211.01 93.5353 211.32 93.3105 211.611C92.7959 212.264 92.1635 212.786 91.4553 213.143C90.8226 213.465 90.1444 213.659 89.4517 213.716C88.433 213.782 87.4125 213.627 86.4463 213.258C85.0074 212.702 83.6363 211.946 82.365 211.007C80.1261 209.361 78.0075 207.518 76.0295 205.494C72.2161 201.597 68.6603 197.393 65.3901 192.916L68.0245 190.071C69.8797 191.905 71.7348 193.77 73.6735 195.542C75.6121 197.314 77.5044 199.096 79.4802 200.753C81.3612 202.379 83.3453 203.848 85.4167 205.15C86.2924 205.708 87.2275 206.138 88.1995 206.432C88.4333 206.513 88.6799 206.538 88.923 206.505H88.7375C88.6149 206.572 88.5023 206.66 88.4035 206.766L88.3572 206.818L88.5612 206.39C88.6911 206.109 88.8395 205.838 88.9601 205.546C89.2198 204.97 89.4703 204.386 89.7114 203.796C90.1752 202.608 90.639 201.399 91.01 200.138C91.7892 197.637 92.4385 195.052 93.0136 192.426C93.5887 189.8 94.0247 187.122 94.4143 184.423C94.8039 181.724 95.1007 178.962 95.3419 176.398L102.512 176.961Z" fill="#FFC3BD"/>
<path d="M107.901 177.941C107.53 180.463 105.666 185.235 104.191 188.779C103.097 191.342 102.206 193.27 102.206 193.27L100.907 192.624L90.1567 187.247C90.973 180.733 92.2995 173.699 98.6905 170.5C102.679 168.52 108.56 173.397 107.901 177.941Z" fill="#859B5B"/>
<path opacity="0.6" d="M107.901 177.941C107.53 180.463 105.666 185.235 104.191 188.779C103.097 191.342 102.206 193.27 102.206 193.27L100.907 192.624L90.1567 187.247C90.973 180.733 92.2995 173.699 98.6905 170.5C102.679 168.52 108.56 173.397 107.901 177.941Z" fill="black"/>
<path opacity="0.3" d="M104.164 188.779C103.069 191.342 102.179 193.27 102.179 193.27L100.88 192.624C101.056 190.05 101.511 185.996 102.735 184.173C103.5 185.575 103.987 187.146 104.164 188.779Z" fill="black"/>
<path d="M68.4326 192.457L69.286 185.444L62.2827 187.987C62.2827 187.987 63.3958 192.228 65.891 193.968L68.4326 192.457Z" fill="#FFC3BD"/>
<path d="M66.114 179.452L61.2256 182.463L62.283 188.028L69.2863 185.444L66.114 179.452Z" fill="#FFC3BD"/>
<path d="M198.202 350.92L204.649 345.71C204.76 345.619 204.896 345.576 205.032 345.59C205.169 345.603 205.296 345.672 205.391 345.783L209.779 350.92C209.885 351.054 209.966 351.211 210.014 351.381C210.063 351.552 210.079 351.732 210.062 351.91C210.044 352.088 209.994 352.26 209.913 352.415C209.832 352.569 209.723 352.703 209.593 352.807C207.32 354.578 206.142 355.297 203.304 357.58C201.56 358.986 197.887 362.384 195.475 364.322C193.063 366.26 191.236 363.697 192.08 362.644C195.883 357.934 196.894 354.724 197.497 352.077C197.606 351.612 197.855 351.203 198.202 350.92Z" fill="#263238"/>
<path d="M153.233 370.043H161.581C161.731 370.046 161.876 370.104 161.995 370.207C162.114 370.31 162.2 370.454 162.24 370.616L164.095 378.057C164.14 378.233 164.148 378.418 164.117 378.598C164.087 378.778 164.019 378.947 163.92 379.092C163.821 379.237 163.692 379.354 163.545 379.433C163.399 379.512 163.237 379.551 163.074 379.547C160.125 379.547 158.724 379.547 155.042 379.547H143.781C140.72 379.547 140.07 376.067 141.341 375.754C147.018 374.347 150.292 372.398 152.045 370.543C152.37 370.213 152.795 370.035 153.233 370.043Z" fill="#263238"/>
<path d="M140.488 206.182L113.152 215.894C94.2291 173.814 96.9284 171.584 96.9284 171.584C96.9284 171.584 101.297 168.781 105.842 166.446C106.529 166.092 107.225 165.748 107.911 165.404C111.949 163.601 116.097 162.125 120.322 160.986C120.944 160.798 121.565 160.631 122.177 160.465C125.542 159.61 128.949 158.98 132.381 158.578C132.789 164.404 133.197 169.333 133.642 173.616C134.217 179.202 134.839 183.672 135.497 187.539C136.715 193.893 138.384 200.127 140.488 206.182Z" fill="#859B5B"/>
<path opacity="0.6" d="M140.488 206.182L113.152 215.894C94.2291 173.814 96.9284 171.584 96.9284 171.584C96.9284 171.584 101.297 168.781 105.842 166.446C106.529 166.092 107.225 165.748 107.911 165.404C111.949 163.601 116.097 162.125 120.322 160.986C120.944 160.798 121.565 160.631 122.177 160.465C125.542 159.61 128.949 158.98 132.381 158.578C132.789 164.404 133.197 169.333 133.642 173.616C134.217 179.202 134.839 183.672 135.497 187.539C136.715 193.893 138.384 200.127 140.488 206.182Z" fill="black"/>
<path opacity="0.3" d="M135.572 187.559C132.946 183.391 130.433 173.689 131.082 170.052L133.679 173.637C134.254 179.222 134.876 183.693 135.572 187.559Z" fill="black"/>
<path d="M114.126 179.441C114.126 179.441 121.018 177.764 123.235 181.13C126.277 177.764 125.201 164.612 123.736 159.923C122.573 160.144 121.433 160.493 120.332 160.965L115.462 169.427L114.126 179.441Z" fill="white"/>
<path d="M114.126 179.441C114.126 179.441 109.488 180.609 108.996 184.871C102.503 179.441 102.958 171.49 104.423 166.801C105.536 166.196 106.706 165.734 107.911 165.425L112.781 171.448L114.126 179.441Z" fill="white"/>
<path d="M115.712 152.128C116.639 155.963 118.049 159.756 120.35 161.006C120.35 161.006 122.493 167.905 114.144 179.441C105.406 172.449 107.929 165.425 107.929 165.425C112.048 162.643 110.888 158.974 109.135 155.765L111.556 151.398C111.797 150.978 112.142 150.645 112.548 150.44C112.955 150.235 113.405 150.167 113.845 150.244C114.285 150.322 114.696 150.541 115.027 150.875C115.359 151.209 115.596 151.644 115.712 152.128Z" fill="#FFC3BD"/>
<path opacity="0.2" d="M115.712 152.128C115.601 151.636 115.364 151.192 115.03 150.851C114.697 150.51 114.281 150.287 113.835 150.209C113.389 150.131 112.933 150.203 112.523 150.414C112.113 150.625 111.767 150.968 111.529 151.398L110.75 152.795C110.814 153.722 110.852 154.483 110.842 154.879C110.768 157.588 114.154 157.463 116.909 156.161C116.418 154.853 116.018 153.505 115.712 152.128Z" fill="black"/>
<path d="M98.9318 141.654C101.343 149.043 102.215 152.232 106.631 154.962C113.263 159.078 120.813 154.139 120.424 146.083C120.071 138.84 116.194 127.961 108.838 127.158C107.217 126.974 105.581 127.258 104.084 127.984C102.588 128.709 101.282 129.853 100.289 131.305C99.297 132.757 98.6514 134.47 98.4137 136.281C98.1761 138.093 98.3544 139.942 98.9318 141.654Z" fill="#FFC3BD"/>
<path d="M115.99 130.545C113.727 128.096 111.352 125.251 106.807 125.804C101.78 126.419 99.7947 129.837 99.7947 129.837L95.4722 140.456C95.4722 140.456 98.1529 154.128 102.577 147.751C105.128 144.061 105.193 138.486 104.266 134.318C106.004 134.042 107.717 133.596 109.386 132.984C111.427 133.838 113.718 133.838 115.415 132.088C115.786 131.702 116.055 131.4 116.25 131.16L116.408 130.962C116.909 130.243 116.491 130.316 115.99 130.545ZM110.147 132.755C111.731 132.179 113.341 131.695 114.97 131.306C114.364 132.026 113.593 132.542 112.741 132.798C111.889 133.054 110.991 133.039 110.147 132.755Z" fill="#263238"/>
<path d="M99.266 149.168C99.9625 150.479 101.093 151.427 102.41 151.804C104.154 152.294 104.98 150.533 104.451 148.678C103.978 147.042 102.503 144.812 100.741 145.124C100.36 145.203 100.002 145.387 99.7016 145.661C99.4007 145.936 99.166 146.29 99.0192 146.693C98.8723 147.096 98.8179 147.533 98.861 147.966C98.9042 148.398 99.0434 148.812 99.266 149.168Z" fill="#FFC3BD"/>
<path d="M113.152 215.905C113.152 215.905 112.224 278.838 119.543 301.576C126.592 323.377 147.621 360.852 147.621 360.852L159.809 360.508C159.809 360.508 140.441 313.04 137.278 294.282C132.01 263.154 133.169 208.829 133.169 208.829L113.152 215.905Z" fill="#859B5B"/>
<path opacity="0.3" d="M124.097 221.334L127.372 210.913L133.169 208.829C133.169 208.829 132.64 233.558 133.911 259.204C128.652 247.824 124.097 226.982 124.097 221.334Z" fill="black"/>
<path d="M145.905 361.56L160.96 361.133L160.088 355.933L143.651 356.808L145.905 361.56Z" fill="#263238"/>
<path d="M119.107 213.873C119.107 213.873 138.122 262.737 150.413 290.551C160.338 313.019 191.227 343.157 191.227 343.157L199.696 336.56C199.696 336.56 176.45 300.858 169.595 285.622C147.658 236.872 153.066 216.78 140.451 206.182L119.107 213.873Z" fill="#859B5B"/>
<path d="M191.727 346.304L201.671 338.353L199.417 333.476L188.49 342.761L191.727 346.304Z" fill="#263238"/>
<path d="M140.441 204.233L142.445 206.546C142.603 206.724 142.445 207.026 142.12 207.141L113.449 217.322C113.207 217.416 112.966 217.322 112.901 217.186L111.881 214.519C111.807 214.341 111.974 214.102 112.243 214.008L139.931 204.16C140.014 204.121 140.105 204.108 140.195 204.121C140.284 204.133 140.369 204.172 140.441 204.233Z" fill="#263238"/>
<path d="M137.659 209.037L138.401 208.777C138.549 208.777 138.642 208.589 138.596 208.495L137.251 205.046C137.211 204.99 137.155 204.95 137.093 204.933C137.031 204.916 136.966 204.923 136.907 204.952L136.165 205.223C136.017 205.275 135.924 205.4 135.971 205.504L137.325 208.943C137.353 209.048 137.501 209.089 137.659 209.037Z" fill="#859B5B"/>
<path d="M115.572 216.884L116.314 216.624C116.463 216.571 116.546 216.446 116.509 216.342L115.155 212.893C115.155 212.789 114.96 212.757 114.812 212.809L114.07 213.07C113.931 213.122 113.838 213.247 113.875 213.351L115.229 216.801C115.271 216.854 115.327 216.891 115.389 216.906C115.45 216.921 115.515 216.913 115.572 216.884Z" fill="#859B5B"/>
<path d="M126.611 212.997L127.353 212.737C127.501 212.685 127.594 212.56 127.548 212.455L126.193 209.006C126.193 208.912 126.008 208.87 125.86 208.923L125.117 209.183C124.969 209.183 124.876 209.36 124.923 209.465L126.268 212.914C126.314 212.997 126.462 212.997 126.611 212.997Z" fill="#859B5B"/>
<path d="M110.471 140.049C110.638 140.664 111.055 141.092 111.399 140.946C111.742 140.8 111.909 140.227 111.742 139.622C111.575 139.018 111.167 138.58 110.814 138.726C110.462 138.872 110.313 139.414 110.471 140.049Z" fill="#263238"/>
<path d="M116.64 137.965C116.807 138.58 117.224 139.007 117.567 138.861C117.911 138.715 118.078 138.153 117.92 137.538C117.762 136.923 117.336 136.496 116.992 136.641C116.649 136.787 116.482 137.35 116.64 137.965Z" fill="#263238"/>
<path d="M116.844 136.725L118.04 135.86C118.04 135.86 117.679 137.236 116.844 136.725Z" fill="#263238"/>
<path d="M115.1 139.56C115.961 140.793 116.965 141.89 118.087 142.822C117.863 143.136 117.581 143.391 117.261 143.571C116.941 143.751 116.59 143.851 116.232 143.864L115.1 139.56Z" fill="#FFC3BD"/>
<path d="M114.394 147.24C114.42 147.217 114.439 147.186 114.449 147.151C114.459 147.115 114.459 147.078 114.45 147.042C114.437 146.995 114.409 146.955 114.371 146.93C114.334 146.905 114.289 146.897 114.246 146.907C113.572 147.154 112.856 147.218 112.156 147.093C111.456 146.968 110.793 146.657 110.22 146.188C110.203 146.171 110.184 146.159 110.162 146.151C110.141 146.143 110.118 146.14 110.096 146.142C110.074 146.144 110.052 146.151 110.032 146.162C110.012 146.174 109.994 146.189 109.979 146.208C109.965 146.228 109.953 146.25 109.946 146.274C109.939 146.298 109.937 146.323 109.938 146.348C109.94 146.373 109.946 146.398 109.956 146.42C109.967 146.443 109.981 146.463 109.998 146.479C110.613 146.99 111.328 147.328 112.083 147.466C112.838 147.604 113.611 147.537 114.339 147.271L114.394 147.24Z" fill="#263238"/>
<path d="M108.143 138.351C108.186 138.305 108.218 138.248 108.236 138.184C108.373 137.739 108.602 137.337 108.903 137.009C109.205 136.682 109.57 136.438 109.97 136.298C110.017 136.293 110.062 136.276 110.103 136.25C110.143 136.224 110.178 136.188 110.206 136.145C110.233 136.103 110.253 136.054 110.262 136.003C110.272 135.951 110.272 135.898 110.262 135.846C110.252 135.795 110.233 135.746 110.205 135.704C110.178 135.661 110.142 135.626 110.102 135.6C110.061 135.573 110.016 135.557 109.969 135.552C109.923 135.546 109.876 135.552 109.831 135.569C109.315 135.734 108.844 136.039 108.457 136.457C108.071 136.875 107.781 137.393 107.614 137.965C107.598 138.012 107.59 138.062 107.591 138.112C107.592 138.162 107.602 138.211 107.62 138.256C107.638 138.302 107.664 138.343 107.697 138.377C107.729 138.411 107.767 138.438 107.809 138.455C107.868 138.469 107.929 138.466 107.987 138.448C108.045 138.43 108.099 138.397 108.143 138.351Z" fill="#263238"/>
<path d="M118.523 134.037C118.52 134.012 118.52 133.988 118.523 133.964C118.534 133.866 118.513 133.767 118.463 133.687C118.413 133.606 118.339 133.548 118.254 133.526C117.734 133.402 117.195 133.418 116.682 133.574C116.17 133.73 115.697 134.021 115.304 134.422C115.242 134.494 115.209 134.59 115.211 134.69C115.212 134.79 115.249 134.885 115.313 134.954C115.377 135.023 115.463 135.06 115.552 135.059C115.64 135.057 115.725 135.015 115.786 134.943C116.1 134.631 116.476 134.406 116.882 134.289C117.289 134.171 117.714 134.163 118.124 134.266C118.204 134.288 118.288 134.277 118.361 134.234C118.434 134.192 118.492 134.122 118.523 134.037Z" fill="#263238"/>
<path d="M136.574 165.957C137.677 166.884 138.605 167.749 139.57 168.687C140.534 169.625 141.425 170.563 142.352 171.542C144.161 173.501 145.905 175.544 147.556 177.691C149.226 179.849 150.774 182.122 152.194 184.496C152.565 185.079 152.89 185.715 153.233 186.319C153.576 186.924 153.919 187.539 154.225 188.185C154.532 188.831 154.856 189.404 155.153 190.123L155.645 191.28L156.044 192.447C156.899 195.406 157.3 198.507 157.231 201.618C157.174 204.508 156.898 207.388 156.405 210.225C155.923 213.008 155.292 215.728 154.55 218.396C153.802 221.068 152.929 223.694 151.934 226.263L148.576 224.867C149.152 222.366 149.699 219.74 150.107 217.145C150.56 214.575 150.892 211.98 151.099 209.371C151.322 206.843 151.375 204.3 151.257 201.763C151.191 200.561 151.061 199.364 150.868 198.179C150.664 197.085 150.382 196.011 150.023 194.969L149.736 194.25L149.421 193.593C149.17 193.114 148.827 192.551 148.493 192.02C148.159 191.488 147.881 190.978 147.565 190.446C147.25 189.915 146.925 189.404 146.573 188.904C145.219 186.82 143.688 184.923 142.167 182.995C140.646 181.067 138.976 179.254 137.278 177.482C136.444 176.586 135.581 175.711 134.718 174.856C133.856 174.002 132.928 173.147 132.13 172.418L136.574 165.957Z" fill="#FFC3BD"/>
<path d="M149.643 222.376L144.56 226.545L151.053 230.4C151.053 230.4 152.991 226.545 152.37 223.325L149.643 222.376Z" fill="#FFC3BD"/>
<path d="M142.955 233.308L148.27 235.153L151.099 230.421L144.56 226.566L142.955 233.308Z" fill="#FFC3BD"/>
<path d="M132.418 158.599C135.97 158.422 142.955 168.228 142.955 168.228L135.701 179.754C135.701 179.754 127.557 172.459 126.926 167.384C126.398 163.06 127.891 158.808 132.418 158.599Z" fill="#859B5B"/>
<path opacity="0.6" d="M132.418 158.599C135.97 158.422 142.955 168.228 142.955 168.228L135.701 179.754C135.701 179.754 127.557 172.459 126.926 167.384C126.398 163.06 127.891 158.808 132.418 158.599Z" fill="black"/>
<path d="M195.763 354.182H195.651C195.489 354.159 195.334 354.089 195.204 353.977C195.074 353.865 194.972 353.717 194.909 353.547C194.861 353.448 194.835 353.337 194.835 353.224C194.835 353.111 194.861 352.999 194.909 352.901C195.364 352.025 197.915 351.858 198.202 351.858C198.234 351.858 198.266 351.867 198.294 351.886C198.322 351.904 198.345 351.931 198.36 351.963C198.378 351.993 198.388 352.03 198.388 352.067C198.388 352.104 198.378 352.14 198.36 352.171C197.738 352.942 196.635 354.182 195.763 354.182ZM197.803 352.275C196.783 352.359 195.429 352.63 195.197 353.088C195.172 353.13 195.158 353.179 195.158 353.229C195.158 353.279 195.172 353.328 195.197 353.369C195.236 353.483 195.301 353.584 195.386 353.661C195.471 353.738 195.572 353.788 195.679 353.807C196.171 353.87 196.95 353.297 197.803 352.275Z" fill="#859B5B"/>
<path d="M198.026 352.254C197.173 352.254 195.494 351.723 195.179 350.952C195.128 350.815 195.119 350.664 195.153 350.521C195.186 350.378 195.26 350.251 195.364 350.16C195.46 350.063 195.574 349.99 195.697 349.945C195.82 349.9 195.95 349.884 196.078 349.899C197.089 350.024 198.286 351.869 198.332 351.984C198.348 352.012 198.356 352.044 198.356 352.077C198.356 352.11 198.348 352.143 198.332 352.171C198.319 352.199 198.301 352.223 198.278 352.241C198.256 352.259 198.23 352.271 198.202 352.275L198.026 352.254ZM195.967 350.274C195.829 350.273 195.695 350.333 195.596 350.441C195.438 350.598 195.457 350.723 195.485 350.806C195.689 351.306 197.006 351.848 197.869 351.848C197.442 351.254 196.644 350.316 196.013 350.243L195.967 350.274Z" fill="#859B5B"/>
<path d="M149.513 371.596C148.942 371.643 148.372 371.49 147.881 371.159C147.753 371.053 147.649 370.917 147.575 370.76C147.501 370.603 147.46 370.429 147.454 370.252C147.446 370.153 147.462 370.054 147.5 369.964C147.537 369.875 147.595 369.798 147.667 369.741C148.428 369.168 151.276 370.617 151.841 370.919C151.873 370.934 151.899 370.961 151.916 370.995C151.933 371.029 151.939 371.068 151.934 371.106C151.931 371.146 151.917 371.184 151.894 371.214C151.87 371.244 151.839 371.264 151.804 371.273C151.052 371.467 150.285 371.575 149.513 371.596ZM148.187 369.971C148.071 369.964 147.955 369.993 147.853 370.054C147.829 370.074 147.81 370.101 147.799 370.132C147.787 370.164 147.784 370.198 147.788 370.231C147.792 370.354 147.82 370.474 147.872 370.582C147.923 370.691 147.996 370.785 148.085 370.856C148.576 371.273 149.736 371.336 151.229 371.023C150.27 370.496 149.244 370.14 148.187 369.971Z" fill="#859B5B"/>
<path d="M151.767 371.273H151.712C150.784 370.835 148.855 369.116 148.929 368.23C148.929 368.042 149.068 367.792 149.495 367.74C151.164 367.511 151.869 370.866 151.897 371.054C151.903 371.088 151.901 371.123 151.892 371.156C151.882 371.189 151.865 371.218 151.841 371.241C151.82 371.259 151.794 371.27 151.767 371.273ZM149.717 368.094H149.606C149.43 368.094 149.337 368.178 149.318 368.271C149.263 368.782 150.58 370.147 151.545 370.741C151.294 369.918 150.691 368.094 149.717 368.094Z" fill="#859B5B"/>
<path d="M110.675 138.789L111.871 137.924C111.871 137.924 111.51 139.299 110.675 138.789Z" fill="#263238"/>
<path d="M285.729 62.5894H150.923C149.482 62.5784 148.055 62.8989 146.73 63.5312C145.404 64.1634 144.207 65.0941 143.214 66.2658C142.221 67.4375 141.451 68.8253 140.954 70.3438C140.456 71.8622 140.241 73.4791 140.32 75.0947L152.963 369.564C153.144 372.918 154.447 376.072 156.611 378.392C158.776 380.712 161.641 382.025 164.632 382.069H299.438C300.878 382.08 302.305 381.76 303.63 381.127C304.956 380.495 306.151 379.564 307.144 378.392C308.137 377.22 308.905 375.832 309.402 374.314C309.898 372.796 310.113 371.179 310.031 369.564L297.398 75.0947C297.218 71.7401 295.914 68.5863 293.75 66.2666C291.585 63.947 288.72 62.6333 285.729 62.5894Z" fill="black"/>
<path d="M290.71 62.5894H155.867C154.427 62.5783 153 62.8988 151.675 63.5312C150.349 64.1636 149.154 65.0945 148.161 66.2663C147.168 67.4381 146.4 68.8261 145.903 70.3445C145.407 71.863 145.192 73.4796 145.274 75.0947L157.907 369.564C158.087 372.918 159.391 376.072 161.555 378.392C163.72 380.712 166.585 382.025 169.576 382.069H304.382C305.822 382.08 307.249 381.76 308.574 381.127C309.899 380.495 311.095 379.564 312.088 378.392C313.081 377.22 313.849 375.832 314.346 374.314C314.842 372.796 315.056 371.179 314.975 369.564L302.342 75.0947C302.162 71.7472 300.864 68.5993 298.707 66.2807C296.551 63.962 293.694 62.6437 290.71 62.5894Z" fill="#263238"/>
<path d="M169.196 373.732C168.203 373.704 167.255 373.262 166.537 372.491C165.818 371.72 165.381 370.677 165.31 369.564L152.694 75.0947C152.672 74.5572 152.746 74.0202 152.914 73.5161C153.081 73.0119 153.338 72.5511 153.668 72.1615C153.998 71.7719 154.396 71.4616 154.836 71.2493C155.276 71.037 155.75 70.9271 156.228 70.9263H291.034C292.029 70.9498 292.979 71.3907 293.699 72.1622C294.418 72.9338 294.854 73.9799 294.921 75.0947L307.555 369.564C307.577 370.1 307.503 370.637 307.336 371.14C307.169 371.643 306.914 372.104 306.584 372.493C306.255 372.883 305.859 373.193 305.42 373.406C304.981 373.619 304.508 373.73 304.03 373.732H169.196Z" fill="#859B5B"/>
<path opacity="0.1" d="M169.131 371.648C168.635 371.629 168.163 371.407 167.804 371.023C167.445 370.638 167.224 370.119 167.183 369.564L154.55 75.0947C154.541 74.8271 154.58 74.5603 154.664 74.3099C154.748 74.0594 154.876 73.8304 155.041 73.6363C155.205 73.4422 155.402 73.2868 155.62 73.1793C155.838 73.0719 156.074 73.0145 156.312 73.0105H291.118C291.614 73.0268 292.088 73.2486 292.447 73.6334C292.807 74.0181 293.027 74.5386 293.066 75.0947L305.7 369.564C305.708 369.831 305.669 370.098 305.585 370.349C305.501 370.599 305.373 370.828 305.208 371.022C305.044 371.216 304.847 371.372 304.629 371.479C304.411 371.587 304.175 371.644 303.937 371.648H169.131Z" fill="black"/>
<g opacity="0.3">
<path d="M209.815 354.724H183.11C182.377 354.715 181.674 354.393 181.144 353.825C180.614 353.256 180.295 352.482 180.253 351.66L178.305 306.109C178.281 305.707 178.331 305.303 178.452 304.923C178.573 304.543 178.763 304.195 179.01 303.902C179.256 303.608 179.554 303.375 179.885 303.217C180.215 303.059 180.571 302.979 180.93 302.983H207.682C208.413 302.99 209.115 303.309 209.644 303.876C210.173 304.444 210.49 305.216 210.53 306.036L212.45 351.597C212.473 352.001 212.421 352.405 212.299 352.785C212.177 353.165 211.986 353.512 211.739 353.806C211.492 354.099 211.193 354.332 210.862 354.49C210.531 354.648 210.175 354.728 209.815 354.724ZM180.893 304.046C180.662 304.045 180.433 304.096 180.219 304.196C180.005 304.296 179.812 304.444 179.65 304.63C179.493 304.821 179.37 305.046 179.291 305.291C179.211 305.536 179.176 305.797 179.186 306.057L181.144 351.597C181.17 352.155 181.383 352.681 181.742 353.068C182.1 353.455 182.576 353.675 183.073 353.682H209.815C210.048 353.684 210.278 353.632 210.492 353.529C210.706 353.427 210.899 353.277 211.059 353.087C211.219 352.897 211.343 352.673 211.423 352.428C211.502 352.182 211.536 351.921 211.522 351.66L209.565 306.109C209.541 305.553 209.33 305.027 208.973 304.64C208.616 304.252 208.141 304.032 207.645 304.025L180.893 304.046Z" fill="#FAFAFA"/>
<path d="M207.292 314.623H182.183C182.06 314.623 181.942 314.568 181.855 314.471C181.768 314.373 181.719 314.24 181.719 314.102C181.719 313.964 181.768 313.831 181.855 313.734C181.942 313.636 182.06 313.581 182.183 313.581H207.32C207.443 313.581 207.561 313.636 207.648 313.734C207.735 313.831 207.784 313.964 207.784 314.102C207.784 314.24 207.735 314.373 207.648 314.471C207.561 314.568 207.443 314.623 207.32 314.623H207.292Z" fill="#FAFAFA"/>
<path d="M207.552 320.511H182.405C182.283 320.509 182.166 320.453 182.08 320.356C181.993 320.259 181.944 320.128 181.941 319.99C181.941 319.852 181.99 319.72 182.077 319.622C182.164 319.524 182.282 319.469 182.405 319.469H207.552C207.675 319.469 207.793 319.524 207.88 319.622C207.967 319.72 208.016 319.852 208.016 319.99C208.013 320.128 207.964 320.259 207.877 320.356C207.791 320.453 207.674 320.509 207.552 320.511Z" fill="#FAFAFA"/>
<path d="M207.803 326.399H182.656C182.533 326.397 182.417 326.341 182.33 326.244C182.244 326.147 182.194 326.016 182.192 325.878C182.192 325.74 182.241 325.608 182.328 325.51C182.415 325.412 182.533 325.357 182.656 325.357H207.803C207.926 325.357 208.044 325.412 208.13 325.51C208.217 325.608 208.266 325.74 208.266 325.878C208.266 326.016 208.217 326.149 208.13 326.247C208.044 326.344 207.926 326.399 207.803 326.399Z" fill="#FAFAFA"/>
<path d="M208.053 332.287H182.915C182.792 332.287 182.674 332.233 182.588 332.135C182.501 332.037 182.452 331.905 182.452 331.766C182.452 331.628 182.501 331.496 182.588 331.398C182.674 331.3 182.792 331.245 182.915 331.245H208.053C208.176 331.245 208.294 331.3 208.381 331.398C208.468 331.496 208.517 331.628 208.517 331.766C208.517 331.905 208.468 332.037 208.381 332.135C208.294 332.233 208.176 332.287 208.053 332.287Z" fill="#FAFAFA"/>
<path d="M208.304 338.175H183.166C183.043 338.175 182.925 338.12 182.838 338.023C182.751 337.925 182.702 337.792 182.702 337.654C182.702 337.516 182.751 337.383 182.838 337.286C182.925 337.188 183.043 337.133 183.166 337.133H208.304C208.427 337.133 208.544 337.188 208.631 337.286C208.718 337.383 208.767 337.516 208.767 337.654C208.767 337.792 208.718 337.925 208.631 338.023C208.544 338.12 208.427 338.175 208.304 338.175Z" fill="#FAFAFA"/>
<path d="M203.406 344.063H183.416C183.293 344.063 183.175 344.008 183.088 343.91C183.001 343.813 182.953 343.68 182.953 343.542C182.953 343.404 183.001 343.271 183.088 343.173C183.175 343.076 183.293 343.021 183.416 343.021H203.406C203.529 343.021 203.647 343.076 203.734 343.173C203.821 343.271 203.87 343.404 203.87 343.542C203.867 343.679 203.818 343.81 203.731 343.907C203.645 344.004 203.528 344.06 203.406 344.063Z" fill="#FAFAFA"/>
</g>
<g opacity="0.3">
<path d="M226.651 187.601L208.313 190.894C207.605 188.933 206.669 187.087 205.53 185.402C204.432 184.108 203.134 183.048 201.699 182.276L202.385 198.428C212.583 201.444 219.444 204.626 222.968 207.974C225.216 210.078 227.039 212.694 228.318 215.65C229.598 218.605 230.304 221.832 230.389 225.117C230.635 228.961 230.006 232.813 228.562 236.309C227.188 239.571 225.212 242.466 222.764 244.802C220.484 246.996 217.848 248.674 215 249.742C211.658 250.871 208.194 251.481 204.704 251.555L204.825 254.4C204.853 254.927 204.784 255.454 204.623 255.95C204.462 256.445 204.212 256.898 203.888 257.28C203.564 257.662 203.174 257.966 202.742 258.171C202.309 258.377 201.844 258.48 201.374 258.475C200.399 258.464 199.463 258.036 198.757 257.28C198.051 256.524 197.627 255.494 197.571 254.4L197.451 251.555C193.379 251.262 189.36 250.372 185.494 248.908C182.532 247.706 179.794 245.901 177.415 243.583C175.243 241.5 173.405 239.015 171.979 236.236C170.549 233.247 169.509 230.043 168.89 226.722L188.842 224.106C189.597 227.781 190.525 230.439 191.625 232.078C193.008 233.983 194.785 235.479 196.801 236.434L195.957 216.718C191.016 215.336 186.178 213.524 181.487 211.299C178.452 209.598 175.844 207.073 173.899 203.952C171.626 200.344 170.369 196.053 170.291 191.634C170.075 188.585 170.453 185.519 171.398 182.651C172.343 179.782 173.833 177.179 175.764 175.023C179.697 170.569 185.726 168.103 193.851 167.624L193.787 166.175C193.759 165.649 193.827 165.121 193.988 164.626C194.15 164.13 194.4 163.677 194.723 163.295C195.047 162.913 195.437 162.61 195.87 162.404C196.302 162.199 196.768 162.095 197.237 162.101C198.213 162.112 199.148 162.539 199.854 163.295C200.56 164.052 200.984 165.081 201.04 166.175L201.105 167.624C208.526 168.145 214.28 170.118 218.368 173.543C222.479 177.026 225.403 181.988 226.651 187.601ZM194.464 182.026C192.81 182.502 191.317 183.513 190.169 184.933C189.388 186.111 189.01 187.564 189.102 189.029C189.151 190.6 189.66 192.109 190.549 193.322C191.788 194.782 193.355 195.837 195.085 196.376L194.464 182.026ZM204.083 236.966C206.865 236.271 208.875 235.104 210.112 233.464C210.706 232.727 211.164 231.865 211.46 230.927C211.756 229.99 211.884 228.997 211.837 228.004C211.743 226.194 211.086 224.479 209.982 223.158C208.813 221.688 206.587 220.313 203.322 219.052L204.083 236.966Z" fill="#FAFAFA"/>
</g>
<path opacity="0.2" d="M275.126 101.033H183.295L192.247 309.57C192.683 318.113 195.991 326.151 201.501 332.059C207.012 337.967 214.313 341.304 221.929 341.396H313.76L304.818 132.859C304.386 124.312 301.078 116.27 295.565 110.361C290.052 104.451 282.746 101.117 275.126 101.033Z" fill="black"/>
<path d="M297.62 101.033H183.323C190.94 101.122 198.243 104.458 203.753 110.367C209.264 116.275 212.571 124.315 213.006 132.859L220.306 302.619C220.743 311.162 224.051 319.2 229.561 325.108C235.071 331.016 242.372 334.353 249.989 334.445H307.62C311.289 334.488 314.927 333.682 318.307 332.078C321.687 330.474 324.738 328.106 327.269 325.121C329.799 322.136 331.757 318.598 333.018 314.727C334.28 310.855 334.82 306.734 334.603 302.619L327.312 132.859C326.88 124.312 323.572 116.27 318.059 110.361C312.546 104.451 305.24 101.117 297.62 101.033Z" fill="#FAFAFA"/>
<path d="M276.963 302.619C277.181 306.732 276.643 310.851 275.384 314.721C274.124 318.59 272.17 322.128 269.642 325.112C267.113 328.097 264.066 330.466 260.688 332.072C257.311 333.677 253.675 334.485 250.008 334.445H364.296C367.963 334.485 371.599 333.677 374.977 332.072C378.355 330.466 381.404 328.098 383.932 325.113C386.461 322.128 388.417 318.591 389.677 314.721C390.938 310.852 391.477 306.732 391.261 302.619H276.963Z" fill="#E6E6E6"/>
<path d="M313.714 206.401H232.94C232.374 206.394 231.831 206.146 231.421 205.707C231.012 205.268 230.765 204.67 230.733 204.035C230.717 203.73 230.758 203.424 230.852 203.137C230.946 202.85 231.091 202.587 231.279 202.365C231.467 202.144 231.693 201.968 231.944 201.848C232.194 201.728 232.464 201.668 232.736 201.669H313.51C314.083 201.666 314.635 201.909 315.053 202.349C315.47 202.789 315.722 203.393 315.755 204.035C315.771 204.344 315.729 204.653 315.633 204.943C315.536 205.233 315.388 205.498 315.196 205.72C315.004 205.942 314.774 206.118 314.519 206.235C314.264 206.352 313.99 206.408 313.714 206.401Z" fill="#859B5B"/>
<path d="M314.345 221.167H233.571C233.004 221.16 232.462 220.912 232.052 220.473C231.642 220.034 231.396 219.437 231.363 218.802C231.348 218.496 231.388 218.191 231.482 217.903C231.576 217.616 231.722 217.354 231.909 217.132C232.097 216.91 232.323 216.734 232.574 216.615C232.824 216.495 233.094 216.434 233.367 216.436H314.15C314.715 216.446 315.255 216.695 315.663 217.134C316.071 217.572 316.316 218.168 316.348 218.802C316.364 219.107 316.323 219.413 316.229 219.7C316.135 219.987 315.99 220.25 315.802 220.471C315.614 220.693 315.388 220.869 315.137 220.989C314.887 221.108 314.617 221.169 314.345 221.167Z" fill="#859B5B"/>
<path d="M314.985 235.924H234.201C233.635 235.917 233.092 235.669 232.683 235.23C232.273 234.791 232.027 234.193 231.994 233.558C231.979 233.253 232.019 232.947 232.113 232.66C232.207 232.373 232.353 232.11 232.54 231.888C232.728 231.667 232.954 231.491 233.205 231.371C233.455 231.251 233.725 231.191 233.997 231.192H314.827C315.393 231.199 315.936 231.447 316.346 231.886C316.756 232.325 317.002 232.923 317.035 233.558C317.05 233.868 317.008 234.178 316.912 234.469C316.815 234.76 316.665 235.025 316.473 235.247C316.28 235.469 316.048 235.644 315.792 235.761C315.536 235.877 315.261 235.933 314.985 235.924Z" fill="#859B5B"/>
<path d="M315.615 250.711H234.841C234.276 250.702 233.734 250.453 233.325 250.015C232.915 249.576 232.668 248.98 232.633 248.346C232.618 248.04 232.659 247.734 232.753 247.447C232.847 247.16 232.992 246.898 233.18 246.676C233.368 246.454 233.594 246.278 233.844 246.159C234.095 246.039 234.365 245.978 234.637 245.98H315.411C315.977 245.987 316.52 246.235 316.93 246.674C317.34 247.113 317.586 247.711 317.619 248.346C317.634 248.651 317.593 248.957 317.499 249.244C317.405 249.531 317.26 249.794 317.072 250.015C316.885 250.237 316.659 250.413 316.408 250.533C316.157 250.652 315.888 250.713 315.615 250.711Z" fill="#859B5B"/>
<path d="M284.133 265.478H235.472C234.906 265.471 234.363 265.223 233.953 264.784C233.543 264.345 233.297 263.747 233.264 263.112C233.249 262.807 233.29 262.501 233.384 262.214C233.478 261.927 233.623 261.664 233.811 261.443C233.998 261.221 234.225 261.045 234.475 260.925C234.726 260.805 234.996 260.745 235.268 260.747H283.929C284.495 260.753 285.038 261.001 285.448 261.441C285.858 261.88 286.104 262.477 286.137 263.112C286.152 263.418 286.111 263.723 286.017 264.011C285.923 264.298 285.778 264.56 285.59 264.782C285.403 265.003 285.176 265.18 284.926 265.299C284.675 265.419 284.405 265.48 284.133 265.478Z" fill="#859B5B"/>
<path d="M289.745 175.792C299.304 164.791 298.723 146.738 288.447 135.469C278.172 124.2 262.094 123.982 252.535 134.982C242.977 145.983 243.558 164.036 253.834 175.305C264.109 186.574 280.187 186.792 289.745 175.792Z" fill="#859B5B"/>
<path d="M292.083 155.369C292.258 159.241 291.552 163.1 290.033 166.582C288.385 170.315 285.834 173.451 282.673 175.629C279.511 177.808 275.867 178.941 272.158 178.899C268.321 178.867 264.558 177.714 261.237 175.555C257.917 173.395 255.153 170.303 253.217 166.582C251.41 163.177 250.375 159.327 250.202 155.369C250.042 152.327 250.44 149.282 251.372 146.421C252.303 143.559 253.749 140.944 255.618 138.737C257.488 136.531 259.741 134.779 262.239 133.592C264.736 132.405 267.424 131.808 270.136 131.838C275.764 131.916 281.157 134.387 285.229 138.753C289.301 143.119 291.75 149.056 292.083 155.369Z" fill="white"/>
<path opacity="0.4" d="M290.033 166.582C288.385 170.315 285.834 173.451 282.673 175.629C279.511 177.808 275.867 178.941 272.158 178.899C268.321 178.867 264.558 177.714 261.237 175.555C257.917 173.396 255.153 170.303 253.217 166.582C258.555 162.466 264.886 160.284 271.36 160.329C277.991 160.343 284.477 162.515 290.033 166.582Z" fill="#859B5B"/>
<path opacity="0.4" d="M277.625 154.803C281.139 150.759 280.927 144.124 277.151 139.983C273.375 135.842 267.465 135.763 263.951 139.808C260.437 143.852 260.649 150.487 264.425 154.628C268.201 158.769 274.11 158.848 277.625 154.803Z" fill="#859B5B"/>
</svg>
