<svg width="20" height="15" viewBox="0 0 20 15" fill="none" xmlns="http://www.w3.org/2000/svg">
<path d="M14 5.5L16.5768 3.95392C17.3699 3.47803 17.7665 3.24009 18.0928 3.27051C18.3773 3.29703 18.6369 3.444 18.806 3.67433C19 3.93848 19 4.40095 19 5.3259V9.6741C19 10.599 19 11.0615 18.806 11.3257C18.6369 11.556 18.3773 11.703 18.0928 11.7295C17.7665 11.7599 17.3699 11.522 16.5768 11.0461L14 9.5M4.2 13.5H10.8C11.9201 13.5 12.4802 13.5 12.908 13.282C13.2843 13.0903 13.5903 12.7843 13.782 12.408C14 11.9802 14 11.4201 14 10.3V4.7C14 3.5799 14 3.01984 13.782 2.59202C13.5903 2.21569 13.2843 1.90973 12.908 1.71799C12.4802 1.5 11.9201 1.5 10.8 1.5H4.2C3.0799 1.5 2.51984 1.5 2.09202 1.71799C1.71569 1.90973 1.40973 2.21569 1.21799 2.59202C1 3.01984 1 3.57989 1 4.7V10.3C1 11.4201 1 11.9802 1.21799 12.408C1.40973 12.7843 1.71569 13.0903 2.09202 13.282C2.51984 13.5 3.07989 13.5 4.2 13.5Z" stroke="#6D6D6D" stroke-width="1.5" stroke-linecap="round" stroke-linejoin="round"/>
</svg>
