<svg width="116" height="125" viewBox="0 0 116 125" fill="none" xmlns="http://www.w3.org/2000/svg">
<path d="M99.7592 16.3134C86.3854 5.53889 68.2822 16.3134 50.694 38.9871C33.1057 61.6608 24.7425 52.1186 9.79102 62.112C-5.16046 72.1054 -9.15946 113.042 43.5177 109.062C96.1948 105.082 134.72 44.4417 99.7592 16.3134Z" fill="#F0F0F0"/>
<path d="M116 124.649C116 124.696 90.6403 124.736 59.3679 124.736C28.0954 124.736 2.72461 124.696 2.72461 124.649C2.72461 124.601 28.0808 124.561 59.3679 124.561C90.6549 124.561 116 124.605 116 124.649Z" fill="#263238"/>
<path d="M91.2903 83.4284C85.6479 79.7953 84.3697 73.0511 84.5925 66.9871C84.629 65.977 84.5085 64.9062 85.0307 64.0207C85.553 63.1352 86.7727 62.5258 87.7551 62.95C88.5695 63.3035 88.9238 64.179 89.3803 64.9029C89.9894 65.8671 90.882 66.6527 91.955 67.1689C92.6525 67.5056 93.5181 67.7076 94.2083 67.3575C95.1578 66.876 95.2674 65.6739 95.2601 64.6638C95.2601 62.785 95.2479 60.9084 95.2236 59.0341C95.1579 58.0277 95.2689 57.018 95.5523 56.0442C95.8919 55.0879 96.6479 54.2024 97.6814 53.933C98.7149 53.6637 100.004 54.2192 100.238 55.2024C100.278 55.6188 100.289 56.0372 100.271 56.455C100.3 56.8758 100.512 57.3371 100.939 57.4651C101.366 57.593 101.812 57.3001 102.141 57.0038C103.265 55.9937 104.032 54.6772 104.744 53.3775C105.457 52.0778 106.154 50.7411 107.177 49.6333C108.199 48.5256 109.613 47.6468 111.194 47.5626C112.775 47.4784 114.422 48.374 114.817 49.7882C115.211 51.2024 114.316 52.6468 113.356 53.795C111.907 55.4993 110.198 57.0019 108.283 58.2563C107.91 58.4445 107.611 58.7384 107.432 59.0947C107.195 59.7681 107.885 60.4415 108.605 60.6537C109.419 60.9028 110.303 60.8254 111.161 60.9197C112.019 61.0139 112.932 61.3574 113.257 62.0981C113.703 63.1284 112.768 64.2059 111.851 64.913C110.011 66.3271 107.921 67.4398 105.672 68.2026C104.869 68.4719 104.025 68.711 103.375 69.2295C102.725 69.7481 102.338 70.6538 102.729 71.3642C103.119 72.0747 104.124 72.3003 104.967 72.1555C105.811 72.0107 106.56 71.5932 107.363 71.3137C108.864 70.7918 110.8 70.8861 111.745 72.0814C112.038 72.4932 112.224 72.962 112.287 73.451C112.351 73.9399 112.29 74.4358 112.111 74.8996C111.745 75.8227 111.183 76.6688 110.456 77.3879C108.064 80.0227 104.956 82.0247 101.45 83.1893C97.9699 84.3004 94.7452 84.6035 91.2867 83.4351" fill="#859B5B"/>
<path d="M113.21 48.3945C113.21 48.3945 113.177 48.4282 113.104 48.4888L112.779 48.7548C112.494 48.9905 112.074 49.3339 111.544 49.7885C110.043 51.0737 108.649 52.4615 107.374 53.9401C106.559 54.8727 105.716 55.93 104.817 57.0781C103.919 58.2263 102.991 59.4654 102.071 60.7819C101.09 62.1702 100.191 63.6067 99.3794 65.085C98.9557 65.856 98.5832 66.6608 98.1998 67.4823L97.0676 69.9908C95.5753 73.1504 94.2756 76.3845 93.1746 79.6778C92.2877 82.3723 91.6763 85.1375 91.3485 87.9371C91.1361 89.8265 91.1019 91.7293 91.2463 93.6241C91.3047 94.2975 91.3595 94.8126 91.4106 95.1628C91.4325 95.3312 91.4471 95.4658 91.4617 95.5635V95.7015C91.446 95.6577 91.435 95.6126 91.4289 95.5669C91.4106 95.4692 91.3887 95.3379 91.3595 95.1695C91.2937 94.8328 91.2244 94.3008 91.1586 93.6274C90.9824 91.7291 90.9947 89.8199 91.1952 87.9237C91.5026 85.1121 92.1006 82.334 92.981 79.6273C94.0728 76.3247 95.369 73.0825 96.8631 69.9167L98.0245 67.4183C98.4079 66.6002 98.7841 65.7887 99.2114 65.0143C100.029 63.5315 100.935 62.0916 101.925 60.7011C102.86 59.3543 103.802 58.1354 104.689 56.9973C105.577 55.8593 106.435 54.7953 107.246 53.866C108.534 52.3914 109.947 51.0133 111.471 49.7447C112.012 49.2969 112.443 48.9602 112.735 48.7346L113.075 48.4821C113.116 48.4487 113.161 48.4193 113.21 48.3945Z" fill="white"/>
<path d="M99.2584 65.0078C99.2069 64.8691 99.1714 64.7258 99.1525 64.5802C99.0941 64.3007 99.0283 63.9068 98.9517 63.395C98.7946 62.3849 98.6339 61.001 98.4623 59.469C98.2906 57.937 98.0971 56.5498 97.9364 55.5498C97.8524 55.0515 97.7793 54.6508 97.7282 54.3713C97.6883 54.2283 97.6675 54.0813 97.6661 53.9336C97.729 54.0685 97.7744 54.2098 97.8013 54.3545C97.8816 54.6306 97.9729 55.0279 98.0752 55.5296C98.2833 56.5397 98.4878 57.9134 98.6595 59.4488C98.8311 60.9842 98.9772 62.331 99.0904 63.3782C99.1452 63.8495 99.1927 64.2502 99.2292 64.5701C99.2576 64.7144 99.2674 64.8614 99.2584 65.0078Z" fill="white"/>
<path d="M113.312 62.5902C113.134 62.6259 112.953 62.6461 112.771 62.6508C112.406 62.6811 111.887 62.7215 111.245 62.7888C109.959 62.9168 108.192 63.1525 106.252 63.4892C104.313 63.8259 102.571 64.2064 101.318 64.4993C100.694 64.6474 100.19 64.7821 99.8576 64.873C99.6802 64.9312 99.4965 64.9718 99.3098 64.9943C99.4786 64.916 99.6546 64.8518 99.8357 64.8023C100.179 64.6912 100.676 64.5363 101.297 64.3713C102.542 64.0346 104.284 63.634 106.23 63.2905C107.879 62.9998 109.543 62.7863 111.215 62.6508C111.862 62.6003 112.384 62.5801 112.749 62.5733C112.937 62.5616 113.125 62.5672 113.312 62.5902Z" fill="white"/>
<path d="M93.1598 79.3916C93.1209 79.3428 93.089 79.2896 93.0649 79.2333L92.8239 78.7653C92.6157 78.3579 92.3345 77.7552 91.9985 77.0178C91.3192 75.5363 90.4537 73.4622 89.5334 71.1591C88.613 68.8561 87.7658 66.782 87.123 65.2837C86.8089 64.5564 86.5496 63.9604 86.3561 63.516L86.1516 63.0345C86.1232 62.9789 86.1036 62.92 86.0931 62.8594C86.1321 62.9081 86.164 62.9613 86.1881 63.0176L86.4291 63.4857C86.6336 63.8931 86.9185 64.4958 87.2545 65.2331C87.9338 66.7146 88.7993 68.7887 89.7196 71.0918C90.6399 73.3949 91.4872 75.469 92.13 76.9673C92.444 77.6946 92.7033 78.2905 92.8932 78.735C92.9772 78.9269 93.0466 79.0717 93.1014 79.2165C93.1298 79.272 93.1494 79.331 93.1598 79.3916Z" fill="#263238"/>
<path d="M111.814 73.8457C111.756 73.8766 111.693 73.9004 111.628 73.9164L111.088 74.0848L109.09 74.6807C107.403 75.1858 105.073 75.9063 102.516 76.701C99.9599 77.4956 97.6189 78.2027 95.9207 78.674C95.0734 78.9131 94.3832 79.0949 93.9048 79.2161L93.3533 79.3475C93.2892 79.3662 93.2231 79.3787 93.1561 79.3845C93.2146 79.3536 93.2772 79.3298 93.3424 79.3138L93.8829 79.1454L95.8806 78.5495C97.5678 78.0444 99.8978 77.3239 102.454 76.5292C105.011 75.7346 107.348 75.0275 109.046 74.5561C109.897 74.3171 110.584 74.1353 111.066 74.0141L111.617 73.8827C111.681 73.864 111.747 73.8515 111.814 73.8457Z" fill="white"/>
<path d="M84.9756 99.1226L48.4952 98.9677C46.3885 98.957 44.3726 98.1759 42.8901 96.7958C41.4076 95.4158 40.5798 93.5497 40.5886 91.6073L40.9757 7.29312C40.98 6.33083 41.19 5.37876 41.5936 4.49133C41.9972 3.60391 42.5866 2.79852 43.328 2.12121C44.0694 1.4439 44.9484 0.907949 45.9146 0.543995C46.8808 0.18004 47.9153 -0.00478097 48.9591 9.39827e-05L85.4357 0.154978C87.5424 0.164779 89.5588 0.945075 91.0419 2.32449C92.5251 3.70391 93.3538 5.56966 93.346 7.51197L92.9589 91.8228C92.9546 92.7854 92.7447 93.7378 92.3412 94.6256C91.9376 95.5134 91.3484 96.3193 90.607 96.9971C89.8657 97.6749 88.9868 98.2115 88.0206 98.5762C87.0543 98.9409 86.0196 99.1266 84.9756 99.1226Z" fill="#455A64"/>
<path d="M85.3811 3.05402H78.3108C78.0801 3.05797 77.8525 3.10377 77.641 3.18883C77.4295 3.27388 77.2383 3.39651 77.0782 3.54972C76.9181 3.70293 76.7923 3.88372 76.7081 4.08175C76.6238 4.27978 76.5827 4.49118 76.587 4.70388V5.88571C76.5914 6.09824 76.5502 6.30947 76.4659 6.50731C76.3816 6.70515 76.2557 6.88571 76.0956 7.03865C75.9355 7.1916 75.7442 7.31391 75.5327 7.3986C75.3213 7.48329 75.0938 7.52869 74.8632 7.5322L61.0804 7.47495C60.6142 7.46349 60.1719 7.28189 59.8507 6.97002C59.5296 6.65816 59.3558 6.24153 59.3676 5.81163V4.6298C59.3794 4.20047 59.2061 3.78434 58.8858 3.47257C58.5654 3.1608 58.1241 2.97882 57.6584 2.96648H55.1714L48.9812 2.93954C47.5088 2.93146 46.093 3.4616 45.0437 4.41389C43.9943 5.36617 43.3971 6.663 43.3826 8.02042L43.0174 90.3178C43.014 90.9912 43.1546 91.6586 43.431 92.282C43.7074 92.9053 44.1143 93.4724 44.6284 93.9507C45.1425 94.4291 45.7538 94.8094 46.4273 95.07C47.1009 95.3306 47.8235 95.4663 48.5539 95.4694L84.9575 95.6242C85.6884 95.6273 86.4128 95.4977 87.0894 95.2427C87.7659 94.9877 88.3814 94.6123 88.9006 94.138C89.4198 93.6637 89.8326 93.0997 90.1154 92.4783C90.3982 91.8569 90.5454 91.1903 90.5488 90.5164L90.914 8.21907C90.9227 6.85782 90.3448 5.54908 89.3073 4.58054C88.2698 3.612 86.8576 3.06293 85.3811 3.05402Z" fill="white"/>
<path d="M80.4838 84.6448L53.4148 84.5371C53.1336 84.5371 52.9072 84.2543 52.9108 83.9108L52.94 77.3821C52.94 77.0454 53.1701 76.7559 53.4513 76.7559L80.5203 76.8703C80.6761 76.8952 80.8155 76.9745 80.9094 77.0918C81.0033 77.2092 81.0445 77.3554 81.0243 77.5L80.9987 84.0219C80.9987 84.3687 80.765 84.6482 80.4838 84.6448Z" fill="url(#paint0_linear_1106_3331)"/>
<path d="M58.814 27.2463L49.421 27.207L49.4132 28.7963L58.8062 28.8356L58.814 27.2463Z" fill="#207C35"/>
<path opacity="0.1" d="M58.814 27.2463L49.421 27.207L49.4132 28.7963L58.8062 28.8356L58.814 27.2463Z" fill="#207C35"/>
<path d="M86.3488 37.0041C86.4226 36.9972 86.495 36.9813 86.5643 36.9569C86.6654 36.9205 86.7533 36.8585 86.8179 36.7781C86.8825 36.6977 86.9211 36.6021 86.9295 36.5024C86.9295 35.967 86.9295 35.1859 86.9295 34.1825C86.9295 33.6808 86.9295 33.1185 86.9295 32.499C86.9295 32.3474 86.9295 32.1892 86.9295 32.0309C86.9533 31.8774 86.917 31.721 86.8272 31.5899C86.777 31.527 86.7116 31.4757 86.6361 31.44C86.5607 31.4044 86.4774 31.3854 86.3926 31.3845H85.8229H80.5457L50 31.2801C49.9218 31.2789 49.8445 31.2951 49.7745 31.3273C49.7046 31.3595 49.6441 31.4069 49.5983 31.4653C49.5101 31.597 49.4764 31.7536 49.5033 31.9064C49.5033 32.2431 49.5033 32.5798 49.5033 32.9165C49.5033 33.5899 49.5033 34.2633 49.5033 34.9367C49.5033 35.2734 49.5033 35.6101 49.5033 35.9468C49.4882 36.1036 49.4882 36.2614 49.5033 36.4182C49.5225 36.4854 49.5582 36.5477 49.6075 36.6002C49.6569 36.6528 49.7187 36.6942 49.7882 36.7212C49.8601 36.7476 49.9372 36.7603 50.0146 36.7583H51.8735L59.9847 36.7987L73.7164 36.8761L82.9743 36.9435L85.4906 36.9704H86.1443C86.294 36.9704 86.3671 36.9704 86.3671 36.9704H86.1443H85.4906H82.9743H73.7164L59.9847 36.93L51.8735 36.8997H50.0146C49.9123 36.9035 49.8103 36.8874 49.7151 36.8526C49.619 36.8147 49.5335 36.7571 49.4651 36.6842C49.3967 36.6113 49.3474 36.5249 49.3207 36.4317C49.2996 36.3433 49.2922 36.2526 49.2988 36.1623V35.9131C49.2988 35.5764 49.2988 35.2397 49.2988 34.903C49.2988 34.2296 49.2988 33.5562 49.2988 32.8828C49.2988 32.5461 49.2988 32.2094 49.2988 31.8727C49.2918 31.783 49.2918 31.693 49.2988 31.6033C49.3125 31.5043 49.354 31.4103 49.4193 31.3306C49.4823 31.2493 49.5657 31.1833 49.6624 31.1382C49.759 31.093 49.8661 31.0701 49.9744 31.0713L80.5202 31.2262L85.7974 31.2599H86.3671C86.4675 31.26 86.5663 31.2823 86.6553 31.3251C86.7443 31.3679 86.8208 31.4298 86.8784 31.5057C86.9813 31.6521 87.0229 31.828 86.9952 32.0006C86.9952 32.1589 86.9952 32.3171 86.9952 32.4687C86.9952 33.0815 86.9952 33.6438 86.9952 34.1522C86.9952 35.1623 86.9697 35.9367 86.9624 36.4754C86.9534 36.579 86.9126 36.6781 86.8447 36.761C86.7767 36.8439 86.6845 36.9072 86.5789 36.9435C86.5098 36.983 86.4301 37.0039 86.3488 37.0041Z" fill="#E0E0E0"/>
<path d="M69.4215 32.9702H52.2423V34.4551H69.4215V32.9702Z" fill="#859B5B"/>
<path opacity="0.2" d="M69.4215 32.9702H52.2423V34.4551H69.4215V32.9702Z" fill="white"/>
<path d="M58.7495 41.7449L49.3566 41.7056L49.3487 43.2948L58.7417 43.3341L58.7495 41.7449Z" fill="#207C35"/>
<path opacity="0.1" d="M58.7495 41.7449L49.3566 41.7056L49.3487 43.2948L58.7417 43.3341L58.7495 41.7449Z" fill="#207C35"/>
<path d="M86.111 51.5026C86.1848 51.4943 86.2579 51.4819 86.3301 51.4656C86.4321 51.4357 86.526 51.3859 86.6054 51.3197C86.6848 51.2535 86.7478 51.1723 86.7903 51.0817C86.8478 50.9458 86.8703 50.7994 86.856 50.6541C86.856 50.4925 86.856 50.3174 86.856 50.1221C86.856 49.7316 86.856 49.2871 86.856 48.7753V46.6372C86.8735 46.4825 86.8363 46.3266 86.7501 46.1928C86.66 46.0556 86.5184 45.9537 86.3521 45.9066C86.1701 45.8767 85.9849 45.8676 85.8006 45.8797H80.5453L50.1055 45.7753C49.9417 45.7756 49.7837 45.8308 49.6608 45.9305C49.5379 46.0302 49.4584 46.1677 49.4372 46.3174C49.4372 46.6373 49.4372 46.9908 49.4372 47.3275C49.4372 48.0009 49.4372 48.6743 49.4372 49.3477C49.4372 49.6844 49.4372 50.0211 49.4372 50.3578C49.4236 50.5152 49.4309 50.6735 49.4591 50.8292C49.5047 50.9658 49.5985 51.0843 49.7257 51.1659C49.8606 51.2449 50.019 51.2826 50.1785 51.2737H50.6862H51.7416L59.8236 51.3107L73.5078 51.3882L82.7329 51.4555L85.2418 51.4824H82.7329H73.5078L59.8163 51.469L51.7343 51.442H50.1457C49.9481 51.4528 49.7521 51.4044 49.5869 51.304C49.4207 51.1978 49.2994 51.042 49.2436 50.8629C49.2109 50.6918 49.2011 50.5177 49.2144 50.3444C49.2144 50.0077 49.2144 49.671 49.2144 49.3343C49.2144 48.6608 49.2144 47.9874 49.2144 47.314C49.2144 46.9773 49.2144 46.6406 49.2144 46.3039C49.241 46.1114 49.3429 45.9344 49.5008 45.8061C49.6588 45.6778 49.8621 45.607 50.0726 45.6069L80.5124 45.7618L85.7677 45.7989C85.9634 45.7878 86.1598 45.8002 86.3521 45.8359C86.5418 45.893 86.7018 46.013 86.8013 46.1726C86.8957 46.3209 86.9366 46.493 86.9181 46.6642C86.9181 46.8224 86.9181 46.9773 86.9181 47.1322C86.9181 47.7416 86.9181 48.3006 86.9181 48.8157C86.9181 49.3309 86.9181 49.7652 86.9181 50.1625C86.9181 50.3545 86.9181 50.5329 86.9181 50.6979C86.9314 50.8485 86.9051 50.9998 86.8414 51.139C86.794 51.2319 86.7254 51.3143 86.6404 51.3805C86.5553 51.4468 86.4557 51.4953 86.3484 51.5228C86.2686 51.5289 86.1883 51.5221 86.111 51.5026Z" fill="#E0E0E0"/>
<path d="M58.6791 56.8723L49.2861 56.833L49.2783 58.4222L58.6713 58.4615L58.6791 56.8723Z" fill="#207C35"/>
<path opacity="0.1" d="M58.6791 56.8723L49.2861 56.833L49.2783 58.4222L58.6713 58.4615L58.6791 56.8723Z" fill="#207C35"/>
<path d="M86.0382 66.624C86.112 66.616 86.1852 66.6036 86.2573 66.587C86.3589 66.5572 86.4524 66.5079 86.5318 66.4423C86.6111 66.3768 86.6744 66.2964 86.7175 66.2065C86.7748 66.0705 86.7972 65.9242 86.7832 65.7789C86.7832 65.6139 86.7832 65.4422 86.7832 65.2436C86.7832 64.8563 86.7832 64.4085 86.7832 63.8967V61.7587C86.8007 61.6039 86.7635 61.448 86.6773 61.3142C86.5851 61.1795 86.4441 61.0793 86.2793 61.0314C86.0975 61.0003 85.9123 60.9901 85.7278 61.0011H80.4725L50.0327 60.8967C49.869 60.8971 49.7109 60.9522 49.588 61.0519C49.4651 61.1516 49.3856 61.2891 49.3644 61.4388C49.3644 61.7755 49.3644 62.1122 49.3644 62.4489C49.3644 63.1223 49.3644 63.7957 49.3644 64.4691C49.3644 64.8058 49.3644 65.1425 49.3644 65.4792C49.3508 65.6355 49.3581 65.7927 49.3863 65.9473C49.43 66.0846 49.5243 66.2037 49.6529 66.284C49.7869 66.3647 49.9461 66.4025 50.1057 66.3917H51.6944L59.7764 66.4321L73.4606 66.5096L82.6856 66.5769L85.1946 66.6038H82.6856H73.4606L59.7764 66.5668L51.6944 66.5365H50.1057C49.908 66.5488 49.7115 66.5002 49.547 66.3984C49.3808 66.2923 49.2595 66.1365 49.2037 65.9574C49.1709 65.7863 49.1611 65.6121 49.1745 65.4388C49.1745 65.1021 49.1745 64.7654 49.1745 64.4287C49.1745 63.7553 49.1745 63.0819 49.1745 62.4085C49.1745 62.0718 49.1745 61.7351 49.1745 61.3816C49.2003 61.1893 49.3014 61.0124 49.4588 60.884C49.6161 60.7557 49.8189 60.6847 50.029 60.6846L80.4689 60.8395L85.7242 60.8765C85.9198 60.8654 86.1163 60.8779 86.3085 60.9135C86.4982 60.9707 86.6583 61.0906 86.7577 61.2502C86.8522 61.3985 86.8931 61.5707 86.8745 61.7418C86.8745 61.9001 86.8745 62.0583 86.8745 62.2098C86.8745 62.8193 86.8745 63.3782 86.8745 63.8934C86.8745 64.4085 86.8745 64.8429 86.8745 65.2402C86.8745 65.4321 86.8745 65.6106 86.8745 65.7755C86.8886 65.9261 86.8622 66.0776 86.7979 66.2166C86.7505 66.3095 86.6819 66.3919 86.5968 66.4582C86.5117 66.5244 86.4121 66.5729 86.3048 66.6005C86.2192 66.6275 86.1279 66.6356 86.0382 66.624Z" fill="#E0E0E0"/>
<path d="M69.0547 47.8888L51.8756 47.8169L51.8683 49.3017L69.0474 49.3736L69.0547 47.8888Z" fill="#859B5B"/>
<path opacity="0.2" d="M69.0547 47.8888L51.8756 47.8169L51.8683 49.3017L69.0474 49.3736L69.0547 47.8888Z" fill="white"/>
<path d="M53.4293 63.8762C53.4185 64.0116 53.3648 64.1412 53.2749 64.2488C53.185 64.3563 53.0629 64.4372 52.9236 64.4814C52.7843 64.5255 52.634 64.531 52.4913 64.4971C52.3487 64.4633 52.22 64.3916 52.1211 64.2909C52.0223 64.1902 51.9577 64.0649 51.9354 63.9307C51.913 63.7965 51.9339 63.6592 51.9954 63.5358C52.0569 63.4124 52.1564 63.3084 52.2814 63.2366C52.4065 63.1648 52.5516 63.1285 52.6989 63.1321C52.9023 63.1425 53.0931 63.2265 53.2298 63.3658C53.3666 63.5051 53.4382 63.6885 53.4293 63.8762Z" fill="#859B5B"/>
<path d="M55.7554 63.8864C55.7626 63.9814 55.7485 64.0766 55.714 64.1663C55.6796 64.256 55.6255 64.3382 55.5551 64.4078C55.4847 64.4774 55.3995 64.5329 55.3048 64.5708C55.2102 64.6088 55.1081 64.6284 55.0049 64.6284C54.9017 64.6284 54.7996 64.6088 54.7049 64.5708C54.6103 64.5329 54.5251 64.4774 54.4547 64.4078C54.3843 64.3382 54.3302 64.256 54.2957 64.1663C54.2613 64.0766 54.2472 63.9814 54.2544 63.8864C54.2472 63.7915 54.2613 63.6962 54.2957 63.6066C54.3302 63.5169 54.3843 63.4347 54.4547 63.3651C54.5251 63.2955 54.6103 63.24 54.7049 63.2021C54.7996 63.1641 54.9017 63.1445 55.0049 63.1445C55.1081 63.1445 55.2102 63.1641 55.3048 63.2021C55.3995 63.24 55.4847 63.2955 55.5551 63.3651C55.6255 63.4347 55.6796 63.5169 55.714 63.6066C55.7485 63.6962 55.7626 63.7915 55.7554 63.8864Z" fill="#859B5B"/>
<path d="M58.0858 63.8967C58.075 64.0321 58.0213 64.1617 57.9314 64.2693C57.8415 64.3768 57.7194 64.4577 57.5801 64.5019C57.4408 64.546 57.2905 64.5515 57.1478 64.5177C57.0052 64.4838 56.8765 64.4121 56.7776 64.3114C56.6788 64.2107 56.6142 64.0855 56.5918 63.9512C56.5695 63.817 56.5904 63.6797 56.6519 63.5563C56.7134 63.4329 56.8129 63.3289 56.9379 63.2571C57.063 63.1853 57.2081 63.149 57.3553 63.1526C57.5585 63.1639 57.7487 63.2481 57.8852 63.3872C58.0218 63.5263 58.0938 63.7092 58.0858 63.8967Z" fill="#859B5B"/>
<path d="M60.4121 63.907C60.4013 64.0424 60.3476 64.1719 60.2577 64.2795C60.1678 64.3871 60.0457 64.468 59.9064 64.5121C59.7671 64.5563 59.6168 64.5618 59.4741 64.5279C59.3315 64.494 59.2028 64.4223 59.1039 64.3216C59.0051 64.2209 58.9405 64.0957 58.9181 63.9615C58.8958 63.8273 58.9167 63.6899 58.9782 63.5665C59.0397 63.4431 59.1391 63.3391 59.2642 63.2674C59.3892 63.1956 59.5344 63.1592 59.6816 63.1628C59.8848 63.1741 60.075 63.2584 60.2115 63.3975C60.3481 63.5366 60.4201 63.7195 60.4121 63.907Z" fill="#859B5B"/>
<path d="M62.7384 63.9134C62.7283 64.049 62.6752 64.1789 62.5857 64.287C62.4962 64.395 62.3742 64.4764 62.2349 64.5211C62.0957 64.5658 61.9452 64.5717 61.8023 64.5382C61.6594 64.5047 61.5303 64.4332 61.4311 64.3326C61.3319 64.232 61.267 64.1067 61.2444 63.9723C61.2218 63.838 61.2425 63.7005 61.3039 63.5769C61.3654 63.4533 61.4649 63.3491 61.5901 63.2772C61.7152 63.2054 61.8605 63.169 62.008 63.1726C62.2104 63.1839 62.4001 63.2677 62.5365 63.4061C62.673 63.5444 62.7454 63.7265 62.7384 63.9134Z" fill="#859B5B"/>
<path d="M65.0685 63.9234C65.0585 64.0583 65.0059 64.1876 64.9173 64.2954C64.8286 64.4031 64.7078 64.4847 64.5695 64.5299C64.4313 64.5751 64.2817 64.5821 64.1392 64.55C63.9967 64.5179 63.8675 64.448 63.7675 64.3491C63.6675 64.2501 63.601 64.1264 63.5763 63.9931C63.5516 63.8598 63.5697 63.7227 63.6284 63.5987C63.6871 63.4748 63.7838 63.3693 63.9066 63.2954C64.0295 63.2215 64.1731 63.1823 64.3198 63.1826C64.5255 63.1896 64.7198 63.2716 64.8601 63.4104C65.0004 63.5492 65.0754 63.7337 65.0685 63.9234Z" fill="#859B5B"/>
<path d="M67.3943 63.9338C67.4015 64.0287 67.3874 64.124 67.3529 64.2137C67.3185 64.3034 67.2644 64.3856 67.194 64.4552C67.1236 64.5248 67.0384 64.5803 66.9438 64.6182C66.8491 64.6561 66.747 64.6757 66.6438 64.6757C66.5406 64.6757 66.4385 64.6561 66.3438 64.6182C66.2492 64.5803 66.164 64.5248 66.0936 64.4552C66.0232 64.3856 65.9691 64.3034 65.9347 64.2137C65.9002 64.124 65.8861 64.0287 65.8933 63.9338C65.8861 63.8389 65.9002 63.7436 65.9347 63.6539C65.9691 63.5642 66.0232 63.482 66.0936 63.4124C66.164 63.3428 66.2492 63.2874 66.3438 63.2494C66.4385 63.2115 66.5406 63.1919 66.6438 63.1919C66.747 63.1919 66.8491 63.2115 66.9438 63.2494C67.0384 63.2874 67.1236 63.3428 67.194 63.4124C67.2644 63.482 67.3185 63.5642 67.3529 63.6539C67.3874 63.7436 67.4015 63.8389 67.3943 63.9338Z" fill="#859B5B"/>
<path d="M69.7208 63.9434C69.7108 64.0783 69.6583 64.2076 69.5696 64.3154C69.481 64.4232 69.3601 64.5047 69.2218 64.5499C69.0836 64.5951 68.934 64.6021 68.7915 64.57C68.649 64.5379 68.5198 64.468 68.4198 64.3691C68.3198 64.2701 68.2534 64.1464 68.2286 64.0131C68.2039 63.8798 68.222 63.7427 68.2807 63.6187C68.3394 63.4948 68.4361 63.3894 68.559 63.3154C68.6818 63.2415 68.8254 63.2023 68.9721 63.2026C69.1778 63.2097 69.3721 63.2916 69.5125 63.4304C69.6528 63.5692 69.7277 63.7537 69.7208 63.9434Z" fill="#859B5B"/>
<path d="M72.0471 63.9534C72.037 64.089 71.9839 64.219 71.8944 64.327C71.8049 64.435 71.6829 64.5165 71.5437 64.5611C71.4044 64.6058 71.2539 64.6117 71.111 64.5782C70.9681 64.5447 70.839 64.4732 70.7398 64.3726C70.6406 64.272 70.5757 64.1467 70.5531 64.0124C70.5305 63.878 70.5512 63.7405 70.6126 63.6169C70.6741 63.4934 70.7736 63.3891 70.8988 63.3173C71.0239 63.2454 71.1693 63.209 71.3167 63.2127C71.5191 63.224 71.7088 63.3077 71.8452 63.4461C71.9817 63.5845 72.0541 63.7665 72.0471 63.9534Z" fill="#859B5B"/>
<g opacity="0.2">
<path d="M53.4293 63.8762C53.4185 64.0116 53.3648 64.1412 53.2749 64.2488C53.185 64.3563 53.0629 64.4372 52.9236 64.4814C52.7843 64.5255 52.634 64.531 52.4913 64.4971C52.3487 64.4633 52.22 64.3916 52.1211 64.2909C52.0223 64.1902 51.9577 64.0649 51.9354 63.9307C51.913 63.7965 51.9339 63.6592 51.9954 63.5358C52.0569 63.4124 52.1564 63.3084 52.2814 63.2366C52.4065 63.1648 52.5516 63.1285 52.6989 63.1321C52.9023 63.1425 53.0931 63.2265 53.2298 63.3658C53.3666 63.5051 53.4382 63.6885 53.4293 63.8762Z" fill="white"/>
<path d="M55.7554 63.8864C55.7626 63.9814 55.7485 64.0766 55.714 64.1663C55.6796 64.256 55.6255 64.3382 55.5551 64.4078C55.4847 64.4774 55.3995 64.5329 55.3048 64.5708C55.2102 64.6088 55.1081 64.6284 55.0049 64.6284C54.9017 64.6284 54.7996 64.6088 54.7049 64.5708C54.6103 64.5329 54.5251 64.4774 54.4547 64.4078C54.3843 64.3382 54.3302 64.256 54.2957 64.1663C54.2613 64.0766 54.2472 63.9814 54.2544 63.8864C54.2472 63.7915 54.2613 63.6962 54.2957 63.6066C54.3302 63.5169 54.3843 63.4347 54.4547 63.3651C54.5251 63.2955 54.6103 63.24 54.7049 63.2021C54.7996 63.1641 54.9017 63.1445 55.0049 63.1445C55.1081 63.1445 55.2102 63.1641 55.3048 63.2021C55.3995 63.24 55.4847 63.2955 55.5551 63.3651C55.6255 63.4347 55.6796 63.5169 55.714 63.6066C55.7485 63.6962 55.7626 63.7915 55.7554 63.8864Z" fill="white"/>
<path d="M58.0858 63.8967C58.075 64.0321 58.0213 64.1617 57.9314 64.2693C57.8415 64.3768 57.7194 64.4577 57.5801 64.5019C57.4408 64.546 57.2905 64.5515 57.1478 64.5177C57.0052 64.4838 56.8765 64.4121 56.7776 64.3114C56.6788 64.2107 56.6142 64.0855 56.5918 63.9512C56.5695 63.817 56.5904 63.6797 56.6519 63.5563C56.7134 63.4329 56.8129 63.3289 56.9379 63.2571C57.063 63.1853 57.2081 63.149 57.3553 63.1526C57.5585 63.1639 57.7487 63.2481 57.8852 63.3872C58.0218 63.5263 58.0938 63.7092 58.0858 63.8967Z" fill="white"/>
<path d="M60.4121 63.907C60.4013 64.0424 60.3476 64.1719 60.2577 64.2795C60.1678 64.3871 60.0457 64.468 59.9064 64.5121C59.7671 64.5563 59.6168 64.5618 59.4741 64.5279C59.3315 64.494 59.2028 64.4223 59.1039 64.3216C59.0051 64.2209 58.9405 64.0957 58.9181 63.9615C58.8958 63.8273 58.9167 63.6899 58.9782 63.5665C59.0397 63.4431 59.1391 63.3391 59.2642 63.2674C59.3892 63.1956 59.5344 63.1592 59.6816 63.1628C59.8848 63.1741 60.075 63.2584 60.2115 63.3975C60.3481 63.5366 60.4201 63.7195 60.4121 63.907Z" fill="white"/>
<path d="M62.7384 63.9134C62.7283 64.049 62.6752 64.1789 62.5857 64.287C62.4962 64.395 62.3742 64.4764 62.2349 64.5211C62.0957 64.5658 61.9452 64.5717 61.8023 64.5382C61.6594 64.5047 61.5303 64.4332 61.4311 64.3326C61.3319 64.232 61.267 64.1067 61.2444 63.9723C61.2218 63.838 61.2425 63.7005 61.3039 63.5769C61.3654 63.4533 61.4649 63.3491 61.5901 63.2772C61.7152 63.2054 61.8605 63.169 62.008 63.1726C62.2104 63.1839 62.4001 63.2677 62.5365 63.4061C62.673 63.5444 62.7454 63.7265 62.7384 63.9134Z" fill="white"/>
<path d="M65.0685 63.9234C65.0585 64.0583 65.0059 64.1876 64.9173 64.2954C64.8286 64.4031 64.7078 64.4847 64.5695 64.5299C64.4313 64.5751 64.2817 64.5821 64.1392 64.55C63.9967 64.5179 63.8675 64.448 63.7675 64.3491C63.6675 64.2501 63.601 64.1264 63.5763 63.9931C63.5516 63.8598 63.5697 63.7227 63.6284 63.5987C63.6871 63.4748 63.7838 63.3693 63.9066 63.2954C64.0295 63.2215 64.1731 63.1823 64.3198 63.1826C64.5255 63.1896 64.7198 63.2716 64.8601 63.4104C65.0004 63.5492 65.0754 63.7337 65.0685 63.9234Z" fill="white"/>
<path d="M67.3943 63.9338C67.4015 64.0287 67.3874 64.124 67.3529 64.2137C67.3185 64.3034 67.2644 64.3856 67.194 64.4552C67.1236 64.5248 67.0384 64.5803 66.9438 64.6182C66.8491 64.6561 66.747 64.6757 66.6438 64.6757C66.5406 64.6757 66.4385 64.6561 66.3438 64.6182C66.2492 64.5803 66.164 64.5248 66.0936 64.4552C66.0232 64.3856 65.9691 64.3034 65.9347 64.2137C65.9002 64.124 65.8861 64.0287 65.8933 63.9338C65.8861 63.8389 65.9002 63.7436 65.9347 63.6539C65.9691 63.5642 66.0232 63.482 66.0936 63.4124C66.164 63.3428 66.2492 63.2874 66.3438 63.2494C66.4385 63.2115 66.5406 63.1919 66.6438 63.1919C66.747 63.1919 66.8491 63.2115 66.9438 63.2494C67.0384 63.2874 67.1236 63.3428 67.194 63.4124C67.2644 63.482 67.3185 63.5642 67.3529 63.6539C67.3874 63.7436 67.4015 63.8389 67.3943 63.9338Z" fill="white"/>
<path d="M69.7208 63.9434C69.7108 64.0783 69.6583 64.2076 69.5696 64.3154C69.481 64.4232 69.3601 64.5047 69.2218 64.5499C69.0836 64.5951 68.934 64.6021 68.7915 64.57C68.649 64.5379 68.5198 64.468 68.4198 64.3691C68.3198 64.2701 68.2534 64.1464 68.2286 64.0131C68.2039 63.8798 68.222 63.7427 68.2807 63.6187C68.3394 63.4948 68.4361 63.3894 68.559 63.3154C68.6818 63.2415 68.8254 63.2023 68.9721 63.2026C69.1778 63.2097 69.3721 63.2916 69.5125 63.4304C69.6528 63.5692 69.7277 63.7537 69.7208 63.9434Z" fill="white"/>
<path d="M72.0471 63.9544C72.037 64.09 71.9839 64.2199 71.8944 64.328C71.8049 64.436 71.6829 64.5174 71.5437 64.5621C71.4044 64.6068 71.2539 64.6127 71.111 64.5792C70.9681 64.5457 70.839 64.4742 70.7398 64.3736C70.6406 64.273 70.5757 64.1477 70.5531 64.0134C70.5305 63.879 70.5512 63.7415 70.6126 63.6179C70.6741 63.4943 70.7736 63.3901 70.8988 63.3182C71.0239 63.2464 71.1693 63.21 71.3167 63.2136C71.5191 63.2249 71.7088 63.3087 71.8452 63.4471C71.9817 63.5854 72.0541 63.7675 72.0471 63.9544Z" fill="white"/>
</g>
<path d="M76.5998 19.0311L59.366 18.959L59.3566 20.858L76.5904 20.9301L76.5998 19.0311Z" fill="#859B5B"/>
<path opacity="0.2" d="M76.5998 19.0311L59.366 18.959L59.3566 20.858L76.5904 20.9301L76.5998 19.0311Z" fill="white"/>
<path d="M13.2422 28.8726H13.0706L12.5739 28.9063C12.3051 28.9211 12.0378 28.9538 11.7741 29.0039C11.6033 29.026 11.4338 29.0564 11.2665 29.0948L10.7004 29.2396C9.73692 29.5121 8.82789 29.9272 8.00884 30.4686C6.92669 31.1927 6.02309 32.1199 5.35745 33.1891C4.96622 33.8055 4.65488 34.4621 4.42983 35.1454C4.19336 35.8881 4.05721 36.6548 4.02446 37.4282C4.00269 37.8345 4.01001 38.2417 4.04637 38.6471C4.04637 38.8525 4.10845 39.0579 4.13767 39.2667C4.16224 39.4771 4.20498 39.6854 4.26549 39.8896C4.59389 41.2407 5.26022 42.5023 6.21134 43.5739C7.16245 44.6455 8.37202 45.4973 9.74356 46.0614C10.7362 46.4563 11.8002 46.6767 12.8807 46.7112C13.9966 46.7678 15.1137 46.6202 16.1675 46.2768L16.4889 46.1657H16.5327L16.5692 46.1859L21.1745 48.3408L21.0393 48.4486C20.5463 47.0412 20.0716 45.6775 19.6114 44.3677V44.3172L19.6516 44.2802C20.7687 43.2428 21.5981 41.9723 22.0692 40.5764C22.496 39.3003 22.6205 37.9546 22.4344 36.6303C22.2689 35.4533 21.8584 34.3169 21.2256 33.2834C20.6801 32.3956 19.9764 31.5989 19.1439 30.9265C18.4572 30.3943 17.697 29.9482 16.8833 29.5999C16.2676 29.355 15.6264 29.1689 14.9696 29.0443L14.2392 28.9332L13.7097 28.8962L13.3883 28.876H13.2787C13.3152 28.8722 13.3519 28.8722 13.3883 28.876H13.7133L14.2429 28.8962L14.9733 28.9938C15.6382 29.1093 16.2882 29.2887 16.9125 29.5292C17.7402 29.8734 18.514 30.3184 19.2133 30.8524C20.0611 31.5218 20.7797 32.3187 21.3388 33.2093C21.9896 34.2539 22.4127 35.4057 22.5842 36.6C22.7857 37.9447 22.6698 39.3138 22.2445 40.6135C21.7703 42.0384 20.9281 43.3359 19.7903 44.3947L19.8123 44.3071C20.2724 45.6169 20.7508 46.9806 21.2475 48.3846L21.3169 48.59L21.1087 48.4924L16.5035 46.3408H16.5838L16.2552 46.4519C15.1811 46.8004 14.0433 46.9514 12.9062 46.8964C11.8025 46.8576 10.7162 46.6293 9.70339 46.223C7.77135 45.4601 6.1639 44.1342 5.12737 42.4485C4.65038 41.67 4.30204 40.8302 4.09384 39.9569C4.03683 39.7475 3.99414 39.5349 3.96602 39.3205C3.93681 39.1084 3.88933 38.8996 3.87837 38.6909C3.77953 37.4928 3.91688 36.2882 4.28375 35.1353C4.5144 34.4426 4.83442 33.7779 5.23694 33.1555C5.91845 32.0765 6.84088 31.1435 7.9431 30.4181C8.77563 29.8753 9.69994 29.4634 10.6785 29.1992L11.2519 29.0645C11.4206 29.0284 11.5913 29.0003 11.7631 28.9803C12.0296 28.9348 12.2994 28.9078 12.5702 28.8995L13.0706 28.8827C13.1275 28.8756 13.1848 28.8722 13.2422 28.8726Z" fill="#11401C"/>
<path d="M15.3239 36.7244H14.6483L13.1875 34.8321V33.5896C13.1875 33.5896 12.143 33.529 12.2671 35.1553C12.3913 36.7816 12.2671 36.3675 12.2671 36.3675C12.2671 36.3675 10.0503 36.3675 9.86775 36.5526C9.68514 36.7378 9.67418 38.7109 9.64862 39.8119C9.63463 40.0774 9.71723 40.3395 9.88331 40.5567C10.0494 40.7738 10.2894 40.9336 10.5653 41.0106C10.6426 41.0304 10.7224 41.0406 10.8027 41.0409C11.3578 41.0409 14.1808 40.6268 14.1808 40.6268H15.3458L15.3239 36.7244Z" fill="#11401C"/>
<path d="M17.2556 36.3911L16.8392 40.6471H15.6852V36.4787L17.2556 36.3911Z" fill="#11401C"/>
<path d="M31.0207 123.036V120.157L25.4221 120.12L25.3746 124.474L25.7216 124.497C27.2664 124.588 33.5808 124.723 34.618 124.427C35.772 124.097 31.0207 123.036 31.0207 123.036Z" fill="#263238"/>
<path d="M34.7494 124.157C34.7494 124.204 32.6531 124.244 30.0711 124.244C27.4891 124.244 25.3928 124.204 25.3928 124.157C25.3928 124.11 27.4891 124.069 30.0711 124.069C32.6531 124.069 34.7494 124.11 34.7494 124.157Z" fill="white"/>
<path d="M31.1192 123.625C31.0718 123.601 31.1192 123.45 31.2325 123.288C31.3457 123.127 31.4991 123.059 31.5356 123.093C31.5721 123.127 31.4954 123.255 31.3858 123.393C31.2763 123.531 31.1667 123.648 31.1192 123.625Z" fill="white"/>
<path d="M31.4772 123.813C31.4261 123.813 31.4516 123.625 31.5612 123.446C31.6708 123.268 31.8168 123.16 31.857 123.187C31.8972 123.214 31.8315 123.366 31.7292 123.524C31.6269 123.682 31.5247 123.83 31.4772 123.813Z" fill="white"/>
<path d="M27.0802 124.144C27.0583 124.144 26.9743 124.083 26.8538 123.955C26.7066 123.791 26.5428 123.64 26.3644 123.504C26.189 123.375 25.98 123.29 25.7581 123.258C25.5865 123.238 25.4769 123.258 25.466 123.238C25.455 123.218 25.5609 123.147 25.7618 123.134C26.0269 123.128 26.2855 123.209 26.4922 123.362C26.6859 123.508 26.8493 123.685 26.9743 123.884C27.0583 124.033 27.1021 124.13 27.0802 124.144Z" fill="white"/>
<path d="M31.1379 123.083C31.1634 123.123 31.0685 123.224 30.9078 123.278C30.7471 123.332 30.6047 123.312 30.5974 123.278C30.5901 123.244 30.7033 123.174 30.8421 123.126C30.9808 123.079 31.1087 123.042 31.1379 123.083Z" fill="white"/>
<path d="M31.05 122.803C31.05 122.854 30.9039 122.894 30.714 122.897C30.5241 122.901 30.3743 122.86 30.378 122.813C30.3816 122.766 30.5314 122.722 30.714 122.719C30.8966 122.716 31.0427 122.756 31.05 122.803Z" fill="white"/>
<path d="M44.8071 123.036V120.157L39.2085 120.12L39.161 124.43L39.508 124.454C41.0528 124.544 47.3708 124.723 48.4043 124.427C49.5584 124.097 44.8071 123.036 44.8071 123.036Z" fill="#263238"/>
<path d="M48.5362 124.163C48.5362 124.21 46.4436 124.251 43.858 124.251C41.2723 124.251 39.1833 124.21 39.1833 124.163C39.1833 124.116 41.276 124.076 43.858 124.076C46.44 124.076 48.5362 124.116 48.5362 124.163Z" fill="white"/>
<path d="M44.9059 123.625C44.8621 123.601 44.9059 123.45 45.0191 123.288C45.1323 123.127 45.2857 123.059 45.3222 123.093C45.3587 123.127 45.2821 123.255 45.1725 123.393C45.0629 123.531 44.9534 123.648 44.9059 123.625Z" fill="white"/>
<path d="M45.2638 123.813C45.2163 123.813 45.2382 123.625 45.3514 123.446C45.4646 123.268 45.6071 123.16 45.6472 123.187C45.6874 123.214 45.618 123.366 45.5158 123.524C45.4135 123.682 45.3149 123.83 45.2638 123.813Z" fill="white"/>
<path d="M40.8666 124.144C40.8447 124.144 40.7643 124.083 40.6401 123.955C40.493 123.791 40.3291 123.64 40.1508 123.504C39.9753 123.375 39.7664 123.29 39.5445 123.258C39.3765 123.238 39.2633 123.258 39.2524 123.238C39.2414 123.218 39.3473 123.147 39.5482 123.134C39.8133 123.128 40.0718 123.209 40.2786 123.362C40.4733 123.507 40.6368 123.684 40.7607 123.884C40.8447 124.033 40.8885 124.13 40.8666 124.144Z" fill="white"/>
<path d="M44.9244 123.083C44.9499 123.123 44.855 123.224 44.6943 123.278C44.5336 123.332 44.3912 123.312 44.3839 123.278C44.3766 123.244 44.4898 123.174 44.6286 123.126C44.7673 123.079 44.8952 123.042 44.9244 123.083Z" fill="white"/>
<path d="M44.8436 122.803C44.8436 122.854 44.6975 122.894 44.5076 122.897C44.3177 122.901 44.1716 122.86 44.1752 122.813C44.1789 122.766 44.325 122.722 44.5076 122.719C44.6902 122.716 44.8436 122.756 44.8436 122.803Z" fill="white"/>
<path d="M65.4337 37.5461C65.2876 37.4081 64.9261 37.4754 64.9261 37.4754C64.9623 37.2815 64.9623 37.0834 64.9261 36.8895C64.8603 36.701 64.4002 36.738 64.4002 36.738C64.379 36.5792 64.379 36.4187 64.4002 36.2599C64.4038 36.2247 64.3956 36.1893 64.3767 36.1586C64.3577 36.1278 64.3289 36.1033 64.2943 36.0882C64.0766 36.0063 63.8427 35.9673 63.6077 35.9737C63.3265 35.7885 64.4659 34.3171 64.8896 33.8457C65.3132 33.3743 65.2365 33.0073 64.8603 33.0073C64.601 33.0073 63.2717 34.4215 62.8627 34.8962C62.4536 35.371 61.369 36.6909 61.3325 35.637C61.2959 34.5831 60.8358 33.7885 60.5473 33.6538C60.2588 33.5191 59.952 33.8356 60.109 34.1285C60.247 34.4613 60.3331 34.8105 60.3647 35.1656C60.4043 35.4485 60.3907 35.7355 60.3245 36.0141C60.2034 36.5325 60.0386 37.0413 59.8315 37.536H59.8022C59.8022 37.536 51.8335 44.5832 51.2565 45.0849C50.7415 45.5361 40.3843 44.5496 38.3063 44.3475C37.6002 44.2523 36.8871 44.2072 36.1735 44.2129C35.2714 44.2499 35.1108 44.3677 34.2124 44.3778C31.9435 44.4011 29.6799 44.5845 27.4415 44.9267C26.4279 45.0855 25.4811 45.498 24.7044 46.1191C23.9277 46.7402 23.351 47.546 23.0371 48.4486C20.9445 54.4756 16.2041 68.7418 15.3678 76.7554C14.7358 77.812 14.1653 78.8988 13.6586 80.0113C13.0707 81.4861 13.2131 81.5366 13.4103 81.5702C13.9435 81.6611 14.5497 79.0146 14.7762 79.6544C15.0026 80.2941 13.6258 82.8093 14.1845 82.8834C14.9149 82.9777 15.4956 80.1897 15.565 79.9675C15.6344 79.7453 15.9959 79.816 15.9302 80.0248C15.8243 80.3211 14.7981 83.4625 15.5139 83.5635C15.9083 83.6174 15.9521 82.9541 15.9521 82.9541C15.9521 82.9541 16.6825 79.9473 17.0149 80.0079C17.3472 80.0685 16.9929 81.843 16.825 82.4356C16.657 83.0282 16.8907 83.3278 17.234 83.1831C17.4677 83.082 18.0265 81.2807 18.1799 80.6948C18.3333 80.1089 18.7167 78.486 19.2317 79.4254C19.7466 80.3648 20.5281 80.9103 20.8495 80.9238C20.9219 80.9161 20.9902 80.8886 21.0455 80.8448C21.1008 80.801 21.1407 80.743 21.1599 80.6782C21.1792 80.6134 21.1769 80.5447 21.1535 80.4811C21.1301 80.4174 21.0865 80.3617 21.0285 80.3211C20.752 80.0722 20.5148 79.7889 20.3236 79.4793C20.1533 79.2382 20.0297 78.9716 19.9584 78.6914C19.8112 78.1329 19.7256 77.5621 19.7028 76.9877L19.6443 76.651C20.4624 72.9169 22.818 61.9572 26.218 54.9571L27.6131 57.6036L28.2193 59.5632L24.5016 68.0246L40.3587 67.8327L37.9922 59.4353L40.8664 50.6809C43.9743 50.7449 51.954 50.8527 53.2833 50.2971C54.956 49.6237 63.6077 39.5495 63.6077 39.5495C64.1716 39.1455 64.7117 38.7139 65.2255 38.2565C65.2255 38.2565 65.7514 37.8491 65.4337 37.5461Z" fill="#FFBE9D"/>
<path d="M23.8041 61.7723C24.2643 60.3245 26.6272 53.1661 26.6272 53.1661C26.6272 53.1661 27.7885 59.0012 27.4818 59.7049C27.1996 60.3074 26.8662 60.8883 26.4847 61.4423C23.8041 65.2033 24.1547 67.0855 24.1547 67.0855L40.3516 66.6309C40.3881 64.5434 39.0478 59.6881 38.7702 58.9137C38.4927 58.1392 39.4166 55.6039 39.4166 55.6039C39.4166 55.6039 41.2427 53.89 41.1769 53.0079C41.1422 52.2155 41.036 51.4271 40.8592 50.6509L50.7197 50.9876L50.4093 44.8259L36.2467 43.5195C35.7536 44.8024 31.2945 44.1727 31.2945 44.1727C26.4811 44.3209 26.1816 45.1357 24.1803 46.5701C22.179 48.0044 18.8666 60.3144 18.8666 60.3144L23.8041 61.7723Z" fill="#A0B3A4"/>
<path d="M33.3798 60.3147C33.0992 60.3609 32.8133 60.3745 32.5289 60.3551C31.9994 60.3551 31.2726 60.3214 30.4728 60.2473C29.673 60.1732 28.9499 60.0689 28.435 59.9746C28.151 59.9409 27.8726 59.8753 27.606 59.7793C27.8915 59.7794 28.1764 59.8042 28.4569 59.8534C28.9755 59.914 29.6949 59.9982 30.4911 60.0722C31.2872 60.1463 32.0103 60.1968 32.5326 60.2305C32.8172 60.2338 33.1009 60.262 33.3798 60.3147Z" fill="#263238"/>
<path d="M34.4901 59.0449C34.2094 59.1717 33.9125 59.2656 33.6063 59.3244C32.1493 59.6774 30.6461 59.8417 29.1399 59.8126C28.8282 59.822 28.5165 59.7948 28.2123 59.7318C28.5199 59.696 28.8299 59.6814 29.1399 59.688C29.7133 59.6712 30.5021 59.6342 31.3713 59.5399C32.2405 59.4456 33.0147 59.3109 33.5625 59.2032C33.8668 59.1283 34.1769 59.0754 34.4901 59.0449Z" fill="#263238"/>
<path d="M39.9395 53.3818C39.9321 53.6385 39.8942 53.8937 39.8263 54.1428C39.7313 54.6108 39.5853 55.2505 39.399 55.9509C39.2128 56.6512 39.0338 57.2977 38.8731 57.7354C38.8085 57.986 38.7129 58.2289 38.5883 58.4593C38.6086 58.2034 38.6601 57.9504 38.7416 57.7051C38.8804 57.1799 39.0375 56.5738 39.2128 55.9105C39.3881 55.2472 39.556 54.6411 39.6948 54.1158C39.7443 53.863 39.8264 53.6166 39.9395 53.3818Z" fill="#263238"/>
<path d="M23.9758 60.9133C23.1309 60.7931 22.2971 60.6141 21.4814 60.378C20.648 60.1983 19.8301 59.962 19.0345 59.6709C19.879 59.7931 20.7127 59.9721 21.5289 60.2063C22.3625 60.3853 23.1804 60.6216 23.9758 60.9133Z" fill="#263238"/>
<path d="M41.0345 50.5764C40.8967 50.5983 40.7559 50.5983 40.6182 50.5764C40.2367 50.5403 39.8621 50.4577 39.5043 50.3306C38.9069 50.1237 38.363 49.8037 37.9076 49.3915C37.4523 48.9792 37.0955 48.4836 36.8602 47.9367C36.6002 47.335 36.4891 46.6873 36.5352 46.041C36.5515 45.5079 36.7244 44.9889 37.0355 44.5393C37.2543 44.2364 37.5812 44.0137 37.9595 43.9097C38.0606 43.884 38.1651 43.8715 38.2699 43.8726C38.3429 43.8726 38.3795 43.8726 38.3795 43.8726C38.3795 43.8726 38.2261 43.8726 37.9814 43.9635C37.6344 44.0817 37.3401 44.3033 37.1451 44.5932C36.6484 45.3137 36.5096 46.6302 37.0392 47.8592C37.2856 48.4387 37.6715 48.959 38.1676 49.3811C38.5742 49.7265 39.0425 50.0044 39.5518 50.2027C40.0297 50.3768 40.5269 50.5022 41.0345 50.5764Z" fill="#263238"/>
<path d="M49.5477 50.8666C49.4563 49.8341 49.427 48.7977 49.46 47.7622C49.4314 46.7275 49.4655 45.6923 49.5623 44.6611C49.6537 45.6925 49.6829 46.7278 49.6499 47.7622C49.6806 48.7979 49.6465 49.8345 49.5477 50.8666Z" fill="#263238"/>
<path d="M36.1515 43.8968C36.1917 43.146 36.2757 42.2975 36.2757 42.2975C36.2757 42.2975 38.2916 42.0921 38.4121 40.1729C38.5326 38.2536 38.4121 33.826 38.4121 33.826L34.7601 32.1021L30.7063 35.0415L31.3308 44.6376L35.0486 44.8564C35.3328 44.8637 35.6085 44.7667 35.8152 44.5868C36.022 44.4069 36.1429 44.1588 36.1515 43.8968Z" fill="#FFBE9D"/>
<path d="M36.5134 38.6539C36.5134 38.6539 36.5134 38.691 36.4805 38.7347C36.4533 38.7665 36.4182 38.7917 36.3781 38.8081C36.338 38.8245 36.2942 38.8317 36.2504 38.829C36.0167 38.829 35.7903 38.5799 35.7099 38.2903C35.6717 38.1499 35.6717 38.003 35.7099 37.8627C35.7174 37.8014 35.7414 37.7428 35.7796 37.6923C35.8179 37.6417 35.8693 37.6007 35.929 37.5731C35.9782 37.5544 36.0333 37.5544 36.0824 37.5731C36.1188 37.5898 36.1483 37.617 36.1664 37.6506C36.192 37.7078 36.1664 37.7448 36.1664 37.7415C36.1664 37.7381 36.1664 37.7078 36.1299 37.6741C36.1108 37.65 36.0827 37.6332 36.0511 37.627C36.0194 37.6208 35.9863 37.6256 35.9583 37.6405C35.9135 37.6654 35.8762 37.7004 35.8501 37.7422C35.8239 37.784 35.8096 37.8313 35.8085 37.8795C35.7778 38.0048 35.7778 38.1347 35.8085 38.26C35.8816 38.5226 36.0788 38.7347 36.2541 38.7549C36.2884 38.7592 36.3233 38.757 36.3566 38.7483C36.3899 38.7396 36.4209 38.7247 36.4476 38.7044C36.4914 38.6775 36.5061 38.6506 36.5134 38.6539Z" fill="#EB996E"/>
<path d="M39.665 32.7888C39.3838 31.9066 38.3649 31.4689 37.4372 31.2265C36.0239 30.8561 34.4973 30.6945 33.1169 31.1625C31.7364 31.6305 30.0784 32.4521 30.0784 33.8561C29.264 33.7955 28.7965 34.4521 28.4751 35.2669C28.2696 35.7633 28.1465 36.2855 28.1099 36.8158C28.0077 38.6542 27.4489 41.1929 26.1561 42.5397C25.4257 43.2906 24.414 43.8091 23.9977 44.7452C23.6325 45.5566 23.8224 46.5196 23.4828 47.3412C23.1796 48.0651 22.5113 48.5802 22.0219 49.2099C21.5234 49.9241 21.23 50.7436 21.1693 51.5911C21.1086 52.4387 21.2826 53.2865 21.675 54.055C22.0702 54.8038 22.6266 55.4706 23.3104 56.0148C23.9941 56.5589 24.7909 56.969 25.6521 57.2201C27.358 57.6986 29.1771 57.7149 30.8928 57.2672C32.1804 56.9833 33.3815 56.4342 34.406 55.6611C35.4543 54.8719 36.1743 53.7727 36.4439 52.55C36.7032 51.1762 36.2868 49.7789 35.9764 48.4119C35.005 44.092 35.2825 43.8664 36.5096 39.8562C36.5388 39.7855 36.5534 39.7114 36.5754 39.6407C36.5973 39.57 36.6082 39.5363 36.6228 39.4825C36.6577 39.3239 36.676 39.1627 36.6776 39.001C36.4984 39.0624 36.3039 39.0754 36.1169 39.0384C35.9299 39.0015 35.7583 38.916 35.6222 38.7922C35.4857 38.6602 35.3906 38.4966 35.3469 38.3187C35.3032 38.1409 35.3125 37.9555 35.3738 37.7821C35.46 37.5925 35.5884 37.4217 35.7507 37.2808C35.913 37.1398 36.1056 37.0319 36.3161 36.9639C36.7214 36.809 37.156 36.7282 37.5541 36.5565C38.3977 36.1861 38.9821 35.4184 39.3801 34.6137C39.7074 34.056 39.8084 33.409 39.665 32.7888Z" fill="#263238"/>
<path d="M36.6593 38.7446C36.7365 38.8497 36.8002 38.9627 36.8492 39.0813C36.9588 39.2935 37.1048 39.5931 37.2655 39.9399L37.2948 40.0039H37.2181L36.8529 40.0342C36.6009 40.0342 36.389 40.078 36.1407 40.0746C36.1191 40.0701 36.099 40.0607 36.0824 40.0471C36.0658 40.0336 36.0532 40.0164 36.0458 39.9972C36.0349 39.9665 36.0349 39.9335 36.0458 39.9029C36.0542 39.8575 36.0652 39.8126 36.0786 39.7682L36.1444 39.5292C36.1774 39.3697 36.2288 39.2139 36.2977 39.0645C36.2909 39.2271 36.2652 39.3885 36.2211 39.546L36.1699 39.785C36.1517 39.8659 36.1188 39.9904 36.1699 39.9803C36.3525 39.9803 36.6118 39.9433 36.8529 39.9298L37.2181 39.8995L37.1706 39.9736C37.0135 39.6369 36.8821 39.3204 36.8054 39.1015C36.7381 38.9898 36.6889 38.8695 36.6593 38.7446Z" fill="#FF725E"/>
<path d="M24.1549 67.0859L40.3517 66.6313L47.4002 91.9987L46.1037 121.097H37.5397L38.5878 92.6182L32.3245 74.958L33.2887 122.225L24.6333 122.342L23.724 77.9143C23.6838 76.6786 23.2455 73.8941 23.4099 72.6685L24.1549 67.0859Z" fill="white"/>
<path d="M34.4795 75.3176C34.2144 75.333 33.9482 75.3183 33.687 75.2738C33.1976 75.2199 32.5293 75.1257 31.7952 74.991C31.0612 74.8563 30.4038 74.7014 29.929 74.5768C29.6752 74.5254 29.4297 74.4439 29.1986 74.3344C29.1986 74.2839 30.3892 74.5465 31.85 74.8193C33.3108 75.092 34.4868 75.2671 34.4795 75.3176Z" fill="#455A64"/>
<path d="M46.0163 119.5C46.0163 119.547 44.0771 119.588 41.685 119.588C39.2929 119.588 37.35 119.547 37.35 119.5C37.35 119.453 39.2892 119.413 41.685 119.413C44.0807 119.413 46.0163 119.45 46.0163 119.5Z" fill="#455A64"/>
<path d="M33.2122 120.995C33.2122 121.046 31.3277 121.083 29.005 121.083C26.6823 121.083 24.8015 121.046 24.8015 120.995C24.8015 120.945 26.686 120.908 29.005 120.908C31.3241 120.908 33.2122 120.948 33.2122 120.995Z" fill="#455A64"/>
<path d="M32.0941 120.874C32.043 120.874 31.8165 110.547 31.5865 97.8098C31.3564 85.0722 31.2213 74.7388 31.2687 74.7388C31.3162 74.7388 31.5499 85.0621 31.7764 97.8064C32.0028 110.551 32.1489 120.874 32.0941 120.874Z" fill="#455A64"/>
<path d="M44.8657 119.501C44.8617 119.455 44.8617 119.409 44.8657 119.363V118.959C44.8657 118.595 44.895 118.073 44.9169 117.41C44.968 116.063 45.041 114.107 45.1323 111.709C45.3296 106.888 45.6071 100.241 45.9102 92.9044C45.9102 92.8337 45.9102 92.7664 45.9102 92.7058V92.7294C43.9929 85.6586 42.2582 79.241 40.9982 74.5978L39.5374 69.1062C39.3694 68.4631 39.2416 67.9614 39.1503 67.6112C39.1065 67.4462 39.0772 67.3183 39.0517 67.2206C39.0375 67.1768 39.0289 67.1316 39.0261 67.0859C39.0451 67.1284 39.0598 67.1723 39.0699 67.2172C39.0992 67.3115 39.1357 67.4395 39.1868 67.6011C39.2854 67.9378 39.4278 68.4496 39.6104 69.0893C39.9757 70.389 40.4906 72.2611 41.1334 74.5675C42.4043 79.2073 44.1572 85.6081 46.1001 92.689V92.7125C46.1001 92.7731 46.1001 92.8438 46.1001 92.9112C45.7751 100.248 45.4793 106.891 45.2638 111.713C45.1506 114.113 45.0556 116.056 44.9899 117.41C44.9534 118.083 44.9242 118.595 44.9059 118.959C44.9059 119.13 44.884 119.265 44.8804 119.363C44.8809 119.409 44.876 119.455 44.8657 119.501Z" fill="#455A64"/>
<path d="M42.0723 92.1128C41.4572 92.2993 40.8235 92.429 40.1805 92.5C39.3917 92.6246 38.7197 92.7121 38.4166 92.7256V92.6583C38.5152 92.6852 38.5663 92.702 38.5663 92.7155C38.5663 92.729 38.5042 92.7155 38.402 92.7155H38.1829L38.402 92.6549C38.6868 92.5774 39.3588 92.4495 40.1477 92.3182C40.7803 92.1916 41.425 92.1228 42.0723 92.1128Z" fill="#455A64"/>
<path d="M41.9219 93.0792C41.3522 93.1032 40.7814 93.0796 40.2164 93.0085C39.6459 92.9977 39.0776 92.9402 38.5182 92.8367C39.6595 92.7509 40.8084 92.8327 41.9219 93.0792Z" fill="#455A64"/>
<path opacity="0.2" d="M24.0857 67.6213C24.2775 67.8484 24.5191 68.0356 24.7947 68.1708C25.0704 68.306 25.3738 68.386 25.6853 68.4058C26.3376 68.477 26.9974 68.4657 27.6464 68.3721C31.828 67.9445 36.258 67.5506 40.3519 66.6313C35.0528 66.9041 29.4542 66.8132 24.1551 67.0859L24.1003 67.5034" fill="black"/>
<g opacity="0.2">
<path d="M29.5452 74.5063L32.5325 85.1934L32.3244 74.9575L29.5452 74.5063Z" fill="black"/>
</g>
<defs>
<linearGradient id="paint0_linear_1106_3331" x1="52.9108" y1="83.0671" x2="81.3744" y2="79.5444" gradientUnits="userSpaceOnUse">
<stop stop-color="#11401C"/>
<stop offset="0.5" stop-color="#1F7332"/>
<stop offset="1" stop-color="#859B5B"/>
</linearGradient>
</defs>
</svg>
