<svg width="160" height="42" viewBox="0 0 160 42" fill="none" xmlns="http://www.w3.org/2000/svg">
<g clip-path="url(#clip0_3039_6450)">
<path d="M29.5562 5.22079e-05C29.5733 0.00775727 29.5897 0.0196112 29.6074 0.0222784C30.1802 0.109701 30.6733 0.656761 30.7408 1.34814C30.7972 1.92602 30.6189 2.39514 30.2262 2.76113C30.1976 2.7878 30.1677 2.81299 30.1275 2.84855C30.1532 2.85656 30.1659 2.86367 30.1787 2.86396C30.2543 2.86604 30.3299 2.86485 30.4053 2.86811C30.5342 2.87374 30.6486 2.92649 30.7497 3.01599C31.0361 3.26996 31.0356 3.73138 30.7492 3.98476C30.6382 4.08285 30.5119 4.13352 30.3713 4.13767C30.3302 4.13886 30.2889 4.13797 30.2423 4.13797C30.226 4.18746 30.2262 4.23398 30.2252 4.28021C30.2192 4.57745 30.2135 4.87469 30.2072 5.17193C30.1924 5.86983 30.1771 6.56773 30.162 7.26563C30.1469 7.96353 30.1316 8.66143 30.1165 9.35933C30.1012 10.0658 30.0861 10.7723 30.0708 11.4788C30.0557 12.1726 30.0406 12.866 30.0256 13.5598C30.0113 14.2233 29.997 14.8868 29.9827 15.5501C29.9819 15.5844 29.9793 15.6185 29.9775 15.6535C29.9515 15.6834 29.9234 15.7009 29.887 15.6953C29.8829 15.6876 29.8761 15.681 29.8761 15.6742C29.8769 15.5364 29.8774 15.3986 29.8803 15.2608C29.8873 14.899 29.8956 14.5371 29.9034 14.175C29.9185 13.4812 29.9336 12.7878 29.9486 12.094C29.964 11.3917 29.979 10.6896 29.9941 9.9873C30.0092 9.2894 30.0243 8.59149 30.0396 7.89359C30.0547 7.19569 30.0695 6.49779 30.0851 5.79989C30.0963 5.2958 30.1087 4.79201 30.1202 4.28792C30.1212 4.24525 30.1204 4.20227 30.1204 4.15486C30.0331 4.1193 29.9473 4.14804 29.8595 4.13649C29.8395 4.18686 29.8405 4.23369 29.84 4.27992C29.8356 4.63761 29.8312 4.9953 29.8267 5.353C29.8197 5.90895 29.8122 6.4646 29.8049 7.02055C29.7953 7.78335 29.7859 8.54615 29.7763 9.30866C29.7688 9.89483 29.7612 10.4807 29.7534 11.0669C29.7459 11.6356 29.7384 12.2046 29.7308 12.7733C29.7233 13.3506 29.716 13.9281 29.708 14.5054C29.7025 14.8975 29.6965 15.2896 29.6905 15.6816C29.69 15.7116 29.6879 15.7415 29.6864 15.7791C29.4117 15.8965 29.1364 16.0141 28.8536 16.135C28.8479 16.111 28.8386 16.0885 28.838 16.0657C28.8323 15.8114 28.8289 15.5572 28.8235 15.3029C28.8087 14.6006 28.7933 13.8985 28.7783 13.1962C28.7632 12.4983 28.7481 11.8004 28.7328 11.1025C28.7177 10.4087 28.7026 9.71525 28.6876 9.0215C28.6725 8.32774 28.6574 7.63429 28.6423 6.94054C28.627 6.23404 28.6119 5.52755 28.5966 4.82105C28.5924 4.62724 28.5872 4.43343 28.582 4.23961C28.5812 4.21028 28.5784 4.18094 28.5763 4.14745C28.5267 4.13204 28.4814 4.13856 28.4373 4.13737C28.2966 4.13323 28.1701 4.08374 28.0591 3.98564C27.7701 3.7299 27.7745 3.25663 28.0687 3.00858C28.1714 2.92205 28.2865 2.87048 28.4154 2.86693C28.4981 2.86456 28.581 2.86663 28.66 2.86663C28.6761 2.82959 28.6551 2.8207 28.6408 2.80944C28.5222 2.7149 28.4178 2.60347 28.3304 2.4716C27.7441 1.58463 28.1345 0.284547 29.1302 0.0329469C29.1738 0.021982 29.2175 0.0110171 29.2612 -0.000244141C29.3594 5.22079e-05 29.4579 5.22079e-05 29.5562 5.22079e-05ZM30.0282 0.660021C30.0271 0.663577 30.0243 0.668022 30.0253 0.670096C30.0388 0.695879 30.0529 0.721365 30.0669 0.746851C30.1571 0.910139 30.2096 1.08706 30.2228 1.27998C30.2574 1.77725 30.0087 2.244 29.604 2.43337C29.3594 2.54776 29.1117 2.54717 28.8627 2.45056C28.8352 2.43989 28.8105 2.40966 28.7754 2.42744C28.9862 2.65563 29.4111 2.79343 29.7961 2.59666C30.1839 2.3984 30.3876 2.04841 30.4118 1.56774C30.4295 1.21627 30.2405 0.783894 30.0282 0.660021Z" fill="#11401C"/>
<path d="M48.7719 4.75962C48.7238 4.83815 48.6604 4.89831 48.5912 4.95047C48.442 5.06308 48.2822 5.14991 48.1088 5.20089C48.0511 5.21778 47.9895 5.22934 47.9303 5.22696C47.6205 5.21511 47.3109 5.19911 47.0014 5.18281C46.8389 5.17451 46.6767 5.16473 46.5145 5.15258C46.1374 5.12472 45.76 5.10042 45.3834 5.06486C44.8524 5.01478 44.323 4.94662 43.7959 4.85534C42.9803 4.71428 42.1805 4.49617 41.3956 4.20575C40.8209 3.99327 40.2447 3.78582 39.6794 3.54193C39.1097 3.29596 38.5605 3.0002 38.0209 2.67866C37.4616 2.34497 36.8895 2.0427 36.2949 1.79851C36.0066 1.68026 35.7147 1.57654 35.413 1.51342C35.1931 1.46749 34.9722 1.44141 34.7476 1.47075C34.4885 1.50453 34.2824 1.637 34.1314 1.8803C34.0409 2.0264 33.9804 2.18791 33.9354 2.35831C33.8754 2.5862 33.8447 2.82061 33.8226 3.05651C33.7984 3.31344 33.773 3.57067 33.7561 3.8285C33.7194 4.39067 33.4969 4.84734 33.1515 5.23526C32.8861 5.53339 32.5696 5.74083 32.2254 5.89553C31.9149 6.03511 31.5926 6.12431 31.2633 6.18476C30.9904 6.23485 30.7156 6.25944 30.4399 6.27456C30.4141 6.27604 30.3884 6.27485 30.3572 6.27485C30.3401 6.1978 30.3502 6.1249 30.3502 6.05318C30.3502 5.97999 30.352 5.90679 30.3531 5.83329C30.3544 5.7601 30.3549 5.6866 30.3572 5.6134C30.3598 5.5408 30.3645 5.46819 30.3686 5.38847C30.4404 5.37751 30.5069 5.36536 30.5737 5.35736C30.8674 5.32209 31.1572 5.26282 31.441 5.17036C31.6705 5.09568 31.8925 4.99848 32.0986 4.8592C32.2624 4.74866 32.4097 4.6153 32.5316 4.44668C32.6948 4.22086 32.7845 3.95918 32.823 3.67232C32.8627 3.37627 32.8542 3.07933 32.8344 2.78239C32.8123 2.45166 32.7845 2.12123 32.7661 1.78991C32.7533 1.56113 32.7697 1.33354 32.8214 1.11039C32.8609 0.939986 32.9347 0.792701 33.0429 0.665864C33.2713 0.397965 33.5466 0.229639 33.867 0.156737C34.1293 0.0971712 34.3931 0.10132 34.6572 0.141327C35.144 0.215414 35.6051 0.392927 36.057 0.603631C36.4841 0.802777 36.8981 1.03363 37.3031 1.28494C37.8242 1.60825 38.3419 1.93838 38.8607 2.26644C39.2043 2.48367 39.5471 2.70296 39.9035 2.89263C40.5239 3.22306 41.1651 3.49244 41.819 3.7227C42.5343 3.9746 43.261 4.17226 43.9976 4.32458C44.4215 4.4123 44.8472 4.48757 45.275 4.54418C45.6241 4.59041 45.9744 4.62449 46.3245 4.65827C47.0598 4.72969 47.7967 4.74421 48.534 4.73799C48.6133 4.7374 48.6928 4.73443 48.7721 4.73265C48.7719 4.74243 48.7719 4.75103 48.7719 4.75962Z" fill="#11401C"/>
<path d="M10 4.73388C10.3023 4.73536 10.6043 4.74158 10.9063 4.73714C11.2237 4.7324 11.5413 4.72262 11.8584 4.70543C12.1453 4.69002 12.4317 4.66483 12.7179 4.63786C12.9778 4.61327 13.2372 4.58393 13.4963 4.55014C13.7328 4.51903 13.9691 4.48584 14.2038 4.44138C14.5726 4.37174 14.9414 4.30032 15.3074 4.21438C16.5095 3.93226 17.6772 3.52418 18.7982 2.95016C19.1086 2.79131 19.4085 2.60817 19.7058 2.42029C20.241 2.08186 20.7743 1.73898 21.311 1.40381C21.7617 1.12228 22.2202 0.857937 22.6945 0.631823C23.047 0.463793 23.4062 0.318582 23.7786 0.219898C24.0333 0.152331 24.2912 0.110546 24.5534 0.114102C24.766 0.117065 24.975 0.150553 25.1764 0.232641C25.3976 0.322731 25.5873 0.46646 25.7542 0.653753C25.906 0.824449 25.984 1.03456 26.0172 1.27016C26.056 1.54458 26.0469 1.82018 26.0284 2.09549C26.0063 2.42621 25.9777 2.75664 25.9593 3.08766C25.9455 3.33363 25.9634 3.57812 26.0107 3.81964C26.083 4.18889 26.2571 4.48228 26.5176 4.71195C26.6956 4.86901 26.8944 4.98192 27.1042 5.07201C27.356 5.18018 27.6162 5.25338 27.8813 5.30198C28.0453 5.33191 28.2106 5.35295 28.3754 5.37784C28.3939 5.38051 28.412 5.38407 28.4339 5.38762C28.4557 5.4869 28.444 5.58618 28.4482 5.68397C28.4523 5.77851 28.4544 5.87334 28.457 5.96817C28.4596 6.06626 28.4666 6.16435 28.4593 6.26689C28.4396 6.27134 28.4253 6.27786 28.4113 6.27726C27.9343 6.25563 27.4621 6.19754 27 6.05322C26.6964 5.95839 26.4045 5.83037 26.1326 5.64723C25.7391 5.38229 25.4291 5.02786 25.2211 4.55992C25.1361 4.36848 25.0888 4.16578 25.0665 3.95537C25.0389 3.69459 25.0189 3.43261 24.9955 3.17123C24.9721 2.90956 24.9446 2.64877 24.8814 2.3948C24.8474 2.25759 24.804 2.12453 24.7424 2.00006C24.6844 1.88271 24.6132 1.77751 24.5235 1.68919C24.3993 1.5668 24.2527 1.50368 24.0926 1.47671C23.9075 1.4456 23.723 1.45745 23.539 1.48768C23.1442 1.55228 22.7671 1.69068 22.3951 1.84952C21.9668 2.03237 21.5494 2.24455 21.1403 2.47719C20.8767 2.62714 20.615 2.78154 20.3522 2.93327C19.7856 3.25984 19.1964 3.52656 18.5963 3.76304C17.9611 4.01346 17.3214 4.24846 16.6745 4.45709C16.2417 4.59667 15.802 4.70098 15.3588 4.78959C14.9531 4.87079 14.5453 4.93599 14.136 4.98578C13.764 5.03082 13.391 5.06757 13.0181 5.09868C12.5809 5.13514 12.1432 5.16388 11.7053 5.19144C11.4373 5.20833 11.1688 5.21515 10.9008 5.22878C10.8203 5.23293 10.7423 5.22048 10.6664 5.19292C10.5107 5.13662 10.3634 5.06046 10.2266 4.95792C10.1598 4.90784 10.0988 4.85034 10.0483 4.77952C10.0353 4.76114 10.0213 4.75018 10.0003 4.75966C10 4.75107 10 4.74247 10 4.73388Z" fill="#11401C"/>
<path d="M28.7785 20.6561C28.7785 20.8176 28.7785 20.9768 28.7785 21.1403C28.4755 21.335 28.1701 21.5312 27.86 21.7304C27.8558 21.7289 27.8436 21.7283 27.8345 21.7218C27.4985 21.4776 27.1834 21.2038 26.9207 20.8588C26.6972 20.5651 26.5269 20.2371 26.4458 19.856C26.3011 19.1764 26.4016 18.5479 26.7546 17.9745C26.8947 17.7472 27.0649 17.5519 27.2521 17.3749C27.5416 17.1011 27.8618 16.8815 28.1961 16.6874C28.6717 16.4112 29.1663 16.186 29.6703 15.9892C30.2384 15.7675 30.8097 15.5568 31.3797 15.3417C31.7742 15.1929 32.167 15.0382 32.5483 14.8489C32.7876 14.73 33.021 14.5985 33.2404 14.4358C33.3867 14.3273 33.5234 14.2055 33.6438 14.0606C33.8174 13.8517 33.9315 13.6101 33.9702 13.3227C34.0282 12.8912 33.8533 12.6076 33.6006 12.439C33.5328 12.3936 33.4564 12.3652 33.3836 12.3299C33.2882 12.2837 33.1918 12.2881 33.0961 12.3272C33.0145 12.3607 32.9345 12.3995 32.8526 12.4327C32.739 12.4793 32.6265 12.5326 32.5098 12.5658C32.2774 12.6316 32.0443 12.6197 31.8161 12.5368C31.6102 12.4618 31.4148 12.3589 31.23 12.2309C31.185 12.1998 31.1432 12.1619 31.1021 12.1242C31.0304 12.0584 31.0106 11.9704 31.0221 11.8694C31.0314 11.7858 31.0631 11.7129 31.1042 11.645C31.158 11.5555 31.2248 11.4788 31.2983 11.4109C31.5234 11.2026 31.7737 11.0452 32.0482 10.9377C32.1165 10.911 32.1867 10.8979 32.2587 10.8897C32.4661 10.8662 32.6735 10.8585 32.8817 10.8645C33.4436 10.8802 33.9489 11.0823 34.396 11.4699C34.653 11.6928 34.8547 11.9687 34.9886 12.3062C35.1016 12.591 35.1388 12.8921 35.1344 13.2012C35.1247 13.8683 34.9108 14.4429 34.5246 14.9384C34.2842 15.2469 34.0038 15.5008 33.7023 15.7267C33.3127 16.0183 32.8981 16.2568 32.4768 16.4815C32.0212 16.7245 31.5499 16.923 31.0792 17.123C30.5698 17.3397 30.0583 17.5507 29.5582 17.7952C29.3012 17.9208 29.0475 18.0548 28.8032 18.2101C28.6512 18.3067 28.5035 18.4113 28.366 18.5334C28.2735 18.6158 28.1872 18.7058 28.1105 18.8078C27.9338 19.0425 27.8847 19.3071 27.9585 19.6044C27.9983 19.7644 28.0648 19.9078 28.1534 20.0388C28.2816 20.2285 28.4399 20.3814 28.6096 20.5201C28.6647 20.5648 28.7203 20.609 28.7785 20.6561ZM31.0379 15.6861C30.9906 15.6618 30.9485 15.6899 30.9067 15.7056C30.6169 15.8161 30.3265 15.9255 30.0383 16.0417C29.5291 16.2467 29.0262 16.4693 28.5397 16.7381C28.213 16.9186 27.8956 17.1177 27.6016 17.3625C27.4057 17.5258 27.2237 17.7066 27.0727 17.925C26.9617 18.0853 26.8765 18.2613 26.8222 18.4566C26.7068 18.8709 26.6777 19.292 26.7463 19.7197C26.798 20.0424 26.9103 20.3367 27.0873 20.5971C27.1096 20.63 27.1348 20.6603 27.1637 20.6982C27.1785 20.6428 27.1504 20.6134 27.1367 20.5805C26.9911 20.2314 26.8892 19.869 26.8697 19.4796C26.8549 19.183 26.8887 18.8949 26.9818 18.6175C27.1276 18.1831 27.3711 17.8328 27.6978 17.5575C27.7919 17.4784 27.8901 17.4052 27.9899 17.3352C28.3346 17.0937 28.6953 16.8863 29.0595 16.6862C29.709 16.3291 30.372 16.0058 31.0343 15.6819C31.0371 15.6795 31.0403 15.6778 31.0429 15.6751C31.047 15.6706 31.0509 15.6656 31.0548 15.6609C31.0517 15.66 31.0483 15.6579 31.0452 15.6582C31.0423 15.6585 31.0374 15.6612 31.0371 15.6632C31.0366 15.6709 31.0374 15.6786 31.0379 15.6861ZM32.4802 11.3437C32.4778 11.2429 32.3962 11.1543 32.3089 11.1578C32.2202 11.1614 32.1433 11.2542 32.1459 11.3537C32.1488 11.456 32.2273 11.5401 32.3177 11.5375C32.4082 11.5348 32.4828 11.4456 32.4802 11.3437Z" fill="#11401C"/>
<path d="M30.0856 18.2518C30.0856 18.2166 30.0846 18.1822 30.0859 18.1481C30.0905 18.0109 30.0957 17.8734 30.1009 17.7303C30.5155 17.5382 30.9345 17.3687 31.3563 17.1992C31.4099 17.2452 31.4618 17.2878 31.5117 17.3335C31.7373 17.5394 31.9383 17.7718 32.0981 18.048C32.3346 18.4569 32.4404 18.9056 32.4219 19.3952C32.4025 19.9191 32.2322 20.374 31.9468 20.7782C31.7607 21.042 31.5403 21.2642 31.3025 21.4652C31.0104 21.7123 30.6993 21.9245 30.3785 22.1186C30.075 22.3023 29.7675 22.4775 29.4644 22.6624C29.2614 22.7863 29.0616 22.9173 28.8633 23.0509C28.7362 23.1363 28.6169 23.2361 28.51 23.3526C28.4555 23.4119 28.404 23.4756 28.3569 23.5426C28.2343 23.7171 28.1932 23.9166 28.2244 24.1373C28.2574 24.3703 28.3268 24.5869 28.4347 24.7878C28.5402 24.984 28.6696 25.158 28.8154 25.3156C28.8607 25.3645 28.8794 25.4146 28.8799 25.4839C28.8812 25.6647 28.8877 25.8452 28.8921 26.0215C28.6928 26.2227 28.4981 26.4192 28.2985 26.621C28.2896 26.616 28.2751 26.6112 28.2644 26.6015C27.9523 26.314 27.6513 26.0129 27.3898 25.6644C27.1996 25.411 27.0353 25.1384 26.9139 24.834C26.7871 24.5164 26.7169 24.1833 26.7102 23.8339C26.7047 23.5432 26.765 23.2705 26.8911 23.0168C26.9851 22.8278 27.1055 22.6627 27.2427 22.5127C27.4348 22.3029 27.6505 22.1293 27.8761 21.9701C28.1334 21.7885 28.4014 21.6296 28.6709 21.4738C28.9706 21.3004 29.2713 21.1291 29.5702 20.954C29.7685 20.8375 29.9603 20.7083 30.1444 20.5643C30.2912 20.4493 30.43 20.3233 30.5527 20.1754C30.6977 20.0003 30.8097 19.8041 30.8583 19.5659C30.9121 19.3024 30.8755 19.0621 30.7255 18.8472C30.628 18.7076 30.5134 18.5897 30.3868 18.4866C30.3071 18.4214 30.2234 18.3621 30.142 18.2999C30.1233 18.2853 30.1059 18.269 30.0856 18.2518ZM31.6505 18.0032C31.6505 18.0311 31.6492 18.0358 31.6508 18.0391C31.6557 18.0506 31.6612 18.0619 31.6672 18.0726C31.8452 18.3849 31.951 18.7278 31.9947 19.0958C32.0235 19.3389 32.0097 19.5768 31.9346 19.8089C31.8392 20.104 31.6934 20.3636 31.5125 20.5992C31.3524 20.8076 31.1731 20.9919 30.9831 21.1635C30.7039 21.4154 30.4074 21.6379 30.1038 21.8492C29.8072 22.0558 29.506 22.2543 29.2102 22.4624C28.9625 22.6366 28.7198 22.8192 28.4749 22.9988C28.4521 23.0157 28.4321 23.0373 28.4107 23.0568C28.4347 23.0622 28.451 23.0551 28.4664 23.0453C29.046 22.6737 29.6261 22.3032 30.2044 21.9286C30.4705 21.7562 30.7304 21.5718 30.9813 21.3709C31.2043 21.1922 31.4171 20.9993 31.6069 20.775C31.8109 20.5334 31.9762 20.2629 32.088 19.9514C32.1516 19.7739 32.1828 19.5884 32.1857 19.3972C32.1904 19.0932 32.1238 18.8084 32.0017 18.5399C31.9125 18.3437 31.7995 18.1671 31.6505 18.0032ZM28.1191 26.2097C28.0898 26.1371 28.0599 26.0998 28.0326 26.0609C27.9021 25.8763 27.769 25.6943 27.6406 25.5079C27.5003 25.3041 27.3755 25.0886 27.2791 24.853C27.074 24.3525 27.048 23.8425 27.2123 23.3209C27.2791 23.1084 27.3706 22.9113 27.4907 22.7318C27.5011 22.716 27.5286 22.7018 27.5065 22.6671C27.4174 22.7457 27.3407 22.834 27.2742 22.9336C27.0439 23.2791 26.9352 23.6697 26.9412 24.1027C26.9446 24.3525 26.9955 24.5881 27.0977 24.81C27.1699 24.9668 27.2495 25.1179 27.3402 25.2614C27.5512 25.5951 27.8007 25.8888 28.0656 26.1664C28.0752 26.1768 28.0872 26.1842 28.1191 26.2097Z" fill="#11401C"/>
<path d="M28.6673 15.8956C28.6673 16.0411 28.6673 16.1706 28.6673 16.3093C28.2376 16.5339 27.8179 16.7846 27.4218 17.0917C27.2425 17.0122 27.0652 16.9355 26.8892 16.8549C26.3811 16.6219 25.887 16.3549 25.4119 16.0444C25.0548 15.8108 24.7169 15.5459 24.4206 15.2175C24.1363 14.9025 23.9086 14.5434 23.7742 14.1136C23.6383 13.6795 23.6073 13.2329 23.6778 12.7813C23.7438 12.3578 23.933 12.0054 24.2041 11.7106C24.5305 11.3555 24.9191 11.1276 25.355 11.0044C25.5811 10.9403 25.8122 10.916 26.0448 10.9229C26.2233 10.9279 26.4016 10.9389 26.5797 10.9561C26.6504 10.9629 26.7216 10.9872 26.7889 11.015C27.0226 11.1113 27.2391 11.2459 27.4374 11.4169C27.5317 11.4981 27.6193 11.5882 27.6882 11.6987C27.7417 11.7846 27.7805 11.8765 27.7802 11.9865C27.7802 12.0659 27.7563 12.1302 27.7056 12.182C27.683 12.2052 27.6601 12.2283 27.6349 12.2472C27.3987 12.4256 27.145 12.5623 26.8692 12.6381C26.6353 12.7021 26.4009 12.6879 26.1724 12.6002C26.0718 12.5617 25.9733 12.5154 25.8743 12.4713C25.7823 12.4301 25.6913 12.3853 25.5928 12.3693C25.5632 12.3646 25.5317 12.3616 25.5029 12.3684C25.3129 12.4135 25.1426 12.5045 25.0057 12.6651C24.8723 12.8213 24.8032 13.0062 24.8048 13.227C24.8066 13.4913 24.8736 13.7302 25.0049 13.9465C25.1055 14.1122 25.2313 14.2497 25.3703 14.3724C25.5637 14.5425 25.7753 14.6788 25.9944 14.8C26.3881 15.0178 26.798 15.1897 27.2126 15.347C27.6521 15.5139 28.0926 15.6763 28.5329 15.8411C28.5755 15.8577 28.6179 15.8757 28.6673 15.8956ZM26.6444 11.4154C26.6465 11.3111 26.5737 11.2231 26.4827 11.2198C26.3938 11.2165 26.3159 11.3031 26.3141 11.4071C26.3122 11.5129 26.384 11.5991 26.4755 11.6012C26.5672 11.6036 26.6423 11.5206 26.6444 11.4154Z" fill="#11401C"/>
<path d="M28.9942 30.7741C28.8978 30.8804 28.8024 30.983 28.705 31.0864C28.686 31.0701 28.673 31.0612 28.6626 31.0497C28.4396 30.8028 28.2345 30.5382 28.0606 30.2439C27.8753 29.9304 27.7337 29.5937 27.6638 29.2221C27.533 28.528 27.6344 27.8867 28.0024 27.3071C28.1766 27.0327 28.3845 26.7944 28.6137 26.5819C28.8453 26.3674 29.0831 26.1611 29.3202 25.9539C29.5453 25.7572 29.7706 25.561 29.9754 25.3367C30.1038 25.1959 30.2223 25.0453 30.3229 24.8773C30.4659 24.6385 30.5573 24.378 30.5888 24.089C30.6062 23.9278 30.5789 23.7808 30.5098 23.6418C30.457 23.5357 30.3892 23.4427 30.3084 23.3639C30.2078 23.2661 30.1028 23.1745 29.9946 23.0755C29.9806 22.9988 29.9801 22.783 29.9954 22.5972C30.3065 22.3945 30.6179 22.1915 30.9337 21.9858C30.9392 21.9873 30.9516 21.9867 30.9607 21.993C31.2191 22.1746 31.4624 22.3782 31.6695 22.6334C31.8041 22.799 31.9151 22.9825 31.9928 23.1914C32.0942 23.4646 32.116 23.7488 32.0877 24.0407C32.0427 24.5054 31.8899 24.9227 31.6604 25.3061C31.4847 25.5995 31.276 25.86 31.0499 26.103C30.791 26.3813 30.5126 26.6332 30.2327 26.883C29.9767 27.1115 29.7215 27.3412 29.4691 27.5744C29.3223 27.7101 29.1863 27.8604 29.0623 28.0239C28.9729 28.1416 28.8929 28.2669 28.8331 28.4074C28.7728 28.5488 28.7416 28.6972 28.7369 28.8555C28.7265 29.1957 28.7933 29.5143 28.9339 29.8127C28.9636 29.8755 28.9779 29.9381 28.9789 30.0095C28.9818 30.2637 28.9888 30.5177 28.9942 30.7741ZM29.6287 27.1669C29.6513 27.1524 29.6755 27.1399 29.6965 27.1227C29.9572 26.9088 30.2122 26.6865 30.4578 26.4506C30.7268 26.1925 30.9849 25.9211 31.2173 25.6194C31.4023 25.379 31.5684 25.1236 31.6973 24.8385C31.7493 24.7235 31.7974 24.6067 31.8241 24.4802C31.9117 24.0668 31.8709 23.6679 31.7186 23.2824C31.6323 23.0637 31.512 22.8722 31.3524 22.7146C31.3407 22.703 31.328 22.679 31.3022 22.7024C31.3147 22.7235 31.3262 22.7448 31.3392 22.7649C31.5138 23.0373 31.6245 23.3407 31.6781 23.6721C31.7256 23.9666 31.71 24.2538 31.6082 24.5338C31.5208 24.7736 31.4143 25.0003 31.2867 25.2149C31.099 25.5296 30.8794 25.8135 30.6455 26.0835C30.364 26.4088 30.0635 26.7105 29.7594 27.0078C29.7111 27.0549 29.6659 27.1064 29.6193 27.1562C29.5887 27.169 29.5642 27.1894 29.5419 27.2333C29.5853 27.2185 29.611 27.1992 29.6287 27.1669ZM28.4523 30.4499C28.3962 30.3449 28.3497 30.2634 28.3086 30.1787C28.2668 30.0922 28.227 30.0041 28.1919 29.9141C28.1566 29.824 28.1259 29.7312 28.097 29.6382C28.0682 29.5451 28.0417 29.4509 28.0183 29.3557C27.9941 29.2565 27.971 29.1563 27.9549 29.0549C27.9393 28.958 27.9297 28.8591 27.9242 28.7607C27.9187 28.662 27.9185 28.5627 27.9219 28.464C27.9252 28.3653 27.9367 28.2672 27.9426 28.1686C27.9484 28.0746 27.9783 27.9842 27.9837 27.8636C27.9245 27.9605 27.8998 28.0459 27.8787 28.1324C27.8085 28.4219 27.7948 28.7174 27.8184 29.0152C27.8348 29.2215 27.8727 29.4227 27.9452 29.6144C28.0588 29.9138 28.2189 30.1778 28.4079 30.4205C28.4133 30.4276 28.4232 30.4309 28.4523 30.4499Z" fill="#11401C"/>
<path d="M29.3038 34.1518C29.1785 34.3447 29.0574 34.5314 28.9324 34.7237C28.921 34.7157 28.9069 34.7104 28.8981 34.6994C28.7167 34.468 28.5389 34.233 28.3905 33.9719C28.2603 33.7425 28.1571 33.4998 28.1007 33.2325C27.9998 32.7545 28.0635 32.31 28.3003 31.8975C28.423 31.6835 28.5683 31.4912 28.7255 31.3104C28.9093 31.0994 29.0964 30.8925 29.2809 30.6824C29.4254 30.518 29.5627 30.3458 29.6843 30.1582C29.8338 29.9276 29.9538 29.6802 30.0188 29.4013C30.062 29.2167 30.0802 29.0288 30.0729 28.8383C30.0656 28.64 30.0126 28.4572 29.9182 28.2912C29.8837 28.2304 29.8688 28.1697 29.8712 28.0977C29.8782 27.8953 29.8813 27.6929 29.885 27.4905C29.8857 27.4451 29.8935 27.4078 29.9273 27.3773C30.1082 27.2143 30.2876 27.0495 30.4721 26.8815C30.4942 26.9025 30.516 26.9182 30.5324 26.9396C30.6213 27.0566 30.7146 27.1704 30.7959 27.2943C31.0824 27.7311 31.216 28.223 31.1962 28.7698C31.1817 29.169 31.0886 29.5421 30.9295 29.8956C30.8011 30.181 30.6371 30.4385 30.4534 30.6804C30.2873 30.8988 30.1077 31.1024 29.9208 31.2974C29.6866 31.5418 29.4504 31.7837 29.2175 32.0296C29.1484 32.1025 29.0837 32.1823 29.0234 32.2646C28.9703 32.3369 28.9225 32.4155 28.8788 32.4955C28.8193 32.6043 28.798 32.7243 28.8017 32.8535C28.8087 33.095 28.8643 33.3205 28.9553 33.5366C29.0309 33.7159 29.1281 33.88 29.2323 34.0392C29.2568 34.0762 29.2804 34.1147 29.3038 34.1518ZM28.318 32.425C28.2738 32.4282 28.2795 32.4742 28.2727 32.5023C28.2124 32.7554 28.1963 33.0126 28.2467 33.269C28.3115 33.5985 28.4645 33.8771 28.6574 34.1299C28.6707 34.0949 28.6452 34.0738 28.6345 34.0487C28.5755 33.9094 28.5095 33.7733 28.4562 33.6311C28.3115 33.2438 28.2413 32.8434 28.3148 32.4211C28.3185 32.4066 28.3221 32.3924 28.3255 32.3778C28.3096 32.3918 28.3089 32.4081 28.318 32.425ZM30.8251 27.8926C30.8308 27.9347 30.8344 27.9679 30.8399 28.0005C30.8973 28.3428 30.9007 28.6848 30.8362 29.0261C30.7346 29.5664 30.5311 30.0506 30.22 30.475C30.1498 30.5707 30.0778 30.6652 30.0019 30.7547C29.847 30.9373 29.6887 31.116 29.532 31.2965C29.4878 31.3471 29.4439 31.3981 29.4 31.4488C29.4205 31.4532 29.4322 31.4458 29.4426 31.4361C29.7259 31.1711 30.0037 30.8991 30.2584 30.5986C30.4321 30.3938 30.5914 30.176 30.7203 29.9309C30.8178 29.7457 30.8986 29.5522 30.9428 29.3406C31.0086 29.0267 31.0156 28.7099 30.9779 28.3917C30.9623 28.2595 30.9373 28.1285 30.8921 28.0046C30.8783 27.9667 30.8718 27.9211 30.8251 27.8926Z" fill="#11401C"/>
<path d="M41.1975 5.46558C41.2948 5.45462 41.3925 5.44691 41.4892 5.4318C41.6472 5.4075 41.8005 5.35979 41.9422 5.27503C42.0085 5.23532 42.0708 5.18524 42.1293 5.1313C42.1636 5.09989 42.1909 5.05514 42.213 5.01069C42.2556 4.92445 42.2494 4.83703 42.2011 4.75435C42.1647 4.69211 42.114 4.64737 42.0597 4.60766C42.0295 4.58543 41.9989 4.56409 41.9726 4.53149C42.0924 4.56706 42.2122 4.60232 42.3321 4.63788C42.7635 4.76561 43.2007 4.86281 43.6404 4.9449C44.0134 5.01454 44.3877 5.06996 44.7633 5.1156C45.0486 5.15027 45.3348 5.17813 45.6212 5.20213C46.0319 5.23651 46.4428 5.26614 46.854 5.29489C47.0575 5.30911 47.2615 5.31682 47.4653 5.32778C47.5952 5.3349 47.7187 5.37312 47.8357 5.43595C47.8694 5.45403 47.9019 5.47833 47.9297 5.50648C47.9937 5.57138 48.0043 5.65436 47.9625 5.74C47.9305 5.8052 47.883 5.85439 47.8312 5.89855C47.752 5.96612 47.6636 6.01442 47.5716 6.05443C47.4227 6.11933 47.2672 6.15548 47.1102 6.18186C46.7581 6.24083 46.4038 6.26039 46.0483 6.26306C45.655 6.26602 45.262 6.25802 44.8698 6.22898C44.5306 6.20379 44.1917 6.17149 43.8533 6.13504C43.5903 6.10688 43.3275 6.07073 43.0655 6.03191C42.6263 5.9673 42.1969 5.85054 41.7735 5.70444C41.6001 5.64458 41.4291 5.57583 41.2573 5.51063C41.2365 5.50263 41.2168 5.49137 41.1965 5.48159C41.1968 5.47625 41.1973 5.47092 41.1975 5.46558Z" fill="#11401C"/>
<path d="M16.7325 4.57324C16.7283 4.58361 16.727 4.59814 16.72 4.60377C16.6862 4.63162 16.6493 4.65474 16.6168 4.68437C16.4642 4.82395 16.4559 4.99435 16.5983 5.14905C16.6472 5.20209 16.7057 5.24536 16.7642 5.28477C16.8728 5.35827 16.9926 5.40183 17.1153 5.43295C17.2414 5.46495 17.369 5.48718 17.4989 5.48748C17.5161 5.48748 17.5332 5.49074 17.5774 5.49489C17.5379 5.51682 17.5228 5.52748 17.5065 5.5343C16.9334 5.76782 16.3486 5.95245 15.7461 6.05439C15.4646 6.1021 15.1811 6.13559 14.8977 6.167C14.569 6.20316 14.2397 6.23546 13.9098 6.25976C13.3749 6.29888 12.8395 6.31162 12.3038 6.28851C12.0231 6.27636 11.7427 6.25057 11.4659 6.19042C11.3162 6.15782 11.1701 6.11248 11.0321 6.0372C10.9424 5.98831 10.8587 5.92904 10.7909 5.84458C10.6778 5.70352 10.694 5.57935 10.8403 5.48511C10.9611 5.40717 11.0937 5.36716 11.2312 5.35827C11.561 5.33693 11.8916 5.32449 12.2215 5.30107C12.5968 5.2744 12.9718 5.24358 13.3463 5.20743C13.6754 5.17542 14.0044 5.13867 14.3324 5.09482C14.7849 5.03406 15.2349 4.95346 15.6819 4.85151C16.0094 4.77683 16.3345 4.6906 16.6566 4.58895C16.6818 4.58095 16.7088 4.58035 16.7348 4.57621L16.7325 4.57324Z" fill="#11401C"/>
<path d="M40.6 6.31373C40.6445 6.30484 40.6889 6.29595 40.7334 6.28706C40.8272 6.26839 40.9176 6.23786 41 6.18274C41.0419 6.15459 41.0835 6.12199 41.1172 6.08287C41.2038 5.98241 41.2077 5.86861 41.1331 5.75719C41.1149 5.72992 41.0926 5.70592 41.0707 5.68251C41.0549 5.66562 41.0364 5.65198 41.0297 5.61938C41.0577 5.62857 41.0863 5.63657 41.1141 5.64724C41.6812 5.86417 42.2608 6.02153 42.8503 6.13562C43.2529 6.21356 43.6573 6.27194 44.0638 6.3158C44.6362 6.37774 45.2098 6.41064 45.7845 6.42456C45.9734 6.42931 46.1624 6.43464 46.3513 6.43731C46.4779 6.43909 46.5995 6.46694 46.7152 6.52384C46.8529 6.5917 46.8776 6.68328 46.802 6.83323C46.7485 6.93962 46.6728 7.02408 46.5876 7.09698C46.369 7.28309 46.1203 7.37851 45.8505 7.39451C45.4653 7.41733 45.0793 7.41644 44.6941 7.39125C44.211 7.35954 43.7309 7.29375 43.254 7.19774C42.3807 7.022 41.5321 6.74818 40.705 6.38456C40.6702 6.36915 40.6367 6.35107 40.6024 6.33418C40.6013 6.32736 40.6005 6.32055 40.6 6.31373Z" fill="#11401C"/>
<path d="M17.6941 5.6698C17.69 5.68106 17.6881 5.69439 17.6814 5.70299C17.6637 5.72551 17.6427 5.74477 17.6255 5.76759C17.528 5.89828 17.5343 6.03104 17.6505 6.14218C17.6991 6.1887 17.7568 6.22723 17.8155 6.25479C17.8815 6.2859 17.953 6.3028 18.0227 6.32265C18.0629 6.33421 18.1045 6.33925 18.1562 6.34932C18.1321 6.38311 18.1045 6.39081 18.0793 6.40207C17.6058 6.61485 17.1226 6.79444 16.6311 6.94558C16.1396 7.09671 15.6419 7.21585 15.1384 7.30149C14.8268 7.35454 14.5133 7.39247 14.1986 7.41855C13.7658 7.45441 13.3331 7.45441 12.9001 7.43752C12.6727 7.42862 12.458 7.36195 12.2586 7.23481C12.1445 7.16221 12.0426 7.07241 11.9626 6.95447C11.9304 6.90705 11.9012 6.8543 11.8825 6.79888C11.8513 6.70613 11.8745 6.64034 11.9491 6.58877C11.9813 6.56655 12.0164 6.54788 12.0523 6.53484C12.1539 6.4975 12.2576 6.47468 12.3652 6.4726C12.707 6.46579 13.049 6.46134 13.3905 6.44564C13.7167 6.43052 14.0432 6.4077 14.3686 6.37748C14.6901 6.34754 15.0119 6.31228 15.3318 6.26516C16.0824 6.15433 16.8208 5.97829 17.5421 5.71306C17.5917 5.69469 17.639 5.6615 17.6946 5.67098L17.6941 5.6698Z" fill="#11401C"/>
<path d="M39.2241 6.88304C39.2773 6.88749 39.3028 6.88867 39.3278 6.89223C39.4998 6.91534 39.6677 6.89163 39.8299 6.82703C39.8933 6.80184 39.9534 6.76302 40.0108 6.72212C40.0451 6.69782 40.0753 6.66167 40.1 6.62433C40.1434 6.55884 40.1579 6.48504 40.1291 6.40533C40.1207 6.38221 40.1132 6.3588 40.1054 6.33509C40.1322 6.3179 40.1512 6.33806 40.1694 6.34695C41.0263 6.76598 41.9159 7.06204 42.8288 7.27363C43.2766 7.37735 43.727 7.46448 44.18 7.53264C44.3336 7.55575 44.487 7.57857 44.6403 7.60435C44.6887 7.61235 44.7365 7.62688 44.7828 7.64436C44.8145 7.65651 44.8457 7.67518 44.8727 7.6977C44.947 7.75994 44.9611 7.84528 44.9148 7.93626C44.8797 8.00502 44.8277 8.05451 44.7708 8.09807C44.6281 8.20713 44.4706 8.27825 44.3053 8.32833C44.1215 8.38405 43.9339 8.40598 43.7442 8.40005C43.4003 8.38908 43.0575 8.35915 42.7175 8.2984C42.2806 8.22017 41.8507 8.10577 41.4276 7.95849C40.6996 7.70481 40.002 7.36727 39.3311 6.95772C39.3023 6.94024 39.2753 6.9189 39.2241 6.88304Z" fill="#11401C"/>
<path d="M18.6444 6.36353C18.6397 6.38308 18.6386 6.39138 18.6358 6.39938C18.5861 6.54489 18.6041 6.6332 18.707 6.73307C18.7896 6.81338 18.8876 6.86109 18.9913 6.89073C19.1395 6.93311 19.29 6.95356 19.4431 6.92748C19.4605 6.92451 19.4784 6.9254 19.5075 6.92362C19.4781 6.97193 19.4405 6.98438 19.4085 7.00393C19.034 7.2342 18.6488 7.43927 18.2545 7.62152C17.6658 7.89357 17.0623 8.10961 16.4395 8.2566C15.9548 8.37099 15.4651 8.43471 14.9703 8.44656C14.6898 8.45338 14.4182 8.40063 14.1599 8.27112C14.0692 8.22578 13.9818 8.17362 13.9044 8.1022C13.8597 8.06101 13.8191 8.01537 13.796 7.95403C13.7669 7.87698 13.7773 7.80674 13.8352 7.75577C13.8734 7.72199 13.9187 7.69354 13.9647 7.67813C14.0333 7.65472 14.1053 7.64168 14.1765 7.63012C14.4658 7.5827 14.7561 7.5424 15.0449 7.49113C16.249 7.27628 17.4249 6.94289 18.5495 6.39672C18.5705 6.38664 18.5913 6.37656 18.6129 6.36767C18.6197 6.36471 18.6272 6.3656 18.6444 6.36353Z" fill="#11401C"/>
<path d="M23.762 1.58521C23.7999 1.58728 23.8361 1.58935 23.88 1.59202C23.8644 1.64981 23.8337 1.68359 23.8098 1.72093C23.5013 2.19983 23.173 2.66065 22.8297 3.10755C22.24 3.8745 21.6094 4.59522 20.9508 5.28452C20.91 5.3272 20.8694 5.37047 20.8258 5.4167C20.8619 5.43477 20.8752 5.40692 20.8918 5.39328C21.1917 5.14761 21.4743 4.87734 21.7466 4.59374C22.583 3.72306 23.3383 2.76882 24.0159 1.73397C24.0365 1.70286 24.0567 1.67144 24.0778 1.64062C24.0822 1.63381 24.0884 1.62877 24.1009 1.61543C24.1243 1.62106 24.1534 1.6261 24.1815 1.63529C24.2103 1.64477 24.2381 1.65811 24.2665 1.66996C24.2745 1.71856 24.2452 1.74553 24.2272 1.77576C23.9975 2.16397 23.7532 2.54004 23.4979 2.90692C23.0652 3.52925 22.6043 4.12284 22.1103 4.68264C21.7082 5.13842 21.2895 5.57287 20.8328 5.95783C20.5082 6.23136 20.1669 6.47436 19.8072 6.68359C19.5707 6.82109 19.3222 6.84954 19.0644 6.78968C18.982 6.77071 18.9035 6.73811 18.8305 6.68981C18.6774 6.58816 18.6719 6.47318 18.8146 6.3493C18.8447 6.32323 18.8775 6.30041 18.9108 6.27996C20.1175 5.5382 21.1928 4.59551 22.1768 3.51206C22.7078 2.92737 23.2084 2.31037 23.6923 1.67529C23.7123 1.64892 23.7326 1.62314 23.762 1.58521Z" fill="#11401C"/>
<path d="M34.496 1.66425C34.5646 1.63935 34.6177 1.62009 34.6735 1.59994C34.6943 1.62691 34.7128 1.64765 34.7281 1.67106C35.2791 2.52247 35.8889 3.3152 36.5483 4.05934C36.9246 4.484 37.3173 4.88793 37.7389 5.25421C37.799 5.30637 37.8611 5.35557 37.9224 5.40535C37.9274 5.4092 37.9349 5.40891 37.9572 5.41424C37.7945 5.23288 37.6337 5.07285 37.4803 4.90363C37.3257 4.73264 37.1697 4.56313 37.0172 4.38977C36.8643 4.2167 36.7131 4.04156 36.5644 3.86404C36.4131 3.68327 36.2639 3.50013 36.1173 3.31432C35.9734 3.13177 35.8317 2.94655 35.6929 2.75866C35.5541 2.57078 35.4192 2.37934 35.2849 2.1873C35.151 1.99586 35.0216 1.80057 34.8997 1.60498C34.9145 1.56942 34.9355 1.57979 34.9522 1.57801C34.9709 1.57594 34.9896 1.57742 35.014 1.57742C35.046 1.61772 35.079 1.65862 35.111 1.7004C35.5125 2.2279 35.9266 2.74177 36.3606 3.2346C37.0691 4.03918 37.8252 4.77887 38.653 5.42106C39.0281 5.71207 39.4148 5.98116 39.813 6.2292C39.8593 6.25795 39.9042 6.29025 39.9471 6.32522C39.9713 6.34478 39.9923 6.37145 40.0103 6.39871C40.0529 6.46361 40.0503 6.52762 39.9983 6.58393C39.9658 6.6189 39.9274 6.64853 39.8879 6.67224C39.7933 6.72914 39.6908 6.76115 39.5851 6.7733C39.3584 6.79938 39.1419 6.76174 38.9368 6.64083C38.4446 6.3507 37.9877 6.00101 37.5619 5.59768C36.9849 5.05151 36.4563 4.44844 35.9575 3.811C35.4613 3.17681 35 2.51121 34.5789 1.80946C34.5532 1.76708 34.5295 1.72352 34.496 1.66425Z" fill="#11401C"/>
<path d="M34.2644 1.88628C34.2917 1.83679 34.319 1.80301 34.3559 1.78137C34.3983 1.79797 34.4129 1.84123 34.4357 1.87383C34.7445 2.3151 35.0486 2.76051 35.3615 3.19762C35.7776 3.77876 36.2182 4.3353 36.6832 4.86636C37.21 5.46795 37.7686 6.02805 38.3708 6.53036C38.4383 6.58666 38.5007 6.6486 38.5506 6.72536C38.5709 6.75647 38.5901 6.78907 38.6049 6.82345C38.6382 6.9002 38.6255 6.95354 38.5608 6.99859C38.475 7.05816 38.3783 7.08038 38.2795 7.08779C38.0269 7.10676 37.7927 7.03978 37.577 6.88746C37.2778 6.67557 36.9964 6.43642 36.7289 6.17533C36.1982 5.65761 35.734 5.06877 35.3082 4.43932C34.8669 3.78676 34.4734 3.09716 34.1064 2.388C34.0986 2.37318 34.0921 2.35747 34.0836 2.34325C34.0646 2.31184 34.0641 2.27924 34.0768 2.24516C34.0872 2.2176 34.0968 2.18944 34.1082 2.16218C34.1194 2.13521 34.1324 2.10884 34.1459 2.07891C34.1896 2.10113 34.2034 2.14825 34.2249 2.18589C34.509 2.68494 34.8103 3.17006 35.1305 3.63977C35.4808 4.15424 35.8496 4.65032 36.2582 5.1064C36.3419 5.19975 36.4285 5.28984 36.5142 5.38082C36.5301 5.39771 36.5483 5.41223 36.5701 5.43239C36.5774 5.39327 36.5535 5.3823 36.5415 5.36571C36.5249 5.3423 36.5054 5.32185 36.4872 5.29992C36.4716 5.28125 36.456 5.26228 36.4407 5.24332C36.4227 5.22109 36.4048 5.19886 36.3869 5.17664C36.3715 5.15767 36.3562 5.13841 36.3411 5.11915C36.3235 5.09692 36.3055 5.0744 36.2878 5.05217C36.2728 5.03291 36.2574 5.01365 36.2424 4.99438C36.2247 4.97186 36.2073 4.94934 36.1899 4.92652C36.1748 4.90696 36.16 4.8877 36.1452 4.86814C36.1277 4.84532 36.1103 4.8225 36.0932 4.79968C36.0784 4.78012 36.0635 4.76056 36.049 4.74071C36.0344 4.72085 36.0199 4.701 36.0053 4.68144C35.9884 4.65832 35.9713 4.63521 35.9544 4.61209C35.9398 4.59224 35.9255 4.57209 35.9112 4.55223C35.8943 4.52882 35.8775 4.5057 35.8608 4.48229C35.8465 4.46214 35.8322 4.44199 35.8182 4.42184C35.8016 4.39843 35.7849 4.37472 35.7685 4.35131C35.7545 4.33116 35.7405 4.31071 35.7264 4.29056C35.7101 4.26685 35.6937 4.24314 35.6773 4.21943C35.6633 4.19898 35.6495 4.17854 35.6355 4.15809C35.6194 4.13438 35.603 4.11038 35.5869 4.08637C35.5731 4.06592 35.5593 4.04518 35.5455 4.02473C35.5318 4.00428 35.518 3.98383 35.5042 3.96309C35.4884 3.93909 35.4725 3.91479 35.4567 3.89078C35.4431 3.87004 35.4296 3.84929 35.4161 3.82855C35.4003 3.80425 35.3847 3.77995 35.3688 3.75594C35.3553 3.7352 35.342 3.71416 35.3285 3.69341C35.3129 3.66911 35.2973 3.64481 35.2817 3.62022C35.2685 3.59917 35.2552 3.57843 35.242 3.55739C35.2266 3.53279 35.2113 3.5082 35.1957 3.48389C35.1825 3.46285 35.1692 3.44181 35.1562 3.42077C35.1429 3.39973 35.1299 3.37869 35.117 3.35735C35.1016 3.33276 35.0865 3.30786 35.0715 3.28327C35.0585 3.26223 35.0455 3.24089 35.0325 3.21985C35.0174 3.19495 35.0023 3.17036 34.9873 3.14546C34.9743 3.12413 34.9615 3.10279 34.9488 3.08145C34.9337 3.05656 34.9189 3.03167 34.9041 3.00677C34.8914 2.98544 34.8786 2.9641 34.8659 2.94276C34.8511 2.91787 34.8365 2.89268 34.8214 2.86779C34.8087 2.84645 34.7957 2.82511 34.783 2.80377C34.7682 2.77888 34.7536 2.75369 34.739 2.7285C34.7266 2.70687 34.7138 2.68553 34.7014 2.6639C34.6889 2.64226 34.6764 2.62063 34.6639 2.59929C34.6494 2.5741 34.6346 2.54891 34.6203 2.52373C34.6078 2.50209 34.5956 2.48046 34.5834 2.45882C34.5691 2.43364 34.5545 2.40815 34.54 2.38296C34.5275 2.36133 34.5153 2.33969 34.5028 2.31806C34.4882 2.29287 34.4739 2.26768 34.4596 2.24219C34.4474 2.22056 34.4349 2.19863 34.4227 2.177C34.4084 2.15151 34.3941 2.12632 34.3798 2.10084C34.3676 2.0792 34.3554 2.05727 34.3432 2.03534C34.3289 2.00986 34.3141 1.98496 34.3006 1.95918C34.2891 1.93784 34.2787 1.91503 34.2644 1.88628Z" fill="#11401C"/>
<path d="M24.6257 2.08008C24.6428 2.10942 24.6527 2.12216 24.6584 2.13727C24.68 2.19239 24.7003 2.24811 24.7208 2.30234C24.7127 2.32219 24.7073 2.33849 24.6997 2.35331C24.2647 3.19909 23.7929 4.01612 23.2492 4.77715C22.8279 5.36658 22.3686 5.91335 21.8475 6.38987C21.6338 6.58517 21.4116 6.76683 21.1782 6.93071C20.9646 7.08066 20.732 7.14823 20.4822 7.12571C20.4037 7.11859 20.3236 7.09844 20.2501 7.06733C20.1217 7.01309 20.1048 6.93812 20.1796 6.80713C20.2342 6.71171 20.3054 6.63525 20.3863 6.56798C20.9084 6.13235 21.3984 5.65286 21.8639 5.14076C22.4305 4.51695 22.9583 3.85224 23.4566 3.1573C23.7547 2.74153 24.0435 2.31656 24.3369 1.89634C24.3624 1.85989 24.3811 1.81603 24.4193 1.79114C24.4315 1.79825 24.4432 1.80181 24.451 1.8101C24.4731 1.83352 24.4934 1.859 24.5131 1.88212C24.4806 1.98673 24.3385 2.24751 24.0034 2.80643C23.8213 3.11048 23.6388 3.41454 23.4478 3.71118C23.2588 4.00427 23.0641 4.29321 22.8619 4.57444C22.6607 4.85449 22.4468 5.12328 22.2381 5.3977C22.2462 5.39977 22.2545 5.4054 22.2579 5.40274C22.2735 5.39088 22.2891 5.37814 22.3023 5.36303C22.4931 5.14551 22.6901 4.93451 22.8726 4.70839C23.4995 3.93166 24.0487 3.08618 24.5542 2.20306C24.5745 2.16631 24.5958 2.13105 24.6257 2.08008Z" fill="#11401C"/>
<path d="M20.07 6.76331C20.058 6.80361 20.0507 6.83087 20.0419 6.85754C20.0115 6.9506 20.0362 7.02706 20.0954 7.09314C20.1456 7.14886 20.2077 7.18205 20.274 7.20368C20.3993 7.24458 20.5269 7.26087 20.6571 7.24487C20.6945 7.24013 20.732 7.23598 20.7756 7.23094C20.7709 7.27777 20.7392 7.28844 20.7174 7.30562C20.3039 7.62953 19.8763 7.92707 19.4321 8.19289C18.9134 8.50287 18.3782 8.7681 17.8171 8.96281C17.4495 9.09053 17.0753 9.18358 16.6927 9.22685C16.3998 9.26004 16.1084 9.25115 15.823 9.15691C15.7352 9.12787 15.6489 9.0929 15.5743 9.03156C15.5348 8.99926 15.4966 8.96043 15.4683 8.91628C15.4235 8.84693 15.436 8.77433 15.4981 8.72395C15.5314 8.69698 15.5707 8.67594 15.6099 8.66231C15.6679 8.64245 15.7276 8.62852 15.7874 8.61726C16.6646 8.45427 17.508 8.16029 18.326 7.76733C18.8866 7.49825 19.4269 7.18323 19.9509 6.83176C19.9852 6.80835 20.0177 6.77931 20.07 6.76331Z" fill="#11401C"/>
<path d="M37.9931 7.19143C38.0303 7.19587 38.0677 7.20062 38.1049 7.20506C38.2343 7.22018 38.3619 7.20654 38.4856 7.16239C38.5353 7.14461 38.5844 7.11794 38.6276 7.08474C38.7255 7.00918 38.7461 6.92234 38.7058 6.79314C38.7001 6.77447 38.6832 6.75758 38.697 6.72913C38.7375 6.73891 38.7692 6.76973 38.8038 6.79284C39.2664 7.10282 39.7418 7.38435 40.2328 7.63121C40.9252 7.97912 41.6378 8.25828 42.3778 8.44261C42.5915 8.49596 42.8077 8.53656 43.0221 8.58634C43.0809 8.59997 43.1409 8.61716 43.1942 8.6465C43.3062 8.70814 43.3179 8.81423 43.2298 8.91707C43.1789 8.97663 43.1157 9.01575 43.0499 9.04924C42.9493 9.10051 42.8428 9.13014 42.7352 9.15296C42.4916 9.20423 42.2468 9.19978 42.0017 9.16926C41.2734 9.07798 40.5881 8.81838 39.923 8.48025C39.2623 8.14449 38.6398 7.73138 38.0438 7.26552C38.023 7.24922 38.004 7.23025 37.984 7.21277C37.9874 7.20565 37.9903 7.19854 37.9931 7.19143Z" fill="#11401C"/>
<path d="M36.3762 1.96448C36.4292 1.98463 36.4607 1.995 36.4914 2.00863C36.8157 2.15088 37.1331 2.31121 37.4463 2.48338C37.4868 2.50561 37.5253 2.53406 37.5627 2.56281C38.0264 2.91872 38.4888 3.2773 38.9538 3.63114C39.2745 3.87533 39.6059 4.09908 39.9567 4.28281C40.0425 4.32786 40.1301 4.36757 40.2172 4.40906C40.2299 4.41498 40.2442 4.41736 40.2614 4.40995C40.061 4.27659 39.8582 4.14738 39.6604 4.00899C39.4642 3.87148 39.2711 3.72775 39.0798 3.58136C38.8857 3.43288 38.6949 3.27819 38.509 3.11016C38.5244 3.11372 38.541 3.11401 38.5548 3.12142C38.9873 3.35821 39.4304 3.56624 39.8811 3.75383C39.9271 3.7728 39.9705 3.80006 40.0147 3.82406C40.5504 4.11597 41.1014 4.36253 41.6716 4.55279C41.7769 4.58805 41.8814 4.62687 41.9765 4.6897C42.0217 4.71963 42.0654 4.75638 42.1015 4.79876C42.1514 4.85714 42.1532 4.91907 42.1075 4.98516C42.0753 5.03169 42.0352 5.07347 41.9926 5.10785C41.89 5.19112 41.7727 5.2415 41.6511 5.27558C41.2773 5.3799 40.9101 5.35945 40.5512 5.19349C39.898 4.89151 39.2794 4.51485 38.6881 4.07892C37.886 3.48741 37.1479 2.80403 36.4529 2.05842C36.4313 2.03501 36.4126 2.00893 36.3762 1.96448Z" fill="#11401C"/>
<path d="M18.4775 4.45323C18.6371 4.39515 18.7876 4.31276 18.9373 4.2283C19.285 4.03182 19.6138 3.7983 19.9353 3.55144C20.3639 3.22249 20.7912 2.89147 21.2193 2.56164C21.2445 2.54237 21.2697 2.52252 21.297 2.5077C21.6364 2.32308 21.979 2.14764 22.3312 1.99709C22.3444 1.99146 22.3577 1.97753 22.3777 1.99531C22.3632 2.01398 22.3502 2.03384 22.3346 2.05044C21.4717 2.97741 20.5459 3.81015 19.5161 4.48583C19.081 4.77121 18.6327 5.02578 18.1648 5.23381C17.7669 5.41073 17.3643 5.41547 16.9614 5.25633C16.8835 5.22551 16.8089 5.17869 16.7387 5.12861C16.695 5.09749 16.6571 5.05067 16.6256 5.00296C16.5853 4.94191 16.5892 4.88116 16.6366 4.82604C16.6732 4.78336 16.7166 4.74573 16.7621 4.71579C16.8577 4.65267 16.9625 4.61326 17.0685 4.5777C17.3344 4.48879 17.5969 4.38774 17.856 4.27542C18.1508 4.1474 18.4395 4.00426 18.7247 3.85105C18.8034 3.80867 18.8837 3.76926 18.9653 3.73429C19.3781 3.55826 19.7851 3.36741 20.182 3.1487C20.209 3.13389 20.2368 3.11996 20.2667 3.10455C20.2761 3.13507 20.2537 3.141 20.2412 3.15107C19.7035 3.58967 19.1574 4.01374 18.575 4.37351C18.5412 4.39426 18.4931 4.39929 18.4806 4.45442C18.4731 4.45679 18.4661 4.45975 18.459 4.46242C18.4648 4.45945 18.4713 4.45619 18.4775 4.45323Z" fill="#11401C"/>
<path d="M38.9844 5.11082C38.9849 5.09867 38.9901 5.08326 38.9852 5.07526C38.9771 5.06163 38.9634 5.05185 38.9511 5.04177C38.3791 4.57324 37.8463 4.05049 37.3277 3.50817C36.8261 2.98333 36.3419 2.43835 35.8803 1.86788C35.8551 1.83676 35.8307 1.80446 35.8067 1.77364C35.8203 1.73897 35.8405 1.75645 35.8556 1.76001C35.8813 1.76564 35.906 1.77779 35.9318 1.7846C35.9957 1.80209 36.0474 1.83943 36.0955 1.89218C36.6515 2.50295 37.235 3.07728 37.8403 3.62315C38.37 4.10057 38.9374 4.50983 39.5349 4.86663C39.9666 5.12445 40.3975 5.38405 40.8282 5.64454C40.888 5.6807 40.9475 5.72071 41 5.76901C41.1165 5.87629 41.1084 5.97201 40.9795 6.06269C40.8812 6.13174 40.7726 6.1679 40.659 6.18242C40.4526 6.20879 40.2528 6.18034 40.0581 6.0944C39.5877 5.88666 39.1432 5.62143 38.7183 5.31293C38.0781 4.84796 37.4941 4.30238 36.9436 3.7085C36.3658 3.08528 35.8333 2.41464 35.3316 1.7117C35.3114 1.68325 35.2804 1.66014 35.2825 1.61035C35.3207 1.61717 35.3576 1.62606 35.3945 1.62961C35.4509 1.63495 35.491 1.66577 35.5289 1.71348C35.7202 1.95204 35.9112 2.19119 36.108 2.42383C36.6678 3.08528 37.2581 3.7088 37.8941 4.27541C38.24 4.58362 38.6005 4.86722 38.9862 5.10786C38.9901 5.10904 38.9935 5.11201 38.9969 5.11201C39.0031 5.1123 39.0094 5.11112 39.0156 5.11052C39.0143 5.10697 39.0138 5.10223 39.0114 5.10015C39.0088 5.09778 39.0036 5.096 39.0013 5.09749C38.9956 5.10045 38.9901 5.10608 38.9844 5.11082Z" fill="#11401C"/>
<path d="M19.7388 5.16356C19.75 5.1523 19.7599 5.13807 19.7729 5.13037C20.2106 4.86424 20.6101 4.53382 20.9965 4.18205C21.4485 3.77101 21.8761 3.32827 22.2888 2.86715C22.6173 2.49998 22.9357 2.12213 23.2403 1.72917C23.2801 1.6779 23.3227 1.64205 23.3843 1.6373C23.4215 1.63434 23.4584 1.62515 23.4987 1.61804C23.4893 1.67464 23.4553 1.70546 23.4296 1.74162C23.0862 2.2223 22.7275 2.68756 22.3499 3.13357C21.8795 3.68922 21.3833 4.21257 20.8489 4.68792C20.3806 5.10429 19.888 5.47857 19.3583 5.78707C19.1249 5.9231 18.8863 6.04608 18.6394 6.14743C18.4229 6.23634 18.2015 6.25056 17.9779 6.191C17.9122 6.17351 17.849 6.14062 17.7869 6.10891C17.7565 6.0935 17.7287 6.06772 17.7045 6.04075C17.6528 5.98326 17.6476 5.91717 17.6965 5.85642C17.7344 5.809 17.7802 5.76811 17.8272 5.73284C17.8841 5.69017 17.946 5.65579 18.0065 5.61964C18.3761 5.39767 18.7439 5.17156 19.1161 4.95552C19.9397 4.47721 20.694 3.88333 21.3989 3.2038C21.8402 2.77854 22.275 2.34558 22.6901 1.88713C22.7663 1.80296 22.8591 1.78666 22.9752 1.76296C22.9412 1.81097 22.922 1.84179 22.8993 1.86905C22.7509 2.04893 22.6041 2.2303 22.4523 2.40663C21.8371 3.12142 21.1972 3.80628 20.5173 4.44106C20.2911 4.65236 20.0551 4.85002 19.8236 5.05361C19.7965 5.07732 19.7687 5.10014 19.7433 5.12592C19.7375 5.13155 19.7409 5.14874 19.7399 5.1603C19.7352 5.15852 19.7303 5.15674 19.7256 5.15496C19.73 5.15793 19.7344 5.16059 19.7388 5.16356Z" fill="#11401C"/>
<path d="M22.2189 7.39084C22.2059 7.40003 22.1918 7.40743 22.1802 7.4184C21.4908 8.07964 20.7441 8.63926 19.9251 9.07032C19.611 9.23563 19.288 9.37487 18.9476 9.45308C18.8325 9.47945 18.7156 9.4987 18.5984 9.51026C18.4568 9.52418 18.3173 9.49989 18.1848 9.44064C18.1292 9.41575 18.0743 9.38138 18.0276 9.33902C17.9644 9.28214 17.9639 9.21933 18.02 9.14912C18.0504 9.1112 18.086 9.07624 18.1245 9.04987C18.1793 9.01195 18.2375 8.97907 18.2968 8.95063C18.7865 8.71511 19.2688 8.46122 19.7378 8.17562C20.2343 7.87344 20.7116 7.53631 21.1679 7.16065C21.1946 7.13873 21.2227 7.11918 21.2533 7.09607C21.2666 7.25249 21.3001 7.3073 21.4233 7.3627C21.5748 7.43084 21.7333 7.44624 21.8938 7.4261C21.9985 7.41277 22.1025 7.38966 22.2067 7.37099C22.2108 7.37692 22.2147 7.38373 22.2189 7.39084Z" fill="#11401C"/>
<path d="M36.5415 7.32624C36.6678 7.34875 36.7715 7.37097 36.8759 7.38519C37.0084 7.40326 37.1399 7.38786 37.269 7.34905C37.2945 7.34135 37.3197 7.33187 37.3441 7.32031C37.441 7.2735 37.5151 7.20685 37.5011 7.07027C37.5447 7.06257 37.5663 7.09871 37.5925 7.12034C38.1052 7.54221 38.6441 7.9149 39.2061 8.24433C39.6127 8.48252 40.0282 8.69849 40.4493 8.90143C40.5151 8.93313 40.5782 8.97283 40.6398 9.0143C40.6715 9.03593 40.6996 9.06733 40.7245 9.09903C40.7819 9.1725 40.7783 9.2356 40.7084 9.29693C40.6671 9.33307 40.6195 9.36359 40.5709 9.38462C40.4241 9.44802 40.2716 9.47142 40.1147 9.45513C39.8613 9.42876 39.6163 9.36003 39.3757 9.2673C38.9592 9.10673 38.5658 8.88869 38.1834 8.64339C37.6286 8.28729 37.1085 7.87401 36.6202 7.4086C36.5976 7.38697 36.5766 7.36327 36.5415 7.32624Z" fill="#11401C"/>
<path d="M24.7871 2.62866C24.8182 2.71487 24.8304 2.80434 24.8312 2.89381C24.8315 2.92847 24.8081 2.9658 24.7904 2.99809C24.5906 3.36634 24.3937 3.73695 24.1882 4.10105C23.8732 4.6589 23.5334 5.19631 23.1564 5.70231C23.1442 5.71861 23.1338 5.73638 23.1234 5.75268C23.1384 5.77845 23.1512 5.76364 23.1605 5.75327C23.2507 5.65402 23.3427 5.55656 23.4297 5.45376C23.7922 5.02478 24.1045 4.55047 24.3945 4.05661C24.5277 3.82998 24.6553 3.5992 24.7855 3.37019C24.8058 3.33434 24.8268 3.29909 24.8546 3.2511C24.8655 3.27539 24.8749 3.28753 24.8762 3.30087C24.885 3.39122 24.8902 3.48217 24.9001 3.57224C24.9074 3.63978 24.8936 3.69726 24.8624 3.75621C24.6325 4.19023 24.3867 4.61239 24.1227 5.02033C23.6862 5.69491 23.2005 6.31941 22.6687 6.89859C22.5091 7.0725 22.3267 7.18181 22.1165 7.24225C22.0129 7.27217 21.9079 7.28876 21.8016 7.29528C21.7291 7.29972 21.6566 7.29528 21.588 7.26565C21.5496 7.24906 21.5106 7.22744 21.4787 7.1984C21.4028 7.12938 21.3986 7.04228 21.4654 6.96318C21.4968 6.92615 21.534 6.89504 21.5699 6.86304C21.8692 6.59552 22.155 6.31023 22.4286 6.00894C23.021 5.35688 23.5469 4.64024 24.0294 3.88093C24.2679 3.50558 24.4945 3.12074 24.7127 2.72969C24.7325 2.69473 24.7442 2.65088 24.7871 2.62866Z" fill="#11401C"/>
<path d="M34.0097 2.61169C34.0383 2.66176 34.0674 2.71124 34.0954 2.7616C34.5021 3.48891 34.9394 4.19103 35.4255 4.85257C35.9683 5.59143 36.5641 6.26867 37.2329 6.86C37.2596 6.8837 37.2864 6.90858 37.3085 6.93762C37.3581 7.00279 37.354 7.08456 37.2994 7.14618C37.2492 7.20247 37.1866 7.23002 37.1183 7.24483C37.0047 7.26942 36.8912 7.25698 36.7803 7.23328C36.6768 7.21106 36.575 7.1761 36.475 7.13818C36.3518 7.09137 36.2458 7.01168 36.1499 6.90977C35.3935 6.10633 34.7448 5.20156 34.1835 4.21355C34.0931 4.05446 34.0079 3.89181 33.9182 3.73213C33.8904 3.68266 33.878 3.63318 33.8842 3.57364C33.8954 3.46698 33.9019 3.35974 33.9099 3.25546C33.9481 3.24005 33.9525 3.27353 33.9632 3.29219C34.1139 3.55556 34.261 3.8216 34.4145 4.0826C34.6502 4.48373 34.9025 4.87153 35.1878 5.22911C35.3174 5.39146 35.4562 5.54433 35.5915 5.70045C35.6167 5.72949 35.6461 5.75408 35.6835 5.77037C35.6762 5.75763 35.67 5.744 35.6614 5.73245C35.0745 4.95093 34.5824 4.09356 34.1152 3.21635C34.07 3.13162 34.0266 3.04601 33.9803 2.96216C33.957 2.9201 33.9455 2.87803 33.9538 2.82796C33.9658 2.75745 33.9749 2.68605 33.9853 2.61525C33.9933 2.61377 34.0016 2.61258 34.0097 2.61169Z" fill="#11401C"/>
<path d="M28.9786 36.3714C28.89 36.2063 28.8461 36.0386 28.8295 35.8611C28.8014 35.5615 28.8492 35.2782 28.9701 35.0103C29.0395 34.8565 29.1213 34.7121 29.2131 34.5746C29.316 34.4205 29.4215 34.2682 29.5255 34.115C29.6365 33.9511 29.741 33.7822 29.8257 33.5988C29.9328 33.367 29.9967 33.1219 30.0087 32.8588C30.0147 32.7245 29.9874 32.6021 29.9273 32.4889C29.8943 32.4264 29.8569 32.3662 29.8176 32.3088C29.7929 32.2726 29.7815 32.2358 29.7826 32.1905C29.7859 32.0527 29.7875 31.9149 29.7901 31.7771C29.7909 31.7377 29.7958 31.7006 29.8228 31.6707C29.9169 31.5655 30.0102 31.4591 30.1041 31.353C30.1186 31.3628 30.1298 31.367 30.1371 31.3756C30.313 31.5845 30.4744 31.8061 30.593 32.0643C30.7151 32.3298 30.7705 32.6125 30.7523 32.9121C30.7356 33.1818 30.674 33.4378 30.5693 33.6803C30.477 33.8939 30.3622 34.0913 30.2278 34.273C30.0989 34.4475 29.964 34.6164 29.8296 34.7856C29.6978 34.9519 29.5629 35.1149 29.4312 35.2808C29.3805 35.3445 29.3342 35.413 29.2869 35.4803C29.1746 35.6403 29.1078 35.8231 29.1125 36.0279C29.1154 36.1462 29.0761 36.2351 29.0174 36.3213C29.0088 36.3346 28.9984 36.3465 28.9786 36.3714ZM30.4903 32.4039C30.4968 32.4546 30.5043 32.5049 30.5095 32.5556C30.5472 32.9157 30.4882 33.2577 30.3634 33.5881C30.2532 33.88 30.096 34.1363 29.912 34.3725C29.8018 34.5142 29.689 34.6532 29.5777 34.7939C29.5564 34.8209 29.5372 34.8505 29.5154 34.8819C29.5515 34.8941 29.5619 34.8651 29.5764 34.8496C29.7815 34.6327 29.9749 34.403 30.1477 34.152C30.2597 33.9893 30.3616 33.8186 30.4453 33.6346C30.4942 33.5273 30.5337 33.4162 30.5563 33.2974C30.5976 33.0798 30.5974 32.8617 30.5633 32.6433C30.5501 32.5592 30.5386 32.4738 30.4903 32.4039Z" fill="#11401C"/>
<path d="M23.3102 7.54352C23.2801 7.58085 23.2634 7.60425 23.2447 7.62469C22.6214 8.3046 21.9393 8.89355 21.176 9.35571C21.0385 9.43896 20.8987 9.51688 20.7571 9.59005C20.5607 9.69167 20.3536 9.73877 20.1369 9.72722C20.0527 9.72277 19.9704 9.70529 19.8921 9.67122C19.7191 9.59598 19.7246 9.52132 19.8313 9.39156C19.8994 9.30861 19.9792 9.24373 20.0665 9.18892C20.4362 8.95814 20.7989 8.71373 21.1536 8.45421C21.6143 8.11736 22.0589 7.75504 22.4819 7.35865C22.505 7.33703 22.5294 7.31747 22.5518 7.29822C22.5827 7.31007 22.5715 7.33555 22.5715 7.35362C22.572 7.46264 22.6224 7.53493 22.7066 7.57255C22.7622 7.59744 22.823 7.61225 22.8825 7.61906C22.9854 7.63091 23.0867 7.60988 23.1863 7.57848C23.2216 7.56781 23.2574 7.55863 23.3102 7.54352Z" fill="#11401C"/>
<path d="M35.4806 7.50701C35.5201 7.51827 35.5554 7.52775 35.5902 7.53812C35.6892 7.56804 35.7898 7.58878 35.8924 7.57752C35.9444 7.57189 35.9976 7.56093 36.0467 7.54078C36.1395 7.50286 36.1974 7.4291 36.2008 7.31059C36.2013 7.2943 36.2042 7.2783 36.207 7.25134C36.2317 7.2709 36.2507 7.28393 36.2673 7.29963C37.0156 8.00324 37.8281 8.59753 38.6765 9.13019C38.77 9.18885 38.8563 9.25699 38.9282 9.34676C38.9508 9.3749 38.9716 9.4069 38.9875 9.44067C39.0072 9.48274 38.9986 9.52895 38.9638 9.55532C38.9267 9.58347 38.8856 9.60746 38.8435 9.62435C38.6941 9.68449 38.5398 9.68538 38.3849 9.66227C38.2301 9.63887 38.0843 9.58258 37.9432 9.50733C37.3971 9.2167 36.8881 8.85645 36.4087 8.4414C36.1138 8.18603 35.8326 7.9117 35.5637 7.62107C35.539 7.59441 35.5151 7.56685 35.4917 7.53871C35.4871 7.53308 35.486 7.52331 35.4806 7.50701Z" fill="#11401C"/>
<path d="M34.7943 6.05111C34.7701 6.00933 34.7467 5.96667 34.7215 5.92549C34.4196 5.43015 34.1385 4.92 33.8722 4.39889C33.8199 4.29668 33.7903 4.20069 33.8251 4.08456C33.8394 4.03657 33.8431 3.98443 33.8514 3.93347C33.8927 3.93347 33.8992 3.97376 33.9143 4.00013C34.1367 4.38497 34.3666 4.76358 34.6067 5.13449C35.0063 5.75159 35.4319 6.34499 35.8796 6.91736C35.9373 6.99112 35.9921 7.06845 36.0412 7.14962C36.0662 7.1905 36.0807 7.24235 36.0908 7.29153C36.1023 7.34752 36.0807 7.39462 36.0339 7.41833C36.0033 7.43373 35.97 7.44558 35.937 7.45091C35.8427 7.46573 35.7486 7.4595 35.6556 7.4358C35.5218 7.40174 35.3968 7.3413 35.2802 7.26013C35.242 7.23346 35.2066 7.19999 35.1739 7.16443C34.8824 6.84922 34.6251 6.49993 34.3877 6.13169C34.1164 5.7116 33.8748 5.26958 33.6458 4.81839C33.6347 4.79617 33.6258 4.77247 33.6157 4.74906C33.6562 4.6593 33.6955 4.57161 33.7399 4.47325C33.8238 4.6196 33.9 4.75765 33.9805 4.89215C34.0634 5.0308 34.1486 5.16797 34.2364 5.30276C34.3219 5.4343 34.4103 5.56347 34.5002 5.69086C34.5901 5.81825 34.6839 5.94208 34.7758 6.0674C34.7821 6.06177 34.7881 6.05644 34.7943 6.05111Z" fill="#11401C"/>
<path d="M24.928 3.92957C24.9478 4.05488 24.966 4.14731 24.9753 4.24093C24.9784 4.27174 24.9641 4.30818 24.9498 4.33692C24.8771 4.48386 24.803 4.63021 24.7272 4.77508C24.5193 5.17325 24.2977 5.56164 24.0662 5.94262C24.0469 5.97432 24.0316 6.00869 24.0147 6.04216C24.0139 6.04364 24.0189 6.04898 24.0246 6.05787C24.108 5.96988 24.1748 5.86648 24.246 5.76783C24.3185 5.6677 24.3889 5.56549 24.4583 5.46239C24.5253 5.36255 24.5905 5.26153 24.6547 5.15932C24.7209 5.05356 24.7854 4.94661 24.8488 4.83848C24.9117 4.73123 24.9719 4.62191 25.0301 4.51941C25.0429 4.51763 25.047 4.51586 25.0501 4.51734C25.0533 4.51882 25.0561 4.52297 25.0579 4.52652C25.0941 4.6074 25.1299 4.68857 25.1668 4.77212C25.1619 4.78693 25.1585 4.80411 25.151 4.81863C24.8449 5.42299 24.5178 6.01135 24.1288 6.55232C23.9817 6.75673 23.8235 6.94959 23.6627 7.13979C23.5177 7.31132 23.3399 7.40879 23.1422 7.46893C23.0417 7.49944 22.9398 7.50744 22.8374 7.49174C22.8005 7.48611 22.7631 7.47278 22.7299 7.45382C22.6847 7.42834 22.6639 7.37739 22.6784 7.32317C22.6927 7.27014 22.7114 7.21622 22.7384 7.17031C22.7787 7.10246 22.8257 7.03936 22.8736 6.97803C23.5203 6.15385 24.1189 5.28671 24.6627 4.37099C24.7308 4.25634 24.7971 4.1402 24.8649 4.02496C24.8794 4.00156 24.8958 3.97845 24.928 3.92957ZM23.9583 6.12512C23.9609 6.12778 23.9633 6.13074 23.9659 6.13341C23.9726 6.12541 23.9794 6.11771 23.9854 6.10912C23.9867 6.10734 23.9838 6.10201 23.9828 6.09845C23.9747 6.10734 23.9664 6.11623 23.9583 6.12512Z" fill="#11401C"/>
<path d="M23.6445 7.44727C23.6473 7.47659 23.6492 7.49259 23.6505 7.50889C23.6632 7.66324 23.7347 7.75211 23.8698 7.77759C23.9607 7.79477 24.0514 7.79033 24.1402 7.76041C24.1834 7.74589 24.226 7.73078 24.2865 7.70975C24.2686 7.74234 24.2613 7.75952 24.2507 7.77344C23.6609 8.54667 22.9736 9.1774 22.1666 9.63422C21.9974 9.72991 21.8189 9.78294 21.6332 9.80576C21.5277 9.81879 21.4211 9.8256 21.3151 9.82649C21.259 9.82709 21.2021 9.81316 21.1473 9.79746C21.1047 9.78531 21.0909 9.73021 21.1218 9.69436C21.1616 9.64874 21.2057 9.60697 21.2525 9.57083C21.3655 9.48343 21.4825 9.40226 21.5952 9.31456C22.2991 8.76738 22.9671 8.16924 23.5858 7.5003C23.6014 7.48341 23.6195 7.46948 23.6445 7.44727Z" fill="#11401C"/>
<path d="M34.4908 7.67358C34.5327 7.67091 34.5581 7.69046 34.5854 7.70083C34.6834 7.73845 34.7839 7.75475 34.8865 7.73757C34.9234 7.73135 34.9609 7.72009 34.9946 7.70231C35.0723 7.66113 35.1181 7.59151 35.1227 7.49108C35.1238 7.46679 35.1248 7.44279 35.1264 7.40369C35.1555 7.42946 35.1768 7.44487 35.1944 7.46442C35.6671 7.98079 36.1756 8.44858 36.7035 8.88822C36.9563 9.09886 37.2201 9.29261 37.4786 9.49436C37.5222 9.52843 37.5656 9.5628 37.6069 9.60013C37.6241 9.61553 37.6376 9.63775 37.6496 9.65938C37.6639 9.68515 37.6535 9.72574 37.6275 9.73522C37.5846 9.75092 37.5404 9.76869 37.4963 9.77018C37.1873 9.77995 36.8857 9.74114 36.6038 9.58205C35.804 9.13056 35.1217 8.50724 34.5373 7.74171C34.523 7.72275 34.5103 7.70231 34.4908 7.67358Z" fill="#11401C"/>
<path d="M29.6238 20.7092C29.4131 20.8434 29.2013 20.966 28.9872 21.083C28.9784 21.0878 28.9656 21.0836 28.9477 21.0836C28.9282 20.1798 28.9087 19.2771 28.8895 18.3815C29.0062 18.2781 29.4926 18.0121 29.6469 17.9644C29.6498 17.9667 29.6531 17.9685 29.6552 17.9718C29.6573 17.975 29.6591 17.9798 29.6591 17.9836C29.6474 18.8916 29.6355 19.7994 29.6238 20.7092Z" fill="#11401C"/>
<path d="M29.5602 25.5062C29.4032 25.654 29.24 25.7912 29.0813 25.9272C29.0447 25.9103 29.0537 25.881 29.0532 25.8576C29.0444 25.4878 29.0366 25.1178 29.028 24.7481C29.0171 24.275 29.0054 23.8021 28.9945 23.329C28.9935 23.2819 28.9942 23.2345 28.9942 23.1892C29.0782 23.1024 29.4775 22.8479 29.5822 22.8138C29.5854 22.8159 29.5893 22.8174 29.5913 22.8204C29.5934 22.8236 29.5944 22.8284 29.5947 22.8325C29.5957 22.8452 29.597 22.8583 29.597 22.871C29.5957 22.9786 29.5939 23.0861 29.5924 23.1936C29.5815 23.963 29.5708 24.7327 29.5602 25.5062Z" fill="#11401C"/>
<path d="M33.1882 5.35963C33.2391 5.30127 33.2835 5.24972 33.3352 5.19047C33.5535 5.61737 33.7759 6.0268 34.0547 6.40837C34.0653 6.36482 34.0446 6.34527 34.0329 6.32424C33.8297 5.96073 33.6462 5.58419 33.4724 5.20172C33.455 5.16351 33.4384 5.12499 33.4184 5.08026C33.4524 5.02664 33.4872 4.97153 33.5262 4.90991C33.5639 4.94161 33.5771 4.9822 33.5953 5.01716C33.9287 5.65974 34.2992 6.27298 34.7045 6.85898C34.7466 6.92001 34.79 6.97955 34.8316 7.04117C34.8755 7.10635 34.9163 7.17449 34.9358 7.25448C34.9477 7.30366 34.9576 7.3555 34.9573 7.40616C34.9571 7.5374 34.8812 7.62273 34.7658 7.62865C34.6879 7.6328 34.617 7.60258 34.5489 7.56407C34.4218 7.49208 34.3124 7.39253 34.2257 7.26514C34.1007 7.08147 33.9752 6.89779 33.8596 6.70611C33.6047 6.28276 33.3929 5.83067 33.1882 5.35963Z" fill="#11401C"/>
<path d="M24.7421 6.3968C24.7748 6.3971 24.7855 6.36451 24.8003 6.342C24.8907 6.20276 24.984 6.06559 25.0679 5.92161C25.1791 5.73052 25.2823 5.53322 25.3891 5.33858C25.4088 5.30273 25.4291 5.26748 25.453 5.2257C25.4862 5.26185 25.5135 5.29029 25.5398 5.32021C25.5582 5.34124 25.5746 5.36435 25.5889 5.38272C25.5878 5.39872 25.5894 5.40849 25.5865 5.4156C25.3467 5.97227 25.083 6.51293 24.7584 7.01242C24.6906 7.1167 24.6189 7.21802 24.5464 7.31816C24.4711 7.42274 24.3825 7.51161 24.2775 7.5759C24.2245 7.60849 24.1668 7.63189 24.1102 7.65559C24.0858 7.66566 24.0582 7.66952 24.032 7.67041C23.8924 7.67455 23.7999 7.56286 23.8186 7.40526C23.8262 7.34215 23.8452 7.27846 23.8698 7.22099C23.8963 7.15936 23.9317 7.10159 23.9696 7.04797C24.4253 6.40243 24.8395 5.72401 25.2077 5.00944C25.2189 4.98752 25.2326 4.96737 25.2503 4.93774C25.2989 4.98929 25.329 5.04677 25.3651 5.10572C25.3506 5.14157 25.3379 5.17682 25.3225 5.21089C25.1526 5.58388 24.9754 5.95183 24.7787 6.30733C24.7631 6.33548 24.7374 6.36007 24.7447 6.39977C24.7164 6.40036 24.7145 6.42198 24.7234 6.44983C24.7293 6.43206 24.7356 6.41428 24.7421 6.3968Z" fill="#11401C"/>
<path d="M33.6739 7.7322C33.7238 7.74938 33.755 7.76449 33.7875 7.77012C33.8431 7.7796 33.8997 7.79116 33.9553 7.7876C34.0738 7.7799 34.1385 7.69872 34.145 7.56274C34.1463 7.53727 34.1453 7.51179 34.1453 7.48631C34.1827 7.48068 34.191 7.51653 34.2061 7.53786C34.6202 8.12622 35.1071 8.62778 35.6297 9.08639C35.7884 9.22592 35.9563 9.35005 36.1265 9.47063C36.1904 9.51566 36.2491 9.57047 36.307 9.62527C36.3291 9.64601 36.3421 9.67919 36.3634 9.71326C36.3408 9.73074 36.3244 9.75237 36.3057 9.75622C36.2655 9.76392 36.2231 9.76866 36.1828 9.76363C36.0054 9.742 35.8349 9.68749 35.6699 9.60987C35.3958 9.4807 35.1472 9.30147 34.9068 9.10623C34.448 8.73355 34.0556 8.28146 33.7004 7.78553C33.6934 7.77546 33.6893 7.76331 33.6739 7.7322Z" fill="#11401C"/>
<path d="M25.1132 7.77549C25.0919 7.81193 25.0846 7.82734 25.0753 7.84037C24.6808 8.38993 24.2397 8.88201 23.719 9.27632C23.5064 9.43719 23.2871 9.58265 23.0481 9.68782C22.8984 9.75359 22.7441 9.79595 22.5851 9.81936C22.5391 9.82617 22.4941 9.82528 22.4502 9.80692C22.4162 9.7927 22.406 9.75952 22.4289 9.72456C22.4471 9.69701 22.4668 9.66945 22.49 9.64812C22.5373 9.60487 22.5853 9.56132 22.6373 9.52607C23.1463 9.17945 23.5919 8.74158 24.0183 8.27705C24.2137 8.06434 24.393 7.83445 24.5629 7.59507C24.579 7.57256 24.5961 7.55123 24.6252 7.51331C24.6291 7.56278 24.6304 7.59063 24.6336 7.61848C24.6478 7.74735 24.7138 7.82378 24.8274 7.8306C24.8832 7.83385 24.9404 7.8226 24.9963 7.81282C25.0295 7.80749 25.0612 7.79267 25.1132 7.77549Z" fill="#11401C"/>
<path d="M25.366 7.61108C25.3712 7.62471 25.3759 7.63478 25.379 7.64545C25.4136 7.76928 25.4741 7.82498 25.5853 7.82676C25.6227 7.82735 25.6604 7.81757 25.6973 7.80898C25.7298 7.80158 25.7612 7.78913 25.8051 7.77521C25.7937 7.80247 25.7898 7.81817 25.782 7.83031C25.4593 8.33128 25.1036 8.79788 24.6772 9.18924C24.4483 9.39928 24.2033 9.57941 23.9323 9.71183C23.8133 9.7699 23.6919 9.82085 23.5641 9.84426C23.501 9.85581 23.4358 9.85374 23.3713 9.857C23.3601 9.85759 23.3485 9.85492 23.3375 9.85226C23.3025 9.84367 23.2861 9.80782 23.304 9.77434C23.3178 9.74886 23.3336 9.72368 23.3534 9.70413C23.3817 9.67569 23.4134 9.6511 23.4451 9.6277C24.1529 9.10421 24.7627 8.45867 25.2865 7.70589C25.3091 7.673 25.3263 7.63271 25.366 7.61108Z" fill="#11401C"/>
<path d="M32.9937 7.73611C33.026 7.74648 33.0574 7.75862 33.0899 7.76603C33.1265 7.77462 33.1642 7.7841 33.2013 7.78381C33.3068 7.78262 33.3682 7.73048 33.4061 7.61672C33.4113 7.60131 33.4149 7.58502 33.4199 7.56665C33.4614 7.59242 33.4801 7.63657 33.5056 7.67301C33.9528 8.31381 34.4641 8.87877 35.0487 9.35515C35.1469 9.43513 35.2491 9.50949 35.3481 9.58859C35.3849 9.61792 35.4192 9.65199 35.4522 9.68695C35.4723 9.70799 35.4873 9.73968 35.4715 9.76753C35.4613 9.78531 35.4343 9.80012 35.4148 9.80012C35.3434 9.79982 35.2706 9.80131 35.2007 9.78679C35.0056 9.74679 34.8258 9.65703 34.6515 9.55245C34.3378 9.36462 34.0622 9.11814 33.8062 8.84114C33.5176 8.52889 33.2624 8.18316 33.026 7.81906C33.0127 7.79862 33.0023 7.77551 32.9911 7.75359C32.9901 7.75122 32.9922 7.74677 32.9937 7.73611Z" fill="#11401C"/>
<path d="M26.9288 7.60693C26.9373 7.65878 26.9402 7.68455 26.9462 7.70914C26.9701 7.81046 27.0324 7.86112 27.1231 7.84868C27.1954 7.83861 27.2626 7.80898 27.3258 7.7675C27.3575 7.74677 27.3887 7.72514 27.4295 7.69759C27.4261 7.72247 27.4276 7.73551 27.423 7.7444C27.1488 8.27677 26.8324 8.77122 26.433 9.19249C26.2353 9.40076 26.0108 9.55807 25.7588 9.66443C25.666 9.70353 25.5709 9.73346 25.4711 9.73583C25.3698 9.7382 25.3464 9.69731 25.3911 9.59422C25.4236 9.51956 25.4735 9.46031 25.5262 9.40343C25.8019 9.10569 26.0659 8.79521 26.3174 8.47081C26.5086 8.22433 26.6905 7.96925 26.8625 7.70529C26.8797 7.67804 26.8981 7.65196 26.9288 7.60693Z" fill="#11401C"/>
<path d="M31.3714 7.6564C31.3997 7.67566 31.4265 7.69788 31.4563 7.71328C31.5145 7.7432 31.5722 7.77727 31.6335 7.79535C31.7642 7.83416 31.836 7.77372 31.8518 7.62233C31.8531 7.60959 31.8547 7.59685 31.8575 7.57227C31.8752 7.58915 31.8908 7.59893 31.9004 7.61374C32.3073 8.24832 32.7742 8.82217 33.2712 9.36491C33.3144 9.41201 33.3513 9.46771 33.3861 9.5234C33.4103 9.56192 33.4258 9.60724 33.4066 9.6582C33.3747 9.68634 33.337 9.68338 33.2993 9.68101C33.2234 9.67627 33.1502 9.65702 33.0782 9.62946C32.8319 9.53525 32.61 9.39216 32.4141 9.19723C32.1914 8.97533 31.9957 8.725 31.8162 8.45777C31.6577 8.22166 31.5143 7.97399 31.3818 7.71802C31.3742 7.70321 31.368 7.68751 31.3612 7.6724C31.3644 7.66707 31.368 7.66173 31.3714 7.6564Z" fill="#11401C"/>
<path d="M32.1644 7.67982C32.1909 7.69404 32.2163 7.71122 32.2436 7.72218C32.3005 7.7444 32.3574 7.77047 32.4161 7.78143C32.5253 7.80158 32.623 7.7367 32.6178 7.59124C32.6172 7.57583 32.6206 7.55983 32.6232 7.53406C32.6635 7.5622 32.6804 7.6016 32.7022 7.63478C33.0124 8.1082 33.352 8.55199 33.7296 8.95727C33.8834 9.12228 34.0445 9.27841 34.2022 9.43898C34.2331 9.47038 34.2643 9.50208 34.2924 9.53674C34.31 9.55867 34.3243 9.58503 34.3358 9.6117C34.3529 9.65228 34.3396 9.69495 34.3022 9.70472C34.2627 9.71509 34.2201 9.72161 34.1801 9.71598C34.09 9.70383 34.004 9.67154 33.9195 9.63244C33.7826 9.56874 33.6558 9.48431 33.5352 9.38743C33.2247 9.13828 32.9537 8.83966 32.7043 8.51496C32.5201 8.27529 32.3499 8.02258 32.1901 7.76129C32.1774 7.74025 32.1657 7.71833 32.1535 7.697C32.1568 7.69137 32.1605 7.68574 32.1644 7.67982Z" fill="#11401C"/>
<path d="M26.1752 7.55042C26.1752 7.60581 26.1737 7.63159 26.1755 7.65707C26.183 7.7652 26.2334 7.82119 26.3283 7.82741C26.4023 7.83215 26.4699 7.80282 26.5369 7.77172C26.5647 7.75868 26.592 7.74446 26.6198 7.73143C26.6216 7.73054 26.6258 7.73587 26.6338 7.74239C26.6258 7.75928 26.6188 7.77824 26.6089 7.79453C26.3322 8.24632 26.0289 8.67204 25.6735 9.04739C25.5257 9.20352 25.3703 9.34869 25.203 9.47667C25.0606 9.58569 24.9109 9.67812 24.7454 9.73293C24.7017 9.74745 24.6573 9.7587 24.6129 9.76878C24.5908 9.77381 24.5677 9.77559 24.5451 9.775C24.5069 9.77381 24.4656 9.77115 24.4466 9.72612C24.4274 9.68079 24.45 9.64079 24.4754 9.6085C24.5082 9.56673 24.543 9.52644 24.5807 9.49059C25.1551 8.94548 25.6644 8.33016 26.1087 7.64492C26.124 7.62092 26.1412 7.59841 26.1752 7.55042Z" fill="#11401C"/>
<path d="M29.1444 38.0379C29.1072 38.0094 29.0877 37.9976 29.0714 37.9816C28.797 37.7082 28.7492 37.2795 28.9586 36.94C29.0108 36.8555 29.0742 36.7797 29.1348 36.7024C29.193 36.628 29.2548 36.5578 29.3133 36.484C29.3411 36.4488 29.3663 36.4103 29.3902 36.3714C29.4905 36.2088 29.5162 36.0316 29.4679 35.8406C29.4596 35.8077 29.4523 35.7745 29.4453 35.7446C29.5365 35.6039 29.7781 35.3061 29.848 35.248C29.8553 35.2572 29.8654 35.2655 29.8698 35.2765C30.0184 35.6539 30.0358 36.0367 29.9 36.4233C29.8397 36.5951 29.7409 36.737 29.6243 36.8638C29.5227 36.9743 29.4201 37.0839 29.3205 37.1965C29.2803 37.2421 29.2452 37.294 29.2106 37.3452C29.1579 37.4234 29.1337 37.5117 29.1381 37.6119C29.1431 37.72 29.1426 37.8281 29.1441 37.9363C29.1446 37.9617 29.1444 37.9869 29.1444 38.0379Z" fill="#11401C"/>
<path d="M30.5968 7.71509C30.6285 7.74531 30.6597 7.77641 30.6922 7.80574C30.7605 7.86766 30.8333 7.92158 30.9183 7.94943C30.9471 7.95891 30.9772 7.96602 31.0069 7.9672C31.0929 7.97046 31.1414 7.92839 31.1638 7.83448C31.1695 7.81078 31.1711 7.78589 31.1768 7.7459C31.1957 7.77138 31.2087 7.7853 31.2184 7.80189C31.5364 8.34552 31.91 8.83553 32.3174 9.29354C32.3655 9.34746 32.4091 9.40819 32.4473 9.47159C32.4744 9.51632 32.504 9.5732 32.4653 9.62594C32.431 9.67274 32.378 9.67571 32.3289 9.6606C32.2527 9.6369 32.1753 9.61438 32.1028 9.57972C31.9027 9.48492 31.7216 9.35249 31.5533 9.19755C31.295 8.95995 31.0799 8.67733 30.8995 8.36181C30.7946 8.17814 30.7036 7.98409 30.607 7.79419C30.5963 7.77315 30.5896 7.74916 30.581 7.72664C30.5862 7.72279 30.5914 7.71894 30.5968 7.71509Z" fill="#11401C"/>
<path d="M27.6163 7.79302C27.6275 7.8419 27.6327 7.87508 27.6428 7.90648C27.6631 7.96899 27.7039 8.00751 27.7623 8.00929C27.8031 8.01047 27.8457 8.00366 27.8852 7.99121C27.9821 7.96011 28.0624 7.89375 28.1388 7.82146C28.1638 7.79776 28.1887 7.77376 28.2266 7.73792C28.2194 7.76902 28.2183 7.78087 28.2139 7.79065C28.0287 8.21578 27.8062 8.61246 27.5186 8.9579C27.2944 9.22749 27.0387 9.44968 26.7422 9.60788C26.656 9.6538 26.5682 9.6935 26.4738 9.71305C26.4356 9.72075 26.3988 9.72372 26.3616 9.70772C26.3242 9.69172 26.305 9.66298 26.3138 9.61766C26.3211 9.58033 26.3317 9.54093 26.3507 9.51041C26.3858 9.45442 26.4263 9.40228 26.4679 9.35192C26.6344 9.14987 26.8054 8.95256 26.9686 8.74696C27.1803 8.48004 27.3718 8.19445 27.5485 7.89582C27.5669 7.86531 27.5877 7.83657 27.6163 7.79302Z" fill="#11401C"/>
<path d="M33.3228 6.5691C33.3083 6.52999 33.2953 6.49 33.2789 6.45208C33.1729 6.2047 33.0659 5.95792 32.9599 5.71085C32.9469 5.68033 32.9373 5.64804 32.9238 5.61041C32.9544 5.58138 32.9825 5.55472 33.0155 5.52332C33.0329 5.54672 33.05 5.56331 33.0602 5.58405C33.3291 6.13745 33.6243 6.67308 33.921 7.20753C33.9654 7.28752 34.0062 7.36988 34.0296 7.46172C34.0714 7.62643 34.0124 7.69961 33.8617 7.66969C33.7825 7.65398 33.71 7.61903 33.6427 7.56955C33.5463 7.49845 33.4645 7.40928 33.4031 7.29877C33.2924 7.0988 33.1773 6.9012 33.0789 6.69323C32.9479 6.41712 32.8313 6.13242 32.7086 5.85127C32.7003 5.83231 32.6941 5.81216 32.6855 5.78846C32.725 5.73869 32.7751 5.71292 32.8323 5.68181C32.8528 5.72181 32.872 5.75765 32.8895 5.79439C33.0064 6.04058 33.129 6.28262 33.2698 6.51192C33.2839 6.53473 33.2901 6.56999 33.3249 6.56673C33.3262 6.5771 33.3278 6.58747 33.3293 6.59754C33.3322 6.59576 33.3353 6.59398 33.3382 6.5925C33.3335 6.5848 33.328 6.5771 33.3228 6.5691Z" fill="#11401C"/>
<path d="M25.4444 6.62511C25.4686 6.63252 25.4785 6.61119 25.4883 6.5943C25.5437 6.50098 25.6014 6.40914 25.652 6.31286C25.738 6.14962 25.8194 5.98313 25.903 5.81811C25.9199 5.78493 25.9371 5.75234 25.9571 5.71353C25.9849 5.72953 26.0083 5.74168 26.0303 5.75649C26.0532 5.7716 26.0748 5.78908 26.1013 5.80893C26.0979 5.82552 26.0969 5.8424 26.0911 5.85662C25.8903 6.3573 25.6749 6.84878 25.4036 7.30591C25.3392 7.41463 25.2659 7.51269 25.1711 7.58853C25.0989 7.6463 25.0217 7.69134 24.9336 7.70852C24.9224 7.71059 24.9113 7.71444 24.9001 7.71592C24.7738 7.734 24.7179 7.66763 24.7468 7.5278C24.758 7.47359 24.7777 7.42056 24.8003 7.37108C24.8338 7.2985 24.872 7.22829 24.9107 7.15896C25.1893 6.6577 25.4639 6.15406 25.7172 5.63532C25.7297 5.60955 25.7453 5.58585 25.7635 5.55444C25.7983 5.5814 25.8287 5.60481 25.8635 5.63177C25.8542 5.66376 25.8487 5.69279 25.8375 5.71857C25.7258 5.97927 25.6133 6.23909 25.5011 6.4995C25.4826 6.54216 25.4652 6.58512 25.4473 6.62807C25.4434 6.634 25.4392 6.63933 25.4356 6.64555C25.4351 6.64615 25.4387 6.65 25.4405 6.65237C25.4421 6.64348 25.4431 6.6343 25.4444 6.62511Z" fill="#11401C"/>
<path d="M29.5087 30.1095C29.3838 30.3008 29.2466 30.4688 29.166 30.531C29.1416 30.5139 29.1504 30.4857 29.1499 30.4617C29.139 29.9453 29.1289 29.429 29.1182 28.9126C29.1143 28.7277 29.1109 28.5426 29.1031 28.3577C29.1003 28.289 29.1151 28.2339 29.1546 28.1814C29.258 28.0437 29.3697 27.916 29.4898 27.7975C29.497 27.7904 29.5087 27.7892 29.5274 27.7815C29.5342 27.9806 29.5264 28.1726 29.5241 28.3645C29.5217 28.5583 29.5171 28.7517 29.5145 28.9455C29.5119 29.1392 29.5095 29.333 29.5085 29.5264C29.508 29.7199 29.5087 29.9136 29.5087 30.1095Z" fill="#11401C"/>
<path d="M32.6097 6.6836C32.6024 6.67412 32.5931 6.66583 32.5881 6.65516C32.4928 6.44038 32.4052 6.22115 32.3226 5.9951C32.3616 5.9403 32.4229 5.93704 32.4728 5.89734C32.4878 5.92104 32.5034 5.93911 32.5128 5.96074C32.6172 6.20041 32.7445 6.42438 32.8742 6.64687C32.9787 6.8261 33.0808 7.00741 33.1821 7.18901C33.2268 7.269 33.2637 7.35432 33.284 7.44705C33.292 7.48438 33.2985 7.52319 33.2985 7.56111C33.2985 7.64495 33.2523 7.68968 33.1792 7.66895C33.1213 7.65265 33.0639 7.62718 33.0111 7.59548C32.8893 7.522 32.7877 7.41861 32.7048 7.29359C32.6435 7.20086 32.584 7.10606 32.5281 7.00889C32.3681 6.7313 32.2363 6.43564 32.1116 6.13612C32.1054 6.12131 32.1023 6.10501 32.0968 6.08694C32.1345 6.04873 32.1802 6.0428 32.2272 6.02236C32.2428 6.04784 32.2592 6.07006 32.2717 6.09494C32.3522 6.25551 32.4315 6.41697 32.5123 6.57754C32.5291 6.61102 32.5486 6.64331 32.5705 6.67234C32.5775 6.68153 32.5964 6.67856 32.6097 6.68182C32.6063 6.68893 32.6019 6.69545 32.6009 6.70227C32.6003 6.70582 32.6063 6.71056 32.6092 6.71471C32.6087 6.71086 32.6079 6.7073 32.6081 6.70345C32.6084 6.69753 32.6092 6.69041 32.6097 6.6836Z" fill="#11401C"/>
<path d="M26.1982 6.73279C26.2753 6.62939 26.3343 6.51356 26.392 6.39713C26.4476 6.28485 26.5019 6.17168 26.5596 6.05288C26.6079 6.07273 26.6497 6.08961 26.6942 6.10798C26.6918 6.12724 26.6931 6.13998 26.689 6.15005C26.5432 6.50763 26.3837 6.85662 26.1849 7.18043C26.1436 7.24768 26.1005 7.31404 26.0545 7.37714C25.9661 7.4989 25.8596 7.59607 25.7344 7.66332C25.6902 7.68702 25.6421 7.7048 25.5943 7.71458C25.5338 7.72702 25.4896 7.68347 25.4899 7.61237C25.4901 7.56141 25.4951 7.5072 25.5114 7.46009C25.5418 7.37211 25.5764 7.28441 25.6193 7.20324C25.6975 7.05511 25.7817 6.91054 25.8658 6.76656C26.0152 6.51089 26.1662 6.25611 26.2847 5.97882C26.2909 5.964 26.3016 5.95156 26.3138 5.93201C26.3665 5.95985 26.4172 5.98622 26.4725 6.01525C26.3876 6.26411 26.2852 6.4943 26.1982 6.73279Z" fill="#11401C"/>
<path d="M28.2904 7.93176C28.366 8.03397 28.366 8.03397 28.4954 8.06774C28.4977 8.08878 28.5021 8.11307 28.5026 8.13736C28.5052 8.25824 28.5034 8.3797 28.5102 8.50028C28.5149 8.58767 28.4936 8.65552 28.4434 8.72365C28.2641 8.96747 28.0599 9.1787 27.8299 9.35705C27.7426 9.42489 27.647 9.47881 27.553 9.53451C27.513 9.55821 27.4683 9.57183 27.4246 9.58605C27.4036 9.59287 27.3799 9.59316 27.3576 9.59198C27.335 9.59109 27.3163 9.56117 27.3222 9.53569C27.328 9.5111 27.3347 9.48503 27.3469 9.464C27.3739 9.41719 27.4028 9.37127 27.4342 9.32831C27.7416 8.9097 28.0175 8.46591 28.2561 7.9925C28.2657 7.97413 28.2766 7.95665 28.2904 7.93176Z" fill="#11401C"/>
<path d="M30.3057 8.01799C30.3884 8.00496 30.4655 7.99429 30.4991 7.88379C30.5191 7.91134 30.5352 7.92823 30.5456 7.94867C30.7862 8.42742 31.0673 8.87358 31.3762 9.29752C31.4142 9.34966 31.4438 9.41069 31.4719 9.47083C31.4882 9.50608 31.4648 9.54223 31.4298 9.54104C31.4038 9.54015 31.3765 9.53689 31.3526 9.52623C31.2791 9.49335 31.2037 9.46372 31.1351 9.42017C30.8184 9.21872 30.5523 8.94853 30.3263 8.62621C30.3044 8.5951 30.2894 8.56429 30.2912 8.52163C30.2974 8.35839 30.3008 8.19515 30.3057 8.01799Z" fill="#11401C"/>
<path d="M31.9139 6.77761C31.9085 6.70147 31.8835 6.66295 31.8687 6.62059C31.8519 6.5726 31.8324 6.52608 31.8142 6.47868C31.7975 6.43543 31.7807 6.39218 31.7651 6.34833C31.7497 6.30537 31.736 6.26153 31.7204 6.21442C31.7697 6.17828 31.8209 6.17058 31.8747 6.15991C31.8872 6.18539 31.8994 6.20672 31.9088 6.22983C32.0584 6.59245 32.2252 6.9444 32.4084 7.28657C32.4417 7.34879 32.4679 7.41633 32.4921 7.48358C32.5105 7.53483 32.5318 7.59764 32.4965 7.64267C32.4596 7.68978 32.4024 7.664 32.358 7.64563C32.2982 7.62075 32.2387 7.58994 32.1857 7.55024C32.0576 7.45484 31.9527 7.33397 31.8768 7.17933C31.7422 6.9047 31.6255 6.62 31.5172 6.33115C31.5102 6.31219 31.5063 6.29175 31.5 6.26834C31.544 6.2396 31.5871 6.23161 31.6385 6.23338C31.7256 6.40669 31.7994 6.58978 31.9139 6.77761Z" fill="#11401C"/>
<path d="M26.9103 6.73642C26.9376 6.73287 26.9449 6.70561 26.9553 6.68428C27.0091 6.57496 27.0618 6.46505 27.1146 6.35514C27.1273 6.32877 27.1387 6.30181 27.1494 6.27841C27.2234 6.26626 27.2234 6.26686 27.2962 6.30744C27.2923 6.32255 27.2894 6.33914 27.2837 6.35425C27.1733 6.65317 27.0535 6.94676 26.9127 7.22909C26.8259 7.40359 26.7014 7.53276 26.5515 7.632C26.4886 7.67348 26.4216 7.7031 26.3478 7.70636C26.2943 7.70873 26.2688 7.67881 26.2792 7.61808C26.2878 7.56771 26.301 7.51705 26.3187 7.46995C26.3395 7.41455 26.365 7.36093 26.3925 7.30938C26.571 6.97728 26.7318 6.63451 26.8786 6.28315C26.8901 6.25619 26.9025 6.22982 26.914 6.20435C26.9875 6.20523 26.9875 6.20523 27.072 6.24849C27.066 6.27071 27.0616 6.295 27.0532 6.31752C27.0122 6.4292 26.9696 6.54 26.9293 6.65169C26.9197 6.67865 26.9168 6.70857 26.9109 6.73701C26.8833 6.7456 26.8859 6.76812 26.8914 6.79182C26.8851 6.79389 26.8792 6.79597 26.8729 6.79804C26.8755 6.80219 26.8781 6.80663 26.8807 6.81078C26.8833 6.80337 26.8859 6.79597 26.8885 6.78856C26.9096 6.77849 26.9153 6.76042 26.9103 6.73642Z" fill="#11401C"/>
<path d="M31.2701 6.31339C31.2865 6.35605 31.3005 6.39101 31.3135 6.42656C31.4206 6.72045 31.5336 7.01078 31.6614 7.2937C31.6994 7.37813 31.7316 7.46523 31.7461 7.55915C31.7635 7.66995 31.7298 7.70846 31.6365 7.67587C31.5832 7.65721 31.531 7.62847 31.4835 7.59499C31.373 7.51708 31.2836 7.41191 31.2101 7.29044C31.0467 7.02026 30.9233 6.72548 30.8102 6.42508C30.8048 6.41027 30.8061 6.3922 30.8035 6.36968C30.8703 6.36227 30.9334 6.35546 31.0012 6.34776C31.0854 6.51485 31.1462 6.69438 31.2551 6.84339C31.1987 6.68104 31.1426 6.51899 31.0836 6.34953C31.1439 6.31754 31.2013 6.31072 31.2701 6.31339Z" fill="#11401C"/>
<path d="M27.5552 6.89766C27.6365 6.72761 27.7179 6.55756 27.801 6.38366C27.8668 6.39077 27.9304 6.39758 28.0006 6.40529C27.9951 6.43047 27.9933 6.45091 27.9865 6.46928C27.8865 6.74065 27.773 7.00461 27.6345 7.25347C27.569 7.37108 27.4929 7.47832 27.3983 7.5675C27.3336 7.62853 27.264 7.68037 27.1837 7.71088C27.1439 7.72599 27.1039 7.73903 27.0595 7.71355C27.0366 7.66111 27.0441 7.60542 27.0589 7.55209C27.0774 7.48632 27.0964 7.41967 27.1239 7.35864C27.2629 7.05083 27.3853 6.73443 27.5014 6.41477C27.5087 6.39492 27.5175 6.37596 27.5269 6.35315C27.5885 6.33744 27.6454 6.35611 27.7101 6.37625C27.7028 6.40558 27.6986 6.42958 27.6911 6.4521C27.6511 6.56882 27.61 6.68525 27.569 6.80138C27.5576 6.83338 27.5417 6.86419 27.5576 6.89974C27.5495 6.90181 27.5417 6.90448 27.5342 6.90685C27.536 6.90863 27.5391 6.91218 27.5396 6.91159C27.5453 6.90803 27.5503 6.9027 27.5552 6.89766Z" fill="#11401C"/>
<path d="M29.4018 41.9985C29.394 41.7447 29.3843 41.4908 29.3784 41.2366C29.362 40.5306 29.3467 39.8246 29.3319 39.1186C29.3212 38.6076 29.3132 38.0963 29.3002 37.5852C29.2981 37.5049 29.3142 37.4421 29.3654 37.3885C29.407 37.3447 29.4467 37.2982 29.4852 37.2555C29.5234 37.2679 29.5127 37.299 29.5124 37.3219C29.5093 37.534 29.5044 37.7464 29.5002 37.9585C29.494 38.2705 29.4883 38.5821 29.4815 38.8941C29.4665 39.6001 29.4514 40.306 29.4358 41.012C29.4288 41.3281 29.4215 41.6442 29.414 41.9606C29.4137 41.9734 29.4116 41.9858 29.4103 41.9985C29.4075 41.9985 29.4046 41.9985 29.4018 41.9985Z" fill="#11401C"/>
<path d="M30.6121 6.9913C30.5996 6.96049 30.5846 6.93086 30.5747 6.89916C30.5339 6.76525 30.4941 6.63075 30.4552 6.49625C30.4471 6.46841 30.4432 6.43878 30.4365 6.4056C30.491 6.38042 30.5425 6.3899 30.6004 6.39227C30.6142 6.43137 30.629 6.47048 30.642 6.51018C30.7449 6.82895 30.8571 7.14328 30.9839 7.45079C31.0177 7.53256 31.0491 7.61551 31.0598 7.70616C31.0624 7.72749 31.0665 7.74853 31.0668 7.76986C31.0676 7.83089 31.0393 7.86229 30.9891 7.84629C30.9353 7.82911 30.8813 7.8063 30.833 7.77519C30.7399 7.71535 30.6651 7.62973 30.5989 7.53493C30.4926 7.38235 30.4157 7.20993 30.3421 7.03544C30.3328 7.01322 30.3273 6.98596 30.3279 6.96138C30.3302 6.79369 30.3346 6.62631 30.3388 6.45863C30.3388 6.45656 30.3442 6.45478 30.3473 6.45241C30.3731 6.4527 30.3723 6.47907 30.3793 6.49685C30.4302 6.62631 30.4799 6.75637 30.531 6.88524C30.5451 6.9202 30.5625 6.95367 30.5809 6.98596C30.5846 6.99248 30.6009 6.98922 30.6113 6.9907C30.6103 7.00107 30.6092 7.01144 30.6082 7.02181C30.6098 7.01174 30.6108 7.00167 30.6121 6.9913Z" fill="#11401C"/>
<path d="M28.1962 7.04435C28.264 6.96437 28.2954 6.86334 28.3347 6.76765C28.3726 6.67492 28.4072 6.58012 28.4485 6.47169C28.4578 6.49747 28.4641 6.50754 28.4646 6.51761C28.4695 6.65626 28.4719 6.79461 28.4783 6.93326C28.4817 7.00466 28.47 7.06954 28.4383 7.13175C28.383 7.24018 28.3334 7.35276 28.2762 7.46C28.2063 7.59065 28.1167 7.70234 28.0062 7.79092C27.9467 7.83861 27.8836 7.87802 27.8106 7.89105C27.7565 7.90053 27.7311 7.87683 27.7337 7.81314C27.7355 7.77048 27.7415 7.72663 27.7524 7.68575C27.769 7.62383 27.7877 7.56221 27.8116 7.50355C27.9434 7.18152 28.0611 6.85297 28.1681 6.51939C28.1772 6.49124 28.1879 6.46369 28.1985 6.43377C28.2523 6.4154 28.3043 6.42666 28.3651 6.43081C28.3609 6.45984 28.3604 6.48413 28.3541 6.50635C28.3118 6.65448 28.2681 6.80202 28.2248 6.94985C28.2154 6.98155 28.2058 7.01295 28.1962 7.04435Z" fill="#11401C"/>
<path d="M29.4108 33.9953C29.3885 33.9648 29.375 33.9494 29.3643 33.9319C29.3188 33.8578 29.2586 33.7891 29.2339 33.7067C29.2092 33.625 29.2183 33.529 29.2159 33.4392C29.2076 33.1204 29.2009 32.802 29.1939 32.4832C29.1928 32.4316 29.1936 32.3801 29.1936 32.3247C29.2702 32.2204 29.357 32.1259 29.4456 32.0361C29.4804 32.0492 29.4714 32.0794 29.4714 32.1025C29.4698 32.3567 29.4682 32.6109 29.4649 32.8651C29.4604 33.201 29.4547 33.537 29.4493 33.8729C29.4487 33.8987 29.4485 33.9251 29.443 33.9496C29.4399 33.9633 29.4264 33.9742 29.4108 33.9953Z" fill="#11401C"/>
<path d="M29.8735 20.5482C29.8369 20.5681 29.8075 20.5841 29.7761 20.6012C29.7625 20.4925 29.8182 17.993 29.8363 17.8638C29.8602 17.8541 29.887 17.8431 29.9153 17.8315C29.921 17.8499 29.9281 17.8618 29.9278 17.8736C29.9101 18.7609 29.8919 19.6479 29.8735 20.5482Z" fill="#11401C"/>
<path d="M29.8069 36.8977C30.0818 37.2209 30.0093 37.8211 29.6812 38.0122C29.6627 38.0036 29.6664 37.9844 29.6666 37.9684C29.6716 37.6958 29.6804 37.4236 29.6801 37.151C29.6801 37.0639 29.7074 37.0023 29.7599 36.9478C29.7737 36.9336 29.7869 36.919 29.8069 36.8977Z" fill="#11401C"/>
<path d="M29.5627 29.9802C29.5788 29.2194 29.5949 28.4586 29.611 27.6898C29.6284 27.654 29.6588 27.6253 29.6939 27.6057C29.7269 27.6226 29.7165 27.6519 29.716 27.6744C29.7108 27.95 29.7045 28.2252 29.6986 28.5007C29.6895 28.9223 29.6783 29.3441 29.6726 29.766C29.6718 29.8605 29.6336 29.9254 29.5627 29.9802Z" fill="#11401C"/>
<path d="M29.4922 33.8587C29.4766 33.7263 29.4982 32.3632 29.5203 31.9546C29.5455 31.9301 29.5733 31.9025 29.599 31.8773C29.6367 31.8909 29.625 31.9218 29.6247 31.944C29.6188 32.2542 29.6112 32.564 29.6047 32.8742C29.5993 33.124 29.5956 33.3737 29.5894 33.6234C29.5863 33.7417 29.5829 33.7458 29.4922 33.8587Z" fill="#11401C"/>
<path d="M31.6505 18.0032C31.7995 18.1671 31.9125 18.3437 32.0017 18.5396C32.1238 18.8081 32.1901 19.0928 32.1857 19.3969C32.1828 19.5883 32.1516 19.7736 32.088 19.9511C31.9762 20.2625 31.8109 20.5331 31.6069 20.7746C31.4171 20.9993 31.2045 21.1919 30.9813 21.3706C30.7307 21.5715 30.4705 21.7558 30.2044 21.9283C29.6263 22.3029 29.046 22.673 28.4664 23.045C28.451 23.0547 28.4347 23.0618 28.4107 23.0565C28.4321 23.037 28.4521 23.0153 28.4749 22.9984C28.7195 22.8188 28.9625 22.6363 29.2102 22.462C29.506 22.254 29.8072 22.0554 30.1038 21.8489C30.4071 21.6376 30.7039 21.415 30.9831 21.1631C31.1731 20.9916 31.3527 20.8069 31.5125 20.5989C31.6934 20.3633 31.8392 20.1037 31.9346 19.8085C32.0097 19.5765 32.0232 19.3382 31.9946 19.0955C31.951 18.7272 31.8452 18.3846 31.6672 18.0722C31.6612 18.0616 31.6557 18.0503 31.6508 18.0387C31.6495 18.0358 31.6505 18.031 31.6505 18.0032Z" fill="#11401C"/>
<path d="M32.6089 6.68378C32.6085 6.69021 32.6078 6.69638 32.6075 6.70282C32.6075 6.70604 32.6082 6.70953 32.6085 6.71301C32.6059 6.70926 32.6005 6.70497 32.601 6.70175C32.6019 6.69531 32.6059 6.68968 32.6089 6.68324C32.6094 6.68244 32.6089 6.68378 32.6089 6.68378Z" fill="#11401C"/>
</g>
<path d="M38.8056 34.098C38.1243 34.098 37.5083 33.9813 36.9576 33.748C36.4163 33.5147 35.987 33.1787 35.6696 32.74C35.3523 32.3013 35.189 31.7833 35.1796 31.186H37.2796C37.3076 31.5873 37.4476 31.9047 37.6996 32.138C37.961 32.3713 38.3156 32.488 38.7636 32.488C39.221 32.488 39.5803 32.3807 39.8416 32.166C40.103 31.942 40.2336 31.6527 40.2336 31.298C40.2336 31.0087 40.145 30.7707 39.9676 30.584C39.7903 30.3973 39.5663 30.2527 39.2956 30.15C39.0343 30.038 38.6703 29.9167 38.2036 29.786C37.569 29.5993 37.051 29.4173 36.6496 29.24C36.2576 29.0533 35.917 28.778 35.6276 28.414C35.3476 28.0407 35.2076 27.546 35.2076 26.93C35.2076 26.3513 35.3523 25.8473 35.6416 25.418C35.931 24.9887 36.337 24.662 36.8596 24.438C37.3823 24.2047 37.9796 24.088 38.6516 24.088C39.6596 24.088 40.4763 24.3353 41.1016 24.83C41.7363 25.3153 42.0863 25.9967 42.1516 26.874H39.9956C39.977 26.538 39.8323 26.2627 39.5616 26.048C39.3003 25.824 38.9503 25.712 38.5116 25.712C38.129 25.712 37.821 25.81 37.5876 26.006C37.3636 26.202 37.2516 26.4867 37.2516 26.86C37.2516 27.1213 37.3356 27.3407 37.5036 27.518C37.681 27.686 37.8956 27.826 38.1476 27.938C38.409 28.0407 38.773 28.162 39.2396 28.302C39.8743 28.4887 40.3923 28.6753 40.7936 28.862C41.195 29.0487 41.5403 29.3287 41.8296 29.702C42.119 30.0753 42.2636 30.5653 42.2636 31.172C42.2636 31.6947 42.1283 32.18 41.8576 32.628C41.587 33.076 41.1903 33.4353 40.6676 33.706C40.145 33.9673 39.5243 34.098 38.8056 34.098ZM46.9969 34.126C46.2502 34.126 45.5782 33.9627 44.9809 33.636C44.3835 33.3 43.9122 32.8287 43.5669 32.222C43.2309 31.6153 43.0629 30.9153 43.0629 30.122C43.0629 29.3287 43.2355 28.6287 43.5809 28.022C43.9355 27.4153 44.4162 26.9487 45.0229 26.622C45.6295 26.286 46.3062 26.118 47.0529 26.118C47.7995 26.118 48.4762 26.286 49.0829 26.622C49.6895 26.9487 50.1655 27.4153 50.5109 28.022C50.8655 28.6287 51.0429 29.3287 51.0429 30.122C51.0429 30.9153 50.8609 31.6153 50.4969 32.222C50.1422 32.8287 49.6569 33.3 49.0409 33.636C48.4342 33.9627 47.7529 34.126 46.9969 34.126ZM46.9969 32.418C47.3515 32.418 47.6829 32.334 47.9909 32.166C48.3082 31.9887 48.5602 31.7273 48.7469 31.382C48.9335 31.0367 49.0269 30.6167 49.0269 30.122C49.0269 29.3847 48.8309 28.82 48.4389 28.428C48.0562 28.0267 47.5849 27.826 47.0249 27.826C46.4649 27.826 45.9935 28.0267 45.6109 28.428C45.2375 28.82 45.0509 29.3847 45.0509 30.122C45.0509 30.8593 45.2329 31.4287 45.5969 31.83C45.9702 32.222 46.4369 32.418 46.9969 32.418ZM54.0306 23.64V34H52.0706V23.64H54.0306ZM58.7911 32.194L60.7511 26.244H62.8371L59.9671 34H57.5871L54.7311 26.244H56.8311L58.7911 32.194ZM70.738 29.954C70.738 30.234 70.7193 30.486 70.682 30.71H65.012C65.0586 31.27 65.2546 31.7087 65.6 32.026C65.9453 32.3433 66.37 32.502 66.874 32.502C67.602 32.502 68.12 32.1893 68.428 31.564H70.542C70.318 32.3107 69.8886 32.9267 69.254 33.412C68.6193 33.888 67.84 34.126 66.916 34.126C66.1693 34.126 65.4973 33.9627 64.9 33.636C64.312 33.3 63.85 32.8287 63.514 32.222C63.1873 31.6153 63.024 30.9153 63.024 30.122C63.024 29.3193 63.1873 28.6147 63.514 28.008C63.8406 27.4013 64.298 26.9347 64.886 26.608C65.474 26.2813 66.1506 26.118 66.916 26.118C67.6533 26.118 68.3113 26.2767 68.89 26.594C69.478 26.9113 69.9306 27.364 70.248 27.952C70.5746 28.5307 70.738 29.198 70.738 29.954ZM68.708 29.394C68.6986 28.89 68.5166 28.4887 68.162 28.19C67.8073 27.882 67.3733 27.728 66.86 27.728C66.3746 27.728 65.964 27.8773 65.628 28.176C65.3013 28.4653 65.1006 28.8713 65.026 29.394H68.708ZM82.4126 24.228V34H80.4526V27.644L77.8346 34H76.3506L73.7186 27.644V34H71.7586V24.228H73.9846L77.0926 31.494L80.2006 24.228H82.4126ZM91.3604 26.244L86.5584 37.668H84.4724L86.1524 33.804L83.0444 26.244H85.2424L87.2444 31.662L89.2744 26.244H91.3604ZM97.9989 32.138H94.1069L93.4629 34H91.4049L94.9189 24.214H97.2009L100.715 34H98.6429L97.9989 32.138ZM97.4669 30.57L96.0529 26.482L94.6389 30.57H97.4669ZM103.578 23.64V34H101.618V23.64H103.578ZM107.065 23.64V34H105.105V23.64H107.065ZM115.801 29.954C115.801 30.234 115.783 30.486 115.745 30.71H110.075C110.122 31.27 110.318 31.7087 110.663 32.026C111.009 32.3433 111.433 32.502 111.937 32.502C112.665 32.502 113.183 32.1893 113.491 31.564H115.605C115.381 32.3107 114.952 32.9267 114.317 33.412C113.683 33.888 112.903 34.126 111.979 34.126C111.233 34.126 110.561 33.9627 109.963 33.636C109.375 33.3 108.913 32.8287 108.577 32.222C108.251 31.6153 108.087 30.9153 108.087 30.122C108.087 29.3193 108.251 28.6147 108.577 28.008C108.904 27.4013 109.361 26.9347 109.949 26.608C110.537 26.2813 111.214 26.118 111.979 26.118C112.717 26.118 113.375 26.2767 113.953 26.594C114.541 26.9113 114.994 27.364 115.311 27.952C115.638 28.5307 115.801 29.198 115.801 29.954ZM113.771 29.394C113.762 28.89 113.58 28.4887 113.225 28.19C112.871 27.882 112.437 27.728 111.923 27.728C111.438 27.728 111.027 27.8773 110.691 28.176C110.365 28.4653 110.164 28.8713 110.089 29.394H113.771ZM118.782 27.448C119.034 27.0373 119.361 26.7153 119.762 26.482C120.173 26.2487 120.639 26.132 121.162 26.132V28.19H120.644C120.028 28.19 119.561 28.3347 119.244 28.624C118.936 28.9133 118.782 29.4173 118.782 30.136V34H116.822V26.244H118.782V27.448ZM125.11 26.118C125.689 26.118 126.198 26.2347 126.636 26.468C127.075 26.692 127.42 26.986 127.672 27.35V26.244H129.646V34.056C129.646 34.7747 129.502 35.414 129.212 35.974C128.923 36.5433 128.489 36.9913 127.91 37.318C127.332 37.654 126.632 37.822 125.81 37.822C124.709 37.822 123.804 37.5653 123.094 37.052C122.394 36.5387 121.998 35.8387 121.904 34.952H123.85C123.953 35.3067 124.172 35.5867 124.508 35.792C124.854 36.0067 125.269 36.114 125.754 36.114C126.324 36.114 126.786 35.9413 127.14 35.596C127.495 35.26 127.672 34.7467 127.672 34.056V32.852C127.42 33.216 127.07 33.5193 126.622 33.762C126.184 34.0047 125.68 34.126 125.11 34.126C124.457 34.126 123.86 33.958 123.318 33.622C122.777 33.286 122.348 32.8147 122.03 32.208C121.722 31.592 121.568 30.8873 121.568 30.094C121.568 29.31 121.722 28.6147 122.03 28.008C122.348 27.4013 122.772 26.9347 123.304 26.608C123.846 26.2813 124.448 26.118 125.11 26.118ZM127.672 30.122C127.672 29.646 127.579 29.24 127.392 28.904C127.206 28.5587 126.954 28.2973 126.636 28.12C126.319 27.9333 125.978 27.84 125.614 27.84C125.25 27.84 124.914 27.9287 124.606 28.106C124.298 28.2833 124.046 28.5447 123.85 28.89C123.664 29.226 123.57 29.6273 123.57 30.094C123.57 30.5607 123.664 30.9713 123.85 31.326C124.046 31.6713 124.298 31.9373 124.606 32.124C124.924 32.3107 125.26 32.404 125.614 32.404C125.978 32.404 126.319 32.3153 126.636 32.138C126.954 31.9513 127.206 31.69 127.392 31.354C127.579 31.0087 127.672 30.598 127.672 30.122ZM132.144 25.32C131.799 25.32 131.51 25.2127 131.276 24.998C131.052 24.774 130.94 24.4987 130.94 24.172C130.94 23.8453 131.052 23.5747 131.276 23.36C131.51 23.136 131.799 23.024 132.144 23.024C132.49 23.024 132.774 23.136 132.998 23.36C133.232 23.5747 133.348 23.8453 133.348 24.172C133.348 24.4987 133.232 24.774 132.998 24.998C132.774 25.2127 132.49 25.32 132.144 25.32ZM133.11 26.244V34H131.15V26.244H133.11ZM141.847 29.954C141.847 30.234 141.828 30.486 141.791 30.71H136.121C136.168 31.27 136.364 31.7087 136.709 32.026C137.054 32.3433 137.479 32.502 137.983 32.502C138.711 32.502 139.229 32.1893 139.537 31.564H141.651C141.427 32.3107 140.998 32.9267 140.363 33.412C139.728 33.888 138.949 34.126 138.025 34.126C137.278 34.126 136.606 33.9627 136.009 33.636C135.421 33.3 134.959 32.8287 134.623 32.222C134.296 31.6153 134.133 30.9153 134.133 30.122C134.133 29.3193 134.296 28.6147 134.623 28.008C134.95 27.4013 135.407 26.9347 135.995 26.608C136.583 26.2813 137.26 26.118 138.025 26.118C138.762 26.118 139.42 26.2767 139.999 26.594C140.587 26.9113 141.04 27.364 141.357 27.952C141.684 28.5307 141.847 29.198 141.847 29.954ZM139.817 29.394C139.808 28.89 139.626 28.4887 139.271 28.19C138.916 27.882 138.482 27.728 137.969 27.728C137.484 27.728 137.073 27.8773 136.737 28.176C136.41 28.4653 136.21 28.8713 136.135 29.394H139.817ZM145.836 34.126C145.201 34.126 144.632 34.014 144.128 33.79C143.624 33.5567 143.222 33.244 142.924 32.852C142.634 32.46 142.476 32.026 142.448 31.55H144.422C144.459 31.8487 144.604 32.096 144.856 32.292C145.117 32.488 145.439 32.586 145.822 32.586C146.195 32.586 146.484 32.5113 146.69 32.362C146.904 32.2127 147.012 32.0213 147.012 31.788C147.012 31.536 146.881 31.3493 146.62 31.228C146.368 31.0973 145.962 30.9573 145.402 30.808C144.823 30.668 144.347 30.5233 143.974 30.374C143.61 30.2247 143.292 29.996 143.022 29.688C142.76 29.38 142.63 28.9647 142.63 28.442C142.63 28.0127 142.751 27.6207 142.994 27.266C143.246 26.9113 143.6 26.6313 144.058 26.426C144.524 26.2207 145.07 26.118 145.696 26.118C146.62 26.118 147.357 26.3513 147.908 26.818C148.458 27.2753 148.762 27.896 148.818 28.68H146.942C146.914 28.372 146.783 28.1293 146.55 27.952C146.326 27.7653 146.022 27.672 145.64 27.672C145.285 27.672 145.01 27.7373 144.814 27.868C144.627 27.9987 144.534 28.1807 144.534 28.414C144.534 28.6753 144.664 28.876 144.926 29.016C145.187 29.1467 145.593 29.282 146.144 29.422C146.704 29.562 147.166 29.7067 147.53 29.856C147.894 30.0053 148.206 30.2387 148.468 30.556C148.738 30.864 148.878 31.2747 148.888 31.788C148.888 32.236 148.762 32.6373 148.51 32.992C148.267 33.3467 147.912 33.6267 147.446 33.832C146.988 34.028 146.452 34.126 145.836 34.126Z" fill="#11401C"/>
<defs>
<clipPath id="clip0_3039_6450">
<rect width="38.7719" height="42" fill="white" transform="translate(10)"/>
</clipPath>
</defs>
</svg>
