<svg width="800" height="533" viewBox="0 0 800 533" fill="none" xmlns="http://www.w3.org/2000/svg">
<path d="M-923.599 1157.95C-927.544 1134.68 -914.123 792.905 -789.783 509.924C-678.169 256.267 -418.617 111.698 -114.839 294.01C210.647 489.404 491.4 509.053 717.781 452.055C941.201 395.546 1089.77 225.275 1156.5 116.699C1301.32 -117.932 1515.24 27.1992 1440.1 335.907C1404.65 479.51 1311.18 519.66 1149.21 534.56C979.906 550.135 729.774 517.074 382.835 584.45C48.2439 649.682 -328.281 806.346 -540.007 1005.76C-765.334 1218.16 -890.565 1361 -923.599 1157.95Z" fill="url(#paint0_linear_651_12292)"/>
<defs>
<linearGradient id="paint0_linear_651_12292" x1="-937.188" y1="1075.57" x2="1545.77" y2="430.972" gradientUnits="userSpaceOnUse">
<stop stop-color="#11401C"/>
<stop offset="0.5" stop-color="#1F7332"/>
<stop offset="1" stop-color="#859B5B"/>
</linearGradient>
</defs>
</svg>
