<svg width="56" height="266" viewBox="0 0 56 266" fill="none" xmlns="http://www.w3.org/2000/svg">
<path d="M39.4726 106.188C38.7615 104.794 37.9184 103.482 36.9565 102.271C35.8894 100.799 34.8418 99.3052 33.7551 97.8534C32.3453 95.9838 31.053 94.0202 29.839 92.0253C28.5257 89.9706 27.348 87.8208 26.3145 85.5915C24.3906 81.2705 23.1974 76.6209 22.7901 71.8569C22.436 63.5501 23.0942 55.2294 24.7481 47.1034C25.1317 44.6631 25.8371 42.2931 26.8432 40.0637L25.2768 39.9698C29.6334 47.5629 35.067 54.4877 38.4642 62.6971C40.2443 66.976 41.1967 71.5941 41.2642 76.275C41.2094 80.8592 40.7207 85.4257 39.8055 89.9051C39.3257 92.6102 38.7677 95.3049 38.4055 98.0414C38.213 99.3856 38.1278 100.745 38.1509 102.104C38.2378 103.656 38.5448 105.184 39.0614 106.637C39.2376 107.18 39.825 107.076 39.7663 106.481C39.5214 104.048 39.5543 101.593 39.8642 99.1694C40.1873 96.6419 40.7649 94.1561 41.2642 91.6598C42.3061 87.0843 42.9226 82.4104 43.1048 77.7059C43.1674 72.871 42.3288 68.071 40.6376 63.5849C39.0025 59.4772 36.9854 55.5548 34.6166 51.8765C32.0124 47.6987 29.2027 43.5836 26.7257 39.27C26.6413 39.1364 26.5292 39.0255 26.3979 38.9459C26.2667 38.8663 26.12 38.8201 25.9693 38.811C25.8185 38.8019 25.6679 38.8301 25.5291 38.8934C25.3903 38.9567 25.2671 39.0534 25.1691 39.176C24.2513 41.1597 23.5925 43.2682 23.2111 45.4427C22.6094 48.0636 22.1388 50.7168 21.8013 53.391C21.4684 56.1588 21.253 58.937 21.0572 61.7466C20.8468 64.3935 20.8076 67.0527 20.9397 69.7054C21.2012 74.5864 22.2443 79.3836 24.0236 83.8891C26.1142 88.7801 28.8146 93.3474 32.0516 97.467C34.3719 100.6 37.1817 103.368 39.218 106.721C39.4334 107.065 39.6292 106.481 39.5313 106.261L39.4726 106.188Z" fill="#D4D4D4"/>
<path d="M25.3555 39.9171C25.3228 46.0819 25.7813 52.2385 26.7261 58.3204C27.5289 64.3469 28.41 70.3734 29.5555 76.3477C30.6454 82.1698 32.1142 87.9038 33.9513 93.5081C34.8814 96.2968 35.9093 99.0646 36.8884 101.864C37.8674 104.663 38.8464 107.232 40.031 109.833C42.3709 114.951 45.2688 119.755 48.0198 124.633C50.8982 129.74 53.5317 134.983 56.0086 140.3C61.0506 151.204 65.3191 162.453 69.3625 173.806C73.2786 184.814 77.1947 195.854 81.6003 206.643C82.2464 208.21 82.9905 209.714 83.7052 211.239C83.9891 211.866 85.1247 211.845 84.8017 210.999C82.6282 205.286 80.3275 199.625 78.2031 193.891C76.245 188.459 74.287 182.997 72.3289 177.545C68.3443 166.327 64.2031 155.131 59.3765 144.279C56.9811 138.883 54.3998 133.587 51.6324 128.393C48.9891 123.442 46.0324 118.7 43.4184 113.771C40.885 108.699 38.6898 103.442 36.8492 98.041C34.7443 92.3124 33.001 86.4399 31.631 80.4629C30.3257 74.6557 29.2031 68.8102 28.2632 62.9265C27.2842 56.9522 26.3051 50.9466 25.894 44.8887C25.7765 43.2281 25.659 41.5569 25.6003 39.8962C25.6003 39.6142 25.3555 39.7605 25.3457 39.9694L25.3555 39.9171Z" fill="#D4D4D4"/>
<path d="M59.7386 0.49947C58.1036 8.1971 59.5134 16.1663 58.3288 23.9161C57.8934 26.6753 57.0123 29.3329 55.7246 31.7704C54.1529 35.0162 52.0357 37.9262 49.4785 40.3559C48.333 41.4003 47.0798 42.2985 45.9246 43.3221C45.0435 44.1054 44.2113 44.8888 44.3484 46.2048C44.3484 46.5182 44.8673 46.9882 45.0729 46.5599C45.3055 46.1463 45.5998 45.7759 45.9442 45.4632C46.3127 45.0906 46.7017 44.7418 47.1092 44.4188C48.1764 43.5414 49.2728 42.6954 50.3106 41.7763C52.8182 39.4406 54.9195 36.6509 56.5176 33.5356C57.9133 31.0612 58.9064 28.3526 59.4547 25.5246C59.9521 22.47 60.162 19.3699 60.0813 16.2707C60.0813 13.8789 59.9442 11.4767 59.9246 9.08489C59.9246 6.30664 60.0323 3.53883 60.2085 0.729251C60.2085 0.415915 59.8267 0.0399101 59.7288 0.49947H59.7386Z" fill="#D4D4D4"/>
<path d="M59.5522 0.186755C58.5046 1.66988 57.5354 3.21568 56.4193 4.63614C55.3032 6.0566 54.2557 7.0906 53.1592 8.30217C50.8748 10.7566 48.8372 13.459 47.0794 16.3654C44.0641 21.5876 43.4473 27.8544 43.5941 33.8182C43.5941 35.7191 43.7704 37.62 43.8976 39.5209L44.1032 42.5707C44.0613 43.6605 44.2279 44.7479 44.5927 45.7668C44.7592 46.1219 45.2389 46.3099 45.4249 45.8921C45.6645 45.1573 45.7152 44.3675 45.5718 43.6047C45.513 42.6752 45.4543 41.7456 45.3857 40.816C45.2781 39.0927 45.1508 37.3589 45.0822 35.5938C44.9599 32.8939 45.0287 30.1881 45.2879 27.4993C45.5622 24.2316 46.4583 21.0579 47.9214 18.1723C49.5386 15.2723 51.4637 12.5807 53.6585 10.1509C54.8333 8.78263 56.106 7.52928 57.2319 6.10883C58.4871 4.53968 59.5649 2.81842 60.4431 0.980551C60.6585 0.520991 59.9144 -0.35636 59.5522 0.155423V0.186755Z" fill="#D4D4D4"/>
<path d="M59.4058 0.89583C58.1988 5.6091 56.5011 10.1634 54.3443 14.4737C53.3653 16.6462 52.2492 18.7978 51.2995 21.0225C50.3499 23.2472 49.459 25.6285 48.6758 27.989C45.5028 37.583 43.291 47.5084 42.0772 57.5993C41.3821 63.4273 40.8338 69.4852 41.5289 75.355C41.5876 75.825 42.4296 76.3994 42.5079 75.6579C42.8212 70.4983 42.8114 65.3491 43.3499 60.2C43.9013 55.0395 44.7282 49.9168 45.8268 44.8569C46.9037 39.8958 48.1471 34.9659 49.6352 30.1301C51.124 25.4605 52.8763 20.8914 54.8828 16.4478C55.9401 14.0455 56.9779 11.6328 57.8198 9.13657C58.7744 6.52473 59.4318 3.80012 59.7779 1.02116C59.7779 0.707823 59.5037 0.478049 59.4156 0.864497L59.4058 0.89583Z" fill="#D4D4D4"/>
<path d="M0.096401 101.352C2.4689 103.652 5.22988 105.449 8.23206 106.647C11.1646 107.92 14.227 108.821 17.3565 109.332C21.0181 109.937 24.7286 110.157 28.4097 110.595C30.3068 110.803 32.1923 111.117 34.0586 111.535C35.5332 111.796 36.9729 112.245 38.3467 112.872C39.5753 113.548 40.7337 114.361 41.8027 115.296C42.9638 116.198 43.9734 117.303 44.7887 118.565C45.1803 119.212 45.9831 118.805 45.6796 118.074C45.1716 117.004 44.4537 116.064 43.5747 115.316C42.5718 114.359 41.4979 113.489 40.3635 112.716C39.3205 111.984 38.187 111.411 36.9957 111.013C35.2098 110.441 33.3873 110.008 31.5426 109.718C24.5817 108.569 17.4447 108.778 10.6502 106.501C6.88925 105.371 3.35955 103.501 0.243248 100.986C0.106185 100.872 -0.00150113 101.258 0.096401 101.352Z" fill="#D4D4D4"/>
<path d="M0.0965798 101.477C1.61406 102.908 3.7679 102.521 5.62804 102.417C8.0756 102.27 10.4546 101.56 12.9022 101.372C16.1706 101.134 19.44 101.821 22.3797 103.363C25.3194 104.906 27.8251 107.249 29.6434 110.156C29.898 110.574 30.4169 110.386 30.2896 109.874C29.9218 108.79 29.306 107.82 28.498 107.054C27.7397 106.228 26.9424 105.443 26.1092 104.704C24.4789 103.253 22.6144 102.131 20.6071 101.393C18.5949 100.638 16.4837 100.225 14.3511 100.171C11.9691 100.253 9.59945 100.571 7.27281 101.122C6.04413 101.334 4.8054 101.473 3.56231 101.539C2.42531 101.721 1.26442 101.481 0.272796 100.86C-0.0111197 100.631 -0.079644 101.278 0.0965798 101.445V101.477Z" fill="#D4D4D4"/>
<path d="M0.341525 101.643C1.18348 104.004 3.27858 105.915 4.98207 107.534C5.84155 108.355 6.7472 109.119 7.69397 109.822C8.67299 110.532 9.73033 111.106 10.7681 111.712C12.7955 112.931 14.9888 113.805 17.2688 114.302C19.4109 114.837 21.6435 114.801 23.7695 114.198C25.962 113.546 27.9459 112.268 29.5066 110.5C29.8296 110.093 29.252 109.132 28.8408 109.571C27.4168 111.024 25.7177 112.135 23.8576 112.83C21.8827 113.516 19.7757 113.649 17.7387 113.216C15.4971 112.806 13.3339 112.005 11.3359 110.845C9.31885 109.759 7.41823 108.442 5.6674 106.918C4.69175 106.079 3.76025 105.183 2.87719 104.234C2.03523 103.294 1.37929 102.218 0.58628 101.247C0.410056 101.027 0.302364 101.518 0.341525 101.643Z" fill="#D4D4D4"/>
<path d="M12.3342 73.967C12.6473 75.4982 13.1201 76.9871 13.744 78.406C14.3705 80.0144 15.0167 81.6333 15.702 83.1895C17.0433 86.0514 19.158 88.4118 21.0964 90.8036C25.1132 95.6104 29.6182 99.9262 34.5286 103.671C35.4097 104.371 36.33 104.998 37.2209 105.687C38.3216 106.408 39.2263 107.423 39.8447 108.632C39.9524 108.925 40.158 108.695 40.1775 108.497C40.1687 108.012 40.0598 107.534 39.8584 107.099C39.657 106.664 39.3682 106.282 39.0125 105.98C38.1904 105.123 37.2919 104.353 36.33 103.682C34.1174 102.042 32.0027 100.266 29.937 98.4595C27.5735 96.3747 25.3338 94.1353 23.2307 91.7541C21.0845 89.4591 19.1197 86.9788 17.3566 84.3385C16.4405 82.7755 15.6354 81.1416 14.9482 79.4504C14.5566 78.5626 14.1747 77.6748 13.7929 76.787C13.4111 75.8993 13.0097 74.6981 12.5006 73.779C12.3831 73.5597 12.2559 73.873 12.2754 73.9984L12.3342 73.967Z" fill="#D4D4D4"/>
<path d="M4.83495 76.6604C6.45034 79.6476 9.16222 81.6947 11.7762 83.606C12.9804 84.4938 14.1944 85.3503 15.4769 86.1128C16.6588 86.9122 17.9196 87.5707 19.2364 88.0763C19.6671 88.2121 19.4713 87.3661 19.2364 87.2303C18.0811 86.4052 16.7496 85.8307 15.5454 85.1414C14.3412 84.4521 13.1175 83.5852 11.9329 82.7392C9.43635 80.9531 6.78321 79.0627 4.93286 76.4724C4.84475 76.3367 4.74685 76.6082 4.7958 76.6918L4.83495 76.6604Z" fill="#D4D4D4"/>
<path d="M11.5022 91.4824C14.1162 92.0881 16.7595 92.7044 19.3344 93.5713C20.8632 94.1158 22.3577 94.7647 23.8085 95.514C25.2281 96.2137 26.6085 96.9971 28.0085 97.7282C28.263 97.8535 28.2826 97.2895 28.1847 97.1642C27.6915 96.6422 27.1057 96.2303 26.4616 95.9526L24.2295 94.8246C22.7013 94.0552 21.1322 93.3821 19.5302 92.8088C16.9816 91.7872 14.2921 91.2226 11.5707 91.1377C11.4435 91.1377 11.3749 91.4406 11.5707 91.4719L11.5022 91.4824Z" fill="#D4D4D4"/>
<path d="M12.6862 73.6525C12.4317 73.5898 12.1673 73.5794 11.9128 73.5167C11.6388 73.4472 11.3728 73.3456 11.1198 73.2138C10.6998 73.0315 10.3222 72.7534 10.0135 72.3992C9.71899 72.0062 9.54816 71.5241 9.52531 71.0216C9.50246 70.519 9.62875 70.0216 9.8862 69.6C10.2007 69.2379 10.5977 68.9687 11.0386 68.8186C11.4795 68.6685 11.9493 68.6427 12.4023 68.7436C12.9975 68.9217 13.5293 69.2854 13.9296 69.788C14.0988 69.9878 14.223 70.2263 14.2926 70.4852C14.3622 70.744 14.3753 71.0165 14.3309 71.2816C14.3045 71.8284 14.1082 72.3502 13.7729 72.7647C13.595 72.9537 13.3859 73.106 13.1561 73.2138C12.9037 73.2902 12.6721 73.4299 12.4806 73.6212C12.4456 73.6759 12.421 73.7375 12.4085 73.8025C12.3959 73.8674 12.3955 73.9343 12.4073 73.9994C12.4192 74.0645 12.443 74.1264 12.4774 74.1816C12.5118 74.2368 12.5562 74.2842 12.6079 74.321C12.9433 74.4133 13.2967 74.3981 13.6241 74.2774C13.9514 74.1566 14.2381 73.9357 14.4484 73.6421C14.8328 73.1472 15.0652 72.5383 15.1142 71.8978C15.2278 71.0837 15.0721 70.2527 14.6736 69.5478C14.2367 68.8607 13.6107 68.3352 12.882 68.0438C12.3402 67.8239 11.7525 67.765 11.1818 67.8736C10.6111 67.9821 10.0787 68.2539 9.64144 68.66C9.22138 69.1705 8.96077 69.8078 8.89585 70.4835C8.83094 71.1592 8.96494 71.8398 9.27921 72.4305C9.58237 73.0589 10.0757 73.5595 10.6792 73.851C11.1785 74.1225 12.2065 74.6239 12.696 74.1121C12.7939 73.9972 12.8428 73.6943 12.696 73.6525H12.6862Z" fill="#D4D4D4"/>
<path d="M5.05045 76.9013C5.30991 76.726 5.5314 76.4937 5.70021 76.22C5.86901 75.9463 5.98125 75.6373 6.02947 75.3137C6.12502 74.6355 5.98204 73.9436 5.62807 73.371C5.30912 72.8819 4.88689 72.4796 4.39542 72.1966C3.90394 71.9136 3.357 71.7578 2.7987 71.7417C2.26064 71.7516 1.74238 71.9598 1.33191 72.3311C0.921448 72.7023 0.644091 73.2137 0.546945 73.7784C0.484589 74.3371 0.555044 74.9035 0.751799 75.4256C0.948554 75.9476 1.26529 76.4084 1.67283 76.7655C1.99301 77.0821 2.37532 77.3186 2.79193 77.4577C3.20854 77.5968 3.64898 77.6351 4.08121 77.5697C4.28512 77.5373 4.47938 77.4555 4.64908 77.3306C4.81877 77.2056 4.95941 77.0409 5.06023 76.8491C5.099 76.7664 5.1192 76.6752 5.1192 76.5828C5.1192 76.4903 5.099 76.3991 5.06023 76.3164C5.02529 76.2436 4.96583 76.1877 4.8938 76.1598C4.80569 76.1598 4.79591 76.2224 4.71758 76.2224H4.61968L4.47283 76.2746C4.36215 76.324 4.24744 76.3625 4.13017 76.3895C3.75947 76.4781 3.37499 76.4781 3.0043 76.3895C2.83757 76.3539 2.67617 76.2941 2.52457 76.212L2.30919 76.0971C2.40709 76.1493 2.30918 76.0971 2.26023 76.0971L2.1036 75.9717L1.98611 75.8673C1.86862 75.7628 2.05464 75.9613 1.98611 75.8673C1.91758 75.7733 1.85884 75.7106 1.79031 75.6271C1.72177 75.5435 1.84905 75.742 1.79031 75.6271C1.76793 75.5762 1.74174 75.5273 1.71198 75.4808C1.71198 75.4286 1.66304 75.3868 1.64346 75.3346C1.7022 75.4704 1.64346 75.2511 1.64346 75.2197C1.64346 75.1884 1.64346 75.1153 1.64346 75.0526C1.64346 74.99 1.64346 75.1571 1.64346 74.9795V74.7915V74.6766C1.64027 74.4285 1.69762 74.1837 1.80989 73.9664C1.92399 73.7324 2.08634 73.529 2.28475 73.3717C2.48315 73.2143 2.71244 73.1069 2.95534 73.0577C3.47675 72.99 4.00436 73.1114 4.45324 73.4024C4.68703 73.5169 4.89526 73.6833 5.06407 73.8904C5.23288 74.0975 5.3584 74.3406 5.43227 74.6035C5.57912 75.2719 5.11898 75.8255 4.85465 76.4104C4.75674 76.6193 4.91338 77.2146 5.21688 77.0266L5.05045 76.9013Z" fill="#D4D4D4"/>
<path d="M11.6587 91.5655C11.7918 91.3429 11.8767 91.0915 11.9071 90.8295C11.9376 90.5675 11.913 90.3015 11.835 90.051C11.7284 89.6378 11.5526 89.2485 11.3161 88.9021C10.9437 88.3737 10.4473 87.9594 9.87692 87.701C9.25323 87.3933 8.55523 87.3004 7.8798 87.4352C7.20437 87.5699 6.58502 87.9257 6.1077 88.453C5.76121 88.9606 5.56569 89.5676 5.54649 90.1952C5.52728 90.8229 5.68529 91.4422 6.00001 91.9728C6.30476 92.5933 6.76591 93.1105 7.33148 93.4664C7.8802 93.7645 8.49139 93.9075 9.10669 93.8819C9.72199 93.8563 10.3209 93.6629 10.8462 93.3202C11.125 93.1474 11.3655 92.9122 11.5511 92.6308C11.6518 92.4751 11.734 92.3067 11.7958 92.1295C11.8839 91.8625 11.8839 91.5714 11.7958 91.3044C11.7371 91.085 11.4629 90.7926 11.2476 90.9806C11.0974 91.1634 10.9661 91.363 10.8559 91.5759C10.7185 91.7628 10.557 91.928 10.3762 92.0668C10.0324 92.352 9.62957 92.5454 9.20141 92.6308C8.78936 92.7486 8.35424 92.7373 7.94801 92.5984C7.54178 92.4595 7.1816 92.1988 6.91049 91.8475C6.91049 91.8475 6.8126 91.6908 6.78323 91.6281L6.72449 91.5132C6.72449 91.5132 6.63638 91.3148 6.67554 91.4192C6.59259 91.2263 6.53335 91.0227 6.4993 90.8135C6.42957 90.4123 6.49548 89.9978 6.68532 89.6437C6.96734 89.212 7.36501 88.8814 7.82622 88.695C8.28742 88.5086 8.79064 88.4752 9.26994 88.5992C9.76452 88.6995 10.2187 88.9582 10.572 89.3408C11.0268 89.8903 11.2867 90.5925 11.3063 91.3252C11.3063 91.4924 11.4825 91.7639 11.6294 91.5342L11.6587 91.5655Z" fill="#D4D4D4"/>
<path d="M2.33857 129.98C3.28882 131.108 4.31992 132.156 5.4225 133.114C6.519 134.158 7.55676 135.203 8.60431 136.247C10.7132 138.507 13.0066 140.562 15.4575 142.388C20.3526 145.908 25.5414 148.948 30.7008 151.966C35.8603 154.985 41.0784 157.993 46.0421 161.366C59.1773 170.317 69.9591 182.689 77.3708 197.316C82.2412 206.999 86.3445 217.099 89.6379 227.511C91.4491 233.047 93.0645 238.666 94.3861 244.358C95.742 249.897 96.6429 255.552 97.0785 261.258C97.1666 262.501 97.2155 263.744 97.2253 264.997C97.2253 265.718 98.4393 266.24 98.4295 265.31C98.3123 259.721 97.6562 254.16 96.4715 248.714C95.2697 242.826 93.7763 237.011 91.9973 231.292C88.8049 220.701 84.8409 210.392 80.1414 200.46C75.6347 190.931 69.7985 182.187 62.8323 174.526C58.9515 170.295 54.7177 166.45 50.1833 163.037C45.297 159.482 40.2275 156.221 34.9987 153.272C29.8001 150.243 24.5036 147.37 19.3931 144.174C16.829 142.639 14.3806 140.893 12.07 138.952C9.74976 136.947 7.7134 134.576 5.43228 132.529C4.35179 131.619 3.34626 130.613 2.42669 129.521C2.27984 129.343 2.14277 129.761 2.25046 129.907L2.33857 129.98Z" fill="#D4D4D4"/>
<path d="M30.6123 151.527C29.9164 150.422 29.1681 149.355 28.3704 148.331C27.7438 147.381 27.1564 146.389 26.4711 145.48C25.0144 143.562 23.3738 141.812 21.576 140.258C20.6732 139.521 19.6862 138.911 18.6389 138.44C17.4934 137.887 16.3774 137.302 15.2711 136.686C13.1074 135.474 10.8067 134.597 8.59413 133.5C7.45884 132.935 6.35702 132.297 5.29483 131.589C4.80532 131.265 4.31581 130.91 3.86546 130.544C3.22909 130.022 2.67105 129.364 2.01511 128.894C1.76056 128.716 1.71161 129.186 1.79972 129.343C2.41945 130.356 3.20944 131.238 4.1298 131.944C5.02272 132.681 5.97625 133.332 6.97875 133.886C9.07386 135.067 11.306 135.975 13.4697 136.968C14.5955 137.5 15.6627 138.148 16.7787 138.701C17.8948 139.255 19.0207 139.694 20.0878 140.299C21.0072 140.873 21.8501 141.575 22.5941 142.388C23.4557 143.234 24.3074 144.091 25.1102 144.999C26.0497 146.138 26.9258 147.334 27.734 148.582C28.1256 149.156 28.5368 149.71 28.9676 150.253C29.3649 150.872 29.8825 151.392 30.485 151.778C30.6221 151.841 30.6613 151.6 30.6123 151.517V151.527Z" fill="#D4D4D4"/>
<path d="M27.8321 121.647C28.4962 123.318 29.376 124.883 30.4461 126.295C31.778 128.189 33.22 129.993 34.7636 131.694C37.8573 135.235 40.8335 138.891 44.0251 142.327C49.7034 148.447 55.6559 154.296 60.8545 160.897C62.3426 162.788 63.7916 164.731 65.0937 166.746C65.779 167.791 66.4545 168.835 67.0517 169.88C67.7046 171.072 68.4272 172.22 69.2153 173.316C69.4895 173.671 69.8713 173.316 69.7832 172.929C69.4594 171.84 68.9841 170.808 68.3734 169.869C67.8251 168.887 67.2573 167.927 66.6503 166.987C65.4755 165.159 64.2223 163.394 62.9202 161.681C60.3552 158.307 57.5944 155.111 54.7454 152.009C51.8965 148.907 49.1748 146.108 46.3846 143.173C43.3007 139.925 40.3636 136.53 37.3188 133.251C35.4097 131.162 33.4713 129.177 31.6993 126.984C30.2993 125.25 29.1734 123.339 27.9104 121.501C27.8321 121.396 27.7538 121.595 27.7832 121.657L27.8321 121.647Z" fill="#D4D4D4"/>
<path d="M27.9397 122.104C28.0647 122.874 28.248 123.632 28.4879 124.371C28.6837 125.092 28.8697 125.823 29.0655 126.543C29.4474 127.912 29.8096 129.269 30.2208 130.627C30.9009 133.143 31.8884 135.552 33.1579 137.792C34.5268 140.074 36.3398 142.016 38.4739 143.484C40.3745 144.746 42.4088 145.763 44.5341 146.513C46.4646 147.043 48.3507 147.741 50.1732 148.602C50.5061 148.79 50.839 148.748 50.7704 148.247C50.7019 147.746 50.0655 147.453 49.6739 147.255C48.6592 146.774 47.6119 146.376 46.5411 146.064C42.1942 144.644 37.7886 142.722 34.8613 138.837C33.2047 136.481 31.9337 133.843 31.1019 131.034C30.6222 129.572 30.1914 128.1 29.7607 126.627C29.5159 125.791 29.2516 124.966 28.9872 124.152C28.7827 123.368 28.4902 122.614 28.1159 121.906C28.018 121.749 27.9201 122.052 27.9299 122.125L27.9397 122.104Z" fill="#D4D4D4"/>
<path d="M27.9398 121.771C28.8503 123.777 30.8769 125.114 32.5999 126.179C34.6363 127.411 36.7804 128.456 38.7384 129.835C40.7057 131.233 42.4452 132.965 43.888 134.963C45.3054 137.113 46.4879 139.43 47.4125 141.867C47.9608 143.141 48.3915 144.488 48.8713 145.783C49.2925 147.121 50.0271 148.322 51.0055 149.272C51.3188 149.533 51.3384 148.833 51.2601 148.677C50.6872 147.574 50.1899 146.429 49.772 145.251C49.3901 144.102 49.0181 142.942 48.5482 141.825C47.6086 139.327 46.417 136.945 44.9943 134.723C43.5975 132.731 41.9313 130.971 40.0503 129.5C38.0524 128.055 35.947 126.787 33.7552 125.709C31.6694 124.681 29.7933 123.226 28.2335 121.427C28.0083 121.155 27.8419 121.604 27.9398 121.803V121.771Z" fill="#D4D4D4"/>
<path d="M55.4799 65.7786C55.762 67.8933 55.9222 70.0245 55.9597 72.1602C55.9597 75.1787 55.7247 78.1763 55.4995 81.1843C55.1373 85.9783 54.9023 90.7724 54.4324 95.5664C53.5121 105.081 52.6114 114.565 53.4534 124.132C53.7193 127.204 54.1574 130.256 54.7652 133.271C55.1112 134.949 55.5158 136.617 55.9792 138.274C56.4072 140.066 57.0315 141.798 57.8394 143.434C58.0254 143.768 58.5443 143.758 58.4953 143.298C58.2562 141.745 57.8793 140.221 57.3694 138.744C56.968 137.261 56.6156 135.757 56.2925 134.263C55.7084 131.506 55.2639 128.716 54.961 125.908C54.4488 120.802 54.3276 115.66 54.5988 110.533C54.8142 105.969 55.2548 101.415 55.6855 96.8615C56.1163 92.3077 56.3611 87.6077 56.41 82.9494C56.41 79.4818 56.6352 76.0247 56.5177 72.5571C56.5177 71.3977 56.3806 70.2488 56.2436 69.0999C56.1528 67.9472 55.9427 66.8088 55.617 65.7055C55.617 65.5697 55.4701 65.7055 55.4799 65.8204V65.7786Z" fill="#D4D4D4"/>
<path d="M55.6069 66.2473C55.8693 67.519 56.2463 68.7607 56.7327 69.9551C57.1243 71.1353 57.5257 72.3156 57.888 73.5062C58.6238 75.8868 59.1547 78.334 59.474 80.8174C59.7746 83.2811 59.7118 85.7797 59.288 88.2226C59.082 89.3964 58.7536 90.542 58.309 91.638C57.9208 92.5113 57.4894 93.3619 57.0167 94.1864C56.5076 95.1056 56.0376 96.0351 55.4306 96.9334C54.7576 97.8512 54.2949 98.9242 54.0796 100.067C54.0796 100.485 54.6181 101.038 54.8041 100.464C55.2209 99.4103 55.7498 98.4115 56.3803 97.4869C56.8404 96.7349 57.2712 95.9516 57.702 95.1787C58.1327 94.4058 58.681 93.4449 59.0628 92.5362C59.495 91.5329 59.8233 90.4822 60.0418 89.4028C61.0894 84.4312 60.3943 79.3865 58.9747 74.582C58.5635 73.2034 58.1034 71.8351 57.6236 70.4773C57.3397 69.694 57.046 68.9106 56.7425 68.1378C56.4965 67.3821 56.1679 66.6599 55.7635 65.9862C55.6558 65.8295 55.5677 66.122 55.5775 66.1951L55.6069 66.2473Z" fill="#D4D4D4"/>
<path d="M55.2252 65.9034C55.1469 70.8332 52.2881 75.0423 51.1525 79.7215C50.5993 82.111 50.3815 84.5749 50.5063 87.0326C50.7068 89.522 51.1867 91.9766 51.9357 94.3438C52.2881 95.6181 52.6504 96.9028 53.042 98.1665C53.4336 99.4303 53.6196 100.913 53.9721 102.282C54.021 102.491 54.3245 102.658 54.4126 102.386C54.6807 101.283 54.6535 100.121 54.3343 99.0335C54.0895 97.8741 53.7175 96.7461 53.3553 95.6076C52.5764 93.207 52.0221 90.73 51.7007 88.2129C51.4683 85.6794 51.6204 83.1225 52.1511 80.6406C52.7654 78.2444 53.5241 75.8929 54.4224 73.601C55.2644 71.2196 56.1944 68.3787 55.5483 65.8302C55.47 65.4856 55.186 65.6109 55.1762 65.9242L55.2252 65.9034Z" fill="#D4D4D4"/>
<path d="M3.98321 132.644C4.40077 133.728 4.89836 134.776 5.47131 135.777C6.07831 136.947 6.70489 138.106 7.36083 139.245C8.62102 141.494 10.0624 143.622 11.6685 145.605C14.6334 149.156 18.6038 151.576 22.9762 152.499C24.3285 152.739 25.6977 152.854 27.0685 152.843H29.3203C30.1022 152.911 30.888 152.911 31.6699 152.843C32.1594 152.77 31.9636 151.914 31.572 151.799C30.278 151.575 28.9645 151.504 27.6559 151.59C26.4615 151.59 25.2671 151.59 24.0727 151.433C21.9823 151.185 19.9501 150.541 18.0713 149.532C16.1642 148.534 14.4243 147.207 12.9217 145.605C11.3719 143.874 9.98481 141.985 8.78041 139.965C8.04615 138.806 7.35104 137.615 6.68531 136.414C5.97233 134.944 5.17792 133.522 4.30629 132.153C4.06154 131.798 3.87551 132.393 3.94404 132.612L3.98321 132.644Z" fill="#D4D4D4"/>
</svg>
