<svg width="26" height="29" viewBox="0 0 26 29" fill="none" xmlns="http://www.w3.org/2000/svg">
<path d="M11.1169 3.2832V14.2578L12.2526 13.5752L15.2145 11.7949L15.2155 11.7959C15.2309 11.7867 15.2483 11.7813 15.2663 11.7812C15.2843 11.7812 15.3026 11.7857 15.318 11.7949L18.2809 13.5752L19.4167 14.2578V3.2832H19.6169V14.4336C19.6168 14.4511 19.6119 14.4682 19.6032 14.4834C19.5943 14.4987 19.5814 14.5118 19.5661 14.5205C19.5507 14.5292 19.533 14.5334 19.5153 14.5332L19.4655 14.5195L15.653 12.2314L15.2663 12L14.8805 12.2314L11.068 14.5205C11.0529 14.5295 11.0358 14.5349 11.0182 14.5352C11.0006 14.5354 10.9828 14.5311 10.9674 14.5225C10.9521 14.5137 10.9392 14.5006 10.9303 14.4854C10.9214 14.47 10.9166 14.4523 10.9167 14.4346V3.2832H11.1169Z" fill="#FBBD08" stroke="#FBBD08" stroke-width="1.5"/>
<path d="M5.3504 1.58301H22.3504C23.053 1.58311 23.7266 1.86256 24.2234 2.35938C24.7204 2.85635 24.9998 3.53057 24.9998 4.2334V24.6328C24.9998 25.3356 24.7204 26.0099 24.2234 26.5068C23.7266 27.0036 23.053 27.2831 22.3504 27.2832H5.3504C4.64763 27.2832 3.97334 27.0037 3.47638 26.5068C2.97941 26.0099 2.70001 25.3356 2.70001 24.6328V23.6826H2.90021V24.6328C2.90021 25.2826 3.15852 25.9058 3.61798 26.3652C4.07744 26.8246 4.70067 27.083 5.3504 27.083H22.3504C23 27.0829 23.6235 26.8246 24.0828 26.3652C24.5421 25.9058 24.7996 25.2825 24.7996 24.6328V4.2334C24.7996 3.5838 24.542 2.9604 24.0828 2.50098C23.6235 2.0416 23 1.78331 22.3504 1.7832H5.3504C4.70062 1.7832 4.07745 2.04151 3.61798 2.50098C3.15852 2.96044 2.90021 3.58362 2.90021 4.2334V5.18262H2.70001V4.2334C2.70001 3.53057 2.97941 2.85635 3.47638 2.35938C3.97335 1.8624 4.64758 1.58301 5.3504 1.58301Z" fill="#FBBD08" stroke="#FBBD08" stroke-width="1.5"/>
<path d="M2.7998 18.583C2.82633 18.583 2.85234 18.5936 2.87109 18.6123C2.88962 18.631 2.90034 18.6563 2.90039 18.6826V20.2832H4.5C4.52652 20.2832 4.55156 20.2937 4.57031 20.3125C4.58907 20.3313 4.59961 20.3563 4.59961 20.3828C4.59961 20.4093 4.58907 20.4344 4.57031 20.4531C4.55156 20.4719 4.52652 20.4824 4.5 20.4824H1.09961C1.07323 20.4823 1.04796 20.4718 1.0293 20.4531C1.01067 20.4344 1 20.4092 1 20.3828C1 20.3564 1.01067 20.3312 1.0293 20.3125C1.04796 20.2938 1.07323 20.2833 1.09961 20.2832H2.7002V18.6826C2.70025 18.6562 2.71079 18.631 2.72949 18.6123C2.7482 18.5936 2.77335 18.5831 2.7998 18.583ZM2.7998 13.4824C2.82633 13.4824 2.85234 13.493 2.87109 13.5117C2.88985 13.5305 2.90039 13.5565 2.90039 13.583V15.1826H4.5C4.52638 15.1826 4.55159 15.1933 4.57031 15.2119C4.58907 15.2307 4.59961 15.2567 4.59961 15.2832C4.59951 15.3096 4.58897 15.3349 4.57031 15.3535C4.55158 15.3721 4.52643 15.3828 4.5 15.3828H1.09961C1.07323 15.3827 1.04796 15.3722 1.0293 15.3535C1.01064 15.3349 1.0001 15.3096 1 15.2832C1 15.2567 1.01054 15.2307 1.0293 15.2119C1.04795 15.1933 1.07327 15.1827 1.09961 15.1826H2.7002V13.583C2.7002 13.5565 2.71074 13.5305 2.72949 13.5117C2.74817 13.4932 2.77349 13.4825 2.7998 13.4824ZM2.7998 8.38281C2.82633 8.38281 2.85234 8.39336 2.87109 8.41211C2.88963 8.43075 2.90029 8.45613 2.90039 8.48242V10.083H4.5C4.52648 10.083 4.55157 10.0936 4.57031 10.1123C4.58902 10.131 4.59956 10.1562 4.59961 10.1826C4.59961 10.2091 4.58907 10.2352 4.57031 10.2539C4.5516 10.2724 4.52634 10.2832 4.5 10.2832H1.09961C1.07332 10.2831 1.04794 10.2724 1.0293 10.2539C1.01054 10.2352 1 10.2091 1 10.1826C1.00005 10.1562 1.01065 10.131 1.0293 10.1123C1.04796 10.0936 1.07323 10.0831 1.09961 10.083H2.7002V8.48242C2.7003 8.45604 2.71083 8.43077 2.72949 8.41211C2.74819 8.39346 2.7734 8.38286 2.7998 8.38281Z" fill="#FBBD08" stroke="#FBBD08" stroke-width="1.5"/>
</svg>
