<svg width="26" height="29" viewBox="0 0 26 29" fill="none" xmlns="http://www.w3.org/2000/svg">
<path d="M11.1169 3.28369V14.2583L12.2526 13.5757L15.2145 11.7954L15.2155 11.7964C15.2309 11.7872 15.2483 11.7818 15.2663 11.7817C15.2843 11.7817 15.3026 11.7862 15.3181 11.7954L18.2809 13.5757L19.4167 14.2583V3.28369H19.6169V14.4341C19.6168 14.4516 19.612 14.4687 19.6032 14.4839C19.5943 14.4992 19.5815 14.5123 19.5661 14.521C19.5507 14.5297 19.533 14.5339 19.5153 14.5337L19.4655 14.52L15.653 12.2319L15.2663 12.0005L14.8806 12.2319L11.0681 14.521C11.053 14.53 11.0358 14.5354 11.0182 14.5356C11.0007 14.5358 10.9828 14.5316 10.9675 14.5229C10.9521 14.5142 10.9392 14.5011 10.9304 14.4858C10.9215 14.4705 10.9166 14.4528 10.9167 14.4351V3.28369H11.1169Z" fill="#58DC9A" stroke="#58DC9A" stroke-width="1.5"/>
<path d="M5.3504 1.5835H22.3504C23.053 1.5836 23.7266 1.86304 24.2234 2.35986C24.7204 2.85683 24.9998 3.53106 24.9998 4.23389V24.6333C24.9998 25.3361 24.7204 26.0104 24.2234 26.5073C23.7266 27.0041 23.053 27.2836 22.3504 27.2837H5.3504C4.64763 27.2837 3.97334 27.0042 3.47638 26.5073C2.97941 26.0104 2.70001 25.3361 2.70001 24.6333V23.6831H2.90021V24.6333C2.90021 25.2831 3.15852 25.9063 3.61798 26.3657C4.07744 26.8251 4.70067 27.0835 5.3504 27.0835H22.3504C23 27.0834 23.6235 26.8251 24.0828 26.3657C24.5421 25.9063 24.7996 25.2829 24.7996 24.6333V4.23389C24.7996 3.58429 24.542 2.96089 24.0828 2.50146C23.6235 2.04209 23 1.78379 22.3504 1.78369H5.3504C4.70062 1.78369 4.07745 2.042 3.61798 2.50146C3.15852 2.96093 2.90021 3.58411 2.90021 4.23389V5.18311H2.70001V4.23389C2.70001 3.53106 2.97941 2.85683 3.47638 2.35986C3.97335 1.86289 4.64758 1.5835 5.3504 1.5835Z" fill="#58DC9A" stroke="#58DC9A" stroke-width="1.5"/>
<path d="M2.7998 18.5835C2.82633 18.5835 2.85234 18.594 2.87109 18.6128C2.88962 18.6315 2.90034 18.6568 2.90039 18.6831V20.2837H4.5C4.52652 20.2837 4.55156 20.2942 4.57031 20.313C4.58907 20.3317 4.59961 20.3568 4.59961 20.3833C4.59961 20.4098 4.58907 20.4349 4.57031 20.4536C4.55156 20.4724 4.52652 20.4829 4.5 20.4829H1.09961C1.07323 20.4828 1.04796 20.4723 1.0293 20.4536C1.01067 20.4349 1 20.4097 1 20.3833C1 20.3569 1.01067 20.3317 1.0293 20.313C1.04796 20.2943 1.07323 20.2838 1.09961 20.2837H2.7002V18.6831C2.70025 18.6567 2.71079 18.6315 2.72949 18.6128C2.7482 18.5941 2.77335 18.5835 2.7998 18.5835ZM2.7998 13.4829C2.82633 13.4829 2.85234 13.4935 2.87109 13.5122C2.88985 13.531 2.90039 13.557 2.90039 13.5835V15.1831H4.5C4.52638 15.1831 4.55159 15.1938 4.57031 15.2124C4.58907 15.2312 4.59961 15.2572 4.59961 15.2837C4.59951 15.3101 4.58897 15.3353 4.57031 15.354C4.55158 15.3726 4.52643 15.3833 4.5 15.3833H1.09961C1.07323 15.3832 1.04796 15.3727 1.0293 15.354C1.01064 15.3353 1.0001 15.3101 1 15.2837C1 15.2572 1.01054 15.2312 1.0293 15.2124C1.04795 15.1938 1.07327 15.1832 1.09961 15.1831H2.7002V13.5835C2.7002 13.557 2.71074 13.531 2.72949 13.5122C2.74817 13.4937 2.77349 13.483 2.7998 13.4829ZM2.7998 8.3833C2.82633 8.3833 2.85234 8.39384 2.87109 8.4126C2.88963 8.43124 2.90029 8.45662 2.90039 8.48291V10.0835H4.5C4.52648 10.0835 4.55157 10.0941 4.57031 10.1128C4.58902 10.1315 4.59956 10.1567 4.59961 10.1831C4.59961 10.2096 4.58907 10.2356 4.57031 10.2544C4.5516 10.2729 4.52634 10.2837 4.5 10.2837H1.09961C1.07332 10.2836 1.04794 10.2729 1.0293 10.2544C1.01054 10.2356 1 10.2096 1 10.1831C1.00005 10.1567 1.01065 10.1315 1.0293 10.1128C1.04796 10.0941 1.07323 10.0836 1.09961 10.0835H2.7002V8.48291C2.7003 8.45653 2.71083 8.43126 2.72949 8.4126C2.74819 8.39395 2.7734 8.38335 2.7998 8.3833Z" fill="#58DC9A" stroke="#58DC9A" stroke-width="1.5"/>
</svg>
