<svg width="26" height="26" viewBox="0 0 26 26" fill="none" xmlns="http://www.w3.org/2000/svg">
<path d="M13.084 0.411999C6.131 0.411999 0.496002 6.048 0.496002 13C0.496002 19.952 6.131 25.588 13.084 25.588C20.036 25.588 25.672 19.952 25.672 13C25.672 6.048 20.036 0.411999 13.084 0.411999ZM6.179 22.24C6.949 21.957 7.794 21.671 8.547 21.418C11.115 20.555 11.511 20.422 11.511 19.556V17.53L10.634 17.384C10.571 17.373 9.094 17.129 8.102 17.129C7.59 17.129 7.299 17.116 7.018 16.932C7.74 15.351 8.487 12.878 8.77 10.922L8.824 10.941L8.902 9.555C9.025 7.334 10.862 5.594 13.085 5.594C15.307 5.594 17.144 7.334 17.268 9.555L17.359 10.936L17.399 10.922C17.682 12.878 18.429 15.351 19.151 16.932C18.871 17.116 18.579 17.129 18.068 17.129C17.061 17.129 15.634 17.447 15.475 17.483L14.658 17.668V19.555C14.658 20.412 15.068 20.557 17.735 21.499C18.427 21.744 19.2 22.018 19.917 22.289C18.002 23.7 15.639 24.537 13.084 24.537C10.497 24.537 8.106 23.682 6.179 22.238V22.24ZM20.849 21.528C18.709 20.681 15.706 19.751 15.706 19.557C15.706 19.317 15.706 18.507 15.706 18.507C15.706 18.507 17.148 18.179 18.066 18.179C18.984 18.179 19.64 18.122 20.426 17.138C19.442 15.401 18.328 11.491 18.328 9.492L18.313 9.497C18.16 6.737 15.881 4.545 13.083 4.545C10.285 4.545 8.006 6.737 7.852 9.497L7.838 9.492C7.838 11.492 6.723 15.401 5.74 17.138C6.527 18.121 7.182 18.179 8.1 18.179C9.018 18.179 10.46 18.419 10.46 18.419C10.46 18.419 10.46 19.316 10.46 19.556C10.46 19.753 7.389 20.637 5.254 21.467C2.974 19.357 1.543 16.343 1.543 12.999C1.543 6.636 6.719 1.46 13.082 1.46C19.445 1.46 24.621 6.637 24.621 12.999C24.621 16.374 23.165 19.415 20.847 21.527L20.849 21.528Z" fill="#484C52"/>
</svg>
