<svg width="19" height="18" viewBox="0 0 19 18" fill="none" xmlns="http://www.w3.org/2000/svg">
<path d="M17.4435 6.18976L12.3835 5.75348L10.4076 1.13104C10.0522 0.289653 8.83948 0.289653 8.48403 1.13104L6.50813 5.76387L1.45863 6.18976C0.538637 6.26247 0.162276 7.4051 0.862725 8.00757L4.69951 11.3108L3.54952 16.2137C3.34043 17.107 4.3127 17.8134 5.10724 17.3356L9.44584 14.7387L13.7844 17.3459C14.579 17.8238 15.5512 17.1174 15.3422 16.2241L14.1922 11.3108L18.0289 8.00757C18.7294 7.4051 18.3635 6.26247 17.4435 6.18976ZM9.44584 12.7962L5.51496 15.1542L6.56041 10.7083L3.08953 7.71672L7.66858 7.32199L9.44584 3.13583L11.2336 7.33238L15.8126 7.72711L12.3417 10.7187L13.3872 15.1646L9.44584 12.7962Z" fill="#21BA45"/>
</svg>
