<svg width="23" height="21" viewBox="0 0 23 21" fill="none" xmlns="http://www.w3.org/2000/svg">
<path d="M22.0417 9.58337C22.0417 9.07504 21.8398 8.58753 21.4803 8.22809C21.1209 7.86864 20.6334 7.66671 20.125 7.66671H14.0684L14.9884 3.28712C15.0075 3.19129 15.0171 3.08587 15.0171 2.98046C15.0171 2.58754 14.8542 2.22337 14.5955 1.96462L13.5796 0.958374L7.27379 7.26421C6.91921 7.61879 6.70837 8.09796 6.70837 8.62504V18.2084C6.70837 18.7167 6.91031 19.2042 7.26975 19.5637C7.6292 19.9231 8.11671 20.125 8.62504 20.125H17.25C18.0455 20.125 18.7259 19.6459 19.0134 18.9559L21.9075 12.1996C21.9938 11.9792 22.0417 11.7492 22.0417 11.5V9.58337ZM0.958374 20.125H4.79171V8.62504H0.958374V20.125Z" fill="#11401C"/>
</svg>
