<svg width="20" height="20" viewBox="0 0 20 20" fill="none" xmlns="http://www.w3.org/2000/svg">
<path d="M9.57369 0C4.28369 0 -6.10352e-05 4.29333 -6.10352e-05 9.58333C-6.10352e-05 14.8733 4.28369 19.1667 9.57369 19.1667C14.8733 19.1667 19.1666 14.8733 19.1666 9.58333C19.1666 4.29333 14.8733 0 9.57369 0ZM6.22911 5.75C7.02452 5.75 7.66661 6.39208 7.66661 7.1875C7.66661 7.98292 7.02452 8.625 6.22911 8.625C5.43369 8.625 4.79161 7.98292 4.79161 7.1875C4.79161 6.39208 5.43369 5.75 6.22911 5.75ZM9.58327 15.3333C7.39827 15.3333 5.53911 13.7425 4.79161 11.5H14.3749C13.6274 13.7425 11.7683 15.3333 9.58327 15.3333ZM12.9374 8.625C12.142 8.625 11.4999 7.98292 11.4999 7.1875C11.4999 6.39208 12.142 5.75 12.9374 5.75C13.7329 5.75 14.3749 6.39208 14.3749 7.1875C14.3749 7.98292 13.7329 8.625 12.9374 8.625Z" fill="#11401C"/>
</svg>
