<svg width="18" height="18" viewBox="0 0 18 18" fill="none" xmlns="http://www.w3.org/2000/svg">
<path d="M2.82349 5.76615L3.54965 5.95374L2.82349 5.76615ZM5.74 3.02111L5.88126 3.75769L5.74 3.02111ZM7.46054 10.2863L7.24894 9.5668L7.46054 10.2863ZM8.38281 11.2086L7.66328 10.997L8.38281 11.2086ZM12.903 15.8457L13.0906 16.5718L12.903 15.8457ZM15.6481 12.9292L16.3846 13.0704L15.6481 12.9292ZM17.1102 5.30494L16.3737 5.16368V5.16368L17.1102 5.30494ZM13.3642 1.55891L13.2229 0.82233L13.3642 1.55891ZM3.91595 13.6926C3.62305 13.9855 3.62305 14.4603 3.91595 14.7532C4.20884 15.0461 4.68371 15.0461 4.97661 14.7532L3.91595 13.6926ZM6.15512 13.5747C6.44801 13.2818 6.44801 12.8069 6.15512 12.5141C5.86223 12.2212 5.38735 12.2212 5.09446 12.5141L6.15512 13.5747ZM4.5052 16.6388C4.21231 16.9317 4.21231 17.4066 4.5052 17.6995C4.7981 17.9924 5.27297 17.9924 5.56586 17.6995L4.5052 16.6388ZM6.74438 16.521C7.03727 16.2281 7.03727 15.7532 6.74438 15.4603C6.45148 15.1674 5.97661 15.1674 5.68371 15.4603L6.74438 16.521ZM0.96967 13.1033C0.676777 13.3962 0.676777 13.8711 0.96967 14.164C1.26256 14.4569 1.73744 14.4569 2.03033 14.164L0.96967 13.1033ZM3.20884 12.9855C3.50173 12.6926 3.50173 12.2177 3.20884 11.9248C2.91595 11.6319 2.44107 11.6319 2.14818 11.9248L3.20884 12.9855ZM16.3737 5.16368L14.9115 12.7879L16.3846 13.0704L17.8468 5.4462L16.3737 5.16368ZM5.88126 3.75769L13.5055 2.29548L13.2229 0.82233L5.59873 2.28453L5.88126 3.75769ZM3.54965 5.95374C3.83892 4.83394 4.75002 3.97464 5.88126 3.75769L5.59873 2.28453C3.89354 2.61156 2.53041 3.90203 2.09732 5.57857L3.54965 5.95374ZM7.24894 9.5668C5.04999 10.2135 2.97137 8.1923 3.54965 5.95374L2.09732 5.57857C1.2327 8.92559 4.3365 11.9868 7.67214 11.0059L7.24894 9.5668ZM9.10235 11.4202C9.4357 10.2866 8.38251 9.23344 7.24894 9.5668L7.67214 11.0059C7.67582 11.0048 7.67614 11.0052 7.67381 11.0052C7.67165 11.0052 7.66921 11.0049 7.66704 11.0043C7.66317 11.0032 7.66329 11.0023 7.66508 11.0041C7.66687 11.0059 7.66593 11.006 7.66487 11.0021C7.66427 10.9999 7.66395 10.9975 7.66396 10.9953C7.66398 10.993 7.66436 10.9933 7.66328 10.997L9.10235 11.4202ZM12.7154 15.1195C10.4769 15.6978 8.45569 13.6192 9.10235 11.4202L7.66328 10.997C6.68236 14.3327 9.74355 17.4365 13.0906 16.5718L12.7154 15.1195ZM14.9115 12.7879C14.6945 13.9191 13.8352 14.8303 12.7154 15.1195L13.0906 16.5718C14.7671 16.1388 16.0576 14.7756 16.3846 13.0704L14.9115 12.7879ZM17.8468 5.4462C18.3727 2.70393 15.9652 0.296407 13.2229 0.82233L13.5055 2.29548C15.2065 1.96925 16.6999 3.46265 16.3737 5.16368L17.8468 5.4462ZM4.97661 14.7532L6.15512 13.5747L5.09446 12.5141L3.91595 13.6926L4.97661 14.7532ZM5.56586 17.6995L6.74438 16.521L5.68371 15.4603L4.5052 16.6388L5.56586 17.6995ZM2.03033 14.164L3.20884 12.9855L2.14818 11.9248L0.96967 13.1033L2.03033 14.164Z" fill="#F2F4F5"/>
</svg>
