<svg width="14" height="20" viewBox="0 0 14 20" fill="none" xmlns="http://www.w3.org/2000/svg">
<path d="M6.50024 3.83325H7.00024C10.4073 3.83343 13.1663 6.59316 13.1663 10.0002C13.1662 10.9826 12.9291 11.9071 12.5188 12.7288L12.0227 12.2327C12.331 11.5503 12.5002 10.791 12.5002 10.0002C12.5002 6.96588 10.0346 4.50042 7.00024 4.50024H6.50024V6.29321L4.37329 4.16626L6.50024 2.03931V3.83325ZM7.50024 16.1663H7.00024C3.59316 16.1663 0.833428 13.4073 0.833252 10.0002C0.833252 9.01788 1.06949 8.09243 1.47974 7.27075L1.97681 7.76685C1.66838 8.44932 1.50024 9.20927 1.50024 10.0002C1.50042 13.0346 3.96588 15.5002 7.00024 15.5002H7.50024V13.7073L9.62622 15.8333L7.50024 17.9592V16.1663Z" fill="black" stroke="#717171"/>
</svg>
