<svg width="14" height="14" viewBox="0 0 14 14" fill="none" xmlns="http://www.w3.org/2000/svg">
<path d="M1.92308 2.38477C1.67826 2.38477 1.44347 2.48202 1.27036 2.65513C1.09725 2.82824 1 3.06302 1 3.30784V12.0771C1 12.3219 1.09725 12.5567 1.27036 12.7298C1.44347 12.9029 1.67826 13.0002 1.92308 13.0002H12.0769C12.3217 13.0002 12.5566 12.9029 12.7296 12.7298C12.9027 12.5567 13 12.3219 13 12.0771V3.30784C13 3.06302 12.9027 2.82824 12.7296 2.65513C12.5566 2.48202 12.3217 2.38477 12.0769 2.38477H10.2308" stroke="#11401C" stroke-linecap="round" stroke-linejoin="round"/>
<path d="M1 5.61523H13" stroke="#11401C" stroke-linecap="round" stroke-linejoin="round"/>
<path d="M3.76929 1V3.76923" stroke="#11401C" stroke-linecap="round" stroke-linejoin="round"/>
<path d="M10.2307 1V3.76923" stroke="#11401C" stroke-linecap="round" stroke-linejoin="round"/>
<path d="M3.76929 2.38477H8.38467" stroke="#11401C" stroke-linecap="round" stroke-linejoin="round"/>
</svg>
