<svg width="17" height="17" viewBox="0 0 17 17" fill="none" xmlns="http://www.w3.org/2000/svg">
<path d="M7.54894 0.927049C7.8483 0.00573802 9.1517 0.00574017 9.45106 0.927051L10.7451 4.90983C10.879 5.32185 11.263 5.60081 11.6962 5.60081H15.8839C16.8527 5.60081 17.2554 6.84043 16.4717 7.40983L13.0838 9.87132C12.7333 10.126 12.5866 10.5773 12.7205 10.9894L14.0146 14.9721C14.3139 15.8934 13.2595 16.6596 12.4757 16.0902L9.08778 13.6287C8.7373 13.374 8.2627 13.374 7.91221 13.6287L4.52426 16.0902C3.74054 16.6596 2.68607 15.8934 2.98542 14.9721L4.2795 10.9894C4.41338 10.5773 4.26672 10.126 3.91623 9.87132L0.528275 7.40983C-0.255439 6.84043 0.147338 5.60081 1.11606 5.60081H5.3038C5.73703 5.60081 6.12099 5.32185 6.25486 4.90983L7.54894 0.927049Z" fill="#FBBD08"/>
</svg>
