<svg width="20" height="20" viewBox="0 0 20 20" fill="none" xmlns="http://www.w3.org/2000/svg">
<path d="M2.25 4H4.25V7H14.25V4H16.25V9H18.25V4C18.25 2.9 17.35 2 16.25 2H12.07C11.65 0.84 10.55 0 9.25 0C7.95 0 6.85 0.84 6.43 2H2.25C1.15 2 0.25 2.9 0.25 4V18C0.25 19.1 1.15 20 2.25 20H8.25V18H2.25V4ZM9.25 2C9.8 2 10.25 2.45 10.25 3C10.25 3.55 9.8 4 9.25 4C8.7 4 8.25 3.55 8.25 3C8.25 2.45 8.7 2 9.25 2Z" fill="#2185D0"/>
<path d="M18.25 10.5L12.76 16L9.75 13L8.25 14.5L12.76 19L19.75 12L18.25 10.5Z" fill="#2185D0"/>
</svg>
